<svg width="97" height="86" viewBox="0 0 97 86" fill="none" xmlns="http://www.w3.org/2000/svg">
<g opacity="0.8" clip-path="url(#clip0_1_2249)">
<path d="M50.653 85.8179H2.98671C1.33739 85.8179 0 84.3007 0 82.4295V3.38838C0 1.51725 1.33739 0 2.98671 0H50.653C52.3023 0 53.6397 1.51725 53.6397 3.38838V82.4295C53.6391 84.3007 52.3023 85.8179 50.653 85.8179Z" fill="#86A7FF"/>
<path d="M36.2724 3.77594H17.3667V7.37665H36.2724V3.77594Z" fill="#D3DFFF"/>
<path d="M48.2889 12.865H5.35076V23.6685H48.2889V12.865Z" fill="#DADADA"/>
<path d="M46.41 14.3429H7.22967V22.1909H46.41V14.3429Z" fill="white"/>
<path d="M37.0901 33.042H34.1731C33.2972 33.042 32.5873 32.2367 32.5873 31.2431V30.4776C32.5873 29.4839 33.2972 28.6786 34.1731 28.6786H37.0901C37.9659 28.6786 38.6758 29.4839 38.6758 30.4776V31.2431C38.6758 32.2367 37.9659 33.042 37.0901 33.042Z" fill="#1F3C88"/>
<path d="M46.7032 33.042H43.7861C42.9103 33.042 42.2004 32.2367 42.2004 31.2431V30.4776C42.2004 29.4839 42.9103 28.6786 43.7861 28.6786H46.7032C47.579 28.6786 48.2889 29.4839 48.2889 30.4776V31.2431C48.2889 32.2367 47.579 33.042 46.7032 33.042Z" fill="#1F3C88"/>
<path d="M47.5324 44.0085H41.6728C41.2561 44.0085 40.9175 43.6251 40.9175 43.1516V39.1689C40.9175 38.6961 41.2555 38.312 41.6728 38.312H47.5324C47.9491 38.312 48.2877 38.6954 48.2877 39.1689V43.1516C48.2877 43.6251 47.9497 44.0085 47.5324 44.0085Z" fill="#1F3C88"/>
<path d="M35.7745 44.0085H29.9149C29.4982 44.0085 29.1596 43.6251 29.1596 43.1516V39.1689C29.1596 38.6961 29.4976 38.312 29.9149 38.312H35.7745C36.1912 38.312 36.5298 38.6954 36.5298 39.1689V43.1516C36.5298 43.6251 36.1918 44.0085 35.7745 44.0085Z" fill="#1F3C88"/>
<path d="M24.0172 44.0085H18.1577C17.741 44.0085 17.4024 43.6251 17.4024 43.1516V39.1689C17.4024 38.6961 17.7403 38.312 18.1577 38.312H24.0172C24.434 38.312 24.7725 38.6954 24.7725 39.1689V43.1516C24.7719 43.6251 24.434 44.0085 24.0172 44.0085Z" fill="#1F3C88"/>
<path d="M12.2594 44.0085H6.39981C5.98309 44.0085 5.6445 43.6251 5.6445 43.1516V39.1689C5.6445 38.6961 5.98248 38.312 6.39981 38.312H12.2594C12.6761 38.312 13.0147 38.6954 13.0147 39.1689V43.1516C13.0141 43.6251 12.6761 44.0085 12.2594 44.0085Z" fill="#1F3C88"/>
<path d="M47.5324 54.3103H41.6728C41.2561 54.3103 40.9175 53.9269 40.9175 53.4534V49.4706C40.9175 48.9979 41.2555 48.6137 41.6728 48.6137H47.5324C47.9491 48.6137 48.2877 48.9972 48.2877 49.4706V53.4534C48.2877 53.9269 47.9497 54.3103 47.5324 54.3103Z" fill="#1F3C88"/>
<path d="M35.7745 54.3103H29.915C29.4983 54.3103 29.1597 53.9269 29.1597 53.4534V49.4706C29.1597 48.9979 29.4976 48.6137 29.915 48.6137H35.7745C36.1913 48.6137 36.5298 48.9972 36.5298 49.4706V53.4534C36.5298 53.9269 36.1919 54.3103 35.7745 54.3103Z" fill="#D3DFFF"/>
<path d="M24.0173 54.3103H18.1577C17.741 54.3103 17.4024 53.9269 17.4024 53.4534V49.4706C17.4024 48.9979 17.7404 48.6137 18.1577 48.6137H24.0173C24.434 48.6137 24.7726 48.9972 24.7726 49.4706V53.4534C24.772 53.9269 24.434 54.3103 24.0173 54.3103Z" fill="#D3DFFF"/>
<path d="M12.2594 54.3103H6.39984C5.98312 54.3103 5.64453 53.9269 5.64453 53.4534V49.4706C5.64453 48.9979 5.98251 48.6137 6.39984 48.6137H12.2594C12.6761 48.6137 13.0147 48.9972 13.0147 49.4706V53.4534C13.0141 53.9269 12.6761 54.3103 12.2594 54.3103Z" fill="#D3DFFF"/>
<path d="M47.5324 64.6116H41.6728C41.2561 64.6116 40.9175 64.2282 40.9175 63.7547V59.7719C40.9175 59.2992 41.2555 58.915 41.6728 58.915H47.5324C47.9491 58.915 48.2877 59.2985 48.2877 59.7719V63.7547C48.2877 64.2282 47.9497 64.6116 47.5324 64.6116Z" fill="#1F3C88"/>
<path d="M35.7745 64.6116H29.9149C29.4982 64.6116 29.1596 64.2282 29.1596 63.7547V59.7719C29.1596 59.2992 29.4976 58.915 29.9149 58.915H35.7745C36.1912 58.915 36.5298 59.2985 36.5298 59.7719V63.7547C36.5298 64.2282 36.1918 64.6116 35.7745 64.6116Z" fill="#D3DFFF"/>
<path d="M24.0172 64.6116H18.1577C17.741 64.6116 17.4024 64.2282 17.4024 63.7547V59.7719C17.4024 59.2992 17.7403 58.915 18.1577 58.915H24.0172C24.434 58.915 24.7725 59.2985 24.7725 59.7719V63.7547C24.7719 64.2282 24.434 64.6116 24.0172 64.6116Z" fill="#D3DFFF"/>
<path d="M12.2594 64.6116H6.39981C5.98309 64.6116 5.6445 64.2282 5.6445 63.7547V59.7719C5.6445 59.2992 5.98248 58.915 6.39981 58.915H12.2594C12.6761 58.915 13.0147 59.2985 13.0147 59.7719V63.7547C13.0141 64.2282 12.6761 64.6116 12.2594 64.6116Z" fill="#D3DFFF"/>
<path d="M47.5324 75.2742H41.6728C41.2561 75.2742 40.9175 74.8908 40.9175 74.4174V70.4346C40.9175 69.9618 41.2555 69.5777 41.6728 69.5777H47.5324C47.9491 69.5777 48.2877 69.9611 48.2877 70.4346V74.4174C48.2877 74.8908 47.9497 75.2742 47.5324 75.2742Z" fill="#FBC343"/>
<path d="M35.7745 75.2742H29.9149C29.4982 75.2742 29.1596 74.8908 29.1596 74.4174V70.4346C29.1596 69.9618 29.4976 69.5777 29.9149 69.5777H35.7745C36.1912 69.5777 36.5298 69.9611 36.5298 70.4346V74.4174C36.5298 74.8908 36.1918 75.2742 35.7745 75.2742Z" fill="#D3DFFF"/>
<path d="M24.0172 75.2742H18.1577C17.741 75.2742 17.4024 74.8908 17.4024 74.4174V70.4346C17.4024 69.9618 17.7403 69.5777 18.1577 69.5777H24.0172C24.434 69.5777 24.7725 69.9611 24.7725 70.4346V74.4174C24.7719 74.8908 24.434 75.2742 24.0172 75.2742Z" fill="#D3DFFF"/>
<path d="M12.2594 75.2742H6.39981C5.98309 75.2742 5.6445 74.8908 5.6445 74.4174V70.4346C5.6445 69.9618 5.98248 69.5777 6.39981 69.5777H12.2594C12.6761 69.5777 13.0147 69.9611 13.0147 70.4346V74.4174C13.0141 74.8908 12.6761 75.2742 12.2594 75.2742Z" fill="#D3DFFF"/>
<path d="M37.8787 20.0458C37.992 20.0595 38.1234 20.0458 38.3015 20.0252C38.605 19.9785 38.8915 19.8362 39.1113 19.5998C39.3675 19.336 39.5523 18.9512 39.6238 18.431H39.6062C39.3912 18.7278 39.0817 18.9037 38.6952 18.9037C37.9981 18.9037 37.5517 18.3093 37.5517 17.559C37.5517 16.7275 38.0816 15.9977 38.8739 15.9977C39.6662 15.9977 40.1544 16.7275 40.1544 17.8489C40.1544 18.8158 39.8685 19.4913 39.4875 19.9104C39.1895 20.2416 38.7782 20.4443 38.3621 20.4986C38.1713 20.5323 38.0047 20.5392 37.8793 20.5323V20.0458H37.8787ZM38.0689 17.5191C38.0689 18.0661 38.3609 18.4516 38.8133 18.4516C39.1646 18.4516 39.439 18.2557 39.5759 17.9919C39.6062 17.9383 39.6231 17.8702 39.6231 17.7754C39.6231 17.0257 39.3791 16.4513 38.8309 16.4513C38.3851 16.4513 38.0689 16.8972 38.0689 17.5191Z" fill="#3A6BEA"/>
<path d="M40.9357 20.0458C41.049 20.0595 41.1804 20.0458 41.3585 20.0252C41.6619 19.9785 41.9484 19.8362 42.1683 19.5998C42.4245 19.336 42.6093 18.9512 42.6807 18.431H42.6632C42.4481 18.7278 42.1386 18.9037 41.7522 18.9037C41.055 18.9037 40.6086 18.3093 40.6086 17.559C40.6086 16.7275 41.1386 15.9977 41.9309 15.9977C42.7231 15.9977 43.2113 16.7275 43.2113 17.8489C43.2113 18.8158 42.9254 19.4913 42.5444 19.9104C42.2464 20.2416 41.8352 20.4443 41.4191 20.4986C41.2283 20.5323 41.0617 20.5392 40.9363 20.5323V20.0458H40.9357ZM41.1265 17.5191C41.1265 18.0661 41.4184 18.4516 41.8709 18.4516C42.2222 18.4516 42.4966 18.2557 42.6335 17.9919C42.6638 17.9383 42.6807 17.8702 42.6807 17.7754C42.6807 17.0257 42.4366 16.4513 41.8885 16.4513C41.4421 16.4513 41.1265 16.8972 41.1265 17.5191Z" fill="#3A6BEA"/>
<path d="M96.9988 61.6446H67.7338V85.9989H96.9988V61.6446Z" fill="#FBC343"/>
<path d="M97.0001 67.159H89.2029V67.5225H97.0001V67.159Z" fill="#E49B31"/>
<path d="M97.0001 80.489H83.4355V80.8525H97.0001V80.489Z" fill="#E49B31"/>
<path d="M82.3237 70.4708C82.3237 73.2738 81.9518 76.0911 81.1959 78.8288C80.0456 82.9881 76.6519 85.8165 72.8136 85.8165H67.7348V61.647H81.065C81.8973 64.4898 82.3237 67.4714 82.3237 70.4708Z" fill="#E49B31"/>
<path d="M55.5573 81.7533V84.3494C55.5573 85.262 54.9068 86 54.1024 86H29.9774C29.173 86 28.5225 85.262 28.5225 84.3494V81.7533C28.5225 80.8408 29.173 80.1028 29.9774 80.1028H54.103C54.9068 80.1028 55.5573 80.8408 55.5573 81.7533Z" fill="#FBC343"/>
<path d="M52.5676 75.8527V78.4522C52.5676 79.3648 51.914 80.1028 51.1127 80.1028H26.9876C26.1833 80.1028 25.5327 79.3648 25.5327 78.4522V75.8527C25.5327 74.9436 26.1833 74.2021 26.9876 74.2021H51.1133C51.914 74.2021 52.5676 74.9443 52.5676 75.8527Z" fill="#FBC343"/>
<path d="M55.5572 81.7527V84.3487C55.5572 85.2613 54.9066 85.9993 54.1023 85.9993H36.8022C35.6072 84.3268 34.8767 82.1711 34.4376 80.1028C33.9312 77.7321 33.7998 75.4823 33.7713 74.2021H51.1131C51.9145 74.2021 52.568 74.9436 52.568 75.8527V78.4522C52.568 79.3648 51.9145 80.1028 51.1131 80.1028H54.1029C54.9066 80.1021 55.5572 80.8401 55.5572 81.7527Z" fill="#E49B31"/>
<path d="M68.2371 33.3939L66.2885 40.1816L66.1444 40.6832L65.2407 43.8352L65.234 43.8572L62.3212 43.7844L51.1442 43.4972L50.3271 40.8433L50.1896 40.4001L48.0266 33.3945C54.7372 36.0291 60.2679 30.2673 68.2371 33.3939Z" fill="#FBC343"/>
<path d="M66.1444 40.6825L65.2407 43.8345L62.3218 43.7837L51.1448 43.4965L50.3277 40.8427C54.1697 40.7664 60.7803 40.6647 66.1444 40.6825Z" fill="#E49B31"/>
<path d="M78.6315 79.0123C78.0579 81.0916 76.9204 82.837 75.4498 84.0656C73.9755 85.2943 72.1687 86 70.2492 86H44.9351C41.2761 86 38.0653 83.2259 37.0907 79.2198C36.5298 76.9041 36.2288 74.5554 36.181 72.2176C36.1779 71.9923 36.1743 71.7669 36.1743 71.5415C36.1743 71.2749 36.1773 71.0089 36.184 70.743C36.3905 62.2703 40.0399 54.3797 45.8964 49.1181L51.9522 43.6786L65.8106 44.0421L73.4285 52.312C74.5 53.4754 75.4546 54.7755 76.2208 56.2165C77.1391 57.9433 77.8823 59.7656 78.4456 61.6485C80.1088 67.1966 80.2178 73.2752 78.6315 79.0123Z" fill="#FBC343"/>
<path d="M68.1044 46.6134H48.5003C47.6893 46.6134 47.026 45.861 47.026 44.9409V44.229C47.026 43.3089 47.6893 42.5564 48.5003 42.5564H68.1044C68.9155 42.5564 69.5787 43.3089 69.5787 44.229V44.9409C69.5787 45.861 68.9155 46.6134 68.1044 46.6134Z" fill="#ED7545"/>
<path opacity="0.4" d="M78.6318 79.0127C78.0582 81.0921 76.9207 82.8375 75.4501 84.0661C73.9758 85.2947 72.169 86.0005 70.2495 86.0005H44.9355C41.2764 86.0005 38.0656 83.2264 37.091 79.2203C36.5302 76.9045 36.2291 74.5558 36.1813 72.2181C40.3691 76.7479 45.3037 82.6705 56.8393 82.8519C71.1641 83.0773 77.3375 75.4608 78.4459 61.6496C80.1091 67.197 80.2182 73.2756 78.6318 79.0127Z" fill="#E49B31"/>
</g>
<defs>
<clipPath id="clip0_1_2249">
<rect width="97" height="86" fill="white"/>
</clipPath>
</defs>
</svg>
