<svg width="77" height="68" viewBox="0 0 77 68" fill="none" xmlns="http://www.w3.org/2000/svg">
<g opacity="0.8">
<path d="M27.9639 49.5745L27.8695 50.8085C27.8619 50.9072 27.8228 50.9956 27.7631 51.0685C27.7002 51.1446 27.6123 51.2021 27.5135 51.2298C27.4831 51.2391 27.4516 51.2453 27.4202 51.2483C27.3909 51.2514 27.3616 51.2524 27.3312 51.2494L6.57416 49.8252C6.30608 49.8067 6.10204 49.5909 6.10747 49.3402C6.10747 49.332 6.10855 49.3237 6.10855 49.3155L6.20298 48.0814C6.20406 48.0732 6.20406 48.065 6.20515 48.0568C6.23771 47.8071 6.47322 47.6221 6.7413 47.6406L27.4983 49.0648C27.5287 49.0668 27.558 49.071 27.5862 49.0781C27.6177 49.0853 27.6481 49.0956 27.6763 49.109C27.7696 49.1511 27.8478 49.2189 27.8988 49.3032C27.9466 49.3833 27.9715 49.4768 27.9639 49.5745Z" fill="#FFAE00"/>
<path d="M17.6404 50.5855L6.52007 49.822C6.28129 49.8056 6.10004 49.5908 6.10655 49.3401C6.10655 49.3319 6.10764 49.3237 6.10764 49.3155L6.20206 48.0814C6.20315 48.0731 6.20315 48.0649 6.20423 48.0567C6.23571 47.807 6.44735 47.62 6.68612 47.6364L16.4411 48.3064C16.5486 48.9609 16.8438 49.8755 17.6404 50.5855Z" fill="#E69B01"/>
<path d="M25.4774 48.9277L25.2414 48.9114L25.0735 51.0964L25.3094 51.1127L25.4774 48.9277Z" fill="#E69B01"/>
<path d="M24.6795 48.8723L24.4435 48.8561L24.2765 51.0411L24.5125 51.0573L24.6795 48.8723Z" fill="#E69B01"/>
<path d="M23.7218 48.8048L23.4858 48.7886L23.3187 50.9737L23.5547 50.9898L23.7218 48.8048Z" fill="#E69B01"/>
<path d="M22.2525 48.7061L22.0165 48.6898L21.8485 50.8749L22.0845 50.8911L22.2525 48.7061Z" fill="#E69B01"/>
<path d="M20.6963 48.5997L20.4603 48.5836L20.2939 50.7686L20.5299 50.7847L20.6963 48.5997Z" fill="#E69B01"/>
<path d="M18.3204 48.4382L18.0844 48.4221L17.9173 50.6071L18.1533 50.6233L18.3204 48.4382Z" fill="#E69B01"/>
<path d="M16.0926 48.284L15.8566 48.2679L15.6896 50.4529L15.9255 50.4691L16.0926 48.284Z" fill="#E69B01"/>
<path d="M14.1032 48.1455L13.8672 48.1294L13.7011 50.3144L13.9371 50.3305L14.1032 48.1455Z" fill="#E69B01"/>
<path d="M26.2357 48.9812L25.9997 48.965L25.8317 51.15L26.0677 51.1663L26.2357 48.9812Z" fill="#E69B01"/>
<path d="M26.738 49.0144L26.502 48.9983L26.3349 51.1833L26.5709 51.1995L26.738 49.0144Z" fill="#E69B01"/>
<path d="M27.2227 49.0476L26.9868 49.0314L26.8197 51.2165L27.0557 51.2327L27.2227 49.0476Z" fill="#E69B01"/>
<path d="M27.5866 49.0782L27.4206 51.2474C27.3913 51.2505 27.362 51.2515 27.3316 51.2484L27.184 51.2381L27.3511 49.0536L27.4987 49.0638C27.5291 49.0669 27.5584 49.0721 27.5866 49.0782Z" fill="#E69B01"/>
<path d="M27.8993 49.3041L27.7647 51.0684C27.7017 51.1445 27.6138 51.202 27.515 51.2297L27.6778 49.1089C27.7701 49.152 27.8472 49.2209 27.8993 49.3041Z" fill="#E69B01"/>
<path d="M25.9118 47.2369L25.8174 48.471C25.8098 48.5697 25.7707 48.658 25.711 48.731C25.648 48.807 25.5601 48.8646 25.4614 48.8923C25.431 48.9016 25.3995 48.9077 25.368 48.9108C25.3387 48.9139 25.3094 48.9149 25.279 48.9118L4.52202 47.4876C4.25394 47.4691 4.04881 47.2534 4.05533 47.0016C4.05533 46.9934 4.05641 46.9852 4.05641 46.977L4.15084 45.7429C4.15084 45.7346 4.15192 45.7264 4.15301 45.7182C4.18557 45.4685 4.42108 45.2835 4.68916 45.302L25.4462 46.7262C25.4592 46.7273 25.4722 46.7283 25.4863 46.7303C25.4918 46.7314 25.4972 46.7314 25.5026 46.7334C25.5091 46.7344 25.5156 46.7355 25.5211 46.7375C25.5254 46.7386 25.5297 46.7396 25.5341 46.7406C25.5656 46.7478 25.5959 46.7581 25.6242 46.7714C25.6285 46.7735 25.6328 46.7755 25.6372 46.7776C25.6415 46.7797 25.6459 46.7817 25.6491 46.7838C25.6567 46.7879 25.6654 46.792 25.673 46.7971C25.6773 46.8002 25.6828 46.8033 25.6871 46.8054C25.6915 46.8084 25.6958 46.8105 25.6991 46.8136C25.7066 46.8187 25.7142 46.8238 25.7218 46.829C25.7305 46.8351 25.7381 46.8423 25.7457 46.8485C25.7522 46.8536 25.7577 46.8588 25.7642 46.8649L25.7653 46.866C25.7696 46.8701 25.7729 46.8732 25.7772 46.8773C25.7891 46.8896 25.8 46.9019 25.8108 46.9153C25.8141 46.9194 25.8174 46.9235 25.8195 46.9266C25.8228 46.9307 25.825 46.9348 25.8282 46.9389C25.8336 46.9472 25.8401 46.9554 25.8445 46.9646C25.8955 47.0458 25.9194 47.1383 25.9118 47.2369Z" fill="#FFAE00"/>
<path d="M15.5882 48.2469L4.46788 47.4835C4.22911 47.467 4.04786 47.2533 4.05437 47.0015C4.05437 46.9933 4.05545 46.9851 4.05545 46.9769L4.14988 45.7428C4.14988 45.7346 4.15096 45.7264 4.15205 45.7181C4.18352 45.4684 4.39516 45.2814 4.63394 45.2979L14.3889 45.9678C14.3922 45.9863 14.3954 46.0038 14.3987 46.0223C14.5137 46.6727 14.8133 47.5564 15.5882 48.2469Z" fill="#E69B01"/>
<path d="M23.4221 46.5908L23.1861 46.5745L23.0181 48.7596L23.2541 48.7758L23.4221 46.5908Z" fill="#E69B01"/>
<path d="M22.6252 46.5354L22.3892 46.5193L22.2222 48.7043L22.4582 48.7205L22.6252 46.5354Z" fill="#E69B01"/>
<path d="M21.6645 46.4679L21.4285 46.4518L21.2614 48.6368L21.4974 48.653L21.6645 46.4679Z" fill="#E69B01"/>
<path d="M20.197 46.3672L19.961 46.3511L19.7948 48.5362L20.0308 48.5523L20.197 46.3672Z" fill="#E69B01"/>
<path d="M18.6462 46.2609L18.4102 46.2448L18.2431 48.4298L18.4791 48.446L18.6462 46.2609Z" fill="#E69B01"/>
<path d="M16.266 46.0987L16.0301 46.0825L15.8621 48.2675L16.0981 48.2838L16.266 46.0987Z" fill="#E69B01"/>
<path d="M14.0395 45.9454L13.8035 45.9292L13.6364 48.1142L13.8724 48.1304L14.0395 45.9454Z" fill="#E69B01"/>
<path d="M12.052 45.8088L11.816 45.7925L11.6482 47.9776L11.8842 47.9938L12.052 45.8088Z" fill="#E69B01"/>
<path d="M24.1813 46.6396L23.9453 46.6235L23.7792 48.8086L24.0152 48.8246L24.1813 46.6396Z" fill="#E69B01"/>
<path d="M24.6858 46.6756L24.4498 46.6595L24.2827 48.8445L24.5187 48.8607L24.6858 46.6756Z" fill="#E69B01"/>
<path d="M25.1714 46.7072L24.9354 46.6911L24.7683 48.8761L25.0043 48.8923L25.1714 46.7072Z" fill="#E69B01"/>
<path d="M25.5344 46.7414L25.3684 48.9106C25.339 48.9136 25.3097 48.9136 25.2794 48.9116L25.1318 48.9013L25.2989 46.7167L25.4465 46.727C25.4769 46.7301 25.5062 46.7342 25.5344 46.7414Z" fill="#E69B01"/>
<path d="M25.846 46.9673L25.7114 48.7316C25.6485 48.8076 25.5605 48.8651 25.4618 48.8929L25.6246 46.772C25.7168 46.8152 25.795 46.883 25.846 46.9673Z" fill="#E69B01"/>
<path d="M27.1483 45.1826L27.0538 46.4167C27.0462 46.5153 27.0072 46.6037 26.9475 46.6767C26.8845 46.7527 26.7966 46.8102 26.6979 46.838C26.6675 46.8472 26.636 46.8534 26.6045 46.8565C26.5752 46.8596 26.5459 46.8606 26.5155 46.8585L5.75742 45.4323C5.67385 45.4272 5.59679 45.4015 5.53059 45.3624C5.38949 45.2792 5.29507 45.1323 5.29073 44.9678C5.29073 44.9607 5.29073 44.9535 5.29073 44.9463C5.29073 44.938 5.29181 44.9298 5.29181 44.9216L5.38624 43.6875C5.38732 43.6793 5.38732 43.6711 5.38841 43.6629C5.42097 43.4132 5.65649 43.2282 5.92456 43.2467L26.6816 44.6709C26.712 44.6729 26.7413 44.6781 26.7695 44.6842C26.801 44.6914 26.8313 44.7017 26.8596 44.7151C26.9529 44.7572 27.031 44.825 27.0821 44.9093C27.1309 44.9905 27.1559 45.084 27.1483 45.1826Z" fill="#FFAE00"/>
<path d="M16.8246 46.1916L5.70424 45.4281C5.62935 45.423 5.56098 45.3983 5.50128 45.3603C5.37539 45.2781 5.2929 45.1322 5.29073 44.9678C5.29073 44.9606 5.29073 44.9534 5.29073 44.9462C5.29073 44.938 5.29181 44.9298 5.29181 44.9215L5.38624 43.6875C5.38732 43.6792 5.38732 43.671 5.38841 43.6628C5.41988 43.4131 5.63152 43.2261 5.8703 43.2425L15.6253 43.9125C15.7295 44.5485 16.0106 45.4312 16.7595 46.132C16.7812 46.1525 16.8029 46.1721 16.8246 46.1916Z" fill="#E69B01"/>
<path d="M24.6585 44.5352L24.4225 44.519L24.2554 46.7041L24.4914 46.7202L24.6585 44.5352Z" fill="#E69B01"/>
<path d="M23.8616 44.4799L23.6256 44.4637L23.4586 46.6488L23.6945 46.6649L23.8616 44.4799Z" fill="#E69B01"/>
<path d="M22.9039 44.4125L22.6679 44.3963L22.5009 46.5814L22.7368 46.5976L22.9039 44.4125Z" fill="#E69B01"/>
<path d="M21.4344 44.3118L21.1984 44.2957L21.0322 46.4808L21.2682 46.4969L21.4344 44.3118Z" fill="#E69B01"/>
<path d="M19.8837 44.2056L19.6477 44.1895L19.4816 46.3745L19.7176 46.3906L19.8837 44.2056Z" fill="#E69B01"/>
<path d="M17.5045 44.0432L17.2685 44.027L17.1014 46.2121L17.3374 46.2283L17.5045 44.0432Z" fill="#E69B01"/>
<path d="M15.2748 43.8919L15.0388 43.8756L14.8708 46.0607L15.1068 46.0769L15.2748 43.8919Z" fill="#E69B01"/>
<path d="M13.2841 43.7552L13.0481 43.739L12.8801 45.924L13.1161 45.9403L13.2841 43.7552Z" fill="#E69B01"/>
<path d="M25.4198 44.586L25.1838 44.5699L25.0176 46.755L25.2536 46.7711L25.4198 44.586Z" fill="#E69B01"/>
<path d="M25.9211 44.62L25.6851 44.6039L25.519 46.789L25.755 46.8051L25.9211 44.62Z" fill="#E69B01"/>
<path d="M26.4056 44.6554L26.1696 44.6392L26.0016 46.8242L26.2376 46.8405L26.4056 44.6554Z" fill="#E69B01"/>
<path d="M26.7708 44.6868L26.6047 46.856C26.5754 46.8591 26.5461 46.8601 26.5157 46.858L26.3681 46.8478L26.5353 44.6632L26.6829 44.6735C26.7122 44.6755 26.7415 44.6796 26.7708 44.6868Z" fill="#E69B01"/>
<path d="M27.0824 44.9117L26.9478 46.6761C26.8848 46.7521 26.798 46.8096 26.6982 46.8374L26.861 44.7165C26.9543 44.7597 27.0314 44.8275 27.0824 44.9117Z" fill="#E69B01"/>
<path d="M27.8114 43.028L27.717 44.2621C27.7094 44.3607 27.6703 44.4491 27.6106 44.5221C27.5477 44.5981 27.4609 44.6556 27.361 44.6834C27.3306 44.6926 27.2992 44.6988 27.2677 44.7019C27.2384 44.705 27.2091 44.705 27.1787 44.7039L6.42168 43.2787C6.1536 43.2602 5.94847 43.0444 5.95498 42.7937C5.95498 42.7855 5.95607 42.7773 5.95607 42.7691L6.05049 41.535C6.05158 41.5267 6.05158 41.5185 6.05266 41.5103C6.08305 41.2801 6.2871 41.1034 6.52913 41.0931C6.54866 41.0921 6.5682 41.0921 6.58882 41.0941L27.3458 42.5183C27.3762 42.5204 27.4055 42.5245 27.4337 42.5317C27.4652 42.5389 27.4956 42.5492 27.5238 42.5625C27.6172 42.6046 27.6953 42.6725 27.7463 42.7567C27.7941 42.8369 27.819 42.9294 27.8114 43.028Z" fill="#FFAE00"/>
<path d="M17.4879 44.0384L6.36754 43.2749C6.12877 43.2585 5.94752 43.0437 5.95403 42.793C5.95403 42.7848 5.95511 42.7765 5.95511 42.7683L6.04954 41.5342C6.05062 41.526 6.05062 41.5178 6.05171 41.5096C6.08101 41.2794 6.26443 41.1016 6.48041 41.0893C6.49778 41.0883 6.51515 41.0883 6.5336 41.0893L16.2886 41.7593C16.2886 41.7603 16.2886 41.7613 16.2897 41.7624C16.3971 42.4169 16.6923 43.3294 17.4879 44.0384Z" fill="#E69B01"/>
<path d="M25.3248 42.3787L25.0888 42.3625L24.9217 44.5476L25.1577 44.5638L25.3248 42.3787Z" fill="#E69B01"/>
<path d="M24.5227 42.3253L24.2867 42.3092L24.1206 44.4943L24.3566 44.5103L24.5227 42.3253Z" fill="#E69B01"/>
<path d="M23.567 42.2579L23.3311 42.2417L23.164 44.4268L23.4 44.4429L23.567 42.2579Z" fill="#E69B01"/>
<path d="M22.0976 42.1573L21.8616 42.1411L21.6945 44.3261L21.9305 44.3423L22.0976 42.1573Z" fill="#E69B01"/>
<path d="M20.546 42.051L20.3101 42.0349L20.1439 44.2199L20.3799 44.236L20.546 42.051Z" fill="#E69B01"/>
<path d="M18.1676 41.8867L17.9316 41.8706L17.7646 44.0556L18.0006 44.0718L18.1676 41.8867Z" fill="#E69B01"/>
<path d="M15.9401 41.7372L15.7041 41.721L15.5361 43.906L15.7721 43.9223L15.9401 41.7372Z" fill="#E69B01"/>
<path d="M13.9494 41.5987L13.7134 41.5825L13.5463 43.7675L13.7823 43.7837L13.9494 41.5987Z" fill="#E69B01"/>
<path d="M26.0829 42.4324L25.8469 42.4162L25.6799 44.6013L25.9158 44.6174L26.0829 42.4324Z" fill="#E69B01"/>
<path d="M26.5832 42.4677L26.3473 42.4514L26.1793 44.6364L26.4152 44.6527L26.5832 42.4677Z" fill="#E69B01"/>
<path d="M27.0709 42.5008L26.835 42.4845L26.667 44.6696L26.903 44.6858L27.0709 42.5008Z" fill="#E69B01"/>
<path d="M27.4329 42.5303L27.2669 44.6995C27.2376 44.7026 27.2083 44.7036 27.1779 44.7015L27.0303 44.6913L27.1974 42.5067L27.345 42.517C27.3754 42.519 27.4047 42.5231 27.4329 42.5303Z" fill="#E69B01"/>
<path d="M27.7455 42.7562L27.611 44.5205C27.548 44.5965 27.4612 44.6541 27.3613 44.6828L27.5241 42.562C27.6175 42.6041 27.6945 42.6719 27.7455 42.7562Z" fill="#E69B01"/>
<path d="M26.4539 40.7412L26.3595 41.9753C26.3519 42.074 26.3139 42.1623 26.2531 42.2353C26.1901 42.3113 26.1033 42.3689 26.0035 42.3976C25.9731 42.4069 25.9416 42.4131 25.9101 42.4161C25.9004 42.4172 25.8906 42.4182 25.8808 42.4182C25.8754 42.4182 25.87 42.4182 25.8645 42.4182C25.8591 42.4182 25.8537 42.4182 25.8483 42.4182C25.8396 42.4182 25.8309 42.4182 25.8211 42.4172L5.06304 40.992C4.79496 40.9735 4.58983 40.7577 4.59634 40.5069C4.59634 40.4987 4.59743 40.4905 4.59743 40.4823L4.69185 39.2482C4.69294 39.24 4.69294 39.2318 4.69402 39.2235C4.69511 39.2163 4.69619 39.2102 4.69728 39.204C4.73309 39.0036 4.90024 38.8485 5.10536 38.8135C5.11079 38.8125 5.11622 38.8115 5.12056 38.8115C5.15637 38.8063 5.19328 38.8053 5.23018 38.8074L25.9872 40.2316C26.0024 40.2326 26.0176 40.2346 26.0317 40.2367C26.0382 40.2377 26.0447 40.2388 26.0512 40.2398C26.0588 40.2418 26.0664 40.2429 26.074 40.2449C26.1055 40.2521 26.1359 40.2624 26.1641 40.2757C26.2574 40.3179 26.3356 40.3857 26.3866 40.47C26.4365 40.5501 26.4615 40.6436 26.4539 40.7412Z" fill="#FFAE00"/>
<path d="M16.1302 41.7526L5.00987 40.9891C4.7711 40.9727 4.58985 40.758 4.59636 40.5072C4.59636 40.499 4.59745 40.4908 4.59745 40.4826L4.69187 39.2485C4.69296 39.2403 4.69296 39.232 4.69404 39.2238C4.69513 39.2166 4.69621 39.2105 4.6973 39.2043C4.73094 38.9998 4.88723 38.8405 5.07716 38.8087C5.08368 38.8077 5.09019 38.8066 5.0967 38.8056C5.12275 38.8025 5.14988 38.8015 5.17702 38.8035L14.932 39.4735C14.9331 39.4786 14.9342 39.4838 14.9353 39.4889C15.0438 40.1404 15.339 41.0436 16.1269 41.7475C16.1269 41.7495 16.1291 41.7516 16.1302 41.7526Z" fill="#E69B01"/>
<path d="M23.965 40.0944L23.7291 40.0782L23.562 42.2632L23.798 42.2794L23.965 40.0944Z" fill="#E69B01"/>
<path d="M23.164 40.041L22.928 40.0249L22.761 42.2099L22.9969 42.2261L23.164 40.041Z" fill="#E69B01"/>
<path d="M22.2084 39.9735L21.9725 39.9574L21.8056 42.1424L22.0416 42.1586L22.2084 39.9735Z" fill="#E69B01"/>
<path d="M20.7412 39.8748L20.5052 39.8586L20.3372 42.0436L20.5732 42.0599L20.7412 39.8748Z" fill="#E69B01"/>
<path d="M19.1891 39.7686L18.9531 39.7523L18.7851 41.9374L19.0211 41.9537L19.1891 39.7686Z" fill="#E69B01"/>
<path d="M16.8059 39.6023L16.5699 39.5862L16.4035 41.7713L16.6395 41.7874L16.8059 39.6023Z" fill="#E69B01"/>
<path d="M14.5834 39.4529L14.3475 39.4366L14.1795 41.6217L14.4155 41.6379L14.5834 39.4529Z" fill="#E69B01"/>
<path d="M12.5918 39.3143L12.3558 39.2981L12.189 41.4832L12.425 41.4993L12.5918 39.3143Z" fill="#E69B01"/>
<path d="M24.7233 40.1497L24.4873 40.1335L24.3193 42.3185L24.5553 42.3348L24.7233 40.1497Z" fill="#E69B01"/>
<path d="M25.2287 40.1833L24.9927 40.1671L24.8248 42.3521L25.0607 42.3684L25.2287 40.1833Z" fill="#E69B01"/>
<path d="M25.7112 40.2128L25.4752 40.1967L25.3091 42.3817L25.5451 42.3978L25.7112 40.2128Z" fill="#E69B01"/>
<path d="M26.0753 40.246L25.9092 42.4151C25.8799 42.4182 25.8506 42.4193 25.8202 42.4172L25.6726 42.4069L25.8398 40.2224L25.9874 40.2326C26.0178 40.2347 26.0471 40.2388 26.0753 40.246Z" fill="#E69B01"/>
<path d="M26.3869 40.4719L26.2523 42.2362C26.1893 42.3122 26.1025 42.3697 26.0027 42.3985L26.1655 40.2776C26.2588 40.3198 26.3359 40.3886 26.3869 40.4719Z" fill="#E69B01"/>
<path d="M26.576 38.5708L26.4815 39.8049C26.4739 39.9035 26.4349 39.9919 26.3752 40.0649C26.3122 40.1409 26.2254 40.1985 26.1255 40.2262C26.1017 40.2334 26.0767 40.2385 26.0528 40.2416H26.0517C26.0452 40.2426 26.0387 40.2437 26.0322 40.2447C26.0029 40.2478 25.9736 40.2488 25.9432 40.2457L5.18511 38.8215C5.1634 38.8205 5.1417 38.8174 5.11999 38.8133C5.11131 38.8123 5.10371 38.8102 5.09611 38.8082C4.87362 38.7537 4.71299 38.5595 4.71842 38.3365C4.71842 38.3283 4.7195 38.3201 4.7195 38.3119L4.81393 37.0778C4.81501 37.0696 4.81501 37.0613 4.8161 37.0531C4.84866 36.8034 5.08418 36.6185 5.35225 36.637L26.1093 38.0611C26.1223 38.0622 26.1364 38.0632 26.1483 38.0653C26.1538 38.0663 26.1592 38.0673 26.1646 38.0683C26.1711 38.0694 26.1766 38.0704 26.1831 38.0724C26.1874 38.0735 26.1917 38.0745 26.1961 38.0755C26.2276 38.0827 26.258 38.093 26.2862 38.1064C26.2905 38.1084 26.2949 38.1105 26.2992 38.1125C26.3035 38.1146 26.3079 38.1166 26.3111 38.1187C26.3198 38.1228 26.3274 38.1279 26.335 38.132C26.3437 38.1372 26.3524 38.1423 26.3611 38.1485C26.3687 38.1536 26.3763 38.1588 26.3839 38.1639C26.3925 38.1701 26.4001 38.1773 26.4088 38.1834C26.4153 38.1886 26.4208 38.1937 26.4273 38.1999L26.4283 38.2009C26.4327 38.205 26.4359 38.2091 26.4403 38.2122C26.4522 38.2245 26.4631 38.2369 26.4739 38.2502C26.4772 38.2543 26.4804 38.2584 26.4826 38.2615C26.4859 38.2656 26.488 38.2697 26.4913 38.2738C26.4967 38.2821 26.5032 38.2903 26.5076 38.2995C26.5586 38.3797 26.5836 38.4732 26.576 38.5708Z" fill="#FFAE00"/>
<path d="M16.2522 39.5819L5.13189 38.8184C5.12321 38.8174 5.11452 38.8174 5.10584 38.8163C5.09607 38.8153 5.08739 38.8132 5.07762 38.8112C4.86598 38.7691 4.71295 38.5687 4.71946 38.3365C4.71946 38.3282 4.72055 38.32 4.72055 38.3118L4.81497 37.0777C4.81606 37.0695 4.81606 37.0613 4.81714 37.053C4.84862 36.8034 5.06026 36.6163 5.29903 36.6328L15.054 37.3017C15.0573 37.3202 15.0605 37.3377 15.0638 37.3562C15.1767 38.0005 15.4729 38.8749 16.2338 39.5634C16.2392 39.5706 16.2457 39.5757 16.2522 39.5819Z" fill="#E69B01"/>
<path d="M24.0862 37.9257L23.8502 37.9095L23.6822 40.0945L23.9182 40.1108L24.0862 37.9257Z" fill="#E69B01"/>
<path d="M23.2872 37.8705L23.0512 37.8542L22.883 40.0392L23.119 40.0555L23.2872 37.8705Z" fill="#E69B01"/>
<path d="M22.3284 37.8028L22.0924 37.7867L21.9254 39.9717L22.1614 39.9879L22.3284 37.8028Z" fill="#E69B01"/>
<path d="M20.8643 37.7022L20.6283 37.686L20.4613 39.8711L20.6972 39.8873L20.8643 37.7022Z" fill="#E69B01"/>
<path d="M19.3121 37.5961L19.0761 37.5798L18.9083 39.7649L19.1443 39.7811L19.3121 37.5961Z" fill="#E69B01"/>
<path d="M16.928 37.4317L16.692 37.4155L16.525 39.6006L16.761 39.6167L16.928 37.4317Z" fill="#E69B01"/>
<path d="M14.7034 37.2803L14.4674 37.2641L14.3004 39.4491L14.5364 39.4653L14.7034 37.2803Z" fill="#E69B01"/>
<path d="M12.7108 37.1436L12.4748 37.1274L12.3077 39.3125L12.5437 39.3287L12.7108 37.1436Z" fill="#E69B01"/>
<path d="M24.8455 37.9746L24.6095 37.9584L24.4425 40.1435L24.6784 40.1596L24.8455 37.9746Z" fill="#E69B01"/>
<path d="M25.3478 38.0105L25.1118 37.9944L24.9447 40.1794L25.1807 40.1956L25.3478 38.0105Z" fill="#E69B01"/>
<path d="M25.8334 38.0421L25.5974 38.026L25.4303 40.211L25.6663 40.2272L25.8334 38.0421Z" fill="#E69B01"/>
<path d="M26.1975 38.0763L26.0314 40.2455C26.0021 40.2486 25.9728 40.2496 25.9424 40.2465L25.7948 40.2362L25.9619 38.0517L26.1095 38.0619C26.1388 38.065 26.1681 38.0701 26.1975 38.0763Z" fill="#E69B01"/>
<path d="M26.5089 38.3004L26.3743 40.0647C26.3113 40.1408 26.2245 40.1983 26.1247 40.2261L26.2875 38.1052C26.3808 38.1484 26.4579 38.2172 26.5089 38.3004Z" fill="#E69B01"/>
<path d="M27.8114 36.5139L27.717 37.748C27.7094 37.8466 27.6714 37.935 27.6106 38.0079C27.5477 38.084 27.4608 38.1415 27.361 38.1693C27.3306 38.1785 27.2991 38.1847 27.2676 38.1878C27.2383 38.1908 27.209 38.1919 27.1786 38.1898L6.42164 36.7646C6.33807 36.7584 6.26101 36.7338 6.19372 36.6947C6.05262 36.6115 5.9582 36.4646 5.95386 36.3002C5.95386 36.293 5.95386 36.2858 5.95386 36.2786C5.95386 36.2704 5.95494 36.2621 5.95494 36.2539L6.04937 35.0198C6.05045 35.0116 6.05045 35.0034 6.05154 34.9952C6.0841 34.7455 6.31961 34.5605 6.58769 34.579L27.3447 36.0032C27.3751 36.0052 27.4044 36.0104 27.4326 36.0166C27.4641 36.0237 27.4945 36.034 27.5227 36.0474C27.616 36.0895 27.6942 36.1573 27.7452 36.2416C27.794 36.3228 27.819 36.4163 27.8114 36.5139Z" fill="#FFAE00"/>
<path d="M17.4877 37.5239L6.36737 36.7604C6.29248 36.7553 6.22411 36.7306 6.16441 36.6926C6.03851 36.6104 5.95603 36.4645 5.95386 36.3001C5.95386 36.2929 5.95386 36.2857 5.95386 36.2785C5.95386 36.2703 5.95494 36.2621 5.95494 36.2538L6.04937 35.0198C6.05045 35.0115 6.05045 35.0033 6.05154 34.9951C6.08301 34.7454 6.29465 34.5584 6.53343 34.5748L16.2884 35.2448C16.3915 35.8808 16.6737 36.7635 17.4226 37.4643C17.4454 37.4849 17.466 37.5044 17.4877 37.5239Z" fill="#E69B01"/>
<path d="M25.3237 35.864L25.0877 35.8478L24.9206 38.0329L25.1566 38.0491L25.3237 35.864Z" fill="#E69B01"/>
<path d="M24.5216 35.8107L24.2856 35.7945L24.1185 37.9795L24.3545 37.9957L24.5216 35.8107Z" fill="#E69B01"/>
<path d="M23.5648 35.7432L23.3289 35.727L23.1618 37.9121L23.3978 37.9282L23.5648 35.7432Z" fill="#E69B01"/>
<path d="M22.0985 35.6426L21.8625 35.6264L21.6946 37.8114L21.9305 37.8277L22.0985 35.6426Z" fill="#E69B01"/>
<path d="M20.5457 35.5362L20.3097 35.52L20.1426 37.7051L20.3786 37.7212L20.5457 35.5362Z" fill="#E69B01"/>
<path d="M18.1667 35.3719L17.9307 35.3558L17.7645 37.5409L18.0005 37.557L18.1667 35.3719Z" fill="#E69B01"/>
<path d="M15.9401 35.2225L15.7041 35.2063L15.5363 37.3913L15.7723 37.4076L15.9401 35.2225Z" fill="#E69B01"/>
<path d="M13.9504 35.084L13.7144 35.0678L13.5473 37.2528L13.7833 37.269L13.9504 35.084Z" fill="#E69B01"/>
<path d="M26.0829 35.9178L25.8469 35.9015L25.6789 38.0866L25.9149 38.1028L26.0829 35.9178Z" fill="#E69B01"/>
<path d="M26.5863 35.953L26.3503 35.9367L26.1823 38.1218L26.4183 38.138L26.5863 35.953Z" fill="#E69B01"/>
<path d="M27.07 35.9842L26.834 35.968L26.6669 38.153L26.9029 38.1692L27.07 35.9842Z" fill="#E69B01"/>
<path d="M27.4329 36.0156L27.2668 38.1848C27.2375 38.1879 27.2082 38.1889 27.1778 38.1868L27.0302 38.1765L27.1974 35.992L27.345 36.0022C27.3753 36.0043 27.4047 36.0094 27.4329 36.0156Z" fill="#E69B01"/>
<path d="M27.7455 36.2425L27.6099 38.0068C27.5469 38.0829 27.4601 38.1404 27.3602 38.1681L27.523 36.0473C27.6164 36.0904 27.6945 36.1593 27.7455 36.2425Z" fill="#E69B01"/>
<path d="M29.6746 34.446L29.5802 35.6801C29.5726 35.7787 29.5346 35.8671 29.4738 35.9401C29.4109 36.0161 29.323 36.0736 29.2242 36.1024C29.1938 36.1117 29.1623 36.1178 29.1308 36.1209C29.1015 36.124 29.0722 36.125 29.0419 36.1219L8.28485 34.6967C8.01677 34.6782 7.81273 34.4624 7.81815 34.2117C7.81815 34.2035 7.81924 34.1953 7.81924 34.1871L7.91366 32.953C7.91475 32.9447 7.91475 32.9365 7.91583 32.9283C7.94622 32.6981 8.15026 32.5214 8.39229 32.5111C8.41183 32.5101 8.43137 32.5101 8.45199 32.5121L29.209 33.9363C29.2394 33.9384 29.2687 33.9435 29.2969 33.9497C29.3284 33.9569 29.3588 33.9672 29.387 33.9805C29.4803 34.0226 29.5585 34.0905 29.6084 34.1747C29.6572 34.2549 29.6822 34.3484 29.6746 34.446Z" fill="#FFAE00"/>
<path d="M19.3511 35.4564L8.23075 34.6929C7.99198 34.6765 7.81073 34.4627 7.81724 34.211C7.81724 34.2028 7.81833 34.1945 7.81833 34.1863L7.91275 32.9522C7.91384 32.944 7.91383 32.9358 7.91492 32.9276C7.94422 32.6974 8.12765 32.5196 8.34363 32.5073C8.36099 32.5063 8.37836 32.5063 8.39681 32.5073L18.1518 33.1773C18.1518 33.1783 18.1518 33.1793 18.1529 33.1803C18.2603 33.8349 18.5555 34.7474 19.3511 35.4564Z" fill="#E69B01"/>
<path d="M27.1859 33.7985L26.95 33.7822L26.782 35.9673L27.018 35.9835L27.1859 33.7985Z" fill="#E69B01"/>
<path d="M26.387 33.7431L26.151 33.7269L25.9839 35.912L26.2199 35.9281L26.387 33.7431Z" fill="#E69B01"/>
<path d="M25.4314 33.676L25.1954 33.6598L25.0283 35.8448L25.2643 35.861L25.4314 33.676Z" fill="#E69B01"/>
<path d="M23.963 33.5753L23.727 33.5591L23.56 35.7441L23.7959 35.7603L23.963 33.5753Z" fill="#E69B01"/>
<path d="M22.4121 33.4707L22.1761 33.4544L22.0081 35.6395L22.2441 35.6557L22.4121 33.4707Z" fill="#E69B01"/>
<path d="M20.032 33.3047L19.796 33.2885L19.6289 35.4736L19.8649 35.4898L20.032 33.3047Z" fill="#E69B01"/>
<path d="M17.8034 33.1551L17.5674 33.1389L17.3994 35.3239L17.6354 35.3402L17.8034 33.1551Z" fill="#E69B01"/>
<path d="M15.8138 33.0184L15.5778 33.0021L15.4098 35.1872L15.6458 35.2034L15.8138 33.0184Z" fill="#E69B01"/>
<path d="M27.9474 33.8493L27.7114 33.8332L27.5443 36.0182L27.7803 36.0344L27.9474 33.8493Z" fill="#E69B01"/>
<path d="M28.4486 33.8853L28.2126 33.8691L28.0455 36.0542L28.2815 36.0703L28.4486 33.8853Z" fill="#E69B01"/>
<path d="M28.9321 33.9168L28.6962 33.9007L28.53 36.0858L28.766 36.1019L28.9321 33.9168Z" fill="#E69B01"/>
<path d="M29.2972 33.9491L29.1312 36.1182C29.1019 36.1213 29.0726 36.1223 29.0422 36.1193L28.8946 36.109L29.0617 33.9244L29.2093 33.9347C29.2397 33.9378 29.269 33.9429 29.2972 33.9491Z" fill="#E69B01"/>
<path d="M29.6098 34.1752L29.4752 35.9395C29.4122 36.0155 29.3243 36.0731 29.2256 36.1008L29.3884 33.9799C29.4806 34.0231 29.5588 34.092 29.6098 34.1752Z" fill="#E69B01"/>
<path d="M27.1168 32.0795L27.0224 33.3135C27.0148 33.4122 26.9768 33.5006 26.916 33.5735C26.8531 33.6496 26.7652 33.7071 26.6664 33.7348C26.636 33.7441 26.6045 33.7503 26.5731 33.7533C26.5633 33.7544 26.5535 33.7554 26.5438 33.7554C26.5362 33.7564 26.5286 33.7564 26.5199 33.7564C26.5155 33.7564 26.5123 33.7564 26.5079 33.7564C26.5003 33.7564 26.4917 33.7554 26.4841 33.7554L5.72705 32.3292C5.45898 32.3107 5.25493 32.0949 5.26036 31.8431C5.26036 31.8349 5.26144 31.8267 5.26144 31.8185L5.35587 30.5844C5.35695 30.5761 5.35695 30.5679 5.35804 30.5597C5.3906 30.31 5.62612 30.1251 5.89419 30.1435L26.6512 31.5677C26.6599 31.5688 26.6686 31.5688 26.6773 31.5698C26.6979 31.5718 26.7185 31.576 26.7391 31.5811C26.7706 31.5883 26.801 31.5986 26.8292 31.6119C26.8433 31.6181 26.8585 31.6253 26.8715 31.6335C26.8802 31.6386 26.8889 31.6427 26.8965 31.6479C26.8976 31.6479 26.8987 31.6489 26.8987 31.6499C26.9073 31.6551 26.9149 31.6612 26.9225 31.6664C26.9236 31.6674 26.9258 31.6684 26.9269 31.6695C26.9345 31.6746 26.941 31.6808 26.9486 31.6869C26.966 31.7003 26.9811 31.7157 26.9953 31.7311C26.9996 31.7363 27.0039 31.7414 27.0083 31.7455C27.0094 31.7465 27.0094 31.7476 27.0104 31.7486C27.0137 31.7517 27.0159 31.7547 27.018 31.7578C27.018 31.7578 27.0191 31.7589 27.0191 31.7599C27.0235 31.7661 27.0278 31.7722 27.0322 31.7784C27.0387 31.7876 27.0441 31.7959 27.0506 31.8051C27.0994 31.8873 27.1244 31.9808 27.1168 32.0795Z" fill="#FFAE00"/>
<path d="M16.7933 33.0884L5.67296 32.325C5.43419 32.3085 5.25294 32.0948 5.25945 31.8431C5.25945 31.8348 5.26053 31.8266 5.26053 31.8184L5.35496 30.5843C5.35604 30.5761 5.35604 30.5679 5.35713 30.5596C5.3886 30.3099 5.60024 30.1229 5.83902 30.1394L15.594 30.8093C15.5972 30.8258 15.5994 30.8432 15.6027 30.8607C15.7156 31.5091 16.0151 32.3928 16.7879 33.0843C16.7911 33.0864 16.7922 33.0874 16.7933 33.0884Z" fill="#E69B01"/>
<path d="M24.6271 31.4322L24.3911 31.416L24.2241 33.6011L24.46 33.6173L24.6271 31.4322Z" fill="#E69B01"/>
<path d="M23.8312 31.375L23.5952 31.3589L23.4282 33.5439L23.6642 33.5601L23.8312 31.375Z" fill="#E69B01"/>
<path d="M22.8726 31.3098L22.6366 31.2936L22.4695 33.4787L22.7055 33.4948L22.8726 31.3098Z" fill="#E69B01"/>
<path d="M21.4042 31.2109L21.1682 31.1946L21.0002 33.3797L21.2362 33.3959L21.4042 31.2109Z" fill="#E69B01"/>
<path d="M19.8512 31.1065L19.6152 31.0902L19.4472 33.2753L19.6832 33.2915L19.8512 31.1065Z" fill="#E69B01"/>
<path d="M17.4721 30.9422L17.2361 30.9259L17.0681 33.111L17.3041 33.1272L17.4721 30.9422Z" fill="#E69B01"/>
<path d="M15.2445 30.7861L15.0085 30.7699L14.8415 32.9549L15.0775 32.9711L15.2445 30.7861Z" fill="#E69B01"/>
<path d="M13.2549 30.6522L13.019 30.636L12.851 32.821L13.0869 32.8373L13.2549 30.6522Z" fill="#E69B01"/>
<path d="M25.3886 31.4832L25.1526 31.467L24.9846 33.652L25.2206 33.6683L25.3886 31.4832Z" fill="#E69B01"/>
<path d="M25.8908 31.5191L25.6548 31.5029L25.4877 33.688L25.7237 33.7041L25.8908 31.5191Z" fill="#E69B01"/>
<path d="M26.3775 31.5507L26.1415 31.5345L25.9744 33.7196L26.2104 33.7358L26.3775 31.5507Z" fill="#E69B01"/>
<path d="M26.7394 31.5838L26.5734 33.753C26.5441 33.7561 26.5148 33.7571 26.4844 33.7551L26.3368 33.7448L26.5039 31.5602L26.6515 31.5705C26.6819 31.5715 26.7112 31.5767 26.7394 31.5838Z" fill="#E69B01"/>
<path d="M27.052 31.809L26.9164 33.5733C26.8534 33.6494 26.7655 33.7069 26.6667 33.7346L26.8295 31.6138C26.9229 31.6559 27.001 31.7247 27.052 31.809Z" fill="#E69B01"/>
<path d="M28.8058 30.0484L28.7114 31.2825C28.7038 31.3812 28.6658 31.4695 28.605 31.5425C28.542 31.6185 28.4552 31.6761 28.3554 31.7038C28.325 31.7131 28.2935 31.7192 28.262 31.7223C28.2327 31.7254 28.2034 31.7254 28.173 31.7234L7.41494 30.2992C7.33462 30.294 7.25973 30.2704 7.19461 30.2334C7.04918 30.1512 6.9515 30.0012 6.94824 29.8337C6.94824 29.8275 6.94824 29.8203 6.94824 29.8142C6.94824 29.8059 6.94933 29.7977 6.94933 29.7895L7.04375 28.5554C7.04484 28.5472 7.04484 28.539 7.04592 28.5307C7.07631 28.3006 7.28035 28.1238 7.52238 28.1136C7.54192 28.1125 7.56146 28.1125 7.58208 28.1146L28.3391 29.5388C28.3695 29.5408 28.3988 29.546 28.427 29.5521C28.4585 29.5593 28.4889 29.5696 28.5171 29.583C28.6104 29.6251 28.6886 29.6929 28.7396 29.7772C28.7884 29.8573 28.8134 29.9508 28.8058 30.0484Z" fill="#FFAE00"/>
<path d="M18.4821 31.0588L7.36175 30.2954C7.29012 30.2902 7.22283 30.2676 7.16531 30.2306C7.03615 30.1494 6.95041 30.0004 6.94824 29.833C6.94824 29.8268 6.94824 29.8196 6.94824 29.8134C6.94824 29.8052 6.94933 29.797 6.94933 29.7888L7.04375 28.5547C7.04484 28.5465 7.04484 28.5382 7.04592 28.53C7.07523 28.2998 7.25865 28.1221 7.47463 28.1097C7.49199 28.1087 7.50936 28.1087 7.52781 28.1097L17.2828 28.7787C17.2828 28.7797 17.2828 28.7807 17.2839 28.7818C17.3881 29.4189 17.6713 30.3015 18.4213 31.0023C18.4419 31.0229 18.4615 31.0414 18.4821 31.0588Z" fill="#E69B01"/>
<path d="M26.3182 29.403L26.0822 29.3867L25.9142 31.5717L26.1502 31.588L26.3182 29.403Z" fill="#E69B01"/>
<path d="M25.5192 29.3476L25.2832 29.3314L25.1162 31.5164L25.3522 31.5326L25.5192 29.3476Z" fill="#E69B01"/>
<path d="M24.5606 29.2821L24.3246 29.2659L24.1566 31.4509L24.3926 31.4672L24.5606 29.2821Z" fill="#E69B01"/>
<path d="M23.0922 29.1795L22.8562 29.1634L22.69 31.3484L22.926 31.3645L23.0922 29.1795Z" fill="#E69B01"/>
<path d="M21.5413 29.0734L21.3053 29.0572L21.1382 31.2422L21.3742 31.2584L21.5413 29.0734Z" fill="#E69B01"/>
<path d="M19.1612 28.9109L18.9252 28.8947L18.7572 31.0797L18.9932 31.096L19.1612 28.9109Z" fill="#E69B01"/>
<path d="M16.9324 28.7566L16.6964 28.7405L16.5303 30.9256L16.7663 30.9416L16.9324 28.7566Z" fill="#E69B01"/>
<path d="M14.9427 28.6229L14.7067 28.6066L14.5387 30.7917L14.7747 30.8079L14.9427 28.6229Z" fill="#E69B01"/>
<path d="M27.0752 29.4537L26.8392 29.4376L26.6731 31.6226L26.9091 31.6387L27.0752 29.4537Z" fill="#E69B01"/>
<path d="M27.5798 29.4877L27.3438 29.4716L27.1776 31.6566L27.4136 31.6727L27.5798 29.4877Z" fill="#E69B01"/>
<path d="M28.0633 29.5231L27.8273 29.5068L27.6591 31.6919L27.895 31.7082L28.0633 29.5231Z" fill="#E69B01"/>
<path d="M28.4284 29.5545L28.2624 31.7236C28.2331 31.7267 28.2037 31.7267 28.1734 31.7257L28.0258 31.7154L28.1929 29.5309L28.3405 29.5411C28.3709 29.5422 28.4002 29.5473 28.4284 29.5545Z" fill="#E69B01"/>
<path d="M28.7398 29.7796L28.6052 31.5439C28.5423 31.62 28.4555 31.6775 28.3556 31.7052L28.5184 29.5844C28.6117 29.6275 28.6888 29.6964 28.7398 29.7796Z" fill="#E69B01"/>
<path d="M27.4482 27.7639L27.3537 28.998C27.3461 29.0966 27.3071 29.185 27.2474 29.258C27.1844 29.334 27.0976 29.3916 26.9977 29.4193C26.9674 29.4285 26.9359 29.4347 26.9044 29.4378C26.8946 29.4388 26.8849 29.4399 26.8751 29.4399C26.8697 29.4399 26.8642 29.4399 26.8588 29.4399C26.8534 29.4399 26.848 29.4399 26.8425 29.4399C26.8339 29.4399 26.8252 29.4399 26.8154 29.4388L6.05731 28.0136C5.78923 27.9951 5.5841 27.7793 5.59062 27.5286C5.59062 27.5204 5.5917 27.5122 5.5917 27.5039L5.68613 26.2699C5.68721 26.2616 5.68721 26.2534 5.6883 26.2452C5.72086 25.9955 5.95637 25.8105 6.22445 25.829L26.9815 27.2532C27.0119 27.2553 27.0412 27.2594 27.0694 27.2666C27.1008 27.2738 27.1312 27.284 27.1595 27.2974C27.2528 27.3395 27.3309 27.4074 27.3819 27.4916C27.4308 27.5718 27.4557 27.6653 27.4482 27.7639Z" fill="#FFAE00"/>
<path d="M17.1245 28.7729L6.00415 28.0105C5.76537 27.994 5.58412 27.7803 5.59064 27.5285C5.59064 27.5203 5.59172 27.5121 5.59172 27.5039L5.68615 26.2698C5.68723 26.2616 5.68723 26.2533 5.68832 26.2451C5.71979 25.9954 5.93143 25.8084 6.1702 25.8249L15.9252 26.4948C16.0315 27.1473 16.3257 28.0598 17.1191 28.7698C17.1212 28.7709 17.1223 28.7719 17.1245 28.7729Z" fill="#E69B01"/>
<path d="M24.9593 27.1141L24.7233 27.098L24.5562 29.283L24.7922 29.2992L24.9593 27.1141Z" fill="#E69B01"/>
<path d="M24.1626 27.0587L23.9266 27.0426L23.7596 29.2276L23.9956 29.2438L24.1626 27.0587Z" fill="#E69B01"/>
<path d="M23.2027 26.9941L22.9667 26.9779L22.7996 29.163L23.0356 29.1792L23.2027 26.9941Z" fill="#E69B01"/>
<path d="M21.7364 26.8926L21.5004 26.8764L21.3324 29.0614L21.5684 29.0777L21.7364 26.8926Z" fill="#E69B01"/>
<path d="M20.1814 26.7863L19.9454 26.7702L19.7791 28.9552L20.0151 28.9714L20.1814 26.7863Z" fill="#E69B01"/>
<path d="M17.8023 26.6219L17.5663 26.6059L17.4002 28.7909L17.6361 28.807L17.8023 26.6219Z" fill="#E69B01"/>
<path d="M15.5757 26.4707L15.3397 26.4544L15.1717 28.6395L15.4077 28.6557L15.5757 26.4707Z" fill="#E69B01"/>
<path d="M13.3493 26.3154L13.182 28.5005L13.418 28.5167L13.5853 26.3316L13.3493 26.3154Z" fill="#E69B01"/>
<path d="M25.7185 27.1678L25.4826 27.1515L25.3146 29.3366L25.5506 29.3528L25.7185 27.1678Z" fill="#E69B01"/>
<path d="M26.221 27.201L25.985 27.1848L25.817 29.3698L26.053 29.3861L26.221 27.201Z" fill="#E69B01"/>
<path d="M26.7056 27.2342L26.4696 27.218L26.3023 29.403L26.5383 29.4192L26.7056 27.2342Z" fill="#E69B01"/>
<path d="M27.0708 27.2656L26.9047 29.4348C26.8754 29.4379 26.8461 29.4389 26.8157 29.4369L26.6681 29.4266L26.8352 27.242L26.9828 27.2523C27.0122 27.2533 27.0415 27.2584 27.0708 27.2656Z" fill="#E69B01"/>
<path d="M27.3821 27.4908L27.2476 29.2551C27.1846 29.3311 27.0978 29.3887 26.9979 29.4164L27.1607 27.2956C27.2541 27.3377 27.3311 27.4065 27.3821 27.4908Z" fill="#E69B01"/>
<path d="M37.941 64.4715C37.941 62.7637 36.4791 61.3796 34.6753 61.3796C32.8715 61.3796 31.4095 62.7637 31.4095 64.4715C31.4095 66.1793 32.8715 67.5634 34.6753 67.5634C36.478 67.5623 37.941 66.1782 37.941 64.4715Z" fill="#018061"/>
<path d="M36.1766 64.4726C36.1766 63.6876 35.5037 63.0505 34.6745 63.0505C33.8453 63.0505 33.1724 63.6876 33.1724 64.4726C33.1724 65.2577 33.8453 65.8948 34.6745 65.8948C35.5037 65.8948 36.1766 65.2577 36.1766 64.4726Z" fill="#FFAE00"/>
<path d="M11.8975 64.4715C11.8975 62.7637 10.4356 61.3796 8.63176 61.3796C6.82793 61.3796 5.36599 62.7637 5.36599 64.4715C5.36599 66.1793 6.82793 67.5634 8.63176 67.5634C10.4356 67.5623 11.8975 66.1782 11.8975 64.4715Z" fill="#018061"/>
<path d="M10.1341 64.4726C10.1341 63.6876 9.46118 63.0505 8.63199 63.0505C7.80279 63.0505 7.12988 63.6876 7.12988 64.4726C7.12988 65.2577 7.80279 65.8948 8.63199 65.8948C9.46118 65.8948 10.1341 65.2577 10.1341 64.4726Z" fill="#FFAE00"/>
<path d="M41.1778 28.4694C40.9933 28.2814 40.6839 28.2711 40.4853 28.4448L36.3057 32.1172C36.2438 32.1717 36.1983 32.2405 36.1722 32.3166L35.6415 33.8959L0.563498 35.4712C0.433258 35.4773 0.3117 35.5318 0.223788 35.6222C0.135876 35.7137 0.0902923 35.8339 0.0968043 35.9562L0.815295 49.9309C0.827234 50.1652 1.02259 50.3542 1.26896 50.3707L30.0715 52.3497C30.0835 52.3508 30.0954 52.3508 30.1074 52.3508C30.319 52.3508 30.5089 52.2213 30.5741 52.0281L36.4674 34.495C36.4696 34.4878 36.4718 34.4806 36.475 34.4734L37.0665 32.7132L41.1517 29.124C41.3503 28.9513 41.3623 28.6575 41.1778 28.4694ZM31.3761 46.5862L28.1549 46.4691L29.5028 41.322L33.1561 41.2922L31.3761 46.5862ZM27.2877 46.4382L23.6616 46.3067L24.8869 41.3601L28.6248 41.3303L27.2877 46.4382ZM22.5241 50.9019L23.4651 47.1041L27.0793 47.2356L26.0558 51.1455L22.5241 50.9019ZM18.3358 50.6142L19.0565 46.9438L22.6001 47.0722L21.6667 50.8423L18.3358 50.6142ZM13.7199 50.2967L14.2832 46.7701L18.198 46.9119L17.4828 50.5546L13.7199 50.2967ZM9.86915 50.0326L10.1405 46.6211L13.429 46.7403L12.8701 50.2391L9.86915 50.0326ZM5.19896 49.712L5.42254 46.4495L9.29175 46.5903L9.02259 49.9751L5.19896 49.712ZM1.36556 41.5481L4.90917 41.5193L4.62807 45.6162L1.56852 45.5052L1.36556 41.5481ZM5.76116 41.5132L9.69875 41.4813L9.35579 45.7878L5.4768 45.647L5.76116 41.5132ZM10.1383 35.9695L9.76387 40.6767L5.81651 40.7086L6.12909 36.1504L10.1383 35.9695ZM15.1862 35.7435L14.4037 40.6398L10.6148 40.6706L10.9925 35.9325L15.1862 35.7435ZM20.437 35.5082L19.4375 40.5997L15.2633 40.6326L16.0501 35.7044L20.437 35.5082ZM25.5218 35.279L24.214 40.5606L20.3035 40.5915L21.3097 35.4681L25.5218 35.279ZM15.1352 41.4382L19.279 41.4053L18.3543 46.1146L14.4102 45.9717L15.1352 41.4382ZM13.5571 45.9399L10.2045 45.8186L10.5507 41.4741L14.2756 41.4443L13.5571 45.9399ZM20.1451 41.3971L24.0143 41.3662L22.7987 46.2749L19.2139 46.1444L20.1451 41.3971ZM25.0877 40.5545L26.4042 35.24L30.2658 35.0663L28.8364 40.5236L25.0877 40.5545ZM5.27493 36.1884L4.96453 40.7158L1.32432 40.7446L1.09965 36.3754L5.27493 36.1884ZM1.61084 46.3108L4.57381 46.4187L4.3524 49.6534L1.77364 49.4767L1.61084 46.3108ZM29.7579 51.3993L26.9143 51.204L27.9454 47.2675L31.108 47.3826L29.7579 51.3993ZM33.4263 40.4877L29.7134 40.5175L31.1504 35.0273L35.3246 34.8402L33.4263 40.4877Z" fill="#018061"/>
<path d="M39.4008 30.5879C39.238 30.5879 39.0763 30.5242 38.9602 30.3999C38.7453 30.1697 38.7681 29.8172 39.0123 29.6148L41.1504 27.8289C41.3935 27.6255 41.7658 27.6471 41.9807 27.8783C42.1956 28.1084 42.1728 28.4609 41.9286 28.6633L39.7905 30.4492C39.6776 30.5427 39.5387 30.5879 39.4008 30.5879Z" fill="#018061"/>
<path d="M1.30532 50.4651C0.99383 50.4651 0.734436 50.2339 0.719241 49.9359L0.00075008 35.9612C-0.0155299 35.654 0.235182 35.393 0.559697 35.3786C0.886382 35.3622 1.15989 35.6006 1.17508 35.9078L1.89357 49.8825C1.90877 50.1897 1.65914 50.4507 1.33463 50.4651C1.32486 50.4641 1.31509 50.4651 1.30532 50.4651Z" fill="#006C5C"/>
<path d="M34.7725 64.2571L34.1159 60.5127C34.3763 60.5013 34.5826 60.2979 34.5826 60.0503V54.9803C34.5826 54.8416 34.5163 54.7101 34.4035 54.6217L30.4192 51.5298C30.2097 51.3674 29.9015 51.3962 29.73 51.5945C29.5585 51.7928 29.5889 52.0847 29.7984 52.247L33.6036 55.1992V59.595L5.50212 60.0749L4.6306 57.7516C4.54052 57.5101 4.25942 57.3838 4.00545 57.4701C3.75039 57.5554 3.6169 57.8205 3.70807 58.0619L4.53835 60.2763L0.800457 61.6584C0.548659 61.7519 0.423846 62.0201 0.522611 62.2595C0.598584 62.4424 0.783091 62.5544 0.979537 62.5544C1.03923 62.5544 1.09892 62.5441 1.15753 62.5225L5.25575 61.0069L5.77454 60.9977L8.47919 64.6742C8.61486 64.8592 8.86883 64.7338 8.85798 64.4872L8.69735 60.9473L31.1562 60.563L34.4784 64.4122C34.5945 64.5479 34.804 64.4369 34.7725 64.2571Z" fill="#018061"/>
<path d="M41.9328 27.7903L40.9169 28.2671C40.9169 28.2671 38.8124 27.4944 37.6066 29.5731C37.6066 29.5731 37.1768 30.464 37.917 30.5092C38.6572 30.5544 38.3837 30.4363 39.4267 30.5216C40.4686 30.6068 41.4769 30.2328 41.8427 29.5875L42.5243 29.0624L41.9328 27.7903Z" fill="#ED985F"/>
<path d="M41.5683 28.7267C41.1211 28.0434 41.4261 27.7279 41.4261 27.7279C41.4261 27.7279 47.9837 22.5326 48.4949 22.0086C49.0061 21.4856 51.2484 13.2035 51.2484 13.2035C51.2484 13.2035 52.0092 9.85263 53.953 9.46627C55.6418 9.13026 56.8324 9.94511 57.6204 10.9059C58.5592 12.0506 58.6829 13.6392 57.9525 14.903C56.3115 17.7401 52.9979 23.3721 52.0157 24.338C49.8299 26.4877 42.4257 29.5323 42.4257 29.5323C42.4257 29.5323 41.9199 29.2631 41.5683 28.7267Z" fill="#006C5C"/>
<path d="M76.0441 62.2644C76.0441 62.2644 77.1956 63.3227 76.971 64.0749C76.7463 64.8271 75.7076 65.3285 75.5676 66.2472C75.4276 67.1668 74.8654 67.6683 74.3607 67.6683C73.855 67.6683 71.9513 67.6683 71.9513 67.6683C71.9513 67.6683 71.579 67.0219 72.4777 66.8267C73.3763 66.6315 73.715 65.5515 73.6585 64.5486C73.6021 63.5457 73.7432 62.2089 73.7432 62.2089L75.6523 61.7629L76.0441 62.2644Z" fill="#006C5C"/>
<path d="M61.9214 65.0015C61.9214 65.0015 62.1277 67.4101 61.623 67.6609L55.1555 67.6475C55.1555 67.6475 55.1555 66.8953 56.1941 66.7278C57.2328 66.5603 59.0583 65.9479 59.3666 64.5833C59.6759 63.2187 61.9214 65.0015 61.9214 65.0015Z" fill="#006C5C"/>
<path d="M56.462 30.9741C56.462 30.9741 56.8028 35.1963 57.2044 40.2724C57.7492 47.1673 58.4048 55.6374 58.4699 57.2414C58.5817 60.0271 59.0321 64.4846 59.0321 64.4846C59.0321 64.4846 60.0979 65.543 62.2327 65.097C62.2327 65.097 64.1342 58.7355 64.678 52.004C64.6867 51.894 64.6954 51.783 64.703 51.671C65.2087 44.8183 65.9945 30.3894 65.9945 30.3894L56.462 30.9741Z" fill="black"/>
<path d="M56.462 30.9731C56.462 30.9731 56.8028 35.1953 57.2044 40.2714L64.6769 52.002C64.6856 51.892 64.6943 51.7811 64.7019 51.6691C65.2076 44.8163 65.9934 30.3874 65.9934 30.3874L56.462 30.9731Z" fill="black"/>
<path d="M58.02 31.4746C58.02 31.4746 64.1684 46.7677 68.2113 53.9544C72.2542 61.1411 73.5175 63.1469 73.5175 63.1469C73.5175 63.1469 75.8336 62.2272 76.0442 61.6004C76.0442 61.6004 74.4976 47.7264 71.7907 44.3437C70.2604 42.4325 68.3795 36.6987 68.3795 34.6919C68.3784 29.7401 67.0315 28.0868 67.0315 28.0868L58.02 31.4746Z" fill="black"/>
<path d="M56.2538 9.49631C56.2538 9.49631 53.1736 12.9859 50.4961 13.2798C50.4961 13.2798 50.7522 12.3447 51.5261 11.4055C51.2352 10.9924 50.991 10.6307 50.8011 10.3163C50.3463 9.59804 50.1455 9.1675 50.1455 9.1675L51.1722 7.33434L52.1414 5.58545C53.4981 8.79244 56.2538 9.49631 56.2538 9.49631Z" fill="#FFB27D"/>
<path d="M67.3669 29.3494C65.9581 30.8065 64.5656 31.9964 62.7976 32.9387C60.7138 34.0649 57.9169 34.6804 57.0377 35.0698C56.9466 35.1068 56.85 35.1078 56.749 35.079C56.6698 35.0636 55.5845 32.8513 54.2669 29.9464C54.192 29.78 54.116 29.6125 54.039 29.4419C53.9803 29.3155 53.9207 29.1891 53.8707 29.0586L53.8501 29.0165C53.2966 27.7845 52.742 26.4836 52.2058 25.1734C52.1201 24.9659 52.0333 24.7573 51.9497 24.5507C50.8698 21.8986 49.9581 19.3637 49.677 17.8151C49.3286 15.8412 49.8669 14.2136 50.4552 12.9476L50.9555 11.9314C51.8411 11.7423 52.6812 11.3405 53.3563 10.5832C54.0976 9.7581 54.8942 8.86927 55.1123 8.91962C56.3876 9.18267 57.7237 10.1989 59.0033 11.7125C59.3593 12.1328 59.7131 12.5931 60.0582 13.0853C60.8766 14.2547 61.6569 15.6018 62.3602 17.065C62.3884 17.1236 62.4166 17.1832 62.4449 17.2428C62.4991 17.3589 62.5512 17.4689 62.599 17.5726C62.8833 18.1799 63.1568 18.8129 63.4086 19.4438C64.7534 22.8769 66.3271 25.6893 67.2388 27.3149C67.5036 27.7906 67.7087 28.1585 67.8444 28.4246C67.9627 28.6558 67.5546 29.149 67.3669 29.3494Z" fill="#018061"/>
<path d="M52.732 6.78296C52.732 6.78296 52.5323 8.99631 50.8001 10.3167C50.3453 9.59845 50.1445 9.16791 50.1445 9.16791L51.1713 7.33475L52.732 6.78296Z" fill="#ED985F"/>
<path d="M49.4019 9.41864C49.4019 9.41864 53.5793 8.39006 52.8847 5.97017C52.1912 3.54926 52.2628 1.78701 49.5668 2.34086C46.8709 2.89471 46.6191 3.95412 46.6408 4.81623C46.6614 5.67938 48.297 9.62415 49.4019 9.41864Z" fill="#FFB27D"/>
<path d="M52.2132 0.907853C52.2305 0.85442 52.2978 0.789684 52.4747 0.704397C52.4747 0.704397 52.2892 0.679736 52.0938 0.755775C51.944 0.532796 51.6119 0.16596 51.13 0.245082C51.13 0.245082 51.4187 0.265633 51.5674 0.50608C50.8359 0.227613 49.591 0.323175 46.7105 1.79669C42.914 3.73876 45.3246 5.58013 45.9671 5.65104C46.6096 5.72194 47.5267 4.40564 48.5089 4.07991C49.4912 3.75417 50.278 4.97593 50.6839 5.02012C51.0888 5.06328 50.8153 4.80125 51.1637 4.43236C51.5121 4.06347 51.8724 4.72932 51.9549 5.22666C52.0363 5.72399 52.9089 6.05897 52.9089 6.05897C52.9089 6.05897 52.9089 6.05897 53.2258 5.18864C53.5427 4.3183 52.8915 1.46787 52.3564 1.02602C52.3087 0.986974 52.2609 0.9469 52.2132 0.907853Z" fill="#393B3A"/>
<path d="M54.2664 29.9475C54.1915 29.781 54.1155 29.6135 54.0385 29.443C53.9799 29.3166 53.9202 29.1902 53.8703 29.0597L53.8496 29.0176C53.2961 27.7855 52.7415 26.4846 52.2054 25.1745C52.1196 24.967 52.0328 24.7584 51.9492 24.5518C53.6532 20.2135 55.9812 15.6234 55.9812 15.6234C55.9812 15.6234 58.3028 25.0142 54.2664 29.9475Z" fill="#006C5C"/>
<path d="M42.2443 29.0803L41.1579 29.5571C41.1579 29.5571 38.947 28.7504 37.6229 30.858C37.6229 30.858 37.1465 31.7622 37.9301 31.8146C38.7137 31.868 38.4261 31.7447 39.5277 31.8413C40.6293 31.9379 41.7049 31.5659 42.1075 30.9124L42.8412 30.3843L42.2443 29.0803Z" fill="#FFB27D"/>
<path d="M41.836 30.0293C41.378 29.3285 41.708 29.0089 41.708 29.0089C41.708 29.0089 48.7702 23.7735 49.3237 23.2443C49.8773 22.7151 52.4419 14.2943 52.4419 14.2943C52.4419 14.2943 53.3243 10.886 55.3908 10.5099C57.187 10.1831 58.4275 11.0247 59.2404 12.0111C60.2086 13.1866 60.303 14.8071 59.4998 16.0895C57.6971 18.9656 54.059 24.6767 52.9965 25.6519C50.6327 27.8231 42.7227 30.8575 42.7227 30.8575C42.7227 30.8575 42.1964 30.58 41.836 30.0293Z" fill="#018061"/>
</g>
</svg>
