<svg width="222" height="219" viewBox="0 0 222 219" fill="none" xmlns="http://www.w3.org/2000/svg">
<g clip-path="url(#clip0_1_876)">
<path d="M114.816 89.8362L85.2223 64.5889L85.5298 64.2301L114.749 89.1563L150.138 43.9832L164.067 54.0405L192.511 16.63L192.884 16.918L164.166 54.6968L150.233 44.63L114.816 89.8362Z" fill="#EBEBEB"/>
<path d="M12.1543 130.406C12.1543 131.289 11.4352 132.006 10.5505 132.006C9.66575 132.006 8.94662 131.289 8.94662 130.406C8.94662 129.523 9.66575 128.805 10.5505 128.805C11.4352 128.805 12.1543 129.523 12.1543 130.406Z" fill="#EBEBEB"/>
<path d="M85.3784 67.5687C87.1264 67.5687 88.5435 66.1544 88.5435 64.4098C88.5435 62.6652 87.1264 61.251 85.3784 61.251C83.6303 61.251 82.2132 62.6652 82.2132 64.4098C82.2132 66.1544 83.6303 67.5687 85.3784 67.5687Z" fill="#EBEBEB"/>
<path d="M10.7255 130.566L10.3754 130.245L44.8845 92.2112L52.6767 98.9775L83.7698 65.59L84.1152 65.911L52.7098 99.6339L44.9223 92.8723L10.7255 130.566Z" fill="#EBEBEB"/>
<path d="M192.847 19.515C195.125 19.515 196.972 17.6716 196.972 15.3976C196.972 13.1237 195.125 11.2803 192.847 11.2803C190.568 11.2803 188.721 13.1237 188.721 15.3976C188.721 17.6716 190.568 19.515 192.847 19.515Z" fill="#EBEBEB"/>
<path d="M194.862 13.9858C194.914 14.033 194.105 15.001 193.06 16.1437C192.823 16.3987 192.596 16.6442 192.378 16.8803L192.307 16.9558L192.227 16.8944C191.38 16.2523 190.803 15.7754 190.831 15.7329C190.864 15.6904 191.494 16.0965 192.359 16.7103L192.208 16.7245C192.421 16.4836 192.643 16.2381 192.875 15.9784C193.921 14.8357 194.81 13.9433 194.862 13.9858Z" fill="white"/>
<path d="M59.4186 57.2089C59.8255 54.2672 55.662 51.8449 52.5347 51.5947C51.0444 51.4766 49.4926 51.7033 48.0827 51.2122C45.0217 50.1498 43.801 46.2024 40.8157 44.9465C38.5826 44.0068 36.0135 44.8426 33.8467 45.9286C31.6845 47.0146 29.5413 48.3839 27.1237 48.5397C25.0183 48.6719 22.7379 47.8976 20.8975 48.9222C19.5255 49.6871 18.8063 51.2642 17.5431 52.1944C16.3083 53.1057 14.695 53.2992 13.1573 53.3795C11.6197 53.4598 10.0348 53.4787 8.63909 54.1161C7.2434 54.7535 6.08426 56.2267 6.37759 57.733L59.4186 57.2089Z" fill="#EBEBEB"/>
<path d="M170.833 7.90425C171.088 6.06748 168.491 4.56124 166.541 4.4007C165.609 4.32515 164.644 4.4668 163.764 4.15989C161.853 3.49412 161.091 1.03408 159.232 0.250271C157.841 -0.335227 156.237 0.184166 154.884 0.8641C153.535 1.54403 152.201 2.39395 150.692 2.49311C149.381 2.5781 147.957 2.09176 146.808 2.7292C145.951 3.20609 145.507 4.18822 144.717 4.769C143.945 5.33561 142.938 5.45837 141.982 5.51031C141.026 5.56225 140.033 5.5717 139.162 5.96832C138.292 6.36495 137.568 7.2857 137.752 8.22533L170.833 7.90425Z" fill="#F5F5F5"/>
<path d="M205.72 49.4419C205.857 48.455 204.462 47.6429 203.411 47.5579C202.91 47.5154 202.394 47.5957 201.916 47.4304C200.89 47.0716 200.478 45.7495 199.48 45.3292C198.732 45.0129 197.871 45.2962 197.143 45.6598C196.419 46.0233 195.7 46.4813 194.886 46.5333C194.181 46.5805 193.414 46.3161 192.795 46.6608C192.336 46.9157 192.094 47.4446 191.669 47.7562C191.252 48.0631 190.713 48.1245 190.197 48.1529C189.682 48.1812 189.152 48.1859 188.683 48.3984C188.215 48.6109 187.827 49.1066 187.926 49.6119L205.72 49.4419Z" fill="#F5F5F5"/>
<path d="M48.4614 24.0151C48.5986 23.0283 47.2029 22.2161 46.1526 22.1312C45.6511 22.0887 45.1307 22.1689 44.6575 22.0037C43.6309 21.6448 43.2193 20.3227 42.221 19.9025C41.4735 19.5861 40.6124 19.8694 39.8838 20.233C39.1599 20.5966 38.4408 21.0546 37.627 21.1065C36.9221 21.1537 36.1556 20.8893 35.5359 21.234C35.0769 21.489 34.8357 22.0178 34.4099 22.3295C33.9935 22.6364 33.4542 22.6978 32.9385 22.7261C32.4228 22.7544 31.8929 22.7591 31.4245 22.9716C30.9561 23.1841 30.5682 23.6799 30.6675 24.1851L48.4614 24.0151Z" fill="#FAFAFA"/>
<path d="M57.8526 124.659L67.2344 103.841L76.8765 98.0663L82.8709 85.0578L100.069 89.076L112.9 128.352L93.0429 138.093L76.8765 147.928L57.8526 124.659Z" fill="#F5F5F5"/>
<path d="M222 184.98L205.02 151.153L197.161 139.41L187.902 96.6549L176.746 87.3955L165.538 102.963L150.209 106.783L136.096 120.259L164.512 150.351L181.26 167.972L194.337 192.36C194.337 192.36 219.691 216.276 219.45 216.049C219.204 215.823 222 184.98 222 184.98Z" fill="#EBEBEB"/>
<path d="M0 219L1.7316 196.038L10.981 181.689L17.0369 154.378L28.0463 147.928L41.6484 125.098L54.6023 116.354L81.48 142.876L99.2218 123.809L112.9 128.352L107.265 135.345L93.0429 138.093L65.0155 162.481L43.2238 174.469L37.414 184.942L24.8054 186.788L0 219Z" fill="#EBEBEB"/>
<path d="M160.424 197.44C160.424 197.45 160.329 197.455 160.15 197.464C159.946 197.469 159.686 197.478 159.359 197.483C158.64 197.492 157.647 197.507 156.421 197.521C153.9 197.53 150.422 197.544 146.477 197.563L146.571 197.521C146.013 198.201 145.426 198.914 144.83 199.636C141.902 203.173 139.247 206.374 137.308 208.721C136.347 209.859 135.567 210.789 135.004 211.455C134.739 211.762 134.53 212.002 134.37 212.191C134.223 212.356 134.142 212.441 134.133 212.437C134.128 212.432 134.194 212.338 134.327 212.158C134.478 211.965 134.677 211.71 134.928 211.393C135.477 210.713 136.234 209.769 137.17 208.607C139.096 206.251 141.731 203.036 144.636 199.48C145.232 198.758 145.819 198.045 146.382 197.365L146.42 197.322H146.477C150.422 197.337 153.9 197.355 156.421 197.365C157.652 197.379 158.645 197.393 159.359 197.403C159.686 197.412 159.946 197.417 160.15 197.422C160.329 197.426 160.424 197.431 160.424 197.44Z" fill="#263238"/>
<path d="M110.26 176.561L80.8554 175.598L72.7131 186.127L59.8065 191.859L52.7949 206.7L60.9562 197.252L76.6541 194.626L87.8291 183.001L110.26 176.561Z" fill="#F5F5F5"/>
<path d="M0 219C0 219 0.137203 218.806 0.421073 218.433C0.704942 218.06 1.12601 217.508 1.67956 216.78C2.79138 215.326 4.43782 213.183 6.56211 210.406C10.8249 204.858 17.0132 196.798 24.7392 186.736L24.7581 186.708L24.7913 186.703C28.7134 186.127 32.943 185.504 37.3998 184.852L37.3335 184.899C39.1598 181.603 41.109 178.081 43.1339 174.422L43.1481 174.398L43.1718 174.384C49.8569 170.701 57.2091 166.654 64.954 162.386L64.9351 162.4C73.5837 154.869 83.0507 146.629 92.9577 138.007L92.9814 137.984L93.0145 137.979C97.5328 137.105 102.354 136.175 107.241 135.231L107.17 135.273C109.474 132.412 111.939 129.357 114.423 126.269C116.732 123.403 119.017 120.565 121.283 117.756L121.33 117.694L121.406 117.709C126.653 118.875 131.824 120.017 136.891 121.146L136.929 121.155L136.953 121.184C153.45 138.555 168.585 154.486 181.331 167.91L181.34 167.92L181.345 167.929C186.27 177.127 190.642 185.296 194.403 192.326L194.389 192.308C202.304 199.792 208.573 205.722 212.864 209.783C215.003 211.813 216.654 213.376 217.766 214.434C218.319 214.963 218.74 215.364 219.024 215.633C219.308 215.902 219.445 216.044 219.445 216.044C219.445 216.044 219.294 215.912 219.01 215.647C218.721 215.378 218.296 214.982 217.737 214.462C216.616 213.409 214.96 211.856 212.807 209.84C208.502 205.788 202.219 199.877 194.28 192.416L194.271 192.407L194.266 192.397C190.49 185.371 186.105 177.212 181.17 168.024L181.184 168.047C168.429 154.628 153.285 138.706 136.778 121.349L136.839 121.382C131.767 120.258 126.601 119.111 121.354 117.949L121.477 117.907C119.211 120.716 116.926 123.559 114.617 126.42C112.133 129.503 109.673 132.558 107.364 135.42L107.336 135.453L107.293 135.462C102.406 136.407 97.5848 137.337 93.0666 138.21L93.1233 138.182C83.2163 146.799 73.7445 155.039 65.0912 162.565L65.0818 162.575L65.0723 162.579C57.3227 166.838 49.9657 170.88 43.2759 174.554L43.3137 174.516C41.2841 178.175 39.3254 181.698 37.4991 184.989L37.4755 185.031L37.4282 185.036C32.9714 185.683 28.7418 186.297 24.8149 186.868L24.867 186.835C17.1126 196.878 10.9053 204.919 6.62835 210.458C4.4946 213.22 2.83869 215.359 1.71741 216.809C1.15913 217.527 0.728598 218.074 0.439997 218.447C0.151397 218.816 0 219 0 219Z" fill="#263238"/>
<path d="M112.9 176.202C112.9 176.206 112.862 176.221 112.781 176.244C112.691 176.273 112.573 176.306 112.426 176.353C112.1 176.447 111.632 176.579 111.04 176.749C109.815 177.089 108.045 177.58 105.836 178.199C101.374 179.422 95.1151 181.136 87.867 183.119L87.9191 183.086C85.7096 185.39 83.3156 187.883 80.8365 190.461C79.4408 191.911 78.0735 193.332 76.7441 194.716L76.7157 194.744L76.6778 194.749C70.8159 195.721 65.4508 196.609 60.9751 197.35L61.0319 197.317C58.1601 200.618 55.7992 203.324 54.1528 205.217C53.3343 206.147 52.6909 206.874 52.2461 207.384C52.0332 207.625 51.8629 207.809 51.7399 207.946C51.6264 208.074 51.5601 208.13 51.5601 208.13C51.5601 208.13 51.6074 208.059 51.7163 207.927C51.8345 207.786 51.9954 207.592 52.1988 207.346C52.6341 206.832 53.2633 206.09 54.0629 205.146C55.6952 203.239 58.0323 200.514 60.8805 197.19L60.9042 197.162L60.9373 197.157C65.4082 196.401 70.7734 195.495 76.6305 194.508L76.5643 194.546C77.8937 193.162 79.261 191.736 80.6567 190.287C83.1359 187.709 85.5298 185.22 87.744 182.921L87.7677 182.897L87.8008 182.888C95.0584 180.938 101.327 179.252 105.793 178.053C108.012 177.467 109.786 176.995 111.017 176.674C111.617 176.518 112.086 176.4 112.417 176.315C112.568 176.277 112.687 176.249 112.781 176.225C112.857 176.202 112.9 176.197 112.9 176.202Z" fill="#263238"/>
<path d="M148.421 166.192C148.421 166.258 142.02 166.315 134.128 166.315C126.232 166.315 119.835 166.258 119.835 166.192C119.835 166.126 126.232 166.069 134.128 166.069C142.02 166.069 148.421 166.126 148.421 166.192Z" fill="#263238"/>
<path d="M150.801 90.1573C150.801 90.1573 150.768 87.4706 150.654 87.447L145.123 88.6747C145.067 89.0241 144.366 93.4295 144.485 93.8592L150.706 95.5826C150.711 95.5826 150.806 90.3131 150.801 90.1573Z" fill="#FFBE9D"/>
<path d="M150.81 95.1765C150.82 95.1718 150.829 95.1293 150.839 95.0537C150.9 94.4541 150.862 91.8288 150.541 91.7155C150.181 91.588 149.282 91.7957 149.221 92.1404C149.159 92.4851 149.367 95.4409 149.367 95.4409C149.367 95.4409 149.429 95.9084 150.214 96.017C150.701 96.0878 150.81 95.1765 150.81 95.1765Z" fill="#FFBE9D"/>
<path d="M149.23 96.1209C149.24 96.1161 149.249 96.0736 149.258 95.9981C149.32 95.3984 149.282 92.7731 148.96 92.6598C148.601 92.5323 147.702 92.7401 147.64 93.0848C147.579 93.4294 147.787 96.3853 147.787 96.3853C147.787 96.3853 147.849 96.8527 148.634 96.9613C149.121 97.0322 149.23 96.1209 149.23 96.1209Z" fill="#FFBE9D"/>
<path d="M147.688 96.5886C147.697 96.5839 147.706 96.5414 147.716 96.4659C147.777 95.8662 147.74 93.2409 147.418 93.1276C147.058 93.0001 146.159 93.2078 146.098 93.5525C146.036 93.8972 146.245 96.853 146.245 96.853C146.245 96.853 146.306 97.3205 147.091 97.4291C147.579 97.5046 147.688 96.5886 147.688 96.5886Z" fill="#FFBE9D"/>
<path d="M146.155 97.0322C146.164 97.0274 146.174 96.985 146.183 96.9094C146.245 96.3097 146.207 93.6844 145.885 93.5711C145.526 93.4436 144.627 93.6514 144.565 93.9961C144.504 94.3408 144.712 97.2966 144.712 97.2966C144.712 97.2966 144.773 97.764 145.559 97.8726C146.046 97.9482 146.155 97.0322 146.155 97.0322Z" fill="#FFBE9D"/>
<path d="M149.206 92.9101C149.254 92.9148 149.306 93.4861 149.329 94.1897C149.353 94.8932 149.334 95.4598 149.287 95.4551C149.24 95.4504 149.188 94.879 149.164 94.1755C149.145 93.4719 149.164 92.9053 149.206 92.9101Z" fill="#EB996E"/>
<path d="M147.66 92.9003C147.707 92.9003 147.773 93.7124 147.806 94.7181C147.844 95.7239 147.835 96.5407 147.787 96.5407C147.74 96.5407 147.674 95.7286 147.641 94.7229C147.603 93.7171 147.612 92.9003 147.66 92.9003Z" fill="#EB996E"/>
<g opacity="0.78">
<path d="M146.084 93.0281C146.131 93.0281 146.197 93.8403 146.231 94.846C146.268 95.8517 146.259 96.6686 146.212 96.6686C146.164 96.6686 146.098 95.8565 146.065 94.8507C146.027 93.8497 146.037 93.0329 146.084 93.0281Z" fill="#EB996E"/>
</g>
<path d="M145.09 88.821C145.09 88.821 142.9 93.7836 143.222 94.0953C143.543 94.4022 144.57 94.8743 144.57 94.8743L145.09 88.821Z" fill="#FFBE9D"/>
<path d="M132.988 22.2447L131.384 40.8106L122.069 40.0693C122.012 38.9833 122.088 34.7857 122.088 34.7857C122.088 34.7857 118.213 34.186 118.165 30.3141C118.142 28.4349 118.412 24.5536 118.695 21.0548C119.008 17.1735 122.371 14.2554 126.265 14.4821C130.291 14.7182 133.334 18.2264 132.988 22.2447Z" fill="#FFBE9D"/>
<path d="M122.078 34.7246C122.078 34.7246 124.529 34.923 127.131 33.2939C127.131 33.2939 125.939 36.0798 122.069 35.7304L122.078 34.7246Z" fill="#EB996E"/>
<path d="M120.196 23.7655C120.186 24.0582 120.423 24.3085 120.73 24.3226C121.033 24.3368 121.288 24.1149 121.303 23.8268C121.312 23.5341 121.076 23.2838 120.768 23.2697C120.461 23.2508 120.205 23.4727 120.196 23.7655Z" fill="#263238"/>
<path d="M119.519 23.0057C119.585 23.0765 120.006 22.7696 120.602 22.7696C121.198 22.7649 121.634 23.0671 121.7 22.9963C121.733 22.9632 121.662 22.8357 121.473 22.6941C121.284 22.5571 120.967 22.4202 120.593 22.4249C120.224 22.4249 119.911 22.5619 119.732 22.7035C119.547 22.8404 119.486 22.9726 119.519 23.0057Z" fill="#263238"/>
<path d="M125.911 23.7659C125.901 24.0586 126.138 24.3089 126.445 24.3231C126.748 24.3372 127.003 24.1153 127.018 23.8273C127.027 23.5345 126.791 23.2843 126.483 23.2701C126.176 23.2512 125.92 23.4731 125.911 23.7659Z" fill="#263238"/>
<path d="M125.376 23.1143C125.447 23.1851 125.863 22.8782 126.459 22.8782C127.056 22.8735 127.491 23.1757 127.557 23.1048C127.59 23.0718 127.519 22.9443 127.33 22.8026C127.141 22.6657 126.824 22.5288 126.45 22.5335C126.081 22.5335 125.769 22.6704 125.589 22.8121C125.404 22.9537 125.343 23.0812 125.376 23.1143Z" fill="#263238"/>
<path d="M123.214 27.5247C123.219 27.4917 122.845 27.4256 122.249 27.35C122.097 27.3359 121.951 27.3028 121.927 27.1989C121.889 27.0903 121.955 26.9251 122.026 26.7504C122.168 26.3821 122.32 25.9996 122.476 25.5935C123.1 23.9504 123.554 22.5952 123.483 22.5716C123.417 22.548 122.854 23.8606 122.23 25.5085C122.078 25.9146 121.936 26.3018 121.799 26.6701C121.742 26.8448 121.643 27.0384 121.719 27.265C121.761 27.3784 121.87 27.4586 121.97 27.487C122.069 27.5153 122.154 27.52 122.23 27.5247C122.835 27.5531 123.209 27.5578 123.214 27.5247Z" fill="#263238"/>
<path d="M124.964 27.9356C124.87 27.9309 124.865 28.5731 124.312 29.0311C123.758 29.4891 123.072 29.4183 123.067 29.508C123.058 29.5505 123.219 29.6355 123.512 29.6402C123.796 29.6496 124.212 29.5599 124.553 29.2766C124.889 28.998 125.035 28.6203 125.059 28.3559C125.083 28.0915 125.012 27.9309 124.964 27.9356Z" fill="#263238"/>
<path d="M125.22 20.786C125.277 20.9466 125.873 20.871 126.573 20.956C127.273 21.0268 127.836 21.2299 127.931 21.0835C127.973 21.0127 127.874 20.8616 127.647 20.7058C127.42 20.5499 127.06 20.3988 126.639 20.3563C126.218 20.3091 125.835 20.3752 125.579 20.4791C125.324 20.583 125.196 20.7105 125.22 20.786Z" fill="#263238"/>
<path d="M119.741 21.2814C119.845 21.4183 120.257 21.2767 120.749 21.272C121.241 21.2484 121.662 21.3617 121.757 21.22C121.799 21.1492 121.733 21.017 121.548 20.8895C121.369 20.762 121.066 20.6581 120.73 20.6676C120.389 20.677 120.096 20.7998 119.926 20.9367C119.751 21.0784 119.694 21.2153 119.741 21.2814Z" fill="#263238"/>
<path d="M135.723 17.2911C135.746 16.5687 135.231 15.7991 134.507 15.7518C134.81 15.0625 134.616 14.1889 134.048 13.6932C133.48 13.1974 132.591 13.1171 131.947 13.5043C131.73 12.6685 131.01 11.9839 130.164 11.8092C129.317 11.6392 128.385 11.9886 127.859 12.6733C127.315 12.0358 126.426 11.7053 125.593 11.8375C124.761 11.9697 124.018 12.5552 123.701 13.3296C122.991 12.7346 121.96 12.541 121.08 12.8432C120.521 13.0321 120.039 13.4146 119.708 13.9009C119.277 13.764 118.832 13.6601 118.383 13.6932C117.806 13.7309 117.21 14.0378 116.987 14.5761C116.807 15.02 116.992 15.5913 117.385 15.8227C116.684 15.6527 115.847 16.1485 115.743 16.8756C115.648 17.5272 116.174 18.1599 116.803 18.311C116.566 18.4338 116.377 18.7077 116.401 18.9815C116.448 19.449 116.874 19.7937 117.304 19.9825C118.411 20.4689 119.698 20.3131 120.843 19.9259C121.988 19.5434 123.048 18.9438 124.183 18.533C125.319 18.1222 127.216 17.3808 128.356 17.7822C128.517 17.8389 128.669 17.9286 128.81 18.023C129.425 18.5093 129.828 19.2082 129.936 19.9825C129.941 20.0109 129.946 20.0345 129.946 20.0628C130.097 21.1677 130.069 22.2868 130.235 23.3916C130.395 24.4918 130.779 25.6156 131.597 26.3711C131.933 26.6827 132.524 26.8999 132.804 26.5316C132.912 26.39 132.927 26.2011 132.941 26.0264C133.092 24.1046 133.508 22.3387 133.731 20.4594C133.958 19.9778 134.407 19.5859 134.781 19.1846C135.273 18.6652 135.699 18.0136 135.723 17.2911Z" fill="#263238"/>
<path d="M124.169 15.3458C124.16 15.3505 124.093 15.1711 124.117 14.8311C124.146 14.5006 124.283 13.9906 124.737 13.5609C125.182 13.136 125.981 12.881 126.776 13.1596C127.159 13.2965 127.552 13.5704 127.732 14.0142C127.817 14.2361 127.831 14.4864 127.76 14.7272C127.689 14.9633 127.509 15.1899 127.259 15.2844C127.017 15.3741 126.724 15.3599 126.506 15.1994C126.284 15.0388 126.204 14.7555 126.232 14.5147C126.251 14.2739 126.379 14.0473 126.549 13.8962C126.715 13.7404 126.918 13.6459 127.112 13.5845C127.907 13.3532 128.687 13.5562 129.175 13.9245C129.421 14.1087 129.596 14.3447 129.676 14.5808C129.757 14.8169 129.747 15.0388 129.709 15.2041C129.619 15.5441 129.43 15.6527 129.43 15.6385C129.411 15.6243 129.567 15.4969 129.619 15.1852C129.643 15.0294 129.634 14.8311 129.553 14.6281C129.468 14.425 129.307 14.222 129.075 14.0614C128.621 13.7451 127.893 13.5751 127.183 13.797C126.842 13.9056 126.502 14.1606 126.473 14.5336C126.454 14.713 126.516 14.8972 126.658 14.9964C126.795 15.1002 127.003 15.1144 127.178 15.0483C127.538 14.9208 127.651 14.4345 127.514 14.0945C127.377 13.7404 127.046 13.4901 126.705 13.3626C126.01 13.1029 125.276 13.3107 124.86 13.679C124.434 14.052 124.273 14.5195 124.221 14.8311C124.16 15.1616 124.193 15.3458 124.169 15.3458Z" fill="#455A64"/>
<path d="M128.881 12.881C128.881 12.8669 129.004 12.8385 129.232 12.8149C129.459 12.796 129.795 12.7724 130.206 12.8385C130.613 12.9046 131.115 13.0793 131.512 13.4996C131.914 13.9009 132.099 14.6564 131.72 15.2514C131.659 15.3411 131.583 15.4261 131.507 15.4922L131.384 15.2844C131.711 15.1569 132.056 15.2419 132.307 15.4072C132.562 15.5724 132.737 15.8416 132.799 16.106C132.927 16.649 132.723 17.1306 132.496 17.4423C132.264 17.7586 132.009 17.9475 131.834 18.0655C131.654 18.1836 131.55 18.2308 131.54 18.2166C131.531 18.2025 131.621 18.1269 131.777 17.99C131.933 17.853 132.16 17.65 132.359 17.3478C132.553 17.0503 132.704 16.6112 132.586 16.1627C132.524 15.9407 132.387 15.7377 132.179 15.6102C131.976 15.478 131.706 15.4261 131.474 15.5158L130.835 15.7708L131.346 15.308C131.403 15.2561 131.465 15.19 131.512 15.1191C131.659 14.8878 131.706 14.5998 131.668 14.3401C131.63 14.0756 131.507 13.8443 131.342 13.6554C131.006 13.2777 130.552 13.0935 130.173 13.0132C129.392 12.8621 128.877 12.9283 128.881 12.881Z" fill="#455A64"/>
<path d="M134.488 16.9748C134.516 16.9701 134.587 17.1023 134.587 17.3431C134.587 17.5792 134.502 17.9239 134.251 18.2024C134.001 18.481 133.665 18.6085 133.433 18.6274C133.191 18.651 133.05 18.5991 133.054 18.5707C133.05 18.5046 133.641 18.5141 134.067 18.0372C134.497 17.5603 134.422 16.9748 134.488 16.9748Z" fill="#455A64"/>
<path d="M117.934 14.9538C117.924 14.9444 118.033 14.8169 118.293 14.6611C118.553 14.51 118.979 14.3447 119.528 14.3447C120.067 14.3447 120.753 14.5242 121.283 15.0577C121.534 15.3174 121.766 15.6857 121.742 16.1248C121.714 16.564 121.335 16.9936 120.829 16.9653C120.578 16.9417 120.361 16.7575 120.275 16.5451C120.186 16.3326 120.181 16.1059 120.238 15.8982C120.361 15.4685 120.72 15.2041 121.075 15.086C121.435 14.9633 121.813 14.9963 122.121 15.1049C122.433 15.2135 122.684 15.3882 122.887 15.5724C123.294 15.9454 123.507 16.3326 123.649 16.5876C123.791 16.852 123.852 17.0031 123.838 17.0125C123.824 17.022 123.734 16.885 123.568 16.6395C123.403 16.3987 123.166 16.0351 122.773 15.7046C122.395 15.3835 121.775 15.0813 121.146 15.3032C120.843 15.4071 120.555 15.6432 120.469 15.9643C120.375 16.2759 120.521 16.7009 120.853 16.7245C121.174 16.7528 121.491 16.427 121.501 16.1107C121.524 15.7754 121.34 15.4543 121.118 15.2183C120.654 14.7319 120.029 14.5478 119.523 14.5242C119.007 14.5005 118.596 14.6328 118.336 14.7508C118.08 14.8688 117.948 14.9727 117.934 14.9538Z" fill="#455A64"/>
<path d="M131.682 23.9961C131.748 23.9677 134.346 23.2122 134.261 25.8564C134.176 28.5006 131.536 27.8726 131.531 27.7924C131.526 27.7121 131.682 23.9961 131.682 23.9961Z" fill="#FFBE9D"/>
<path d="M132.368 26.815C132.382 26.8055 132.416 26.848 132.491 26.8858C132.567 26.9236 132.695 26.9519 132.837 26.9047C133.121 26.8102 133.371 26.3758 133.4 25.8989C133.414 25.6581 133.371 25.4268 133.291 25.2332C133.215 25.0349 133.097 24.8979 132.955 24.8696C132.818 24.8318 132.714 24.9121 132.681 24.9876C132.643 25.0585 132.657 25.1151 132.643 25.1198C132.633 25.1246 132.586 25.0726 132.614 24.964C132.628 24.9121 132.662 24.8507 132.723 24.8035C132.789 24.7563 132.884 24.7327 132.979 24.7421C133.182 24.761 133.362 24.9546 133.447 25.1671C133.546 25.3795 133.598 25.6392 133.584 25.9084C133.551 26.4419 133.262 26.9283 132.875 27.0274C132.685 27.0699 132.534 27.0085 132.453 26.9424C132.373 26.8763 132.364 26.8197 132.368 26.815Z" fill="#EB996E"/>
<path d="M115.246 152.518L116.969 160.431C116.969 160.431 109.489 164.837 109.664 166.329L125.153 163.548L122.977 151.111L115.246 152.518Z" fill="#263238"/>
<path d="M125.153 163.548L124.884 162.301L110.132 165.432C110.132 165.432 109.498 165.857 109.663 166.324L125.153 163.548Z" fill="#455A64"/>
<path d="M132.865 153.391L133.121 161.484C133.121 161.484 124.964 164.463 124.865 165.96L140.605 166.031L140.724 153.405L132.865 153.391Z" fill="#263238"/>
<g opacity="0.6">
<path d="M140.605 166.026L140.567 164.751L125.489 165.162C125.489 165.162 124.789 165.464 124.865 165.955L140.605 166.026Z" fill="#455A64"/>
</g>
<path d="M114.399 159.308C114.399 159.308 106.333 119.806 106.323 119.017L120.734 111.41L126.317 157.769L114.399 159.308Z" fill="#263238"/>
<path d="M132.548 160.629L121.401 92.1684V77.4034L136.626 78.8153C136.82 79.3913 141.802 160.724 141.802 160.724L140.231 160.634H132.548" fill="#263238"/>
<path d="M112.644 76.3556L106.323 119.017L120.45 115.598L126.208 77.7438L112.644 76.3556Z" fill="#263238"/>
<path d="M125.707 79.9728C125.707 79.9728 125.707 80.0436 125.721 80.1805C125.735 80.3269 125.759 80.5299 125.787 80.7944C125.849 81.3374 125.939 82.1306 126.057 83.1458C126.298 85.1856 126.663 88.1367 127.136 91.7819C128.077 99.0676 129.511 109.12 131.044 120.226C131.81 125.779 132.515 131.076 133.111 135.897C133.267 137.101 133.39 138.282 133.561 139.42C133.736 140.558 133.906 141.663 134.072 142.73C134.398 144.864 134.696 146.852 134.975 148.67C135.524 152.301 135.955 155.242 136.239 157.277C136.381 158.293 136.485 159.086 136.546 159.624C136.579 159.893 136.598 160.096 136.608 160.233C136.612 160.304 136.612 160.356 136.608 160.389C136.603 160.432 136.584 160.384 136.584 160.394C136.584 160.394 136.584 160.399 136.589 160.408C136.593 160.422 136.617 160.413 136.617 160.389C136.627 160.351 136.627 160.299 136.627 160.233C136.622 160.096 136.608 159.889 136.584 159.619C136.532 159.081 136.442 158.288 136.31 157.268C136.049 155.228 135.638 152.287 135.108 148.651C134.838 146.833 134.545 144.84 134.228 142.706C134.067 141.639 133.901 140.534 133.731 139.396C133.565 138.258 133.442 137.082 133.291 135.878C132.7 131.058 132.004 125.76 131.238 120.202C129.7 109.097 128.248 99.0487 127.273 91.7677C126.79 88.132 126.403 85.1856 126.133 83.1411C126 82.1259 125.901 81.3374 125.83 80.7944C125.792 80.5299 125.764 80.3316 125.745 80.1853C125.726 80.0436 125.707 79.9728 125.707 79.9728Z" fill="#455A64"/>
<path d="M117.214 158.939C117.214 158.939 117.21 158.868 117.186 158.736C117.162 158.595 117.129 158.401 117.091 158.146C117.001 157.617 116.869 156.852 116.703 155.875C116.358 153.896 115.857 151.044 115.237 147.522C113.978 140.468 112.242 130.736 110.326 119.985C110.184 119.324 110.137 118.653 110.208 117.987C110.293 117.326 110.402 116.661 110.501 116.004C110.704 114.692 110.903 113.393 111.102 112.123C111.504 109.578 111.901 107.127 112.289 104.795C113.065 100.125 113.817 95.932 114.489 92.4143C115.161 88.9013 115.752 86.0635 116.197 84.1135C116.41 83.1361 116.599 82.3806 116.718 81.8706C116.774 81.6204 116.822 81.4268 116.855 81.2851C116.883 81.1529 116.893 81.0821 116.893 81.0821C116.893 81.0821 116.869 81.1482 116.836 81.2757C116.798 81.4126 116.746 81.6062 116.68 81.8565C116.547 82.3664 116.344 83.1172 116.121 84.0946C115.648 86.0399 115.038 88.873 114.352 92.386C113.666 95.899 112.9 100.092 112.109 104.762C111.712 107.094 111.315 109.55 110.908 112.09C110.709 113.365 110.506 114.659 110.302 115.971C110.203 116.632 110.094 117.284 110.009 117.964C109.938 118.644 109.99 119.343 110.132 120.018C112.072 130.764 113.827 140.491 115.1 147.541C115.743 151.054 116.263 153.901 116.628 155.88C116.812 156.857 116.954 157.617 117.054 158.146C117.101 158.401 117.143 158.595 117.167 158.736C117.195 158.873 117.214 158.939 117.214 158.939Z" fill="#455A64"/>
<path d="M121.401 91.6827C121.349 91.6922 122.007 96.1118 122.873 101.561C123.739 107.01 124.481 111.42 124.533 111.41C124.585 111.401 123.928 106.981 123.062 101.532C122.201 96.0834 121.453 91.678 121.401 91.6827Z" fill="#455A64"/>
<path d="M132.416 160.507C132.416 160.521 132.543 160.54 132.78 160.569C133.016 160.597 133.357 160.63 133.783 160.663C134.63 160.729 135.803 160.791 137.099 160.814C138.396 160.833 139.569 160.809 140.421 160.772C140.846 160.753 141.187 160.734 141.424 160.71C141.66 160.691 141.793 160.673 141.793 160.658C141.793 160.63 141.268 160.63 140.421 160.635C139.574 160.64 138.4 160.64 137.109 160.621C135.817 160.597 134.644 160.559 133.797 160.526C132.941 160.498 132.416 160.479 132.416 160.507Z" fill="#455A64"/>
<path d="M114.4 159.308C114.4 159.322 114.57 159.313 114.873 159.284C115.213 159.247 115.644 159.204 116.155 159.147C117.233 159.025 118.729 158.84 120.37 158.628C122.017 158.415 123.502 158.212 124.581 158.057C125.087 157.981 125.513 157.915 125.854 157.863C126.152 157.816 126.317 157.783 126.317 157.769C126.317 157.754 126.147 157.759 125.844 157.787C125.541 157.816 125.101 157.858 124.562 157.92C123.483 158.042 121.988 158.222 120.342 158.434C118.695 158.647 117.21 158.855 116.131 159.01C115.625 159.091 115.199 159.157 114.858 159.209C114.56 159.261 114.395 159.294 114.4 159.308Z" fill="#455A64"/>
<path d="M42.8217 10.0806C42.8217 10.0806 49.0763 7.6442 53.3485 8.86241C57.6207 10.0806 58.8934 12.7295 62.1201 12.5029C64.6654 12.3235 66.468 11.2233 67.3811 8.52245C68.2942 5.81688 68.299 2.45026 76.9901 2.77134C83.6421 3.01687 84.3139 3.98955 84.3139 3.98955L85.0283 21.6489C81.2623 21.054 77.4159 20.629 73.2856 21.2098C73.2856 21.2098 69.8744 21.8236 69.4108 25.45C68.9282 29.2226 65.0439 30.6911 62.7162 30.6911C59.3807 30.6911 57.6964 28.4436 54.8719 27.7967C50.4436 26.7768 42.8217 29.8743 42.8217 29.8743V10.0806Z" fill="#53BA5E"/>
<path d="M87.7392 47.0104L83.9164 46.7412L84.0158 52.7284L88.1177 55.722L88.5293 55.5662L88.7658 48.7574L87.7392 47.0104Z" fill="#EB996E"/>
<path d="M66.7235 23.6934C66.6573 23.6934 66.5437 20.7659 66.4727 17.1537C66.4018 13.5416 66.4018 10.6094 66.468 10.6094C66.5342 10.6094 66.6478 13.5369 66.7188 17.149C66.7897 20.7612 66.7945 23.6934 66.7235 23.6934Z" fill="#263238"/>
<path d="M59.7261 16.0399C59.7923 16.0399 59.8491 19.0618 59.8491 22.792C59.8491 26.5222 59.7923 29.5441 59.7261 29.5441C59.6599 29.5441 59.6031 26.5222 59.6031 22.792C59.6031 19.0618 59.6551 16.0399 59.7261 16.0399Z" fill="#263238"/>
<g opacity="0.2">
<path d="M59.7259 26.5507C59.6786 27.9059 59.7259 29.7049 59.7259 29.7049C60.7195 30.3659 62.7681 30.7673 63.9083 30.4131C63.9178 30.4084 63.9319 30.4084 63.9414 30.4037C65.479 29.9174 66.6382 28.6425 67.0167 27.0796C67.1586 26.4988 67.2343 25.9369 67.1964 25.5072C66.8179 21.0168 66.3306 15.4216 66.4726 10.917C66.4726 10.917 63.7616 13.5187 59.5556 12.4043L59.7259 26.5507Z" fill="black"/>
</g>
<g opacity="0.6">
<path d="M59.0969 13.0608C59.0874 13.075 58.8792 12.9569 58.5149 12.7303C58.108 12.48 57.5924 12.1589 56.9678 11.7765C55.662 10.9974 53.7932 9.91138 51.5034 9.47698C49.2135 9.03786 47.0703 9.36838 45.6225 9.82639C44.1653 10.2844 43.3516 10.7991 43.3279 10.7566C43.3185 10.7424 43.5172 10.6102 43.8909 10.3977C44.2694 10.19 44.8324 9.9161 45.5658 9.66113C47.0182 9.1559 49.204 8.7876 51.5459 9.23617C53.8926 9.68474 55.7661 10.8132 57.0577 11.6301C57.7059 12.0456 58.2169 12.4045 58.567 12.6547C58.9171 12.9003 59.1063 13.0466 59.0969 13.0608Z" fill="white"/>
</g>
<g opacity="0.6">
<path d="M74.4684 4.04188C74.4637 4.08438 73.9953 4.02771 73.2572 4.11743C72.5239 4.20242 71.5114 4.481 70.5794 5.12788C69.6521 5.77477 69.037 6.62468 68.7011 7.28101C68.3605 7.94205 68.2516 8.40006 68.2091 8.3859C68.1854 8.38118 68.2327 7.90428 68.5402 7.20546C68.843 6.51136 69.4628 5.60006 70.4327 4.92485C71.4026 4.24964 72.4718 3.98522 73.2336 3.94272C74.0095 3.89551 74.4731 4.01355 74.4684 4.04188Z" fill="white"/>
</g>
<path d="M84.6546 2.17676L89.7027 142.153L88.8274 142.356L83.6468 2.24286L84.6546 2.17676Z" fill="#263238"/>
<path d="M93.9844 54.933L92.0872 48.1384L85.3595 43.4402C85.3595 43.4402 84.5741 43.9077 85.7758 45.6831L87.2804 47.7607C87.2804 47.7607 87.233 50.4662 88.5246 52.0527L88.113 55.7215L93.9844 54.933Z" fill="#FFBE9D"/>
<path d="M83.8977 47.9783C84.6973 48.5354 85.2555 49.0029 85.8091 49.7536C85.9226 49.9095 85.9415 50.2022 85.951 50.3958C85.9557 50.5894 85.8658 50.7971 85.6908 50.8727C85.5536 50.9341 85.388 50.9057 85.2508 50.8302C85.1183 50.7594 85.0095 50.6461 84.9054 50.5375C84.4702 50.0936 84.0396 49.645 83.6044 49.2012C83.4388 49.0312 83.1738 48.7054 83.1596 48.4693C83.136 48.1294 83.5239 47.7658 83.8977 47.9783Z" fill="#FFBE9D"/>
<path d="M83.8881 49.7154C84.6877 50.2726 85.246 50.7401 85.7995 51.4908C85.9131 51.6466 85.932 51.9394 85.9414 52.133C85.9462 52.3266 85.8563 52.5343 85.6812 52.6099C85.544 52.6713 85.3784 52.6429 85.2412 52.5674C85.1088 52.4966 84.9999 52.3832 84.8959 52.2746C84.4606 51.8308 84.0301 51.3822 83.5948 50.9384C83.4292 50.7684 83.1642 50.4426 83.1501 50.2065C83.1217 49.8665 83.5096 49.503 83.8881 49.7154Z" fill="#FFBE9D"/>
<path d="M84.172 51.5994C84.9716 52.1566 85.5298 52.624 86.0834 53.3748C86.1969 53.5306 86.2158 53.8234 86.2253 54.017C86.23 54.2105 86.1401 54.4183 85.9651 54.4939C85.8279 54.5552 85.6623 54.5269 85.5251 54.4514C85.3926 54.3805 85.2838 54.2672 85.1797 54.1586C84.7444 53.7148 84.3139 53.2662 83.8786 52.8224C83.7131 52.6524 83.4481 52.3266 83.4339 52.0905C83.4055 51.7505 83.7935 51.3869 84.172 51.5994Z" fill="#FFBE9D"/>
<path d="M84.2052 46.7836C84.5032 46.9441 84.7729 47.0858 84.9905 47.3455C85.2082 47.6052 85.3123 47.9924 85.1514 48.2898C85.0899 48.4079 84.9811 48.507 84.8486 48.5212C84.7587 48.5306 84.6688 48.4929 84.5837 48.4551C84.3991 48.3701 84.2288 48.2615 84.0727 48.1387C83.9071 48.0065 83.7794 47.846 83.6374 47.6854C83.4908 47.5202 83.3914 47.3644 83.5144 47.0858C83.6138 46.8591 83.7131 46.7269 84.2052 46.7836Z" fill="#FFBE9D"/>
<path d="M93.5917 51.538L103.806 60.6982L100.485 68.0028L88.7659 55.5232L93.5917 51.538Z" fill="#FFBE9D"/>
<path d="M93.1849 51.1411L102.273 58.0396C102.273 58.0396 110.728 43.6476 111.476 42.7552C112.223 41.8628 114.12 40.9043 114.12 40.9043L113.075 59.3522C113.075 59.3522 108.5 71.0008 102.226 70.3681C97.4193 69.8817 89.1161 57.2321 89.1161 57.2321L93.1849 51.1411Z" fill="#54BA5E"/>
<g opacity="0.2">
<path d="M102.108 57.8224C100.845 59.7536 100.499 62.2561 101.19 64.4565C101.261 64.6831 101.356 64.9192 101.559 65.042C101.862 65.2214 102.278 65.0372 102.467 64.7398C102.657 64.4423 102.68 64.074 102.704 63.7199C102.879 64.0457 103.068 64.3856 103.376 64.5981C103.683 64.8106 104.147 64.8389 104.398 64.5651C104.701 64.2345 104.535 63.7104 104.35 63.2996C103.575 61.5479 102.803 59.7961 102.027 58.049" fill="black"/>
</g>
<path d="M95.475 53.2097C95.5318 53.2475 94.5998 54.8056 93.3933 56.6896C92.1869 58.5736 91.1602 60.0751 91.1034 60.0373C91.0467 59.9996 91.9787 58.4414 93.1852 56.5574C94.3916 54.6687 95.4135 53.1719 95.475 53.2097Z" fill="#263238"/>
<path d="M93.1613 52.9545C93.1377 52.9357 93.256 52.8129 93.4594 52.8932C93.554 52.9309 93.6676 53.0159 93.7007 53.1765C93.7385 53.3417 93.6297 53.5212 93.4831 53.592C93.3364 53.6723 93.1282 53.6581 93.0147 53.5353C92.9011 53.4173 92.8964 53.2756 92.9201 53.1765C92.9721 52.9593 93.1377 52.9357 93.1424 52.964C93.1613 52.997 93.0856 53.0632 93.0904 53.1954C93.0951 53.3323 93.2039 53.4598 93.3695 53.3748C93.5351 53.2898 93.4925 53.1245 93.379 53.0443C93.2749 52.964 93.1755 52.9876 93.1613 52.9545Z" fill="#263238"/>
<path d="M102.288 62.4072C102.231 62.4261 101.89 61.4723 101.876 60.2305C101.852 58.9934 102.165 58.0254 102.221 58.0443C102.292 58.0584 102.098 59.0264 102.122 60.2257C102.132 61.4298 102.359 62.393 102.288 62.4072Z" fill="#263238"/>
<path d="M104.048 62.3462C103.991 62.3793 103.395 61.5057 102.884 60.3064C102.363 59.1118 102.136 58.0777 102.198 58.0589C102.269 58.04 102.6 59.0315 103.111 60.2073C103.612 61.3924 104.109 62.3132 104.048 62.3462Z" fill="#263238"/>
<path d="M133.135 39.1478L131.763 36.4375H121.827L120.266 39.5161L114.125 40.9043L111.48 80.416C111.461 80.9165 111.584 81.4123 111.83 81.8467L135.969 82.7721L136.953 83.1735C137.819 82.6399 137.279 80.4396 137.289 79.4055L137.596 59.8386L142.37 44.2048L133.135 39.1478Z" fill="#54BA5E"/>
<g opacity="0.2">
<path d="M122.835 40.5167C123.422 39.9312 124.004 39.3504 124.59 38.7649C125.248 40.3467 125.905 41.9332 126.563 43.515C128.834 42.1835 130.996 40.6725 133.026 39.001C130.797 39.714 128.569 40.427 126.341 41.1447C125.778 39.6479 125.21 38.1511 124.647 36.6543C124.25 38.0142 123.687 39.3221 122.967 40.5403" fill="black"/>
</g>
<path d="M150.848 88.6885L144.343 89.0238L144.329 70.387L137.601 59.8291L142.375 44.1954C143.359 44.5826 150.773 63.158 152.66 68.2008C152.935 68.928 153.053 69.7023 153.01 70.4814L150.848 88.6885Z" fill="#54BA5E"/>
<path d="M114.125 49.0537C114.191 49.0584 113.87 52.8831 113.406 57.5859C112.942 62.2935 112.507 66.104 112.441 66.0945C112.375 66.0898 112.696 62.2699 113.16 57.5623C113.624 52.8595 114.054 49.049 114.125 49.0537Z" fill="#263238"/>
<path d="M124.643 36.6645C124.704 36.6928 124.174 38.1141 123.46 39.8422C123.412 39.9508 123.37 40.0547 123.327 40.1633C123.28 40.2719 123.233 40.3947 123.11 40.4938C122.987 40.6024 122.783 40.5836 122.679 40.5222C122.566 40.4655 122.49 40.4041 122.4 40.3475C122.088 40.135 121.79 39.9319 121.506 39.7431C121 39.3937 120.697 39.1623 120.716 39.134C120.735 39.1056 121.07 39.2851 121.6 39.5967C121.889 39.7714 122.197 39.9603 122.523 40.1539C122.698 40.2625 122.878 40.3947 122.958 40.3002C123.067 40.2105 123.133 39.9508 123.228 39.7478C123.947 38.0196 124.581 36.6362 124.643 36.6645Z" fill="#263238"/>
<path d="M132.543 39.0814C132.553 39.1144 131.976 39.3458 131.025 39.6905C130.078 40.0399 128.763 40.5026 127.306 40.9984C127.032 41.0929 126.767 41.1826 126.511 41.2676L126.402 41.3053L126.36 41.2015C125.849 39.9644 125.404 38.8689 125.097 38.0757C124.789 37.2871 124.619 36.8008 124.647 36.7913C124.675 36.7772 124.898 37.2399 125.248 38.0143C125.593 38.7886 126.066 39.8699 126.587 41.107L126.435 41.0409C126.691 40.9512 126.961 40.8615 127.23 40.7671C128.687 40.2713 130.012 39.8321 130.973 39.5252C131.933 39.223 132.534 39.0531 132.543 39.0814Z" fill="#263238"/>
<path d="M141.353 44.7572C141.372 44.8281 139.971 45.2058 138.349 45.933C136.721 46.6507 135.505 47.4345 135.463 47.3731C135.444 47.3448 135.727 47.1181 136.219 46.797C136.712 46.476 137.426 46.0746 138.244 45.711C139.068 45.3475 139.839 45.0878 140.411 44.9367C140.984 44.7809 141.343 44.7242 141.353 44.7572Z" fill="#263238"/>
<path d="M124.642 36.6641C124.647 36.6641 124.652 36.7019 124.657 36.7822C124.661 36.8766 124.666 36.9899 124.671 37.1269C124.68 37.4338 124.699 37.8823 124.704 38.4631C124.718 39.6247 124.709 41.3009 124.628 43.3737C124.482 47.5195 123.961 53.2281 123.133 59.4986C122.731 62.6385 122.286 65.618 121.988 68.3377C121.685 71.0574 121.553 73.5222 121.595 75.5903C121.624 77.6585 121.813 79.3252 121.983 80.4679C122.054 81.044 122.144 81.4831 122.192 81.7853C122.211 81.9222 122.229 82.0355 122.244 82.13C122.253 82.2055 122.258 82.248 122.253 82.248C122.248 82.248 122.239 82.2102 122.22 82.1347C122.201 82.045 122.173 81.9316 122.144 81.7947C122.083 81.4972 121.979 81.0581 121.894 80.4821C121.695 79.3394 121.477 77.6679 121.43 75.5903C121.368 73.5127 121.482 71.0385 121.771 68.3141C122.059 65.5849 122.494 62.6055 122.897 59.4702C123.725 53.2045 124.269 47.5053 124.463 43.369C124.567 41.3009 124.6 39.6247 124.619 38.4678C124.623 37.9059 124.628 37.4574 124.633 37.1363C124.638 36.9946 124.638 36.8813 124.642 36.7869C124.633 36.7019 124.638 36.6641 124.642 36.6641Z" fill="#263238"/>
<path d="M151.198 85.8361C151.194 85.9022 149.651 85.8834 147.749 85.7889C145.847 85.6945 144.31 85.567 144.314 85.4962C144.319 85.4301 145.862 85.4489 147.763 85.5434C149.665 85.6378 151.203 85.77 151.198 85.8361Z" fill="#263238"/>
<path d="M145.426 86.5633C145.45 86.5917 145.417 86.6578 145.445 86.738C145.483 86.8277 145.549 86.875 145.634 86.8041C145.72 86.7333 145.691 86.6578 145.606 86.6011C145.53 86.5539 145.459 86.5728 145.436 86.5444C145.407 86.5255 145.478 86.4122 145.653 86.4358C145.734 86.45 145.838 86.4972 145.89 86.62C145.947 86.7475 145.89 86.908 145.781 86.993C145.677 87.0827 145.507 87.1016 145.393 87.0213C145.284 86.9411 145.256 86.8277 145.261 86.7475C145.284 86.5775 145.417 86.535 145.426 86.5633Z" fill="#263238"/>
<g opacity="0.2">
<path d="M137.691 59.7819C136.986 58.507 136.276 57.2322 135.571 55.9573C134.724 62.6811 135.202 69.5701 136.972 76.1145C137.189 70.6986 137.407 65.278 137.625 59.8622" fill="black"/>
</g>
<g opacity="0.2">
<path d="M108.079 48.2419C109.332 50.1259 111.811 50.8389 113.95 50.0928C114.229 50.5744 114.797 50.8389 115.35 50.8766C115.909 50.9144 116.457 50.7539 116.983 50.5603C120.952 49.1012 124.051 45.5033 124.903 41.367C121.842 42.4388 119.779 45.4041 116.774 46.627C114.347 47.6186 111.641 47.3542 109.479 45.8763L108.079 48.2419Z" fill="black"/>
</g>
<path d="M126.923 52.7611C126.913 52.7517 127.051 52.7422 127.306 52.7375C127.599 52.7281 127.978 52.7186 128.437 52.7092C129.416 52.6903 130.836 52.6667 132.543 52.6572H132.657L132.648 52.7753C132.539 54.2673 132.411 55.9955 132.274 57.837L132.269 57.9031L132.208 57.9362C132.127 57.9787 132.042 58.0259 131.957 58.0684C131.001 58.5689 130.079 59.0552 129.208 59.5085L129.137 59.5463L129.076 59.4991C128.148 58.7436 127.292 58.04 126.525 57.4168L126.483 57.3837L126.488 57.3318C126.606 55.9625 126.705 54.8245 126.781 53.9793C126.819 53.611 126.847 53.3136 126.871 53.0727C126.904 52.8603 126.918 52.7517 126.923 52.7611C126.928 52.7705 126.928 52.8886 126.923 53.1058C126.913 53.3513 126.899 53.663 126.88 54.0407C126.833 54.8717 126.771 55.9908 126.696 57.3412L126.658 57.2562C127.429 57.8748 128.295 58.5642 129.232 59.3102L129.104 59.296C129.974 58.838 130.892 58.3517 131.848 57.8464C131.933 57.7992 132.018 57.7567 132.099 57.7142L132.033 57.8134C132.179 55.9719 132.316 54.2437 132.435 52.7564L132.543 52.8697C130.883 52.8603 129.492 52.8367 128.503 52.8178C128.035 52.8083 127.651 52.7989 127.349 52.7894C127.079 52.78 126.932 52.7705 126.923 52.7611Z" fill="#263238"/>
<path d="M132.397 55.0267C132.397 55.0928 131.134 55.1258 129.582 55.0975C128.025 55.0692 126.767 54.9889 126.771 54.9228C126.771 54.8567 128.035 54.8237 129.586 54.852C131.138 54.8803 132.397 54.9606 132.397 55.0267Z" fill="#FAFAFA"/>
<path d="M132.349 56.0042C132.349 56.0703 131.086 56.1034 129.534 56.0751C127.978 56.0467 126.719 55.9665 126.724 55.9003C126.724 55.8342 127.987 55.8012 129.539 55.8295C131.091 55.8579 132.354 55.9334 132.349 56.0042Z" fill="#FAFAFA"/>
<path d="M114.991 82.0402C114.986 82.1063 114.48 82.0166 114.158 81.5256C113.827 81.0392 113.931 80.5387 113.997 80.5623C114.068 80.567 114.082 80.9873 114.362 81.3886C114.627 81.8042 115.014 81.9741 114.991 82.0402Z" fill="#263238"/>
<path d="M115.62 81.7809C115.578 81.8282 115.119 81.3938 114.939 80.6619C114.75 79.9347 114.948 79.3351 115.005 79.3539C115.076 79.3681 115 79.9347 115.175 80.6005C115.341 81.271 115.677 81.7337 115.62 81.7809Z" fill="#263238"/>
<path d="M133.84 79.0656C133.901 79.0561 133.958 80.0146 133.461 81.0534C132.974 82.0969 132.198 82.6636 132.165 82.6116C132.113 82.5597 132.78 81.9411 133.239 80.9495C133.712 79.9627 133.764 79.0561 133.84 79.0656Z" fill="#263238"/>
<path d="M123.914 38.6757H125.22L125.778 39.6483L125.229 41.1546L123.928 41.0082L123.422 39.9175L123.914 38.6757Z" fill="#455A64"/>
<path d="M123.928 41.0082C123.928 41.0082 116.074 46.0557 112.062 44.0396C108.083 42.0375 103.087 39.5539 98.5926 40.1441C94.098 40.739 91.1032 42.5192 91.1032 42.5192L89.698 45.9235L93.3268 47.2315C93.3268 47.2315 98.6163 44.6817 102.463 45.3664C105.15 45.8433 110.316 48.5772 113.794 48.3175C117.271 48.0578 122.073 45.5883 125.234 41.1546L123.928 41.0082Z" fill="#455A64"/>
<path d="M124.879 41.5705C124.865 41.5941 124.638 41.4902 124.368 41.3391C124.098 41.188 123.89 41.0464 123.904 41.0228C123.918 40.9991 124.146 41.103 124.415 41.2541C124.685 41.4052 124.893 41.5469 124.879 41.5705Z" fill="#263238"/>
<path d="M125.655 39.4786C125.674 39.4975 125.281 39.8517 124.784 40.2672C124.287 40.6827 123.866 40.999 123.852 40.9802C123.833 40.9613 124.226 40.6071 124.723 40.1916C125.219 39.7761 125.64 39.455 125.655 39.4786Z" fill="#263238"/>
<path d="M125.101 39.9694C125.087 39.9883 124.746 39.7616 124.396 39.3933C124.046 39.0298 123.833 38.6756 123.857 38.6615C123.881 38.6473 124.127 38.9684 124.467 39.3272C124.813 39.6861 125.12 39.9458 125.101 39.9694Z" fill="#263238"/>
<path d="M118.615 46.7974C118.601 46.8021 118.535 46.6463 118.44 46.3913C118.345 46.1364 118.218 45.7822 118.085 45.3903C117.953 44.9984 117.834 44.6396 117.754 44.3799C117.673 44.1202 117.631 43.9549 117.645 43.9502C117.659 43.9455 117.726 44.1013 117.82 44.3562C117.915 44.6112 118.042 44.9654 118.175 45.3573C118.307 45.7492 118.426 46.108 118.506 46.3677C118.587 46.6321 118.629 46.7927 118.615 46.7974Z" fill="#FAFAFA"/>
<path d="M120.578 45.6209C120.555 45.6351 120.233 45.1488 119.859 44.5397C119.486 43.9305 119.202 43.4206 119.225 43.4064C119.249 43.3923 119.571 43.8739 119.944 44.4877C120.318 45.1015 120.602 45.6068 120.578 45.6209Z" fill="#FAFAFA"/>
<path d="M122.357 44.2476C122.338 44.2665 121.979 43.9407 121.553 43.5205C121.127 43.1002 120.801 42.7414 120.819 42.7272C120.838 42.7083 121.198 43.0341 121.624 43.4544C122.05 43.8699 122.376 44.2287 122.357 44.2476Z" fill="#FAFAFA"/>
<path d="M123.833 42.7974C123.814 42.8163 123.545 42.6179 123.228 42.3535C122.911 42.0891 122.665 41.853 122.683 41.8341C122.702 41.8152 122.972 42.0136 123.289 42.278C123.606 42.5424 123.847 42.7785 123.833 42.7974Z" fill="#FAFAFA"/>
<path d="M115.823 48.015C115.795 48.015 115.734 47.25 115.682 46.3057C115.63 45.3613 115.611 44.5917 115.639 44.5917C115.667 44.5917 115.729 45.3566 115.781 46.301C115.833 47.2453 115.852 48.0102 115.823 48.015Z" fill="#FAFAFA"/>
<path d="M113.132 48.4351C113.103 48.4303 113.203 47.5568 113.349 46.4755C113.496 45.399 113.638 44.5254 113.661 44.5302C113.69 44.5349 113.591 45.4084 113.444 46.4897C113.297 47.5663 113.16 48.4351 113.132 48.4351Z" fill="#FAFAFA"/>
<path d="M111.537 43.7374C111.565 43.7468 111.31 44.6865 110.974 45.8386C110.638 46.9907 110.34 47.9209 110.316 47.9161C110.288 47.9067 110.544 46.9671 110.879 45.815C111.215 44.6581 111.513 43.7279 111.537 43.7374Z" fill="#FAFAFA"/>
<path d="M109.711 42.8729C109.735 42.8824 109.437 43.8503 109.039 45.0308C108.642 46.2159 108.301 47.1697 108.277 47.1603C108.254 47.1509 108.552 46.1829 108.949 45.0025C109.342 43.8173 109.683 42.8682 109.711 42.8729Z" fill="#FAFAFA"/>
<path d="M107.062 41.6406C107.09 41.65 106.825 42.6982 106.47 43.9826C106.12 45.2716 105.813 46.3104 105.784 46.3009C105.756 46.2915 106.021 45.2433 106.376 43.9589C106.73 42.6699 107.038 41.6311 107.062 41.6406Z" fill="#FAFAFA"/>
<path d="M104.232 40.871C104.261 40.8757 104.053 41.9145 103.769 43.1894C103.485 44.4642 103.234 45.4889 103.21 45.4842C103.182 45.4794 103.39 44.4406 103.674 43.1658C103.953 41.8909 104.204 40.8663 104.232 40.871Z" fill="#FAFAFA"/>
<path d="M101.375 40.3759C101.403 40.3759 101.431 41.4807 101.446 42.8406C101.46 44.2005 101.446 45.3054 101.417 45.3054C101.389 45.3054 101.36 44.2005 101.346 42.8406C101.332 41.4807 101.346 40.3759 101.375 40.3759Z" fill="#FAFAFA"/>
<path d="M99.08 45.3999C99.0753 45.3999 99.0516 45.3291 99.0232 45.2016C98.9854 45.0174 98.9428 44.8333 98.9049 44.6491C98.8103 44.1817 98.6968 43.5301 98.5879 42.8076C98.4839 42.0852 98.4082 41.4289 98.3608 40.952C98.3467 40.7631 98.3325 40.5742 98.3135 40.3854C98.3041 40.2532 98.3041 40.1776 98.3135 40.1776C98.3183 40.1776 98.3325 40.2484 98.3561 40.3806C98.3798 40.5648 98.4082 40.7537 98.4318 40.9425C98.5122 41.5328 98.5974 42.1324 98.6873 42.7935C98.7914 43.4498 98.8813 44.0495 98.9759 44.635C99.0043 44.8238 99.0327 45.008 99.0611 45.1921C99.08 45.3243 99.0847 45.3999 99.08 45.3999Z" fill="#FAFAFA"/>
<path d="M96.5393 45.9235C96.5156 45.933 96.1277 44.8375 95.6735 43.4776C95.2193 42.1178 94.8739 41.0082 94.9023 40.9987C94.926 40.9893 95.3139 42.0847 95.7681 43.4446C96.2176 44.8045 96.563 45.9141 96.5393 45.9235Z" fill="#FAFAFA"/>
<path d="M94.2352 46.7357C94.2116 46.7451 93.7053 45.7347 93.1045 44.4692C92.5036 43.2038 92.0352 42.1697 92.0589 42.1603C92.0826 42.1508 92.5888 43.1613 93.1896 44.4267C93.7905 45.6922 94.2589 46.7262 94.2352 46.7357Z" fill="#FAFAFA"/>
<path d="M91.2453 46.4709C91.2264 46.4851 90.933 46.1168 90.687 45.5974C90.4363 45.078 90.3275 44.62 90.3511 44.6153C90.3795 44.6058 90.5262 45.0449 90.7769 45.5549C91.0182 46.0648 91.269 46.4567 91.2453 46.4709Z" fill="#FAFAFA"/>
<path d="M64.8168 146.28C64.0551 147.366 62.579 147.008 61.8929 146.342C61.2069 145.681 60.9183 144.722 60.6534 143.806C60.0525 141.715 59.4422 139.524 59.8917 137.394C60.0241 136.757 60.2654 136.124 60.7101 135.652C61.1596 135.18 61.8456 134.896 62.4796 135.066C63.2271 135.265 63.6908 135.992 64.022 136.686C65.006 138.726 65.5265 140.983 65.5359 143.244C65.5407 144.302 65.4129 145.407 64.8168 146.28Z" fill="#5BBB64"/>
<g opacity="0.2">
<path d="M64.8168 146.28C64.0551 147.366 62.579 147.008 61.8929 146.342C61.2069 145.681 60.9183 144.722 60.6534 143.806C60.0525 141.715 59.4422 139.524 59.8917 137.394C60.0241 136.757 60.2654 136.124 60.7101 135.652C61.1596 135.18 61.8456 134.896 62.4796 135.066C63.2271 135.265 63.6908 135.992 64.022 136.686C65.006 138.726 65.5265 140.983 65.5359 143.244C65.5407 144.302 65.4129 145.407 64.8168 146.28Z" fill="black"/>
</g>
<path d="M61.9639 151.772C60.7196 151.13 59.2529 151.049 57.8714 151.276C57.1287 151.399 56.3575 151.621 55.8512 152.178C55.345 152.735 55.2504 153.713 55.8323 154.194C56.1777 154.477 56.6603 154.52 57.105 154.515C58.1884 154.501 59.3854 154.312 60.2512 154.964C60.7433 155.332 61.0744 155.951 61.6611 156.135C62.2383 156.314 62.8865 155.974 63.194 155.455C63.5015 154.935 63.511 154.284 63.369 153.703C63.369 153.694 63.2177 152.419 61.9639 151.772Z" fill="#5BBB64"/>
<path d="M66.9079 147.839C66.08 146.861 65.9239 145.431 66.2929 144.208C66.6619 142.98 67.4899 141.936 68.4503 141.087C69.5716 140.09 70.8916 139.311 72.3109 138.815C72.8692 138.622 73.4559 138.466 74.0473 138.523C74.6339 138.579 75.2301 138.882 75.5045 139.401C75.9113 140.175 75.5234 141.11 75.0976 141.875C74.3548 143.221 73.5079 144.515 72.5617 145.728C71.8 146.705 70.9294 147.669 69.775 148.113C68.6159 148.556 67.4142 148.504 66.7991 147.702" fill="#5BBB64"/>
<path d="M64.8688 162.641C64.8546 162.641 64.831 162.467 64.7979 162.15C64.7647 161.791 64.7174 161.343 64.6654 160.805C64.6039 160.238 64.5187 159.563 64.3626 158.831C64.2065 158.099 63.9604 157.306 63.6435 156.503C63.317 155.705 62.9196 154.978 62.4512 154.397C61.9876 153.812 61.4482 153.391 60.9467 153.146C60.4405 152.896 59.991 152.797 59.6788 152.749C59.3618 152.716 59.1867 152.693 59.1867 152.678C59.1867 152.664 59.3618 152.664 59.6882 152.669C60.0099 152.693 60.4783 152.773 61.0129 153.014C61.5476 153.25 62.1153 153.679 62.6026 154.274C63.0899 154.869 63.5063 155.611 63.8374 156.423C64.1592 157.24 64.4004 158.042 64.5518 158.788C64.7032 159.534 64.7695 160.214 64.8168 160.786C64.8594 161.357 64.8736 161.82 64.883 162.141C64.8878 162.467 64.883 162.641 64.8688 162.641Z" fill="#263238"/>
<path d="M64.7741 161.608C64.7694 161.608 64.7646 161.528 64.7599 161.381C64.7599 161.211 64.7599 160.994 64.7599 160.725C64.7599 160.158 64.7599 159.337 64.7315 158.321C64.6795 156.291 64.5044 153.491 64.1685 150.417C63.8279 147.339 63.3784 144.567 62.9668 142.584C62.8674 142.088 62.7728 141.639 62.6782 141.243C62.5883 140.851 62.5173 140.511 62.4416 140.237C62.3801 139.977 62.3281 139.77 62.2902 139.6C62.2571 139.453 62.2429 139.378 62.2524 139.373C62.2571 139.373 62.2855 139.444 62.3328 139.586C62.3849 139.751 62.4464 139.959 62.5221 140.214C62.6072 140.487 62.6924 140.823 62.7917 141.215C62.8958 141.606 63.0046 142.05 63.1087 142.551C63.5582 144.534 64.0313 147.31 64.3719 150.394C64.7126 153.477 64.864 156.286 64.8782 158.321C64.8924 159.337 64.8687 160.163 64.8403 160.73C64.8261 160.994 64.8119 161.211 64.8025 161.381C64.793 161.532 64.7836 161.608 64.7741 161.608Z" fill="#263238"/>
<path d="M64.76 156.192C64.7458 156.192 64.7506 155.946 64.7648 155.507C64.7884 155.068 64.8499 154.435 64.9729 153.656C65.1054 152.882 65.2899 151.961 65.5738 150.96C65.8482 149.954 66.2267 148.873 66.7045 147.768C67.6413 145.549 68.914 143.736 70.0211 142.612C70.2813 142.315 70.5699 142.097 70.8017 141.89C70.92 141.791 71.0288 141.687 71.1329 141.606C71.2417 141.531 71.3411 141.465 71.4357 141.399C71.8 141.148 72.0034 141.016 72.0129 141.03C72.046 141.073 71.1944 141.573 70.1252 142.711C69.0559 143.849 67.8211 145.648 66.8891 147.849C66.4159 148.944 66.0327 150.016 65.7536 151.012C65.4555 152.004 65.2615 152.915 65.1101 153.68C64.9682 154.45 64.8878 155.078 64.8357 155.512C64.8073 155.951 64.7742 156.192 64.76 156.192Z" fill="#263238"/>
<path d="M201.254 176.41C200.379 176.391 199.536 176.821 198.921 177.444C198.311 178.067 197.914 178.874 197.639 179.701C197.114 181.306 197.275 183.242 197.653 184.89C199.456 184.356 200.648 182.534 201.192 181.571C202.063 180.055 202.697 176.783 201.254 176.41Z" fill="#E8505B"/>
<path d="M194.824 186.835C195.477 186.113 195.633 185.008 195.307 184.092C194.98 183.171 194.219 182.444 193.329 182.043C192.918 181.859 192.426 181.741 192.023 181.939C191.645 182.128 191.437 182.562 191.427 182.982C191.418 183.403 191.583 183.813 191.787 184.177C192.492 185.447 193.41 186.538 194.824 186.835Z" fill="#E8505B"/>
<path d="M194.46 192.119C194.474 192.123 194.512 192.001 194.569 191.779C194.625 191.557 194.701 191.24 194.786 190.839C194.947 190.046 195.151 188.917 195.07 187.661C194.985 186.405 194.55 185.31 194.062 184.644C193.821 184.309 193.589 184.068 193.41 183.922C193.234 183.775 193.126 183.709 193.116 183.719C193.088 183.747 193.509 184.044 193.949 184.72C194.394 185.385 194.801 186.452 194.881 187.675C194.961 188.903 194.782 190.017 194.654 190.815C194.521 191.613 194.436 192.109 194.46 192.119Z" fill="#263238"/>
<path d="M200.483 178.851C200.473 178.846 200.369 179.025 200.189 179.356C200.01 179.686 199.759 180.173 199.461 180.772C198.855 181.976 198.046 183.648 197.199 185.522C196.352 187.392 195.629 189.106 195.122 190.358C194.872 190.981 194.673 191.491 194.54 191.84C194.408 192.194 194.342 192.388 194.351 192.393C194.365 192.397 194.455 192.208 194.607 191.864C194.772 191.491 194.985 190.995 195.245 190.405C195.78 189.172 196.523 187.468 197.37 185.598C198.216 183.728 199.007 182.047 199.579 180.829C199.853 180.244 200.081 179.757 200.256 179.384C200.416 179.044 200.497 178.855 200.483 178.851Z" fill="#263238"/>
<path d="M196.83 188.738C197.933 187 199.92 185.858 201.978 185.777C202.503 185.758 203.128 185.867 203.345 186.344C203.563 186.821 203.232 187.369 202.863 187.742C201.33 189.295 198.803 189.772 196.807 188.884" fill="#E8505B"/>
<path d="M201.197 187.156C201.197 187.142 201.074 187.138 200.856 187.142C200.748 187.142 200.61 187.147 200.459 187.166C200.303 187.185 200.128 187.194 199.934 187.241C199.546 187.308 199.092 187.44 198.609 187.629C198.131 187.832 197.62 188.096 197.128 188.445C196.641 188.8 196.22 189.192 195.875 189.579C195.534 189.975 195.264 190.358 195.075 190.702C194.971 190.868 194.9 191.033 194.834 191.175C194.763 191.312 194.715 191.439 194.682 191.543C194.611 191.751 194.573 191.864 194.588 191.869C194.621 191.883 194.786 191.425 195.193 190.773C195.392 190.443 195.671 190.079 196.007 189.697C196.352 189.324 196.764 188.946 197.242 188.601C197.724 188.266 198.216 187.997 198.68 187.794C199.149 187.6 199.589 187.459 199.962 187.374C200.715 187.199 201.197 187.194 201.197 187.156Z" fill="#263238"/>
</g>
<defs>
<clipPath id="clip0_1_876">
<rect width="222" height="219" fill="white"/>
</clipPath>
</defs>
</svg>
