<svg width="342" height="177" viewBox="0 0 342 177" fill="none" xmlns="http://www.w3.org/2000/svg">
<path d="M45.6342 69.5075L64.4995 30.0056L93.9114 71.3054L105.108 60.3057L182.292 120.259L210.695 84.7118L225.668 91.3371L260.931 47.8053L295.179 52.9159C295.179 52.9159 343.046 124.209 341.942 125.601C340.838 126.993 341.942 176.358 341.942 176.358H0L45.6342 69.5075Z" fill="#F4F7F4"/>
<path d="M338.195 24.8528C338.635 21.8374 334.133 19.36 330.746 19.1005C329.132 18.9778 327.454 19.209 325.925 18.7088C322.612 17.6187 321.288 13.5746 318.056 12.2911C315.638 11.3284 312.86 12.1873 310.517 13.3009C308.174 14.4146 305.861 15.8161 303.243 15.9718C300.964 16.1087 298.496 15.3112 296.503 16.3635C295.019 17.1468 294.24 18.7607 292.876 19.7139C291.537 20.6483 289.793 20.8417 288.129 20.9267C286.471 21.0116 284.752 21.0258 283.238 21.6817C281.724 22.3376 280.475 23.8477 280.79 25.386L338.195 24.8528Z" fill="#F5F5F5"/>
<path d="M98.6955 32.1026C98.9054 30.6775 96.772 29.5025 95.1683 29.3798C94.4039 29.3232 93.6095 29.4317 92.8851 29.1958C91.3163 28.6814 90.6918 26.7655 89.158 26.1568C88.0139 25.6991 86.6949 26.1049 85.5858 26.6334C84.4767 27.1619 83.3825 27.8226 82.1385 27.8981C81.0593 27.9641 79.8903 27.5866 78.946 28.0821C78.2416 28.4549 77.8768 29.2194 77.2273 29.6677C76.5928 30.1112 75.7685 30.2009 74.9791 30.2434C74.1947 30.2858 73.3804 30.2906 72.6609 30.602C71.9465 30.9134 71.3519 31.626 71.5018 32.3574L98.6955 32.1026Z" fill="#F5F5F5"/>
<path d="M152.181 25.6689C152.176 25.6877 151.951 25.6075 151.531 25.5273C151.116 25.4471 150.492 25.3763 149.742 25.4801C148.998 25.5792 148.114 25.8671 147.344 26.4664C146.575 27.0562 145.915 27.9528 145.656 29.0098L145.646 29.0382L145.556 29.3732L145.421 29.057C144.991 28.0519 144.227 27.2497 143.397 26.7401C142.563 26.221 141.669 26.0039 140.919 25.9473C140.165 25.8907 139.55 25.9897 139.141 26.0841C138.726 26.1785 138.506 26.2634 138.501 26.2446C138.496 26.2398 138.551 26.2115 138.651 26.1643C138.751 26.1172 138.911 26.0605 139.116 25.9992C139.525 25.8765 140.15 25.7538 140.929 25.7868C141.704 25.8199 142.643 26.0322 143.517 26.5607C144.387 27.0845 145.191 27.9151 145.646 28.9674L145.421 28.9863L145.431 28.9579C145.706 27.8443 146.405 26.9147 147.214 26.3059C148.029 25.683 148.953 25.4046 149.727 25.3197C150.507 25.2347 151.141 25.3338 151.561 25.4424C151.771 25.4943 151.931 25.5509 152.036 25.5934C152.131 25.6358 152.186 25.6594 152.181 25.6689Z" fill="#E0E0E0"/>
<path d="M298.771 109.703L281.959 21.9786L255.605 103.474L263.329 100.647L244.249 149.318L255.15 144.793L241.976 176.485H301.039L296.043 147.053L301.039 155.542L290.113 104.201L298.771 109.703Z" fill="#263238"/>
<path d="M75.0263 112.242L57.6449 0.730103L33.5888 106.264L41.003 103.545L22.6823 150.277L33.1491 145.931L20.499 176.358H77.2096L72.4134 148.101L77.2096 156.251L66.7178 106.957L75.0263 112.242Z" fill="#263238"/>
<path d="M309.273 132.854L302.733 129.305L300.56 118.664L298.736 119.141L300.32 129.192L294.05 125.186L292.676 126.672L300.974 131.66L309.273 135.331V132.854Z" fill="#455A64"/>
<path d="M313.155 117.329H308.364V176.046H313.155V117.329Z" fill="#455A64"/>
<path d="M309.453 5.1748C309.453 5.79298 296.588 44.101 296.588 44.101L303.018 37.924L293.75 64.699L299.855 56.6674L292.661 90.2377L296.148 86.7363L290.043 110.42L295.274 104.243L290.043 121.953L331.471 119.07L321.658 85.7075L327.584 91.8846L319.915 67.5822L323.841 69.6397L314.903 38.3345L319.045 41.0101L309.453 5.1748Z" fill="#455A64"/>
<path d="M310.842 73.547C310.857 73.5517 310.782 73.7499 310.637 74.1132C310.472 74.5096 310.257 75.0287 309.987 75.6657C309.398 77.0248 308.598 78.8793 307.669 81.0311L307.569 81.2671L307.439 81.0406C306.835 79.9788 306.245 78.7802 305.751 77.492C305.566 77.0154 305.396 76.5387 305.251 76.0857L305.506 76.0952C304.362 78.8463 303.243 81.2435 302.398 82.947C301.979 83.7964 301.629 84.4759 301.379 84.9384C301.264 85.146 301.169 85.3206 301.084 85.4669C301.014 85.5849 300.974 85.6462 300.969 85.6462C300.954 85.6368 301.069 85.3772 301.289 84.9006C301.529 84.391 301.844 83.7068 302.233 82.8762C303.033 81.1585 304.117 78.7519 305.251 76.0008L305.391 75.661L305.506 76.0102C305.651 76.4585 305.821 76.9304 306 77.4023C306.495 78.6811 307.07 79.8703 307.664 80.9273L307.434 80.9368C308.399 78.7991 309.233 76.9587 309.842 75.6091C310.137 74.9815 310.377 74.4719 310.557 74.0802C310.732 73.731 310.827 73.5422 310.842 73.547Z" fill="#263238"/>
<path d="M315.258 59.2489C315.243 59.2537 315.163 59.1074 315.023 58.8337C314.864 58.5222 314.664 58.1306 314.429 57.6634C313.914 56.6677 313.165 55.2803 312.186 53.7278L312.421 53.6948C312.216 54.4498 311.991 55.2615 311.761 56.1014C311.616 56.6252 311.471 57.1396 311.336 57.6351L311.241 57.9796L311.087 57.6539C310.202 55.7947 309.438 54.162 308.903 52.987C308.653 52.4301 308.449 51.9677 308.284 51.5996C308.144 51.274 308.074 51.09 308.089 51.0852C308.104 51.0805 308.204 51.2504 308.369 51.5618C308.554 51.9205 308.783 52.3735 309.063 52.9162C309.643 54.0723 310.437 55.6956 311.331 57.5454L311.082 57.5643C311.216 57.0688 311.361 56.5544 311.506 56.0306C311.741 55.1907 311.966 54.379 312.181 53.624L312.261 53.3361L312.416 53.591C313.385 55.1576 314.109 56.5686 314.584 57.5879C314.819 58.0975 314.998 58.5081 315.113 58.7912C315.218 59.0885 315.268 59.2442 315.258 59.2489Z" fill="#263238"/>
<path d="M309.388 29.9019C309.418 29.916 309.138 30.4257 308.658 31.2609C308.174 32.0961 307.484 33.257 306.69 34.5688L306.51 34.8661L306.445 34.5264C306.37 34.1441 306.295 33.7525 306.22 33.3467C306.09 32.6483 305.965 31.9782 305.851 31.36L306.085 31.4025C305.346 32.5114 304.701 33.4552 304.237 34.1206C303.772 34.7859 303.487 35.1729 303.457 35.1587C303.432 35.1446 303.672 34.7293 304.097 34.0451C304.522 33.3561 305.136 32.3934 305.861 31.2798L306.035 31.0108L306.095 31.3222C306.215 31.9451 306.345 32.6105 306.475 33.3089C306.55 33.7147 306.625 34.1064 306.695 34.4886L306.45 34.4462C307.254 33.139 307.974 31.9923 308.499 31.1807C309.028 30.369 309.358 29.8877 309.388 29.9019Z" fill="#263238"/>
<path d="M30.8759 139.579H24.1812V176.358H30.8759V139.579Z" fill="#455A64"/>
<path d="M26.0997 18.6335C26.0997 19.3083 12.0657 61.0989 12.0657 61.0989L19.0852 54.3603L8.9731 83.5703L15.6329 74.8073L7.78403 111.431L11.591 107.613L4.93127 133.454L10.6418 126.715L4.92627 146.025L50.1259 142.877L39.4192 106.481L45.8842 113.219L37.5157 86.7084L41.7974 88.9546L32.045 54.8039L36.5665 57.7249L26.0997 18.6335Z" fill="#455A64"/>
<path d="M32.8294 86.185C32.8245 86.1897 32.7745 86.1472 32.6796 86.067C32.5697 85.9679 32.4348 85.8452 32.2699 85.6942C31.8952 85.3403 31.3856 84.8637 30.7561 84.2691C29.4471 83.0139 27.6435 81.282 25.5302 79.2576L25.745 79.1963C25.4502 80.8337 25.1255 82.6269 24.7858 84.5003C24.5909 85.5526 24.406 86.5766 24.2262 87.5629L24.1463 87.997L23.9714 87.5912C22.6075 84.3871 21.8081 81.4519 21.3784 79.3378C21.1586 78.2808 21.0237 77.4267 20.9438 76.8415C20.9038 76.549 20.8788 76.3177 20.8638 76.1667C20.8488 76.011 20.8438 75.9308 20.8538 75.9308C20.8638 75.9308 20.8838 76.011 20.9138 76.162C20.9488 76.3413 20.9887 76.5584 21.0387 76.8321C21.1486 77.4125 21.3085 78.2619 21.5483 79.3095C22.0279 81.4094 22.8523 84.321 24.2212 87.5062L23.9664 87.5298C24.1463 86.5436 24.3311 85.5149 24.521 84.4673C24.8657 82.5939 25.1954 80.8007 25.4952 79.1632L25.5402 78.932L25.71 79.1019C27.7934 81.1499 29.572 82.9053 30.866 84.1794C31.4755 84.7929 31.9651 85.2836 32.3298 85.6517C32.4847 85.8122 32.6096 85.9443 32.7095 86.0481C32.7945 86.1283 32.8344 86.1802 32.8294 86.185Z" fill="#263238"/>
<path d="M16.3874 119.373C16.3124 119.364 16.4823 118.089 16.7621 116.532C17.0418 114.975 17.3266 113.72 17.4016 113.734C17.4765 113.743 17.3066 115.017 17.0269 116.575C16.7471 118.127 16.4623 119.382 16.3874 119.373Z" fill="#263238"/>
<path d="M31.8302 105.027C31.8402 105.032 31.7952 105.14 31.7103 105.343C31.6104 105.57 31.4805 105.867 31.3156 106.235C30.9509 107.033 30.4463 108.146 29.8218 109.515C28.5228 112.304 26.7442 116.126 24.7557 120.392L24.5909 120.746L24.5009 120.364C24.426 120.057 24.351 119.722 24.2711 119.391C23.6016 116.508 22.9671 113.79 22.4226 111.431L22.6374 111.468C20.9437 113.818 19.5248 115.8 18.5056 117.216C18.011 117.891 17.6113 118.434 17.3216 118.825C17.1917 118.995 17.0867 119.132 17.0018 119.245C16.9269 119.34 16.8869 119.387 16.8819 119.382C16.8769 119.377 16.9069 119.325 16.9718 119.226C17.0468 119.108 17.1467 118.962 17.2616 118.787C17.5364 118.382 17.9161 117.83 18.3857 117.141C19.3849 115.711 20.7788 113.715 22.4375 111.341L22.5924 111.119L22.6524 111.379C23.2069 113.733 23.8514 116.452 24.5309 119.335C24.6108 119.67 24.6858 120 24.7607 120.307L24.5059 120.283C26.5243 116.027 28.3329 112.219 29.6519 109.439C30.3064 108.085 30.841 106.985 31.2257 106.193C31.4055 105.829 31.5504 105.541 31.6653 105.32C31.7652 105.126 31.8202 105.022 31.8302 105.027Z" fill="#263238"/>
<path d="M35.3874 137.894C35.3274 137.937 33.9036 136.304 32.1999 134.247C30.4962 132.189 29.1673 130.481 29.2272 130.438C29.2872 130.396 30.7111 132.029 32.4147 134.091C34.1134 136.148 35.4474 137.852 35.3874 137.894Z" fill="#263238"/>
<path d="M31.0909 51.3925C31.0809 51.3972 30.961 51.2462 30.7511 50.963C30.5263 50.6422 30.2265 50.2269 29.8668 49.7173C29.1024 48.6036 28.0532 47.0841 26.8242 45.3051L27.049 45.2673C26.7393 46.7255 26.4595 48.3582 26.2496 50.0853C26.0848 51.4585 25.9749 52.7798 25.9149 53.9926L25.8899 54.455L25.6701 54.0398C24.531 51.8738 23.8515 49.8871 23.4768 48.4667C23.287 47.7542 23.1671 47.1832 23.0921 46.7915C23.0222 46.3999 22.9922 46.1828 23.0072 46.1828C23.0222 46.1781 23.0771 46.3904 23.1721 46.7774C23.272 47.1643 23.4169 47.7259 23.6267 48.429C24.0464 49.8305 24.7508 51.7936 25.8949 53.9312L25.6551 53.9784C25.7051 52.7609 25.81 51.4302 25.9749 50.0523C26.1847 48.3205 26.4745 46.6783 26.8042 45.2201L26.8692 44.937L27.034 45.1824C28.2281 46.9803 29.2473 48.5187 29.9917 49.6418C30.3315 50.1656 30.6062 50.595 30.8161 50.9253C31.0059 51.2179 31.1008 51.383 31.0909 51.3925Z" fill="#263238"/>
<path d="M34.9177 155.392C34.9376 155.387 35.0625 155.67 35.2774 156.184C35.4972 156.699 35.792 157.454 36.1367 158.393C36.8312 160.266 37.7005 162.89 38.4799 165.83C39.2593 168.77 39.8038 171.469 40.1286 173.432C40.2935 174.413 40.4084 175.211 40.4733 175.763C40.5433 176.315 40.5682 176.622 40.5532 176.622C40.5333 176.622 40.4683 176.325 40.3684 175.777C40.2585 175.187 40.1136 174.409 39.9387 173.465C39.564 171.516 38.9945 168.826 38.2151 165.891C37.4357 162.956 36.5963 160.337 35.9519 158.449C35.6371 157.539 35.3723 156.784 35.1775 156.217C34.9926 155.694 34.8977 155.401 34.9177 155.392Z" fill="#FAFAFA"/>
<path d="M40.0036 159.605C40.0236 159.601 40.1085 159.832 40.2534 160.257C40.3983 160.681 40.5931 161.295 40.8229 162.055C41.2876 163.579 41.8921 165.693 42.5066 168.043C43.1161 170.393 43.6157 172.535 43.9505 174.088C44.1153 174.866 44.2452 175.494 44.3252 175.933C44.4051 176.372 44.4401 176.612 44.4251 176.617C44.4051 176.622 44.3352 176.386 44.2253 175.952C44.1054 175.475 43.9505 174.862 43.7656 174.125C43.3859 172.582 42.8563 170.449 42.2468 168.104C41.6373 165.759 41.0627 163.635 40.6431 162.102C40.4482 161.37 40.2833 160.757 40.1535 160.28C40.0385 159.851 39.9886 159.61 40.0036 159.605Z" fill="#FAFAFA"/>
<path d="M48.0372 154.537C48.0571 154.542 48.0022 154.839 47.8873 155.382C47.7724 155.92 47.6175 156.699 47.4376 157.666C47.0829 159.596 46.6882 162.286 46.5084 165.273C46.3285 168.26 46.3935 170.973 46.5134 172.932C46.5733 173.909 46.6333 174.701 46.6832 175.249C46.7282 175.796 46.7482 176.098 46.7282 176.103C46.7082 176.103 46.6582 175.806 46.5783 175.258C46.4934 174.715 46.4034 173.923 46.3235 172.941C46.1536 170.983 46.0587 168.255 46.2386 165.254C46.4234 162.253 46.8481 159.558 47.2528 157.628C47.4526 156.666 47.6375 155.887 47.7874 155.354C47.9322 154.825 48.0222 154.533 48.0372 154.537Z" fill="#FAFAFA"/>
<path d="M50.8152 167.241C50.8552 167.25 50.7203 167.769 50.5354 168.609C50.3506 169.449 50.1407 170.62 50.0208 171.922C49.9009 173.225 49.8959 174.409 49.9209 175.268C49.9459 176.127 49.9859 176.655 49.9459 176.66C49.9109 176.665 49.806 176.136 49.7311 175.277C49.6561 174.414 49.6311 173.215 49.751 171.899C49.8759 170.582 50.1208 169.407 50.3506 168.572C50.5804 167.732 50.7852 167.232 50.8152 167.241Z" fill="#FAFAFA"/>
<path d="M213.023 151.314C213.023 151.314 213.023 151.338 213.038 151.38C213.053 151.428 213.073 151.489 213.093 151.564C213.138 151.725 213.223 151.961 213.313 152.268C213.503 152.876 213.748 153.768 213.982 154.877C214.467 157.1 214.822 160.233 214.757 163.697C214.697 167.16 214.332 170.284 214.067 172.545C213.932 173.663 213.818 174.574 213.738 175.216C213.703 175.522 213.673 175.763 213.653 175.942C213.648 176.018 213.638 176.079 213.633 176.131C213.628 176.174 213.628 176.197 213.633 176.197C213.638 176.197 213.643 176.178 213.648 176.136C213.658 176.084 213.668 176.023 213.683 175.947C213.713 175.768 213.748 175.527 213.798 175.225C213.892 174.597 214.022 173.687 214.172 172.559C214.467 170.303 214.847 167.179 214.907 163.702C214.972 160.228 214.602 157.086 214.087 154.863C213.838 153.749 213.573 152.862 213.368 152.258C213.273 151.951 213.178 151.72 213.123 151.564C213.093 151.494 213.073 151.432 213.053 151.385C213.038 151.333 213.028 151.314 213.023 151.314Z" fill="#11A121"/>
<path d="M214.622 158.416C214.762 158.553 215.686 157.916 216.52 156.868C217.36 155.821 217.749 154.811 217.57 154.717C217.385 154.622 216.72 155.439 215.921 156.439C215.122 157.444 214.472 158.275 214.622 158.416Z" fill="#11A121"/>
<path d="M211.804 155.514C211.674 155.67 212.204 156.265 212.938 156.892C213.678 157.52 214.357 157.954 214.507 157.817C214.657 157.68 214.197 157.01 213.438 156.364C212.683 155.722 211.929 155.363 211.804 155.514Z" fill="#11A121"/>
<path d="M214.237 155.59C214.417 155.679 215.176 154.636 215.671 153.159C216.171 151.687 216.181 150.418 215.981 150.394C215.771 150.366 215.431 151.536 214.957 152.947C214.487 154.358 214.052 155.5 214.237 155.59Z" fill="#11A121"/>
<path d="M210.435 151.348C210.28 151.48 210.975 152.438 211.984 153.49C212.993 154.543 213.932 155.288 214.087 155.156C214.242 155.024 213.548 154.066 212.539 153.014C211.529 151.961 210.59 151.216 210.435 151.348Z" fill="#11A121"/>
<path d="M214.792 161.856C214.932 161.998 215.996 161.276 217.05 160.138C218.109 159.001 218.729 157.911 218.564 157.803C218.394 157.685 217.52 158.567 216.485 159.671C215.456 160.775 214.647 161.71 214.792 161.856Z" fill="#11A121"/>
<path d="M212.449 158.346C212.284 158.464 212.664 159.195 213.293 159.974C213.923 160.752 214.572 161.29 214.737 161.172C214.902 161.054 214.522 160.323 213.893 159.544C213.258 158.761 212.614 158.223 212.449 158.346Z" fill="#11A121"/>
<path d="M214.797 165.4C214.937 165.537 215.946 164.806 216.84 163.612C217.739 162.418 218.129 161.276 217.944 161.196C217.754 161.111 217.085 162.064 216.226 163.206C215.376 164.343 214.642 165.259 214.797 165.4Z" fill="#11A121"/>
<path d="M212.543 162.238C212.393 162.375 212.793 163.007 213.388 163.692C213.982 164.376 214.562 164.871 214.732 164.758C214.901 164.645 214.582 163.951 213.967 163.243C213.353 162.536 212.693 162.106 212.543 162.238Z" fill="#11A121"/>
<path d="M214.532 168.406C214.687 168.534 215.641 167.75 216.665 166.656C217.69 165.561 218.389 164.565 218.234 164.438C218.079 164.31 217.125 165.094 216.101 166.188C215.077 167.283 214.377 168.279 214.532 168.406Z" fill="#11A121"/>
<path d="M211.724 165.664C211.564 165.792 212.099 166.636 212.863 167.589C213.628 168.543 214.337 169.26 214.512 169.151C214.682 169.043 214.242 168.132 213.463 167.16C212.683 166.188 211.879 165.537 211.724 165.664Z" fill="#11A121"/>
<path d="M214.167 172.248C214.312 172.389 215.466 171.563 216.75 170.403C218.034 169.242 218.959 168.189 218.814 168.048C218.669 167.906 217.515 168.732 216.231 169.893C214.952 171.049 214.027 172.106 214.167 172.248Z" fill="#11A121"/>
<path d="M211.714 168.864C211.534 168.949 211.814 169.822 212.504 170.709C213.193 171.601 213.988 172.115 214.127 171.973C214.277 171.832 213.758 171.129 213.108 170.289C212.459 169.454 211.904 168.774 211.714 168.864Z" fill="#11A121"/>
<path d="M203.201 149.809C203.211 149.805 203.246 149.894 203.311 150.064C203.381 150.262 203.471 150.508 203.575 150.81C203.805 151.461 204.11 152.405 204.47 153.58C205.189 155.93 206.074 159.209 206.833 162.876C207.587 166.543 208.077 169.898 208.347 172.333C208.482 173.55 208.577 174.536 208.622 175.221C208.642 175.537 208.657 175.801 208.672 176.009C208.682 176.188 208.682 176.282 208.672 176.282C208.662 176.282 208.647 176.188 208.617 176.013C208.592 175.806 208.557 175.546 208.517 175.23C208.427 174.518 208.307 173.541 208.157 172.356C207.837 169.931 207.323 166.59 206.568 162.928C205.809 159.271 204.954 155.991 204.285 153.632C203.95 152.48 203.675 151.537 203.471 150.843C203.381 150.536 203.311 150.286 203.251 150.083C203.211 149.904 203.191 149.809 203.201 149.809Z" fill="#263238"/>
<path d="M202.297 163.668C202.312 163.659 202.411 163.829 202.571 164.14C202.731 164.451 202.956 164.9 203.216 165.466C203.745 166.594 204.43 168.165 205.114 169.93C205.799 171.695 206.353 173.318 206.718 174.498C206.903 175.088 207.043 175.569 207.133 175.904C207.223 176.239 207.263 176.423 207.243 176.433C207.223 176.438 207.148 176.258 207.028 175.937C206.893 175.56 206.728 175.097 206.533 174.559C206.119 173.394 205.539 171.785 204.855 170.025C204.17 168.264 203.516 166.684 203.036 165.542C202.816 165.008 202.626 164.56 202.471 164.187C202.347 163.857 202.282 163.678 202.297 163.668Z" fill="#263238"/>
<path d="M205.729 176.461C205.649 176.494 204.984 174.852 203.645 173.125C202.321 171.384 200.873 170.28 200.932 170.218C200.952 170.195 201.342 170.44 201.902 170.912C202.461 171.384 203.186 172.096 203.865 172.974C204.54 173.856 205.034 174.725 205.334 175.376C205.634 176.027 205.759 176.452 205.729 176.461Z" fill="#263238"/>
<path d="M235.765 176.296C235.755 176.301 235.705 176.216 235.62 176.051C235.525 175.862 235.406 175.621 235.256 175.329C235.096 175.017 234.911 174.63 234.716 174.173C234.516 173.715 234.276 173.205 234.052 172.62C233.577 171.464 233.077 170.062 232.593 168.486C232.123 166.906 231.679 165.15 231.329 163.281C230.989 161.413 230.774 159.62 230.649 157.982C230.539 156.345 230.499 154.863 230.534 153.627C230.534 153.004 230.574 152.447 230.599 151.951C230.619 151.461 230.659 151.036 230.694 150.691C230.729 150.37 230.754 150.106 230.779 149.899C230.799 149.719 230.819 149.62 230.829 149.625C230.839 149.625 230.839 149.724 230.834 149.903C230.824 150.116 230.814 150.375 230.799 150.701C230.779 151.045 230.759 151.47 230.749 151.961C230.739 152.452 230.714 153.013 230.724 153.631C230.714 154.868 230.774 156.34 230.899 157.968C231.039 159.596 231.259 161.384 231.599 163.244C231.948 165.098 232.383 166.849 232.838 168.425C233.307 169.996 233.782 171.403 234.237 172.563C234.446 173.149 234.676 173.668 234.861 174.125C235.046 174.588 235.216 174.975 235.361 175.296C235.491 175.593 235.595 175.838 235.68 176.037C235.745 176.202 235.775 176.291 235.765 176.296Z" fill="#11A121"/>
<path d="M232.698 168.397C233.342 164.711 234.636 156.33 238.528 151.347C236.515 152.442 234.981 154.202 233.867 156.128C232.753 158.053 232.033 160.157 231.349 162.253C231.354 162.253 232.668 168.576 232.698 168.397Z" fill="#11A121"/>
<path d="M233.317 170.28C233.102 168.76 233.437 167.179 234.256 165.853C235.076 164.527 236.375 163.48 237.879 162.913C236.47 164.551 234.991 166.349 234.891 168.458C234.806 170.27 234.721 172.082 234.636 173.894C234.172 172.719 233.782 171.45 233.317 170.28Z" fill="#11A121"/>
<path d="M232.388 167.113C231.544 165.9 230.295 164.664 229.255 163.588C228.216 162.517 226.972 161.592 225.528 161.092C228.686 164.041 231.389 167.434 233.517 171.119" fill="#11A121"/>
<path d="M230.585 155.477C229.935 153.188 228.431 151.121 226.403 149.724C226.558 150.154 226.793 150.555 227.027 150.956C228.316 153.169 229.43 155.378 230.719 157.591" fill="#11A121"/>
<path d="M230.744 150.951C231.189 149.195 231.878 147.478 232.987 146.01C234.097 144.543 235.655 143.339 237.479 142.811C234.291 145.538 231.843 149.134 230.634 153.032" fill="#11A121"/>
<path d="M231.039 150.342C231.009 148.426 230.33 146.425 228.766 145.194C228.456 144.948 228.091 144.731 227.692 144.703C227.287 144.675 226.842 144.897 226.752 145.269C226.682 145.557 226.832 145.864 227.057 146.072C227.277 146.284 227.562 146.421 227.832 146.576C229.44 147.516 230.529 149.2 230.684 150.979" fill="#11A121"/>
<path d="M75.5808 156.764C76.61 156.986 77.4743 157.699 78.0089 158.562C78.5435 159.426 78.7733 160.426 78.8482 161.427C78.9931 163.352 78.2287 165.457 77.3044 167.179C75.351 166.084 74.4866 163.734 74.1269 162.512C73.5624 160.582 73.7772 156.774 75.5808 156.764Z" fill="#53BA5E"/>
<path d="M79.8675 169.949C79.3878 168.93 79.6277 167.675 80.3521 166.797C81.0765 165.915 82.2256 165.396 83.3997 165.278C83.9443 165.221 84.5488 165.268 84.9385 165.632C85.3032 165.971 85.3782 166.519 85.2233 166.981C85.0734 167.444 84.7337 167.826 84.354 168.152C83.075 169.27 81.6111 170.129 79.8675 169.949Z" fill="#53BA5E"/>
<path d="M78.8482 176.117C78.8382 176.117 78.8332 175.975 78.8332 175.72C78.8332 175.437 78.8332 175.074 78.8332 174.635C78.8482 173.724 78.8382 172.431 79.3229 171.086C79.7975 169.746 80.6168 168.68 81.3662 168.085C81.736 167.783 82.0757 167.585 82.3205 167.472C82.4404 167.41 82.5403 167.377 82.6053 167.349C82.6702 167.325 82.7052 167.311 82.7102 167.316C82.7302 167.344 82.1506 167.552 81.4362 168.161C80.7168 168.76 79.9274 169.812 79.4627 171.129C78.9881 172.445 78.9781 173.729 78.9382 174.635C78.9232 175.093 78.9082 175.461 78.8932 175.72C78.8732 175.975 78.8582 176.117 78.8482 176.117Z" fill="#263238"/>
<path d="M75.6858 159.676C75.6908 159.676 75.7108 159.732 75.7408 159.841C75.7757 159.963 75.8157 160.124 75.8657 160.322C75.9706 160.742 76.1205 161.346 76.2953 162.101C76.6451 163.606 77.0947 165.687 77.5394 168C77.984 170.312 78.3337 172.412 78.5636 173.936C78.6785 174.696 78.7684 175.314 78.8234 175.743C78.8483 175.946 78.8683 176.107 78.8833 176.234C78.8933 176.347 78.8983 176.409 78.8933 176.409C78.8883 176.409 78.8733 176.352 78.8533 176.239C78.8284 176.111 78.8034 175.951 78.7634 175.748C78.6885 175.305 78.5836 174.696 78.4586 173.95C78.2038 172.431 77.8341 170.336 77.3945 168.023C76.9498 165.716 76.5202 163.63 76.1954 162.12C76.0355 161.379 75.9057 160.77 75.8157 160.331C75.7758 160.133 75.7408 159.968 75.7158 159.845C75.6908 159.737 75.6808 159.676 75.6858 159.676Z" fill="#263238"/>
<path d="M77.1845 171.61C76.3552 169.392 74.3168 167.613 71.9137 167C71.2991 166.844 70.5347 166.806 70.15 167.283C69.7653 167.759 70.0051 168.453 70.3399 168.963C71.7288 171.086 74.5816 172.257 77.1745 171.775" fill="#53BA5E"/>
<path d="M72.5382 168.741C72.5432 168.732 72.6781 168.76 72.9229 168.826C73.0478 168.859 73.1976 168.897 73.3675 168.958C73.5374 169.019 73.7372 169.076 73.9421 169.17C74.1519 169.26 74.3817 169.354 74.6115 169.487C74.8514 169.605 75.0912 169.756 75.341 169.916C75.8356 170.246 76.3452 170.657 76.8148 171.152C77.2745 171.653 77.6442 172.181 77.9239 172.686C78.0588 172.946 78.1837 173.186 78.2737 173.427C78.3786 173.663 78.4435 173.889 78.5085 174.097C78.5784 174.305 78.6084 174.498 78.6484 174.663C78.6883 174.828 78.7083 174.979 78.7183 175.097C78.7483 175.338 78.7583 175.47 78.7483 175.47C78.7133 175.475 78.6684 174.942 78.4086 174.125C78.3386 173.922 78.2687 173.701 78.1588 173.469C78.0638 173.233 77.9339 172.997 77.804 172.743C77.5193 172.247 77.1545 171.728 76.7049 171.242C76.2453 170.756 75.7456 170.35 75.266 170.02C75.0212 169.859 74.7864 169.708 74.5516 169.586C74.3268 169.454 74.1019 169.354 73.8971 169.26C73.0777 168.901 72.5282 168.769 72.5382 168.741Z" fill="#263238"/>
<path d="M186.806 105.679C186.806 105.679 186.774 103.216 186.664 103.194L181.301 104.32C181.246 104.64 180.567 108.678 180.682 109.072L186.714 110.652C186.719 110.652 186.81 105.822 186.806 105.679Z" fill="#FFBE9D"/>
<path d="M186.815 110.28C186.824 110.275 186.833 110.236 186.842 110.167C186.902 109.617 186.865 107.211 186.554 107.107C186.205 106.99 185.333 107.181 185.274 107.496C185.214 107.812 185.416 110.522 185.416 110.522C185.416 110.522 185.476 110.95 186.237 111.05C186.709 111.115 186.815 110.28 186.815 110.28Z" fill="#FFBE9D"/>
<path d="M185.283 111.145C185.292 111.14 185.301 111.101 185.31 111.032C185.37 110.482 185.333 108.076 185.021 107.972C184.673 107.855 183.801 108.046 183.742 108.362C183.682 108.678 183.884 111.387 183.884 111.387C183.884 111.387 183.943 111.816 184.705 111.915C185.177 111.98 185.283 111.145 185.283 111.145Z" fill="#FFBE9D"/>
<path d="M183.787 111.574C183.797 111.57 183.806 111.531 183.815 111.461C183.874 110.912 183.838 108.505 183.526 108.401C183.177 108.284 182.306 108.475 182.246 108.791C182.186 109.107 182.388 111.816 182.388 111.816C182.388 111.816 182.448 112.245 183.209 112.344C183.682 112.414 183.787 111.574 183.787 111.574Z" fill="#FFBE9D"/>
<path d="M182.301 111.978C182.31 111.974 182.319 111.935 182.328 111.866C182.388 111.316 182.351 108.91 182.039 108.806C181.691 108.689 180.819 108.879 180.76 109.195C180.7 109.511 180.902 112.221 180.902 112.221C180.902 112.221 180.961 112.649 181.723 112.749C182.195 112.818 182.301 111.978 182.301 111.978Z" fill="#FFBE9D"/>
<path d="M185.259 108.201C185.305 108.206 185.356 108.729 185.379 109.374C185.402 110.019 185.383 110.539 185.337 110.534C185.292 110.53 185.241 110.006 185.218 109.361C185.2 108.716 185.218 108.197 185.259 108.201Z" fill="#EB996E"/>
<path d="M183.76 108.193C183.805 108.193 183.87 108.937 183.902 109.859C183.938 110.781 183.929 111.53 183.883 111.53C183.838 111.53 183.773 110.786 183.741 109.864C183.705 108.942 183.714 108.193 183.76 108.193Z" fill="#EB996E"/>
<g opacity="0.78">
<path d="M182.232 108.31C182.278 108.31 182.342 109.055 182.374 109.977C182.411 110.899 182.402 111.647 182.356 111.647C182.31 111.647 182.246 110.903 182.214 109.981C182.177 109.063 182.186 108.315 182.232 108.31Z" fill="#EB996E"/>
</g>
<path d="M181.269 104.452C181.269 104.452 179.145 109.001 179.457 109.287C179.769 109.568 180.764 110.001 180.764 110.001L181.269 104.452Z" fill="#FFBE9D"/>
<path d="M169.536 43.4193L167.981 60.4378L158.949 59.7582C158.894 58.7628 158.968 54.915 158.968 54.915C158.968 54.915 155.211 54.3653 155.165 50.8162C155.142 49.0936 155.404 45.5358 155.679 42.3286C155.981 38.7709 159.243 36.0961 163.018 36.3038C166.922 36.5202 169.871 39.7361 169.536 43.4193Z" fill="#FFBE9D"/>
<path d="M158.961 54.8675C158.961 54.8675 161.337 55.0493 163.86 53.5561C163.86 53.5561 162.704 56.1097 158.952 55.7894L158.961 54.8675Z" fill="#EB996E"/>
<path d="M157.133 44.8214C157.124 45.0897 157.353 45.3191 157.651 45.3321C157.945 45.3451 158.193 45.1417 158.206 44.8777C158.216 44.6093 157.986 44.3799 157.688 44.3669C157.39 44.3496 157.142 44.553 157.133 44.8214Z" fill="#263238"/>
<path d="M156.478 44.1302C156.542 44.1951 156.95 43.9138 157.528 43.9138C158.106 43.9095 158.528 44.1865 158.592 44.1215C158.624 44.0912 158.555 43.9744 158.372 43.8445C158.188 43.719 157.881 43.5935 157.519 43.5978C157.161 43.5978 156.858 43.7233 156.684 43.8532C156.505 43.9787 156.445 44.0999 156.478 44.1302Z" fill="#263238"/>
<path d="M162.674 44.8213C162.665 45.0896 162.894 45.319 163.192 45.332C163.486 45.345 163.733 45.1416 163.747 44.8775C163.756 44.6092 163.527 44.3798 163.229 44.3668C162.931 44.3495 162.683 44.5529 162.674 44.8213Z" fill="#263238"/>
<path d="M162.156 44.2241C162.224 44.289 162.628 44.0077 163.206 44.0077C163.784 44.0034 164.206 44.2804 164.27 44.2155C164.302 44.1852 164.233 44.0683 164.05 43.9385C163.867 43.8129 163.559 43.6874 163.197 43.6918C162.839 43.6918 162.536 43.8173 162.362 43.9471C162.183 44.077 162.123 44.1938 162.156 44.2241Z" fill="#263238"/>
<path d="M160.06 48.2675C160.064 48.2372 159.702 48.1767 159.124 48.1074C158.977 48.0944 158.835 48.0641 158.812 47.9689C158.775 47.8693 158.839 47.7179 158.908 47.5577C159.046 47.2201 159.193 46.8695 159.344 46.4973C159.949 44.9911 160.39 43.7489 160.321 43.7273C160.257 43.7056 159.711 44.9089 159.105 46.4194C158.959 46.7916 158.821 47.1465 158.688 47.4841C158.633 47.6443 158.537 47.8217 158.61 48.0295C158.651 48.1334 158.757 48.2069 158.853 48.2329C158.949 48.2589 159.032 48.2632 159.105 48.2675C159.693 48.2935 160.055 48.2978 160.06 48.2675Z" fill="#263238"/>
<path d="M161.758 48.639C161.666 48.6347 161.662 49.2233 161.125 49.6431C160.588 50.063 159.923 49.9981 159.919 50.0803C159.909 50.1192 160.065 50.1972 160.35 50.2015C160.625 50.2101 161.029 50.1279 161.359 49.8682C161.685 49.6129 161.827 49.2666 161.85 49.0242C161.873 48.7818 161.804 48.6347 161.758 48.639Z" fill="#263238"/>
<path d="M162.005 42.0935C162.06 42.2406 162.638 42.1714 163.317 42.2493C163.996 42.3142 164.541 42.5003 164.633 42.3661C164.675 42.3012 164.578 42.1627 164.358 42.0199C164.138 41.877 163.789 41.7385 163.381 41.6996C162.973 41.6563 162.601 41.7169 162.353 41.8121C162.106 41.9073 161.982 42.0242 162.005 42.0935Z" fill="#263238"/>
<path d="M156.691 42.5458C156.792 42.6713 157.191 42.5415 157.668 42.5372C158.145 42.5155 158.553 42.6194 158.645 42.4895C158.686 42.4246 158.622 42.3034 158.443 42.1866C158.269 42.0697 157.975 41.9745 157.649 41.9832C157.319 41.9918 157.035 42.1043 156.87 42.2299C156.7 42.3597 156.645 42.4852 156.691 42.5458Z" fill="#263238"/>
<path d="M172.187 38.8847C172.21 38.2225 171.71 37.517 171.008 37.4737C171.302 36.8418 171.114 36.0411 170.563 35.5866C170.013 35.1322 169.15 35.0586 168.527 35.4135C168.316 34.6474 167.618 34.0198 166.797 33.8597C165.976 33.7039 165.073 34.0242 164.563 34.6518C164.036 34.0675 163.173 33.7645 162.366 33.8857C161.559 34.0069 160.839 34.5436 160.531 35.2534C159.843 34.708 158.843 34.5306 157.99 34.8076C157.449 34.9807 156.981 35.3313 156.66 35.7771C156.242 35.6516 155.811 35.5563 155.376 35.5866C154.816 35.6213 154.238 35.9026 154.022 36.396C153.848 36.8029 154.027 37.3266 154.408 37.5387C153.729 37.3828 152.917 37.8373 152.816 38.5038C152.724 39.1011 153.233 39.6811 153.843 39.8196C153.614 39.9321 153.431 40.1832 153.454 40.4342C153.499 40.8627 153.912 41.1787 154.33 41.3518C155.403 41.7976 156.651 41.6548 157.761 41.2998C158.871 40.9493 159.898 40.3996 160.999 40.023C162.1 39.6465 163.94 38.967 165.045 39.3349C165.201 39.3868 165.348 39.469 165.485 39.5556C166.082 40.0014 166.472 40.642 166.577 41.3518C166.582 41.3778 166.586 41.3994 166.586 41.4254C166.733 42.4382 166.706 43.4639 166.866 44.4767C167.022 45.4852 167.394 46.5153 168.187 47.2078C168.513 47.4935 169.086 47.6926 169.357 47.355C169.462 47.2251 169.476 47.052 169.49 46.8919C169.637 45.1303 170.04 43.5115 170.256 41.7889C170.476 41.3475 170.912 40.9882 171.274 40.6203C171.751 40.1442 172.164 39.5469 172.187 38.8847Z" fill="#263238"/>
<path d="M160.986 37.1014C160.976 37.1057 160.912 36.9412 160.935 36.6296C160.963 36.3266 161.096 35.8592 161.536 35.4653C161.967 35.0758 162.742 34.8421 163.513 35.0974C163.885 35.223 164.265 35.474 164.44 35.8808C164.522 36.0843 164.536 36.3137 164.467 36.5344C164.398 36.7508 164.224 36.9586 163.981 37.0451C163.747 37.1274 163.463 37.1144 163.252 36.9672C163.036 36.8201 162.958 36.5604 162.986 36.3396C163.004 36.1189 163.128 35.9111 163.293 35.7726C163.453 35.6298 163.651 35.5432 163.839 35.487C164.609 35.2749 165.366 35.461 165.839 35.7986C166.077 35.9674 166.247 36.1838 166.325 36.4002C166.403 36.6166 166.394 36.8201 166.357 36.9715C166.27 37.2832 166.086 37.3827 166.086 37.3697C166.068 37.3567 166.219 37.2399 166.27 36.9542C166.293 36.8114 166.284 36.6296 166.206 36.4435C166.123 36.2574 165.967 36.0713 165.742 35.9241C165.302 35.6341 164.596 35.4783 163.908 35.6817C163.577 35.7813 163.247 36.015 163.219 36.3569C163.201 36.5214 163.261 36.6902 163.398 36.7811C163.531 36.8763 163.733 36.8893 163.903 36.8287C164.252 36.7119 164.362 36.266 164.229 35.9544C164.096 35.6298 163.774 35.4004 163.444 35.2835C162.77 35.0455 162.059 35.2359 161.655 35.5735C161.242 35.9155 161.086 36.344 161.036 36.6296C160.976 36.9326 161.009 37.1014 160.986 37.1014Z" fill="#455A64"/>
<path d="M165.554 34.8422C165.554 34.8292 165.673 34.8032 165.893 34.7816C166.114 34.7643 166.439 34.7426 166.838 34.8032C167.233 34.8638 167.719 35.024 168.104 35.4092C168.494 35.7771 168.673 36.4696 168.306 37.0149C168.247 37.0972 168.173 37.1751 168.1 37.2357L167.981 37.0452C168.297 36.9284 168.632 37.0063 168.875 37.1578C169.123 37.3092 169.292 37.5559 169.352 37.7983C169.476 38.2961 169.279 38.7375 169.059 39.0232C168.834 39.3132 168.586 39.4863 168.416 39.5945C168.242 39.7027 168.141 39.746 168.132 39.733C168.123 39.72 168.21 39.6508 168.361 39.5253C168.513 39.3998 168.733 39.2136 168.925 38.9366C169.114 38.664 169.26 38.2614 169.146 37.8503C169.086 37.6468 168.953 37.4607 168.751 37.3439C168.554 37.2227 168.292 37.1751 168.068 37.2573L167.448 37.491L167.944 37.0669C167.999 37.0192 168.059 36.9587 168.104 36.8937C168.247 36.6817 168.292 36.4176 168.256 36.1796C168.219 35.9372 168.1 35.7251 167.939 35.552C167.614 35.2057 167.173 35.0369 166.806 34.9634C166.049 34.8249 165.549 34.8855 165.554 34.8422Z" fill="#455A64"/>
<path d="M170.99 38.5951C171.018 38.5908 171.086 38.7119 171.086 38.9327C171.086 39.1491 171.004 39.465 170.761 39.7204C170.518 39.9758 170.192 40.0926 169.967 40.1099C169.733 40.1316 169.596 40.084 169.6 40.058C169.596 39.9974 170.169 40.0061 170.582 39.5689C170.999 39.1318 170.926 38.5951 170.99 38.5951Z" fill="#455A64"/>
<path d="M154.94 36.7426C154.931 36.7339 155.036 36.6171 155.289 36.4743C155.541 36.3358 155.954 36.1843 156.486 36.1843C157.009 36.1843 157.674 36.3487 158.188 36.8378C158.431 37.0759 158.656 37.4135 158.633 37.816C158.605 38.2185 158.238 38.6124 157.747 38.5864C157.504 38.5648 157.293 38.396 157.211 38.2012C157.123 38.0064 157.119 37.7987 157.174 37.6082C157.293 37.2144 157.642 36.972 157.986 36.8638C158.334 36.7513 158.701 36.7816 159 36.8811C159.302 36.9807 159.545 37.1408 159.743 37.3096C160.137 37.6515 160.344 38.0064 160.481 38.2402C160.619 38.4825 160.678 38.621 160.665 38.6297C160.651 38.6383 160.564 38.5128 160.403 38.2878C160.243 38.067 160.013 37.7338 159.633 37.4308C159.266 37.1365 158.665 36.8595 158.055 37.0629C157.761 37.1581 157.481 37.3745 157.399 37.6688C157.307 37.9545 157.449 38.344 157.77 38.3657C158.082 38.3916 158.389 38.093 158.399 37.803C158.422 37.4957 158.243 37.2014 158.027 36.985C157.578 36.5392 156.972 36.3704 156.481 36.3487C155.981 36.3271 155.582 36.4483 155.33 36.5565C155.082 36.6647 154.954 36.7599 154.94 36.7426Z" fill="#455A64"/>
<path d="M168.27 45.0306C168.334 45.0047 170.852 44.3122 170.77 46.7359C170.687 49.1597 168.127 48.5841 168.123 48.5105C168.118 48.4369 168.27 45.0306 168.27 45.0306Z" fill="#FFBE9D"/>
<path d="M168.935 47.615C168.948 47.6063 168.981 47.6453 169.054 47.6799C169.127 47.7145 169.251 47.7405 169.389 47.6972C169.664 47.6106 169.907 47.2124 169.935 46.7753C169.948 46.5546 169.907 46.3425 169.829 46.165C169.756 45.9832 169.641 45.8577 169.504 45.8318C169.37 45.7971 169.27 45.8707 169.237 45.94C169.201 46.0049 169.215 46.0568 169.201 46.0611C169.192 46.0655 169.146 46.0179 169.173 45.9183C169.187 45.8707 169.219 45.8144 169.279 45.7712C169.343 45.7279 169.435 45.7062 169.526 45.7149C169.724 45.7322 169.898 45.9097 169.981 46.1044C170.077 46.2992 170.127 46.5372 170.114 46.784C170.081 47.273 169.802 47.7188 169.426 47.8097C169.242 47.8487 169.095 47.7924 169.017 47.7318C168.939 47.6712 168.93 47.6193 168.935 47.615Z" fill="#EB996E"/>
<path d="M152.333 162.837L154.003 170.091C154.003 170.091 146.751 174.129 146.92 175.497L161.938 172.947L159.828 161.547L152.333 162.837Z" fill="#263238"/>
<path d="M161.939 172.947L161.678 171.805L147.375 174.674C147.375 174.674 146.761 175.064 146.921 175.492L161.939 172.947Z" fill="#455A64"/>
<path d="M169.417 163.636L169.665 171.055C169.665 171.055 161.756 173.786 161.66 175.158L176.921 175.223L177.036 163.649L169.417 163.636Z" fill="#263238"/>
<g opacity="0.6">
<path d="M176.921 175.22L176.884 174.052L162.265 174.428C162.265 174.428 161.586 174.705 161.66 175.156L176.921 175.22Z" fill="#455A64"/>
</g>
<path d="M151.513 169.064C151.513 169.064 143.692 132.854 143.683 132.131L157.655 125.158L163.068 167.653L151.513 169.064Z" fill="#263238"/>
<path d="M169.109 170.274L158.302 107.52V93.9855L173.063 95.2797C173.251 95.8077 178.081 170.361 178.081 170.361L176.558 170.278H169.109" fill="#263238"/>
<path d="M149.811 93.0263L143.683 132.131L157.38 128.998L162.962 94.2988L149.811 93.0263Z" fill="#263238"/>
<path d="M162.476 96.3428C162.476 96.3428 162.476 96.4077 162.489 96.5332C162.503 96.6674 162.526 96.8535 162.554 97.0959C162.613 97.5936 162.7 98.3208 162.815 99.2513C163.049 101.121 163.402 103.826 163.861 107.168C164.774 113.846 166.164 123.061 167.65 133.241C168.393 138.33 169.076 143.187 169.654 147.606C169.806 148.709 169.925 149.792 170.09 150.835C170.26 151.878 170.425 152.89 170.585 153.869C170.902 155.825 171.191 157.647 171.462 159.314C171.994 162.642 172.411 165.338 172.686 167.204C172.824 168.134 172.925 168.861 172.985 169.355C173.017 169.602 173.035 169.788 173.044 169.913C173.049 169.978 173.049 170.026 173.044 170.056C173.04 170.095 173.021 170.052 173.021 170.06C173.021 170.06 173.021 170.065 173.026 170.073C173.03 170.086 173.053 170.078 173.053 170.056C173.062 170.021 173.062 169.974 173.062 169.913C173.058 169.788 173.044 169.597 173.021 169.351C172.971 168.857 172.884 168.13 172.755 167.195C172.503 165.325 172.104 162.629 171.59 159.296C171.329 157.63 171.044 155.803 170.737 153.847C170.581 152.869 170.42 151.856 170.255 150.813C170.095 149.77 169.975 148.692 169.829 147.588C169.255 143.169 168.581 138.313 167.838 133.219C166.347 123.039 164.939 113.829 163.994 107.155C163.526 103.822 163.15 101.121 162.888 99.247C162.76 98.3164 162.664 97.5936 162.595 97.0959C162.558 96.8535 162.531 96.6717 162.512 96.5375C162.494 96.4077 162.476 96.3428 162.476 96.3428Z" fill="#455A64"/>
<path d="M154.242 168.726C154.242 168.726 154.238 168.661 154.215 168.54C154.192 168.41 154.16 168.232 154.123 167.999C154.036 167.514 153.907 166.813 153.747 165.917C153.412 164.103 152.926 161.489 152.325 158.26C151.105 151.794 149.421 142.873 147.563 133.018C147.426 132.412 147.38 131.798 147.449 131.187C147.531 130.581 147.637 129.971 147.733 129.37C147.93 128.166 148.123 126.976 148.316 125.812C148.706 123.479 149.091 121.233 149.467 119.094C150.219 114.814 150.949 110.97 151.6 107.746C152.251 104.526 152.825 101.925 153.256 100.137C153.462 99.241 153.646 98.5485 153.76 98.0811C153.816 97.8517 153.861 97.6742 153.893 97.5444C153.921 97.4232 153.93 97.3583 153.93 97.3583C153.93 97.3583 153.907 97.4189 153.875 97.5357C153.838 97.6613 153.788 97.8387 153.724 98.0681C153.595 98.5355 153.398 99.2237 153.182 100.12C152.724 101.903 152.132 104.5 151.467 107.72C150.802 110.94 150.059 114.784 149.293 119.064C148.907 121.202 148.522 123.453 148.128 125.781C147.935 126.95 147.738 128.136 147.54 129.339C147.444 129.945 147.339 130.542 147.256 131.166C147.187 131.789 147.238 132.43 147.375 133.048C149.256 142.899 150.958 151.815 152.192 158.277C152.816 161.498 153.32 164.108 153.673 165.921C153.852 166.817 153.99 167.514 154.086 167.999C154.132 168.232 154.173 168.41 154.196 168.54C154.224 168.665 154.242 168.726 154.242 168.726Z" fill="#455A64"/>
<path d="M158.302 107.076C158.252 107.085 158.889 111.136 159.729 116.131C160.568 121.125 161.288 125.168 161.339 125.159C161.389 125.15 160.752 121.099 159.912 116.105C159.077 111.11 158.353 107.072 158.302 107.076Z" fill="#455A64"/>
<path d="M168.98 170.163C168.98 170.176 169.104 170.193 169.334 170.219C169.563 170.245 169.893 170.276 170.306 170.306C171.127 170.366 172.265 170.423 173.522 170.444C174.778 170.462 175.916 170.44 176.742 170.405C177.155 170.388 177.485 170.371 177.714 170.349C177.944 170.332 178.072 170.315 178.072 170.302C178.072 170.276 177.563 170.276 176.742 170.28C175.921 170.284 174.783 170.284 173.531 170.267C172.279 170.245 171.141 170.211 170.32 170.18C169.49 170.154 168.98 170.137 168.98 170.163Z" fill="#455A64"/>
<path d="M151.513 169.063C151.513 169.076 151.678 169.068 151.972 169.042C152.302 169.007 152.72 168.968 153.215 168.916C154.261 168.804 155.71 168.635 157.302 168.44C158.898 168.245 160.339 168.059 161.385 167.916C161.875 167.847 162.288 167.787 162.619 167.739C162.908 167.696 163.068 167.665 163.068 167.652C163.068 167.639 162.903 167.644 162.609 167.67C162.316 167.696 161.889 167.735 161.366 167.791C160.32 167.903 158.871 168.068 157.275 168.263C155.678 168.457 154.238 168.648 153.192 168.791C152.701 168.864 152.289 168.925 151.958 168.972C151.669 169.02 151.509 169.05 151.513 169.063Z" fill="#455A64"/>
<path d="M136.524 76.1667L147.18 79.0012C147.18 79.0012 149.076 63.7952 149.39 62.7766C149.704 61.758 151.005 60.2931 151.005 60.2931L157.191 76.4657C157.191 76.4657 157.651 88.0045 151.887 89.5884C147.469 90.8007 135.289 82.7686 135.289 82.7686L136.524 76.1667Z" fill="#5BBB64"/>
<g opacity="0.2">
<path d="M146.903 78.8046C146.539 80.8796 147.196 83.1332 148.643 84.7796C148.792 84.9492 148.965 85.119 149.19 85.1553C149.523 85.2064 149.816 84.9089 149.868 84.591C149.919 84.2732 149.799 83.9507 149.684 83.6403C149.962 83.8595 150.257 84.0861 150.607 84.1639C150.958 84.2417 151.374 84.1097 151.488 83.7913C151.626 83.407 151.28 83.0152 150.962 82.7265C149.612 81.492 148.267 80.2558 146.919 79.0252" fill="black"/>
</g>
<path d="M139.192 77.2721C139.256 77.2853 139.039 78.9331 138.706 80.9524C138.373 82.9716 138.051 84.6029 137.987 84.5897C137.923 84.5766 138.14 82.9287 138.473 80.9095C138.804 78.8862 139.124 77.2605 139.192 77.2721Z" fill="#263238"/>
<path d="M137.106 77.8643C137.078 77.8561 137.135 77.7104 137.345 77.7105C137.443 77.711 137.576 77.7456 137.667 77.8724C137.764 78.0017 137.738 78.1929 137.636 78.3035C137.538 78.4222 137.349 78.4806 137.202 78.4135C137.056 78.3504 136.997 78.2302 136.979 78.1369C136.941 77.9325 137.078 77.8561 137.093 77.8788C137.122 77.9008 137.081 77.9833 137.137 78.0954C137.194 78.2116 137.339 78.2844 137.452 78.1552C137.565 78.026 137.464 77.8983 137.332 77.8677C137.21 77.834 137.131 77.8879 137.106 77.8643Z" fill="#263238"/>
<path d="M148.799 82.6641C148.757 82.6993 148.105 82.0056 147.626 80.9576C147.141 79.9168 147.048 78.9908 147.104 78.9876C147.17 78.9757 147.366 79.8618 147.837 80.8706C148.297 81.8881 148.855 82.6281 148.799 82.6641Z" fill="#263238"/>
<path d="M150.351 82.0151C150.314 82.0624 149.46 81.5181 148.556 80.6673C147.645 79.8236 147.052 79.0181 147.098 78.9813C147.153 78.9413 147.821 79.6755 148.716 80.5062C149.606 81.3482 150.392 81.9662 150.351 82.0151Z" fill="#263238"/>
<path d="M169.678 58.9209L168.348 56.4365H158.715L157.202 59.2585L151.248 60.531L148.683 96.7492C148.665 97.208 148.784 97.6625 149.023 98.0607L172.426 98.909L173.38 99.2769C174.22 98.7878 173.697 96.7709 173.706 95.823L174.004 77.887L178.632 63.5564L169.678 58.9209Z" fill="#5BBB64"/>
<g opacity="0.2">
<path d="M159.691 60.1745C160.26 59.6379 160.824 59.1055 161.393 58.5688C162.031 60.0187 162.668 61.473 163.306 62.9229C165.508 61.7024 167.604 60.3174 169.572 58.7852C167.411 59.4388 165.251 60.0923 163.09 60.7502C162.545 59.3782 161.994 58.0061 161.448 56.6341C161.063 57.8806 160.517 59.0795 159.82 60.1962" fill="black"/>
</g>
<path d="M186.852 104.332L180.544 104.639L180.531 87.5561L174.008 77.8783L178.636 63.5477C179.59 63.9026 186.778 80.9297 188.608 85.5522C188.874 86.2187 188.989 86.9285 188.948 87.6427L186.852 104.332Z" fill="#5BBB64"/>
<path d="M151.247 68.0007C151.312 68.005 151 71.5108 150.55 75.8217C150.101 80.1369 149.679 83.6297 149.614 83.6211C149.55 83.6168 149.862 80.1153 150.312 75.8001C150.761 71.4892 151.179 67.9963 151.247 68.0007Z" fill="#263238"/>
<path d="M161.444 56.6447C161.504 56.6706 160.99 57.9734 160.298 59.5575C160.252 59.6571 160.21 59.7523 160.169 59.8519C160.123 59.9514 160.077 60.0639 159.958 60.1548C159.839 60.2544 159.642 60.2371 159.541 60.1808C159.431 60.1289 159.357 60.0726 159.27 60.0207C158.967 59.8259 158.678 59.6398 158.403 59.4667C157.912 59.1464 157.619 58.9343 157.637 58.9083C157.655 58.8823 157.981 59.0468 158.495 59.3325C158.775 59.4926 159.073 59.6658 159.389 59.8432C159.559 59.9428 159.733 60.0639 159.811 59.9774C159.917 59.8951 159.981 59.6571 160.073 59.471C160.77 57.8869 161.385 56.6187 161.444 56.6447Z" fill="#263238"/>
<path d="M169.105 58.8601C169.114 58.8904 168.554 59.1025 167.632 59.4184C166.715 59.7387 165.439 60.1629 164.027 60.6173C163.761 60.7039 163.504 60.7861 163.256 60.864L163.151 60.8987L163.109 60.8034C162.614 59.6695 162.183 58.6653 161.885 57.9382C161.586 57.2154 161.421 56.7696 161.449 56.7609C161.476 56.7479 161.692 57.1721 162.031 57.8819C162.366 58.5917 162.825 59.5829 163.329 60.7169L163.183 60.6563C163.43 60.574 163.692 60.4918 163.953 60.4052C165.366 59.9508 166.65 59.5483 167.582 59.2669C168.513 58.9899 169.095 58.8341 169.105 58.8601Z" fill="#263238"/>
<path d="M177.645 64.062C177.664 64.1269 176.306 64.4731 174.733 65.1397C173.155 65.7976 171.976 66.516 171.934 66.4598C171.916 66.4338 172.191 66.2261 172.668 65.9317C173.145 65.6374 173.838 65.2695 174.632 64.9363C175.43 64.603 176.177 64.3649 176.733 64.2264C177.288 64.0836 177.636 64.0317 177.645 64.062Z" fill="#263238"/>
<path d="M161.444 56.6443C161.449 56.6443 161.453 56.6789 161.458 56.7525C161.463 56.8391 161.467 56.9429 161.472 57.0684C161.481 57.3498 161.499 57.761 161.504 58.2933C161.518 59.3581 161.509 60.8946 161.431 62.7946C161.288 66.5948 160.784 71.8276 159.981 77.5754C159.591 80.4536 159.16 83.1847 158.871 85.6777C158.577 88.1708 158.449 90.4301 158.49 92.3258C158.518 94.2216 158.701 95.7494 158.866 96.7968C158.935 97.3249 159.022 97.7274 159.068 98.0044C159.087 98.1299 159.105 98.2338 159.119 98.3204C159.128 98.3896 159.132 98.4286 159.128 98.4286C159.123 98.4286 159.114 98.3939 159.096 98.3247C159.077 98.2425 159.05 98.1386 159.022 98.0131C158.963 97.7404 158.862 97.3379 158.779 96.8098C158.587 95.7624 158.376 94.2302 158.33 92.3258C158.27 90.4214 158.38 88.1535 158.66 85.6561C158.94 83.1544 159.362 80.4233 159.752 77.5494C160.554 71.8059 161.082 66.5818 161.27 62.7903C161.371 60.8946 161.403 59.3581 161.421 58.2977C161.426 57.7826 161.431 57.3714 161.435 57.0771C161.44 56.9473 161.44 56.8434 161.444 56.7568C161.435 56.6789 161.44 56.6443 161.444 56.6443Z" fill="#263238"/>
<path d="M187.191 101.718C187.187 101.779 185.691 101.762 183.847 101.675C182.003 101.589 180.513 101.472 180.517 101.407C180.522 101.346 182.017 101.364 183.861 101.45C185.705 101.537 187.196 101.658 187.191 101.718Z" fill="#263238"/>
<path d="M181.595 102.384C181.618 102.41 181.586 102.47 181.613 102.544C181.65 102.626 181.714 102.669 181.797 102.604C181.88 102.539 181.852 102.47 181.769 102.418C181.696 102.375 181.627 102.392 181.604 102.366C181.577 102.349 181.646 102.245 181.815 102.267C181.893 102.28 181.994 102.323 182.045 102.436C182.1 102.552 182.045 102.7 181.939 102.777C181.838 102.86 181.673 102.877 181.563 102.803C181.457 102.73 181.43 102.626 181.435 102.552C181.457 102.397 181.586 102.358 181.595 102.384Z" fill="#263238"/>
<g opacity="0.2">
<path d="M174.095 77.8338C173.411 76.6652 172.723 75.4966 172.04 74.3279C171.219 80.4913 171.682 86.8061 173.398 92.805C173.609 87.8405 173.82 82.8718 174.031 77.9073" fill="black"/>
</g>
<path d="M163.656 71.4003C163.646 71.3917 163.779 71.383 164.027 71.3787C164.312 71.37 164.679 71.3614 165.123 71.3527C166.073 71.3354 167.449 71.3138 169.105 71.3051H169.215L169.206 71.4133C169.1 72.781 168.977 74.3651 168.844 76.0531L168.839 76.1137L168.779 76.144C168.701 76.183 168.619 76.2263 168.536 76.2652C167.61 76.724 166.715 77.1698 165.871 77.5853L165.802 77.6199L165.743 77.5767C164.844 76.8841 164.013 76.2392 163.27 75.6679L163.229 75.6376L163.234 75.59C163.348 74.3348 163.445 73.2918 163.518 72.517C163.555 72.1794 163.582 71.9067 163.605 71.686C163.637 71.4912 163.651 71.3917 163.656 71.4003C163.66 71.409 163.66 71.5172 163.656 71.7163C163.646 71.9414 163.633 72.227 163.614 72.5733C163.568 73.335 163.509 74.3608 163.435 75.5987L163.399 75.5208C164.146 76.0878 164.986 76.7197 165.894 77.4035L165.77 77.3905C166.614 76.9707 167.504 76.5249 168.431 76.0618C168.513 76.0185 168.596 75.9796 168.674 75.9406L168.61 76.0315C168.752 74.3435 168.885 72.7594 169 71.396L169.105 71.4999C167.495 71.4912 166.146 71.4696 165.188 71.4523C164.734 71.4436 164.362 71.435 164.068 71.4263C163.807 71.4177 163.665 71.409 163.656 71.4003Z" fill="#263238"/>
<path d="M168.963 73.4762C168.963 73.5368 167.738 73.5671 166.234 73.5412C164.724 73.5152 163.504 73.4416 163.509 73.381C163.509 73.3204 164.734 73.2901 166.238 73.3161C167.743 73.3421 168.963 73.4156 168.963 73.4762Z" fill="#FAFAFA"/>
<path d="M168.916 74.3719C168.916 74.4325 167.692 74.4628 166.187 74.4368C164.678 74.4108 163.458 74.3372 163.462 74.2767C163.462 74.2161 164.687 74.1858 166.192 74.2117C167.696 74.2377 168.921 74.307 168.916 74.3719Z" fill="#FAFAFA"/>
<path d="M152.087 98.2374C152.082 98.298 151.591 98.2158 151.279 97.7656C150.958 97.3198 151.059 96.8611 151.123 96.8827C151.192 96.887 151.206 97.2722 151.477 97.6401C151.734 98.021 152.11 98.1768 152.087 98.2374Z" fill="#263238"/>
<path d="M152.697 98C152.656 98.0433 152.211 97.6451 152.036 96.9742C151.853 96.3077 152.046 95.758 152.101 95.7753C152.17 95.7883 152.096 96.3077 152.266 96.9179C152.426 97.5325 152.752 97.9567 152.697 98Z" fill="#263238"/>
<path d="M170.361 95.5109C170.421 95.5023 170.476 96.3809 169.994 97.3331C169.522 98.2896 168.77 98.809 168.738 98.7614C168.687 98.7138 169.334 98.1468 169.779 97.2379C170.238 96.3333 170.288 95.5023 170.361 95.5109Z" fill="#263238"/>
<path d="M162 56.4896H160.5V60.4896C160.5 65.6896 157.5 84.3229 156 92.9896L158 96.4896L162 92.9896V58.9896V56.4896Z" fill="#455A64"/>
<path d="M132.759 81.1764L129.796 78.7179L129.916 73.9706L133.788 75.4571C133.788 75.4571 134.697 79.3172 134.607 79.3455C134.517 79.3785 132.759 81.1764 132.759 81.1764Z" fill="#723C31"/>
<path d="M136.705 78.0048L133.758 73.9135L128.856 73.2292C128.856 73.2292 128.572 73.7059 129.486 74.3571C130.395 75.0083 131.999 75.3056 131.999 75.3056L132.758 76.877L133.158 78.8967C133.158 78.8967 132.434 80.0528 132.469 80.973C132.499 81.8931 135.711 82.1857 135.711 82.1857L136.705 78.0048Z" fill="#FFBE9D"/>
<path d="M128.817 72.2716C128.757 72.4085 129.896 76.2921 129.736 78.1183C129.576 79.9493 129.036 80.5155 129.036 80.5155H132.484V71.9366C132.489 71.946 129.356 71.073 128.817 72.2716Z" fill="#263238"/>
<path d="M131.29 80.5203H130.65V159.869H131.29V80.5203Z" fill="#263238"/>
<path d="M128.817 73.9706C128.817 73.9706 128.137 74.032 128.042 74.3576C127.947 74.6832 128.042 75.2778 128.042 75.2778L129.046 76.0186C129.046 76.0186 128.692 76.0186 128.522 76.2263C128.352 76.4339 128.472 77.1181 128.522 77.2361C128.572 77.3541 128.817 77.5334 128.817 77.5334C128.817 77.5334 128.532 77.8024 128.522 78.0666C128.512 78.3356 128.522 78.5716 128.522 78.5716H129.046C129.046 78.5716 128.567 78.7179 128.522 78.9255C128.482 79.1331 128.532 79.3691 128.522 79.4587C128.512 79.5484 129.296 79.756 129.296 79.756L132.029 79.4587C132.029 79.4587 132.499 79.0151 132.219 78.7462C132.219 78.7462 133.108 78.6282 133.053 78.3451C132.998 78.0619 132.873 77.4343 132.873 77.4343L131.874 77.439C131.874 77.439 132.569 77.1701 132.689 77.0285C132.833 76.8586 132.419 76.1696 132.419 76.1696L131.405 76.1932C131.405 76.1932 131.809 75.2825 131.405 75.1645C131 75.0513 128.817 73.9706 128.817 73.9706Z" fill="#FFBE9D"/>
<path d="M130.508 94.0059C130.438 94.0012 130.408 93.4868 130.513 92.864C130.618 92.2411 130.822 91.7597 130.887 91.7786C130.957 91.7975 130.872 92.293 130.768 92.9017C130.663 93.5104 130.583 94.0107 130.508 94.0059Z" fill="#723C31"/>
</svg>
