<svg width="62" height="100" viewBox="0 0 62 100" fill="none" xmlns="http://www.w3.org/2000/svg">
<path d="M20.553 28.5324C20.553 34.3481 15.8124 39.0648 15.8124 39.0648C15.8124 39.0648 11.0752 34.3481 11.0752 28.5324C11.0752 22.7167 15.8124 18 15.8124 18C15.8124 18 20.553 22.7167 20.553 28.5324Z" fill="#00735D"/>
<path d="M15.8124 39.0614C15.8124 39.0614 11.0718 34.3447 11.0718 28.529C11.0752 22.7167 15.8124 18 15.8124 18V39.0614Z" fill="#006250"/>
<path d="M15.8126 38.0482V37.3075L18.8388 33.9219L15.8126 38.0482Z" fill="#006250"/>
<path d="M15.8126 34.8604V34.1198L19.9141 29.5703L15.8126 34.8604Z" fill="#006250"/>
<path d="M15.8126 31.6721V30.9281L19.9141 26.1533L15.8126 31.6721Z" fill="#006250"/>
<path d="M15.8126 28.481V27.7404L19.204 23.8223L15.8126 28.481Z" fill="#006250"/>
<path d="M15.8124 25.2935V24.5495L17.777 22.3515L15.8124 25.2935Z" fill="#006250"/>
<path d="M15.8124 22.1024V21.3618L16.8607 20.1877L15.8124 22.1024Z" fill="#006250"/>
<path d="M15.8125 36.6829V35.9423L12.7896 32.5566L15.8125 36.6829Z" fill="#00735D"/>
<path d="M15.8125 33.4952V32.7546L11.711 28.2051L15.8125 33.4952Z" fill="#00735D"/>
<path d="M15.8124 30.3072V29.5631L12.3567 25.5392L15.8124 30.3072Z" fill="#00735D"/>
<path d="M15.8124 27.1156V26.3749L13.1817 23.334L15.8124 27.1156Z" fill="#00735D"/>
<path d="M15.8124 23.9283V23.1877L13.8479 20.9864L15.8124 23.9283Z" fill="#00735D"/>
<path d="M15.8123 20.7375V19.9969L15.0921 19.1914L15.8123 20.7375Z" fill="#00735D"/>
<path d="M27.5287 41.2696C24.1812 46.0034 17.6113 47.0648 17.6113 47.0648C17.6113 47.0648 16.465 40.4471 19.8125 35.7133C23.16 30.9795 29.7299 29.9181 29.7299 29.9181C29.7299 29.9181 30.8762 36.5358 27.5287 41.2696Z" fill="#00735D"/>
<path d="M17.6113 47.0648C17.6113 47.0648 16.465 40.4471 19.8125 35.7133C23.16 30.9795 29.7299 29.9181 29.7299 29.9181L17.6113 47.0648Z" fill="#006250"/>
<path d="M18.1929 46.2385L18.6223 45.6344L23.0316 44.6515L18.1929 46.2385Z" fill="#006250"/>
<path d="M20.0289 43.6448L20.4549 43.0407L26.4128 41.7404L20.0289 43.6448Z" fill="#006250"/>
<path d="M21.865 41.0478L22.291 40.4437L28.3808 38.959L21.865 41.0478Z" fill="#006250"/>
<path d="M23.6976 38.4501L24.127 37.846L29.1415 36.6447L23.6976 38.4501Z" fill="#006250"/>
<path d="M25.5337 35.8562L25.9598 35.2521L28.8271 34.6105L25.5337 35.8562Z" fill="#006250"/>
<path d="M27.3697 33.259L27.7957 32.6549L29.3241 32.3136L27.3697 33.259Z" fill="#006250"/>
<path d="M18.9807 45.1297L19.4068 44.5256L18.8928 39.9932L18.9807 45.1297Z" fill="#00735D"/>
<path d="M20.8134 42.5324L21.2395 41.9283L20.5192 35.8225L20.8134 42.5324Z" fill="#00735D"/>
<path d="M22.6495 39.9352L23.0755 39.3311L22.5785 34.0273L22.6495 39.9352Z" fill="#00735D"/>
<path d="M24.4856 37.341L24.9117 36.7369L24.5195 32.7198L24.4856 37.341Z" fill="#00735D"/>
<path d="M26.3182 34.7444L26.7476 34.1403L26.4128 31.1984L26.3182 34.7444Z" fill="#00735D"/>
<path d="M28.1543 32.1471L28.5804 31.5464L28.4587 30.4679L28.1543 32.1471Z" fill="#00735D"/>
<path d="M29.5135 56.4404C26.166 61.1742 19.5961 62.2356 19.5961 62.2356C19.5961 62.2356 18.4499 55.6179 21.7974 50.8841C25.1449 46.1503 31.7148 45.0889 31.7148 45.0889C31.7148 45.0889 32.861 51.7032 29.5135 56.4404Z" fill="#00735D"/>
<path d="M19.5961 62.2317C19.5961 62.2317 18.4499 55.614 21.7974 50.8802C25.1449 46.1464 31.7148 45.085 31.7148 45.085L19.5961 62.2317Z" fill="#006250"/>
<path d="M20.1777 61.4092L20.6038 60.8051L25.0164 59.8222L20.1777 61.4092Z" fill="#006250"/>
<path d="M22.0138 58.8119L22.4398 58.2078L28.3977 56.9109L22.0138 58.8119Z" fill="#006250"/>
<path d="M23.8499 56.2142L24.2759 55.6135L30.3623 54.1289L23.8499 56.2142Z" fill="#006250"/>
<path d="M25.6825 53.6208L26.1085 53.0167L31.1264 51.8153L25.6825 53.6208Z" fill="#006250"/>
<path d="M27.5186 51.0235L27.9446 50.4194L30.812 49.7812L27.5186 51.0235Z" fill="#006250"/>
<path d="M29.3546 48.4297L29.7806 47.8222L31.309 47.4843L29.3546 48.4297Z" fill="#006250"/>
<path d="M20.9622 60.2962L21.3916 59.6921L20.8777 55.1631L20.9622 60.2962Z" fill="#00735D"/>
<path d="M22.7982 57.6993L23.2243 57.0986L22.5041 50.9894L22.7982 57.6993Z" fill="#00735D"/>
<path d="M24.6342 55.1051L25.0603 54.501L24.5632 49.1973L24.6342 55.1051Z" fill="#00735D"/>
<path d="M26.4705 52.5079L26.8965 51.9038L26.5043 47.8867L26.4705 52.5079Z" fill="#00735D"/>
<path d="M28.303 49.9113L28.729 49.3106L28.3977 46.3652L28.303 49.9113Z" fill="#00735D"/>
<path d="M30.1392 47.3174L30.5652 46.7133L30.4435 45.6348L30.1392 47.3174Z" fill="#00735D"/>
<path d="M30.5415 73.2833C27.194 78.0171 20.6241 79.0785 20.6241 79.0785C20.6241 79.0785 19.4778 72.4607 22.8253 67.727C26.1728 62.9932 32.7427 61.9317 32.7427 61.9317C32.7427 61.9317 33.8856 68.5495 30.5415 73.2833Z" fill="#00735D"/>
<path d="M20.6241 79.0785C20.6241 79.0785 19.4778 72.4607 22.8253 67.727C26.1728 62.9932 32.7427 61.9317 32.7427 61.9317L20.6241 79.0785Z" fill="#006250"/>
<path d="M21.2057 78.2522L21.6317 77.6481L26.0443 76.6651L21.2057 78.2522Z" fill="#006250"/>
<path d="M23.0416 75.6584L23.4676 75.0543L29.4255 73.754L23.0416 75.6584Z" fill="#006250"/>
<path d="M24.8744 73.0614L25.3038 72.4573L31.3902 70.9727L24.8744 73.0614Z" fill="#006250"/>
<path d="M26.7105 70.4638L27.1366 69.8631L32.1545 68.6583L26.7105 70.4638Z" fill="#006250"/>
<path d="M28.5465 67.8703L28.9725 67.2662L31.8399 66.628L28.5465 67.8703Z" fill="#006250"/>
<path d="M30.3792 65.2726L30.8087 64.6685L32.337 64.3272L30.3792 65.2726Z" fill="#006250"/>
<path d="M21.9901 77.1433L22.4195 76.5393L21.9056 72.0068L21.9901 77.1433Z" fill="#00735D"/>
<path d="M23.8262 74.5461L24.2522 73.942L23.532 67.8362L23.8262 74.5461Z" fill="#00735D"/>
<path d="M25.6622 71.9488L26.0883 71.3481L25.5912 66.041L25.6622 71.9488Z" fill="#00735D"/>
<path d="M27.495 69.3547L27.9244 68.7506L27.5288 64.7335L27.495 69.3547Z" fill="#00735D"/>
<path d="M29.3309 66.7581L29.757 66.154L29.4256 63.212L29.3309 66.7581Z" fill="#00735D"/>
<path d="M31.1671 64.1641L31.5931 63.56L31.4714 62.4815L31.1671 64.1641Z" fill="#00735D"/>
<path d="M7.80211 46.7614C11.3593 51.3382 17.9731 52.0924 17.9731 52.0924C17.9731 52.0924 18.8184 45.4303 15.2579 40.8535C11.7008 36.2801 5.08691 35.5225 5.08691 35.5225C5.08691 35.5225 4.24496 42.1846 7.80211 46.7614Z" fill="#00735D"/>
<path d="M17.9731 52.0924C17.9731 52.0924 18.8184 45.4303 15.2579 40.8535C11.7008 36.2801 5.08691 35.5225 5.08691 35.5225L17.9731 52.0924Z" fill="#006250"/>
<path d="M17.3509 51.2934L16.8978 50.7098L12.448 49.9316L17.3509 51.2934Z" fill="#006250"/>
<path d="M15.3999 48.7857L14.9468 48.2021L8.93823 47.1816L15.3999 48.7857Z" fill="#006250"/>
<path d="M13.449 46.2772L12.9959 45.6936L6.84863 44.4922L13.449 46.2772Z" fill="#006250"/>
<path d="M11.4979 43.7682L11.0448 43.1846L5.97958 42.2187L11.4979 43.7682Z" fill="#006250"/>
<path d="M9.55025 41.2597L9.09377 40.676L6.20275 40.1709L9.55025 41.2597Z" fill="#006250"/>
<path d="M7.59919 38.7507L7.14271 38.1671L5.60083 37.8975L7.59919 38.7507Z" fill="#006250"/>
<path d="M16.5158 50.2187L16.0627 49.6385L16.3704 45.089L16.5158 50.2187Z" fill="#00735D"/>
<path d="M14.5647 47.7099L14.1116 47.1297L14.5579 40.9932L14.5647 47.7099Z" fill="#00735D"/>
<path d="M12.6171 45.2047L12.1606 44.6211L12.4176 39.2969L12.6171 45.2047Z" fill="#00735D"/>
<path d="M10.6661 42.6965L10.2096 42.1129L10.4192 38.0822L10.6661 42.6965Z" fill="#00735D"/>
<path d="M8.71506 40.188L8.25859 39.6044L8.46147 36.6453L8.71506 40.188Z" fill="#00735D"/>
<path d="M6.76405 37.6795L6.30757 37.0958L6.38196 36.0105L6.76405 37.6795Z" fill="#00735D"/>
<path d="M8.88751 60.4334C12.4447 65.0102 19.0585 65.7645 19.0585 65.7645C19.0585 65.7645 19.9005 59.1024 16.3433 54.5256C12.7862 49.9522 6.17232 49.1945 6.17232 49.1945C6.17232 49.1945 5.33037 55.8601 8.88751 60.4334Z" fill="#00735D"/>
<path d="M19.0585 65.7645C19.0585 65.7645 19.9005 59.1024 16.3433 54.5256C12.7862 49.9522 6.17231 49.1945 6.17231 49.1945L19.0585 65.7645Z" fill="#006250"/>
<path d="M18.4363 64.9689L17.9832 64.3853L13.5334 63.6037L18.4363 64.9689Z" fill="#006250"/>
<path d="M16.4853 62.4612L16.0322 61.8776L10.0236 60.8537L16.4853 62.4612Z" fill="#006250"/>
<path d="M14.5344 59.9527L14.0813 59.369L7.93404 58.1643L14.5344 59.9527Z" fill="#006250"/>
<path d="M12.5867 57.4403L12.1302 56.8601L7.06498 55.8908L12.5867 57.4403Z" fill="#006250"/>
<path d="M10.6357 54.9352L10.1792 54.3515L7.28815 53.843L10.6357 54.9352Z" fill="#006250"/>
<path d="M8.68459 52.4262L8.22811 51.8426L6.68623 51.5695L8.68459 52.4262Z" fill="#006250"/>
<path d="M17.6012 63.8942L17.1481 63.3106L17.4558 58.7611L17.6012 63.8942Z" fill="#00735D"/>
<path d="M15.6501 61.3854L15.197 60.8018L15.6433 54.6652L15.6501 61.3854Z" fill="#00735D"/>
<path d="M13.7025 58.8771L13.246 58.2935L13.503 52.9727L13.7025 58.8771Z" fill="#00735D"/>
<path d="M11.7515 56.3686L11.295 55.785L11.508 51.7543L11.7515 56.3686Z" fill="#00735D"/>
<path d="M9.80043 53.8598L9.34395 53.2762L9.54683 50.3205L9.80043 53.8598Z" fill="#00735D"/>
<path d="M7.8495 51.3513L7.39302 50.7677L7.46741 49.6858L7.8495 51.3513Z" fill="#00735D"/>
<path d="M9.52647 76.0133C13.0836 80.5901 19.6975 81.3444 19.6975 81.3444C19.6975 81.3444 20.5394 74.6823 16.9823 70.1055C13.4251 65.5321 6.81128 64.7744 6.81128 64.7744C6.81128 64.7744 5.96933 71.4399 9.52647 76.0133Z" fill="#00735D"/>
<path d="M19.6975 81.3444C19.6975 81.3444 20.5394 74.6823 16.9823 70.1055C13.4251 65.5321 6.81128 64.7744 6.81128 64.7744L19.6975 81.3444Z" fill="#006250"/>
<path d="M19.0787 80.5492L18.6222 79.9655L14.1724 79.1874L19.0787 80.5492Z" fill="#006250"/>
<path d="M17.1277 78.0406L16.6746 77.457L10.6626 76.4365L17.1277 78.0406Z" fill="#006250"/>
<path d="M15.1767 75.5321L14.7202 74.9485L8.57294 73.7471L15.1767 75.5321Z" fill="#006250"/>
<path d="M13.2256 73.0236L12.7725 72.4399L7.70395 71.4707L13.2256 73.0236Z" fill="#006250"/>
<path d="M11.2746 70.515L10.8215 69.9314L7.92711 69.4229L11.2746 70.515Z" fill="#006250"/>
<path d="M9.32359 68.0065L8.8705 67.4229L7.32524 67.1533L9.32359 68.0065Z" fill="#006250"/>
<path d="M18.2435 79.4741L17.787 78.8905L18.0947 74.341L18.2435 79.4741Z" fill="#00735D"/>
<path d="M16.2925 76.9655L15.8394 76.3819L16.2823 70.2488L16.2925 76.9655Z" fill="#00735D"/>
<path d="M14.3415 74.457L13.885 73.8734L14.142 68.5526L14.3415 74.457Z" fill="#00735D"/>
<path d="M12.3904 71.9485L11.9374 71.3649L12.147 67.3341L12.3904 71.9485Z" fill="#00735D"/>
<path d="M10.4394 69.4396L9.98633 68.856L10.1858 65.9004L10.4394 69.4396Z" fill="#00735D"/>
<path d="M8.4885 66.9312L8.0354 66.3475L8.10641 65.2656L8.4885 66.9312Z" fill="#00735D"/>
<path d="M17.8581 94.3106C17.8581 94.3106 17.9359 93.4198 18.0745 91.8601C18.1422 91.0785 18.2267 90.1331 18.3248 89.0478C18.4161 87.9625 18.4634 86.7645 18.5479 85.4369C18.5851 84.7747 18.6257 84.0853 18.6663 83.3754C18.7069 82.6621 18.7136 81.9181 18.7407 81.157C18.7643 80.3925 18.7846 79.6109 18.8083 78.8089C18.8184 78.4096 18.832 78.0034 18.8421 77.5939C18.8421 77.1843 18.8455 76.7713 18.8455 76.3549C18.8489 75.5222 18.8489 74.6723 18.8523 73.8157C18.8523 73.3857 18.8556 72.9556 18.8556 72.5222C18.8455 72.0887 18.8353 71.6519 18.8286 71.215C18.7812 69.4642 18.7711 67.6826 18.673 65.9044C18.6325 65.0136 18.5919 64.1229 18.5513 63.2389C18.5074 62.3515 18.4397 61.471 18.3822 60.5939C18.318 59.7201 18.2774 58.8464 18.1997 57.9898C18.1253 57.1331 18.0509 56.2867 17.9799 55.4539C17.8412 53.785 17.6485 52.1809 17.493 50.6519C17.3002 49.1297 17.1447 47.686 16.9486 46.3618C16.8539 45.6997 16.766 45.0614 16.6814 44.4573C16.5868 43.8532 16.4989 43.2799 16.4143 42.744C16.2486 41.6655 16.0796 40.7338 15.9477 39.9625C15.6704 38.4232 15.4845 37.5461 15.4845 37.5461C15.4845 37.5461 15.7279 38.4061 16.11 39.9249C16.2926 40.686 16.5259 41.6075 16.7626 42.6724C16.8809 43.2048 17.0094 43.7713 17.1447 44.3686C17.2698 44.9693 17.4017 45.5973 17.5403 46.256C17.8277 47.57 18.0813 49.0034 18.3789 50.5154C18.6392 52.0341 18.9435 53.6314 19.1938 55.2935C19.3223 56.1263 19.4541 56.9693 19.586 57.8259C19.7212 58.6826 19.8261 59.5529 19.9478 60.4266C20.0628 61.3037 20.1946 62.1843 20.2961 63.0751C20.3975 63.9659 20.499 64.8567 20.6004 65.7509C20.8202 67.5358 20.9554 69.3276 21.1211 71.0921C21.1617 71.5324 21.1989 71.9727 21.2395 72.4096C21.2665 72.8464 21.2969 73.2833 21.324 73.7167C21.3815 74.5836 21.4356 75.4403 21.4931 76.2833C21.5201 76.7031 21.5472 77.1229 21.5742 77.5358C21.5911 77.9488 21.608 78.3618 21.6249 78.7679C21.6554 79.5802 21.6858 80.3754 21.7162 81.1502C21.7433 81.9249 21.7839 82.6758 21.794 83.4095C21.8008 84.1433 21.8075 84.8498 21.8143 85.5324C21.821 86.8908 21.8549 88.1502 21.8346 89.2423C21.8109 90.3311 21.794 91.2833 21.7771 92.0648C21.7433 93.6314 21.7264 94.5256 21.7264 94.5256L17.8581 94.3106Z" fill="#00735D"/>
<path d="M33.2822 91.9108V95.8801C33.2822 96.259 33.0286 96.6207 32.5518 96.9654C32.4166 97.061 32.2577 97.16 32.0852 97.2555C31.7505 97.4398 31.3481 97.6173 30.8882 97.7846C30.7395 97.8357 30.5839 97.8904 30.4216 97.945C29.8603 98.1293 29.2246 98.2999 28.5247 98.4501C28.3725 98.4842 28.2204 98.5183 28.0615 98.5525C27.2939 98.7095 26.4621 98.8494 25.566 98.9723C25.4139 98.9927 25.2583 99.0132 25.0994 99.0337C24.3691 99.1224 23.6015 99.2078 22.8035 99.2726C22.648 99.2828 22.4958 99.2965 22.3403 99.3067C21.8094 99.3477 21.265 99.3784 20.7105 99.4057C20.5549 99.4159 20.4028 99.4228 20.2439 99.4296C19.5507 99.4569 18.8406 99.474 18.117 99.4842C17.9615 99.4842 17.8093 99.4876 17.6504 99.4876H17.319C16.6428 99.4876 15.98 99.4774 15.324 99.4603C15.1685 99.4569 15.013 99.4501 14.8574 99.4467C14.1913 99.4228 13.5353 99.3886 12.8963 99.3477C12.7407 99.3375 12.5818 99.3272 12.4296 99.317C11.9867 99.2863 11.5573 99.2487 11.1346 99.2112C10.979 99.1941 10.8235 99.1805 10.668 99.1634C10.1303 99.1088 9.60623 99.0474 9.1058 98.9757C8.95026 98.9552 8.79472 98.9347 8.64256 98.9108C8.20299 98.8494 7.7837 98.7777 7.37795 98.7026C7.22241 98.6753 7.06687 98.648 6.91471 98.6173C6.41089 98.5218 5.93412 98.416 5.48441 98.3033C5.32549 98.2658 5.16995 98.2248 5.01779 98.1805C4.5444 98.0508 4.1116 97.9177 3.72274 97.7709C3.55706 97.7129 3.4049 97.648 3.25612 97.5866C2.86727 97.4228 2.5359 97.2521 2.26202 97.0781C2.07942 96.9586 1.9205 96.8392 1.79539 96.7163C1.51474 96.4467 1.36597 96.1634 1.36597 95.8767C1.36597 94.6958 1.36597 91.9074 1.36597 91.9074H33.2822V91.9108Z" fill="#FDC400"/>
<path d="M33.2822 91.9108C33.2822 93.6822 26.1409 95.1156 17.3292 95.1156C8.51745 95.1156 1.37611 93.6822 1.37611 91.9108C1.37611 90.1395 8.51745 88.7061 17.3292 88.7061C26.1409 88.7061 33.2822 90.1395 33.2822 91.9108Z" fill="#FFDE00"/>
<path d="M30.425 91.4842C30.425 92.7026 24.5618 93.689 17.3292 93.689C10.0965 93.689 4.23332 92.7026 4.23332 91.4842C4.23332 90.2658 10.0965 89.2794 17.3292 89.2794C24.5618 89.2794 30.425 90.2658 30.425 91.4842Z" fill="#FFD000"/>
<path d="M4.63232 92.0269C6.06599 91.0712 11.2056 90.3648 17.3292 90.3648C23.4493 90.3648 28.5889 91.0712 30.026 92.0269C30.2864 91.8528 30.425 91.6719 30.425 91.4842C30.425 90.2658 24.5618 89.2794 17.3292 89.2794C10.0965 89.2794 4.23332 90.2658 4.23332 91.4842C4.23332 91.6719 4.37196 91.8528 4.63232 92.0269Z" fill="#F8AB08"/>
<path d="M2.27204 93.6894V97.0819C2.08945 96.9624 1.93053 96.8429 1.80542 96.7201V93.6894H2.27204Z" fill="#F8AB08"/>
<path d="M3.73615 94.686V97.7747C3.57047 97.7167 3.41831 97.6518 3.26953 97.5904V94.6825H3.73615V94.686Z" fill="#F8AB08"/>
<path d="M5.49445 95.2939V98.3042C5.33553 98.2666 5.17999 98.2257 5.02783 98.1813V95.2939H5.49445Z" fill="#F8AB08"/>
<path d="M7.38797 95.703V98.7064C7.23243 98.6791 7.07689 98.6518 6.92473 98.6211V95.703H7.38797Z" fill="#F8AB08"/>
<path d="M9.11582 96.0955V98.9795C8.96028 98.959 8.80474 98.9385 8.65258 98.9146V96.0955H9.11582Z" fill="#F8AB08"/>
<path d="M11.1446 96.3545V99.2146C10.9891 99.1975 10.8335 99.1838 10.678 99.1668V96.3545H11.1446Z" fill="#F8AB08"/>
<path d="M12.9097 96.3545V99.3545C12.7542 99.3443 12.5953 99.334 12.4431 99.3238V96.3545H12.9097Z" fill="#F8AB08"/>
<path d="M15.3341 96.3549V99.4675C15.1785 99.4641 15.023 99.4573 14.8674 99.4539V96.3515H15.3341V96.3549Z" fill="#F8AB08"/>
<path d="M18.127 96.0955V99.4948C17.9715 99.4948 17.8193 99.4982 17.6604 99.4982V96.0955H18.127Z" fill="#F8AB08"/>
<path d="M20.7171 95.703V99.4129C20.5616 99.4232 20.4094 99.43 20.2505 99.4368V95.703H20.7171Z" fill="#F8AB08"/>
<path d="M22.8102 95.703V99.2798C22.6546 99.29 22.5025 99.3037 22.3469 99.3139V95.703H22.8102Z" fill="#F8AB08"/>
<path d="M25.5727 95.2935V98.9761C25.4205 98.9965 25.265 99.017 25.1061 99.0375V95.29H25.5727V95.2935Z" fill="#F8AB08"/>
<path d="M28.528 94.9044V98.4573C28.3758 98.4914 28.2236 98.5255 28.0647 98.5597V94.9044H28.528Z" fill="#F8AB08"/>
<path d="M30.888 93.9492V97.7888C30.7392 97.84 30.5837 97.8946 30.4214 97.9492V93.9492H30.888Z" fill="#F8AB08"/>
<path d="M32.5517 93.2969V96.9658C32.4165 97.0614 32.2576 97.1604 32.0851 97.2559V93.2969H32.5517Z" fill="#F8AB08"/>
<path d="M32.5518 95.2112C32.4166 95.3067 32.2577 95.4057 32.0852 95.5013C31.7505 95.6856 31.3481 95.863 30.8882 96.0303C30.7395 96.0815 30.5839 96.1361 30.4216 96.1907C29.8603 96.375 29.2246 96.5456 28.5247 96.6958C28.3725 96.7299 28.2204 96.7641 28.0615 96.8016C27.2939 96.9586 26.4621 97.0985 25.566 97.2214C25.4139 97.2419 25.2583 97.2624 25.0994 97.2828C24.3691 97.3716 23.6015 97.4569 22.8035 97.5218C22.648 97.532 22.4958 97.5456 22.3403 97.5559C21.8094 97.5968 21.265 97.6276 20.7105 97.6549C20.5549 97.6651 20.4028 97.6719 20.2439 97.6787C19.5507 97.7061 18.8406 97.7231 18.117 97.7334C17.9615 97.7334 17.8093 97.7368 17.6504 97.7368H17.319C16.6428 97.7368 15.98 97.7265 15.324 97.7095C15.1685 97.7061 15.013 97.6992 14.8574 97.6958C14.1913 97.6719 13.5353 97.6378 12.8963 97.5968C12.7407 97.5866 12.5818 97.5764 12.4296 97.5661C11.9867 97.5354 11.5573 97.4979 11.1346 97.4603C10.979 97.4433 10.8235 97.4296 10.668 97.4125C10.1303 97.3579 9.60623 97.2965 9.1058 97.2248C8.95026 97.2043 8.79472 97.1839 8.64256 97.16C8.20299 97.0985 7.7837 97.0269 7.37795 96.9518C7.22241 96.9245 7.06687 96.8972 6.91471 96.8665C6.41089 96.7709 5.93412 96.6651 5.48441 96.5525C5.32549 96.5149 5.16995 96.474 5.01779 96.4296C4.5444 96.2999 4.1116 96.1668 3.72274 96.02C3.55706 95.962 3.4049 95.8972 3.25612 95.8357C2.86727 95.6719 2.5359 95.5013 2.26202 95.3272C2.07942 95.2078 1.9205 95.0883 1.79539 94.9654C1.51474 94.6958 1.36597 94.4125 1.36597 94.1258C1.36597 94.7811 1.36597 95.4433 1.36597 95.8801C1.36597 96.1668 1.51474 96.4501 1.79539 96.7197C1.92388 96.8426 2.07942 96.962 2.26202 97.0815C2.5359 97.259 2.86727 97.4296 3.25612 97.59C3.4049 97.6514 3.56044 97.7163 3.72274 97.7743C4.1116 97.9211 4.5444 98.0542 5.01779 98.1839C5.16995 98.2248 5.32211 98.2658 5.48441 98.3067C5.93412 98.4194 6.41089 98.5252 6.91471 98.6207C7.06687 98.6514 7.21902 98.6787 7.37795 98.7061C7.7837 98.7811 8.20637 98.8528 8.64256 98.9142C8.79472 98.9381 8.94688 98.9586 9.1058 98.9791C9.60961 99.0473 10.1337 99.1122 10.668 99.1668C10.8235 99.1839 10.9757 99.1975 11.1346 99.2146C11.5573 99.2521 11.9867 99.2897 12.4296 99.3204C12.5852 99.3306 12.7407 99.3409 12.8963 99.3511C13.5353 99.3921 14.1879 99.4262 14.8574 99.4501C15.013 99.4535 15.1651 99.4603 15.324 99.4637C15.9766 99.4808 16.6428 99.491 17.319 99.491H17.6504C17.8059 99.491 17.9615 99.4876 18.117 99.4876C18.8406 99.4774 19.5507 99.4603 20.2439 99.433C20.3994 99.4262 20.5549 99.4194 20.7105 99.4091C21.265 99.3818 21.8094 99.3511 22.3403 99.3101C22.4958 99.2999 22.648 99.2863 22.8035 99.276C23.6015 99.2112 24.3657 99.1258 25.0994 99.0371C25.255 99.0166 25.4139 98.9962 25.566 98.9757C26.4587 98.8528 27.2905 98.7129 28.0615 98.5559C28.217 98.5218 28.3725 98.4876 28.5247 98.4535C29.2246 98.2999 29.8603 98.1293 30.4216 97.9484C30.5839 97.8972 30.7395 97.8426 30.8882 97.788C31.3481 97.6173 31.7505 97.4398 32.0852 97.259C32.2577 97.1634 32.4166 97.0644 32.5518 96.9689C33.0286 96.6241 33.2822 96.2624 33.2822 95.8835V94.1293C33.2822 94.5047 33.0286 94.8665 32.5518 95.2112Z" fill="#DC9600"/>
<path d="M31.9095 87.0887V91.0614C31.9095 91.4403 31.6525 91.802 31.1791 92.1468C31.0439 92.2423 30.8849 92.3413 30.7125 92.4369C30.3777 92.6212 29.9754 92.7986 29.5155 92.9659C29.3667 93.0171 29.2112 93.0751 29.0489 93.1263C28.4876 93.3106 27.8519 93.4812 27.152 93.6314C26.9998 93.6655 26.8476 93.6997 26.6887 93.7338C25.9212 93.8908 25.0894 94.0307 24.1933 94.1536C24.0412 94.1741 23.8856 94.1945 23.7267 94.215C22.9963 94.3038 22.2288 94.3891 21.4308 94.4539C21.2752 94.4642 21.1231 94.4778 20.9675 94.4881C20.4367 94.529 19.8923 94.5597 19.3377 94.587C19.1822 94.5973 19.03 94.6041 18.8711 94.6109C18.178 94.6382 17.4679 94.6553 16.7443 94.6655C16.5887 94.6655 16.4366 94.6689 16.2777 94.6689H15.9463C15.27 94.6689 14.6073 94.6587 13.9513 94.6416C13.7958 94.6382 13.6402 94.6314 13.4847 94.628C12.8186 94.6041 12.1626 94.57 11.5235 94.529C11.368 94.5188 11.2091 94.5085 11.0569 94.4983C10.614 94.4676 10.1845 94.43 9.76186 94.3925C9.60632 94.3754 9.45078 94.3618 9.29524 94.3447C8.75761 94.2901 8.2335 94.2253 7.73307 94.157C7.57753 94.1365 7.42199 94.116 7.26983 94.0922C6.83026 94.0307 6.41097 93.959 6.00522 93.884C5.84968 93.8567 5.69414 93.8294 5.54198 93.7986C5.03816 93.6997 4.56139 93.5973 4.11168 93.4846C3.95276 93.4471 3.79722 93.4061 3.64506 93.3618C3.17167 93.2321 2.73887 93.099 2.35001 92.9522C2.18433 92.8942 2.03217 92.8328 1.88339 92.7679C1.49454 92.6041 1.16317 92.4334 0.889286 92.2594C0.706695 92.1399 0.547773 92.0205 0.422664 91.8976C0.148778 91.628 0 91.3481 0 91.058C0 89.8771 0 87.0853 0 87.0853H31.9095V87.0887Z" fill="#FDC400"/>
<path d="M31.9095 87.0887C31.9095 88.8601 24.7681 90.2935 15.9564 90.2935C7.14472 90.2935 0.00337982 88.8601 0.00337982 87.0887C0.00337982 85.3174 7.14472 83.884 15.9564 83.884C24.7648 83.884 31.9095 85.3208 31.9095 87.0887Z" fill="#FFDE00"/>
<path d="M29.0489 86.6621C29.0489 87.8805 23.1857 88.8669 15.953 88.8669C8.72041 88.8669 2.85721 87.8805 2.85721 86.6621C2.85721 85.4437 8.72041 84.4573 15.953 84.4573C23.1857 84.4573 29.0489 85.4471 29.0489 86.6621Z" fill="#FFD000"/>
<path d="M3.25959 87.2048C4.69327 86.2491 9.83287 85.5427 15.9564 85.5427C22.0766 85.5427 27.2162 86.2491 28.6533 87.2048C28.9136 87.0307 29.0523 86.8498 29.0523 86.6621C29.0523 85.4437 23.1891 84.4573 15.9564 84.4573C8.7238 84.4573 2.86059 85.4437 2.86059 86.6621C2.85721 86.8498 2.99923 87.0307 3.25959 87.2048Z" fill="#F8AB08"/>
<path d="M0.899483 88.8673V92.2598C0.716892 92.1403 0.55797 92.0209 0.432861 91.898V88.8673H0.899483Z" fill="#F8AB08"/>
<path d="M2.36021 89.8639V92.9526C2.19453 92.8946 2.04237 92.8331 1.89359 92.7683V89.8604H2.36021V89.8639Z" fill="#F8AB08"/>
<path d="M4.12188 90.4748V93.485C3.96295 93.4475 3.80741 93.4065 3.65525 93.3622V90.4748H4.12188Z" fill="#F8AB08"/>
<path d="M6.01541 90.8809V93.8843C5.85987 93.857 5.70433 93.8297 5.55217 93.799V90.8809H6.01541Z" fill="#F8AB08"/>
<path d="M7.74327 91.2734V94.1574C7.58772 94.1369 7.43218 94.1164 7.28003 94.0925V91.2734H7.74327Z" fill="#F8AB08"/>
<path d="M9.77204 91.5324V94.3925C9.6165 94.3754 9.46096 94.3617 9.30542 94.3447V91.5324H9.77204Z" fill="#F8AB08"/>
<path d="M11.5338 91.5324V94.5324C11.3782 94.5222 11.2193 94.5119 11.0671 94.5017V91.5324H11.5338Z" fill="#F8AB08"/>
<path d="M13.9615 91.5324V94.645C13.806 94.6416 13.6504 94.6348 13.4949 94.6314V91.5324H13.9615Z" fill="#F8AB08"/>
<path d="M16.7511 91.2734V94.6727C16.5956 94.6727 16.4434 94.6761 16.2845 94.6761V91.2734H16.7511Z" fill="#F8AB08"/>
<path d="M19.3446 90.8809V94.5908C19.189 94.6011 19.0369 94.6079 18.8779 94.6147V90.8809H19.3446Z" fill="#F8AB08"/>
<path d="M21.4376 90.8809V94.4577C21.2821 94.468 21.1299 94.4816 20.9744 94.4918V90.8809H21.4376Z" fill="#F8AB08"/>
<path d="M24.1967 90.4748V94.1574C24.0446 94.1779 23.889 94.1983 23.7301 94.2188V90.4748H24.1967Z" fill="#F8AB08"/>
<path d="M27.152 90.0823V93.6318C26.9999 93.6659 26.8477 93.7 26.6888 93.7342V90.0823H27.152Z" fill="#F8AB08"/>
<path d="M29.5154 89.1271V92.9667C29.3667 93.0179 29.2111 93.0759 29.0488 93.1271V89.1271H29.5154Z" fill="#F8AB08"/>
<path d="M31.1758 88.4748V92.1437C31.0405 92.2393 30.8816 92.3383 30.7092 92.4338V88.4748H31.1758Z" fill="#F8AB08"/>
<path d="M31.1757 90.3891C31.0405 90.4846 30.8816 90.5836 30.7091 90.6792C30.3744 90.8635 29.972 91.041 29.5121 91.2082C29.3633 91.2594 29.2078 91.3174 29.0455 91.3686C28.4842 91.5529 27.8485 91.7236 27.1486 91.8737C26.9964 91.9079 26.8443 91.942 26.6853 91.9761C25.9178 92.1331 25.086 92.273 24.1899 92.3959C24.0378 92.4164 23.8822 92.4369 23.7233 92.4573C22.9929 92.5461 22.2254 92.6314 21.4274 92.6962C21.2719 92.7065 21.1197 92.7201 20.9642 92.7304C20.4333 92.7713 19.8889 92.802 19.3344 92.8293C19.1788 92.8396 19.0267 92.8464 18.8677 92.8532C18.1746 92.8805 17.4645 92.8976 16.7409 92.9079C16.5854 92.9079 16.4332 92.9113 16.2743 92.9113H15.9429C15.2666 92.9113 14.6039 92.901 13.9479 92.884C13.7924 92.8805 13.6368 92.8737 13.4813 92.8703C12.8152 92.8464 12.1592 92.8123 11.5201 92.7679C11.3646 92.7577 11.2057 92.7474 11.0535 92.7372C10.6106 92.7065 10.1811 92.6689 9.75848 92.6314C9.60294 92.6143 9.4474 92.6007 9.29186 92.5836C8.75423 92.529 8.23012 92.4642 7.72969 92.3959C7.57415 92.3754 7.41861 92.3549 7.26645 92.3311C6.82688 92.2696 6.40759 92.198 6.00184 92.1229C5.84629 92.0956 5.69075 92.0683 5.53859 92.0375C5.03478 91.942 4.55801 91.8362 4.1083 91.7236C3.94938 91.686 3.79384 91.6451 3.64168 91.6007C3.16829 91.471 2.73548 91.3379 2.34663 91.1911C2.18095 91.1331 2.02879 91.0717 1.88001 91.0068C1.49116 90.843 1.15979 90.6724 0.885905 90.4983C0.703314 90.3788 0.544392 90.2594 0.419283 90.1365C0.148778 89.8737 0 89.5904 0 89.3038C0 89.959 0 90.6212 0 91.058C0 91.3447 0.148778 91.628 0.429427 91.8976C0.557917 92.0171 0.713458 92.1399 0.896049 92.2594C1.16994 92.4369 1.5013 92.6075 1.89016 92.7679C2.03893 92.8294 2.19447 92.8942 2.35678 92.9522C2.74563 93.099 3.17844 93.2321 3.65182 93.3618C3.80398 93.4027 3.95614 93.4437 4.11844 93.4846C4.56816 93.6007 5.04492 93.7031 5.54874 93.7986C5.7009 93.8294 5.85306 93.8567 6.01198 93.884C6.41774 93.959 6.8404 94.0307 7.27659 94.0922C7.42875 94.116 7.58091 94.1365 7.73983 94.157C8.24365 94.2253 8.76775 94.2901 9.302 94.3447C9.45754 94.3618 9.6097 94.3754 9.76862 94.3925C10.1913 94.43 10.6207 94.4676 11.0637 94.4983C11.2192 94.5085 11.3747 94.5188 11.5303 94.529C12.1694 94.57 12.8219 94.6041 13.4915 94.628C13.647 94.6314 13.7991 94.6382 13.9581 94.6416C14.6107 94.6587 15.2768 94.6689 15.953 94.6689H16.2844C16.44 94.6689 16.5955 94.6655 16.751 94.6655C17.4746 94.6553 18.1847 94.6382 18.8779 94.6109C19.0334 94.6041 19.189 94.5973 19.3445 94.587C19.899 94.5597 20.4434 94.529 20.9743 94.4881C21.1298 94.4778 21.282 94.4642 21.4375 94.4539C22.2355 94.3891 22.9997 94.3038 23.7335 94.215C23.889 94.1945 24.0479 94.1741 24.2001 94.1536C25.0927 94.0307 25.9245 93.8908 26.6955 93.7338C26.851 93.6997 27.0066 93.6655 27.1587 93.6314C27.8587 93.4778 28.4943 93.3072 29.0556 93.1263C29.2179 93.0751 29.3735 93.0205 29.5223 92.9659C29.9821 92.7952 30.3845 92.6177 30.7193 92.4369C30.8917 92.3379 31.0506 92.2423 31.1859 92.1468C31.6626 91.802 31.9162 91.4403 31.9162 91.0614V89.3072C31.9095 89.6826 31.6525 90.0478 31.1757 90.3891Z" fill="#DC9600"/>
<path d="M33.2822 82.0239V85.9932C33.2822 86.372 33.0286 86.7338 32.5518 87.0785C32.4166 87.1741 32.2577 87.2731 32.0852 87.3686C31.7505 87.5529 31.3481 87.7304 30.8882 87.8976C30.7395 87.9488 30.5839 88.0069 30.4216 88.0581C29.8603 88.2424 29.2246 88.413 28.5247 88.5632C28.3725 88.5973 28.2204 88.6314 28.0615 88.6656C27.2939 88.8226 26.4621 88.9625 25.566 89.0854C25.4139 89.1058 25.2583 89.1263 25.0994 89.1468C24.3691 89.2355 23.6015 89.3208 22.8035 89.3857C22.648 89.3959 22.4958 89.4096 22.3403 89.4198C21.8094 89.4608 21.265 89.4915 20.7105 89.5188C20.5549 89.529 20.4028 89.5359 20.2439 89.5427C19.5507 89.57 18.8406 89.5871 18.117 89.5973C17.9615 89.5973 17.8093 89.6007 17.6504 89.6007H17.319C16.6428 89.6007 15.98 89.5905 15.324 89.5734C15.1685 89.57 15.013 89.5632 14.8574 89.5598C14.1913 89.5359 13.5353 89.5017 12.8963 89.4608C12.7407 89.4505 12.5818 89.4403 12.4296 89.4301C11.9867 89.3993 11.5573 89.3618 11.1346 89.3243C10.979 89.3072 10.8235 89.2935 10.668 89.2765C10.1303 89.2219 9.60623 89.157 9.1058 89.0888C8.95026 89.0683 8.79472 89.0478 8.64256 89.0239C8.20299 88.9625 7.7837 88.8908 7.37795 88.8157C7.22241 88.7884 7.06687 88.7611 6.91471 88.7304C6.41089 88.6314 5.93412 88.529 5.48441 88.4164C5.32549 88.3789 5.16995 88.3379 5.01779 88.2935C4.5444 88.1639 4.1116 88.0307 3.72274 87.884C3.55706 87.826 3.4049 87.7611 3.25612 87.6997C2.86727 87.5359 2.5359 87.3652 2.26202 87.1912C2.07942 87.0717 1.9205 86.9523 1.79539 86.8294C1.51474 86.5598 1.36597 86.2765 1.36597 85.9898C1.36597 84.8089 1.36597 82.0205 1.36597 82.0205H33.2822V82.0239Z" fill="#FDC400"/>
<path d="M33.2822 82.027C33.2822 83.7984 26.1409 85.2318 17.3292 85.2318C8.51745 85.2318 1.37611 83.7984 1.37611 82.027C1.37611 80.2557 8.51745 78.8223 17.3292 78.8223C26.1409 78.8223 33.2822 80.2557 33.2822 82.027Z" fill="#FFDE00"/>
<path d="M30.425 81.6004C30.425 82.8189 24.5618 83.8052 17.3292 83.8052C10.0965 83.8052 4.23332 82.8189 4.23332 81.6004C4.23332 80.382 10.0965 79.3956 17.3292 79.3956C24.5618 79.3956 30.425 80.382 30.425 81.6004Z" fill="#FFD000"/>
<path d="M4.63232 82.1431C6.06599 81.1875 11.2056 80.481 17.3292 80.481C23.4493 80.481 28.5889 81.1875 30.026 82.1431C30.2864 81.969 30.425 81.7881 30.425 81.6004C30.425 80.382 24.5618 79.3956 17.3292 79.3956C10.0965 79.3956 4.23332 80.382 4.23332 81.6004C4.23332 81.7881 4.37196 81.969 4.63232 82.1431Z" fill="#F8AB08"/>
<path d="M2.27204 83.8056V87.1981C2.08945 87.0786 1.93053 86.9592 1.80542 86.8363V83.8056H2.27204Z" fill="#F8AB08"/>
<path d="M3.73615 84.7983V87.8871C3.57047 87.8291 3.41831 87.7642 3.26953 87.7028V84.7949H3.73615V84.7983Z" fill="#F8AB08"/>
<path d="M5.49445 85.4102V88.4204C5.33553 88.3828 5.17999 88.3419 5.02783 88.2975V85.4102H5.49445Z" fill="#F8AB08"/>
<path d="M7.38797 85.8192V88.8226C7.23243 88.7953 7.07689 88.768 6.92473 88.7373V85.8192H7.38797Z" fill="#F8AB08"/>
<path d="M9.11582 86.2117V89.0957C8.96028 89.0752 8.80474 89.0547 8.65258 89.0308V86.2117H9.11582Z" fill="#F8AB08"/>
<path d="M11.1446 86.4707V89.3308C10.9891 89.3137 10.8335 89.3001 10.678 89.283V86.4707H11.1446Z" fill="#F8AB08"/>
<path d="M12.9097 86.4707V89.4707C12.7542 89.4605 12.5953 89.4502 12.4431 89.44V86.4707H12.9097Z" fill="#F8AB08"/>
<path d="M15.3341 86.4707V89.5867C15.1785 89.5833 15.023 89.5765 14.8674 89.5731V86.4741H15.3341V86.4707Z" fill="#F8AB08"/>
<path d="M18.127 86.2117V89.611C17.9715 89.611 17.8193 89.6145 17.6604 89.6145V86.2117H18.127Z" fill="#F8AB08"/>
<path d="M20.7171 85.8192V89.5291C20.5616 89.5394 20.4094 89.5462 20.2505 89.553V85.8192H20.7171Z" fill="#F8AB08"/>
<path d="M22.8102 85.8192V89.396C22.6546 89.4063 22.5025 89.4199 22.3469 89.4302V85.8192H22.8102Z" fill="#F8AB08"/>
<path d="M25.5727 85.4097V89.0923C25.4205 89.1127 25.265 89.1332 25.1061 89.1537V85.4063H25.5727V85.4097Z" fill="#F8AB08"/>
<path d="M28.5279 85.0176V88.5705C28.3758 88.6046 28.2236 88.6387 28.0647 88.6729V85.0176H28.5279Z" fill="#F8AB08"/>
<path d="M30.888 84.0654V87.905C30.7392 87.9562 30.5837 88.0142 30.4214 88.0654V84.0654H30.888Z" fill="#F8AB08"/>
<path d="M32.5517 83.4131V87.082C32.4165 87.1776 32.2576 87.2766 32.0851 87.3721V83.4131H32.5517Z" fill="#F8AB08"/>
<path d="M32.5518 85.327C32.4166 85.4226 32.2577 85.5216 32.0852 85.6171C31.7505 85.8014 31.3481 85.9789 30.8882 86.1461C30.7395 86.1973 30.5839 86.2553 30.4216 86.3065C29.8603 86.4908 29.2246 86.6615 28.5247 86.8117C28.3725 86.8458 28.2204 86.8799 28.0615 86.9141C27.2939 87.071 26.4621 87.211 25.566 87.3338C25.4139 87.3543 25.2583 87.3748 25.0994 87.3953C24.3691 87.484 23.6015 87.5693 22.8035 87.6342C22.648 87.6444 22.4958 87.6581 22.3403 87.6683C21.8094 87.7093 21.265 87.74 20.7105 87.7673C20.5549 87.7775 20.4028 87.7844 20.2439 87.7912C19.5507 87.8185 18.8406 87.8356 18.117 87.8458C17.9615 87.8458 17.8093 87.8492 17.6504 87.8492H17.319C16.6428 87.8492 15.98 87.839 15.324 87.8219C15.1685 87.8185 15.013 87.8117 14.8574 87.8082C14.1913 87.7844 13.5353 87.7502 12.8963 87.7093C12.7407 87.699 12.5818 87.6888 12.4296 87.6786C11.9867 87.6478 11.5573 87.6103 11.1346 87.5728C10.979 87.5557 10.8235 87.542 10.668 87.525C10.1303 87.4704 9.60623 87.4055 9.1058 87.3373C8.95026 87.3168 8.79472 87.2963 8.64256 87.2724C8.20299 87.211 7.7837 87.1393 7.37795 87.0642C7.22241 87.0369 7.06687 87.0096 6.91471 86.9789C6.41089 86.8833 5.93412 86.7775 5.48441 86.6649C5.32549 86.6274 5.16995 86.5864 5.01779 86.542C4.5444 86.4123 4.1116 86.2792 3.72274 86.1325C3.55706 86.0745 3.4049 86.0096 3.25612 85.9482C2.86727 85.7844 2.5359 85.6137 2.26202 85.4396C2.07942 85.3202 1.9205 85.2007 1.79539 85.0779C1.51474 84.8082 1.36597 84.525 1.36597 84.2383C1.36597 84.8936 1.36597 85.5557 1.36597 85.9925C1.36597 86.2792 1.51474 86.5625 1.79539 86.8321C1.92388 86.955 2.07942 87.0745 2.26202 87.1939C2.5359 87.3714 2.86727 87.542 3.25612 87.7024C3.4049 87.7639 3.56044 87.8287 3.72274 87.8867C4.1116 88.0335 4.5444 88.1666 5.01779 88.2963C5.16995 88.3373 5.32211 88.3782 5.48441 88.4192C5.93412 88.5352 6.41089 88.6376 6.91471 88.7332C7.06687 88.7639 7.21902 88.7912 7.37795 88.8185C7.7837 88.8936 8.20637 88.9652 8.64256 89.0267C8.79472 89.0506 8.94688 89.071 9.1058 89.0915C9.60961 89.1598 10.1337 89.2246 10.668 89.2792C10.8235 89.2963 10.9757 89.31 11.1346 89.327C11.5573 89.3646 11.9867 89.4021 12.4296 89.4328C12.5852 89.4431 12.7407 89.4533 12.8963 89.4635C13.5353 89.5045 14.1879 89.5386 14.8574 89.5625C15.013 89.5659 15.1651 89.5728 15.324 89.5762C15.9766 89.5932 16.6428 89.6035 17.319 89.6035H17.6504C17.8059 89.6035 17.9615 89.6001 18.117 89.6001C18.8406 89.5898 19.5507 89.5728 20.2439 89.5454C20.3994 89.5386 20.5549 89.5318 20.7105 89.5216C21.265 89.4943 21.8094 89.4635 22.3403 89.4226C22.4958 89.4123 22.648 89.3987 22.8035 89.3885C23.6015 89.3236 24.3657 89.2383 25.0994 89.1495C25.255 89.1291 25.4139 89.1086 25.566 89.0881C26.4587 88.9652 27.2905 88.8253 28.0615 88.6683C28.217 88.6342 28.3725 88.6001 28.5247 88.5659C29.2246 88.4123 29.8603 88.2451 30.4216 88.0608C30.5839 88.0096 30.7395 87.955 30.8882 87.9004C31.3481 87.7298 31.7505 87.5523 32.0852 87.3714C32.2577 87.2724 32.4166 87.1768 32.5518 87.0813C33.0286 86.7366 33.2822 86.3748 33.2822 85.996V84.2417C33.2822 84.6205 33.0286 84.9823 32.5518 85.327Z" fill="#DC9600"/>
<path d="M35 77.2051V81.1778C35 81.5566 34.7464 81.9184 34.2696 82.2631C34.1344 82.3587 33.9755 82.4576 33.803 82.5532C33.4683 82.7375 33.0659 82.915 32.606 83.0822C32.4572 83.1334 32.3017 83.1914 32.1394 83.2426C31.5781 83.4269 30.9424 83.5976 30.2425 83.7477C30.0903 83.7819 29.9382 83.816 29.7792 83.8501C29.0117 84.0071 28.1799 84.147 27.2838 84.2699C27.1317 84.2904 26.9761 84.3109 26.8172 84.3313C26.0868 84.4201 25.3193 84.5054 24.5213 84.5703C24.3658 84.5805 24.2136 84.5941 24.0581 84.6044C23.5272 84.6453 22.9828 84.6761 22.4283 84.7034C22.2727 84.7136 22.1206 84.7204 21.9616 84.7273C21.2685 84.7546 20.5584 84.7716 19.8348 84.7819C19.6793 84.7819 19.5271 84.7853 19.3682 84.7853H19.0368C18.3605 84.7853 17.6978 84.775 17.0418 84.758C16.8863 84.7546 16.7308 84.7477 16.5752 84.7443C15.9091 84.7204 15.2531 84.6863 14.614 84.6453C14.4585 84.6351 14.2996 84.6249 14.1474 84.6146C13.7045 84.5839 13.275 84.5464 12.8524 84.5054C12.6968 84.4883 12.5413 84.4747 12.3858 84.4576C11.8481 84.403 11.324 84.3416 10.8236 84.2699C10.6681 84.2494 10.5125 84.229 10.3604 84.2051C9.92078 84.1436 9.5015 84.072 9.09574 83.9969C8.9402 83.9696 8.78466 83.9423 8.6325 83.9116C8.1253 83.816 7.65192 83.7102 7.2022 83.5976C7.04328 83.56 6.88774 83.5191 6.73558 83.4747C6.2622 83.345 5.82939 83.2119 5.44054 83.0651C5.27485 83.0071 5.12269 82.9457 4.97391 82.8808C4.58506 82.717 4.25369 82.5464 3.97981 82.3723C3.79722 82.2528 3.6383 82.1334 3.51319 82.0105C3.23254 81.7409 3.08376 81.4576 3.08376 81.1709C3.08376 79.9901 3.08376 77.1982 3.08376 77.1982H35V77.2051Z" fill="#FDC400"/>
<path d="M19.047 80.4096C27.8576 80.4096 35 78.9747 35 77.2048C35 75.4348 27.8576 74 19.047 74C10.2363 74 3.0939 75.4348 3.0939 77.2048C3.0939 78.9747 10.2363 80.4096 19.047 80.4096Z" fill="#FFDE00"/>
<path d="M32.1428 76.7782C32.1428 77.9966 26.2796 78.9829 19.047 78.9829C11.8143 78.9829 5.95111 77.9966 5.95111 76.7782C5.95111 75.5597 11.8143 74.5734 19.047 74.5734C26.2796 74.5734 32.1428 75.5597 32.1428 76.7782Z" fill="#FFD000"/>
<path d="M6.35011 77.3208C7.78379 76.3652 12.9234 75.6587 19.047 75.6587C25.1705 75.6587 30.3067 76.3652 31.7438 77.3208C32.0042 77.1468 32.1428 76.9659 32.1428 76.7782C32.1428 75.5597 26.2796 74.5734 19.047 74.5734C11.8143 74.5734 5.95111 75.5597 5.95111 76.7782C5.95111 76.9659 6.08975 77.1468 6.35011 77.3208Z" fill="#F8AB08"/>
<path d="M3.98983 78.9833V82.3758C3.80724 82.2564 3.64832 82.1369 3.52321 82.014V78.9833H3.98983Z" fill="#F8AB08"/>
<path d="M5.45395 79.9795V83.0682C5.28826 83.0102 5.1361 82.9488 4.98732 82.8839V79.9795H5.45395Z" fill="#F8AB08"/>
<path d="M7.21223 80.5874V83.5977C7.0533 83.5601 6.89776 83.5192 6.74561 83.4748V80.584H7.21223V80.5874Z" fill="#F8AB08"/>
<path d="M9.10577 80.997V84.0004C8.95022 83.9731 8.79468 83.9458 8.64252 83.9151V80.997H9.10577Z" fill="#F8AB08"/>
<path d="M10.8336 81.3895V84.2734C10.6781 84.2529 10.5225 84.2325 10.3704 84.2086V81.3895H10.8336Z" fill="#F8AB08"/>
<path d="M12.8624 81.6484V84.5085C12.7069 84.4914 12.5513 84.4778 12.3958 84.4607V81.6484H12.8624Z" fill="#F8AB08"/>
<path d="M14.6275 81.6484V84.6484C14.472 84.6382 14.3131 84.628 14.1609 84.6177V81.6484H14.6275Z" fill="#F8AB08"/>
<path d="M17.0518 81.6484V84.7611C16.8963 84.7577 16.7408 84.7508 16.5852 84.7474V81.6484H17.0518Z" fill="#F8AB08"/>
<path d="M19.8448 81.3895V84.7888C19.6893 84.7888 19.5371 84.7922 19.3782 84.7922V81.3895H19.8448Z" fill="#F8AB08"/>
<path d="M22.4349 80.997V84.7069C22.2794 84.7171 22.1272 84.7239 21.9683 84.7308V80.997H22.4349Z" fill="#F8AB08"/>
<path d="M24.5279 80.997V84.5738C24.3724 84.584 24.2202 84.5976 24.0647 84.6079V80.997H24.5279Z" fill="#F8AB08"/>
<path d="M27.2905 80.5874V84.27C27.1383 84.2905 26.9828 84.311 26.8239 84.3314V80.584H27.2905V80.5874Z" fill="#F8AB08"/>
<path d="M30.2458 80.1983V83.7512C30.0936 83.7854 29.9414 83.8195 29.7825 83.8536V80.1983H30.2458Z" fill="#F8AB08"/>
<path d="M32.6058 79.2432V83.0828C32.457 83.1339 32.3015 83.192 32.1392 83.2432V79.2432H32.6058Z" fill="#F8AB08"/>
<path d="M34.2695 78.5908V82.2598C34.1343 82.3553 33.9753 82.4543 33.8029 82.5499V78.5908H34.2695Z" fill="#F8AB08"/>
<path d="M34.2696 80.5047C34.1344 80.6003 33.9755 80.6993 33.803 80.7948C33.4683 80.9791 33.0659 81.1566 32.606 81.3239C32.4572 81.3751 32.3017 81.4331 32.1394 81.4843C31.5781 81.6686 30.9424 81.8392 30.2425 81.9894C30.0903 82.0235 29.9382 82.0576 29.7792 82.0918C29.0117 82.2488 28.1799 82.3887 27.2838 82.5116C27.1317 82.532 26.9761 82.5525 26.8172 82.573C26.0868 82.6617 25.3193 82.7471 24.5213 82.8119C24.3658 82.8221 24.2136 82.8358 24.0581 82.846C23.5272 82.887 22.9828 82.9177 22.4283 82.945C22.2727 82.9553 22.1206 82.9621 21.9616 82.9689C21.2685 82.9962 20.5584 83.0133 19.8348 83.0235C19.6793 83.0235 19.5271 83.0269 19.3682 83.0269H19.0368C18.3605 83.0269 17.6978 83.0167 17.0418 82.9996C16.8863 82.9962 16.7308 82.9894 16.5752 82.986C15.9091 82.9621 15.2531 82.928 14.614 82.887C14.4585 82.8768 14.2996 82.8665 14.1474 82.8563C13.7045 82.8256 13.275 82.788 12.8524 82.7471C12.6968 82.73 12.5413 82.7163 12.3858 82.6993C11.8481 82.6447 11.324 82.5832 10.8236 82.5116C10.6681 82.4911 10.5125 82.4706 10.3604 82.4467C9.92078 82.3853 9.5015 82.3136 9.09574 82.2385C8.9402 82.2112 8.78466 82.1839 8.6325 82.1532C8.1253 82.0542 7.65192 81.9518 7.2022 81.8358C7.04328 81.7983 6.88774 81.7573 6.73558 81.7129C6.2622 81.5832 5.82939 81.4501 5.44054 81.3034C5.27485 81.2454 5.12269 81.1805 4.97391 81.1191C4.58506 80.9553 4.25369 80.7846 3.97981 80.6105C3.79722 80.4911 3.6383 80.3716 3.51319 80.2488C3.23254 79.9791 3.08376 79.6959 3.08376 79.4092C3.08376 80.0645 3.08376 80.7266 3.08376 81.1634C3.08376 81.4501 3.23254 81.7334 3.51319 82.003C3.64168 82.1225 3.79722 82.2454 3.97981 82.3648C4.25369 82.5423 4.58506 82.7129 4.97391 82.8733C5.12269 82.9348 5.27823 82.9996 5.44054 83.0576C5.82939 83.2044 6.2622 83.3375 6.73558 83.4672C6.88774 83.5082 7.0399 83.5491 7.2022 83.5901C7.65192 83.7061 8.12868 83.8085 8.6325 83.9041C8.78466 83.9348 8.93682 83.9621 9.09574 83.9894C9.5015 84.0645 9.92416 84.1361 10.3604 84.1976C10.5125 84.2215 10.6647 84.2419 10.8236 84.2624C11.3274 84.3307 11.8515 84.3955 12.3858 84.4501C12.5413 84.4672 12.6935 84.4809 12.8524 84.4979C13.275 84.5355 13.7045 84.573 14.1474 84.6071C14.303 84.6174 14.4585 84.6276 14.614 84.6378C15.2531 84.6788 15.9057 84.7129 16.5752 84.7368C16.7308 84.7402 16.8829 84.7471 17.0418 84.7505C17.6944 84.7675 18.3605 84.7778 19.0368 84.7778H19.3682C19.5237 84.7778 19.6793 84.7744 19.8348 84.7744C20.5584 84.7641 21.2685 84.7471 21.9616 84.7198C22.1172 84.7129 22.2727 84.7061 22.4283 84.6959C22.9828 84.6686 23.5272 84.6378 24.0581 84.5969C24.2136 84.5867 24.3658 84.573 24.5213 84.5628C25.3193 84.4979 26.0835 84.4126 26.8172 84.3239C26.9728 84.3034 27.1317 84.2829 27.2838 84.2624C28.1765 84.143 29.0083 83.9996 29.7792 83.8426C29.9348 83.8085 30.0903 83.7744 30.2425 83.7402C30.9424 83.5867 31.5781 83.416 32.1394 83.2351C32.3017 83.1839 32.4572 83.1293 32.606 83.0747C33.0659 82.9041 33.4683 82.7266 33.803 82.5457C33.9755 82.4501 34.1344 82.3512 34.2696 82.2556C34.7464 81.9109 35 81.5491 35 81.1703V79.416C35 79.7983 34.7464 80.16 34.2696 80.5047Z" fill="#DC9600"/>
<g opacity="0.8">
<path d="M58.2859 17.2949L58.8544 21.1676C58.9087 21.5372 58.7099 21.9185 58.2881 22.3082C58.1682 22.4166 58.0253 22.5309 57.8686 22.6434C57.5642 22.8607 57.192 23.0789 56.7616 23.2935C56.6219 23.3601 56.476 23.4307 56.3235 23.5022C55.7952 23.7448 55.1915 23.9824 54.5214 24.2072C54.3759 24.2575 54.2305 24.3078 54.0783 24.3589C53.3424 24.5979 52.5405 24.8275 51.6726 25.0476C51.5252 25.0846 51.3745 25.122 51.2204 25.1598C50.5114 25.3281 49.7651 25.4972 48.9859 25.6497C48.8337 25.6771 48.6853 25.7074 48.533 25.7348C48.0143 25.8342 47.4808 25.925 46.9367 26.0137C46.7845 26.0411 46.6351 26.0648 46.4791 26.0892C45.798 26.1934 45.0988 26.2895 44.3853 26.3804C44.2316 26.3978 44.0817 26.4182 43.9247 26.4359L43.5972 26.473C42.929 26.5487 42.2726 26.6128 41.622 26.6695C41.4678 26.6836 41.3131 26.6943 41.159 26.7084C40.4973 26.7596 39.8442 26.7997 39.2069 26.8312C39.0517 26.8386 38.8932 26.8464 38.7414 26.8535C38.2993 26.8731 37.8696 26.8845 37.4465 26.8951C37.2904 26.8959 37.1348 26.8999 36.9786 26.9007C36.4395 26.9076 35.9129 26.9063 35.4081 26.8923C35.2515 26.8897 35.0948 26.8871 34.9411 26.8809C34.4979 26.8701 34.0733 26.8471 33.6616 26.8192C33.504 26.81 33.3464 26.8007 33.1917 26.7878C32.6801 26.7509 32.1939 26.701 31.7333 26.6414C31.5709 26.6226 31.4114 26.6 31.2547 26.5737C30.7683 26.5002 30.3216 26.4187 29.9163 26.319C29.7443 26.281 29.5846 26.2347 29.4288 26.1914C29.0211 26.0751 28.6692 25.9457 28.3737 25.8065C28.1761 25.7104 28.002 25.6116 27.8608 25.5057C27.5448 25.274 27.3572 25.0143 27.3162 24.7346C27.147 23.5824 26.7476 20.8619 26.7476 20.8619L58.2854 17.2916L58.2859 17.2949Z" fill="#FDC400"/>
<path d="M58.3528 17.4306C58.6067 19.1666 51.7516 21.374 43.0395 22.3642C34.3275 23.3543 27.0615 22.752 26.8077 21.0159C26.5538 19.2799 33.4089 17.0726 42.121 16.0824C50.833 15.0922 58.099 15.6946 58.3528 17.4306Z" fill="#FFDE00"/>
<path d="M55.4798 17.3443C55.6545 18.5444 49.9962 20.178 42.8418 20.9948C35.6875 21.8116 29.7463 21.5022 29.5716 20.3021C29.3969 19.1021 35.0552 17.4685 42.2096 16.6517C49.3639 15.8349 55.3051 16.1443 55.4798 17.3443Z" fill="#FFD000"/>
<path d="M30.0448 20.8695C31.3272 19.751 36.3148 18.4571 42.378 17.756C48.4379 17.0552 53.6283 17.1723 55.1884 17.962C55.4212 17.7584 55.5325 17.5619 55.5055 17.3744C55.3307 16.1577 49.3837 15.8441 42.2223 16.6722C35.0609 17.5003 29.397 19.1566 29.5719 20.3733C29.5988 20.5607 29.7621 20.7255 30.0448 20.8695Z" fill="#F8AB08"/>
<path d="M27.8468 22.7111L28.3079 25.8986C28.1212 25.8059 27.9567 25.7107 27.8232 25.6087L27.4113 22.7612L27.8468 22.7111Z" fill="#F8AB08"/>
<path d="M29.4276 23.4686L29.8485 26.3713C29.6856 26.3345 29.5343 26.2899 29.3867 26.2481L28.9904 23.5155L29.4271 23.4654L29.4276 23.4686Z" fill="#F8AB08"/>
<path d="M31.2495 23.8262L31.6601 26.6552C31.5061 26.637 31.3549 26.6152 31.2063 26.5898L30.8124 23.8762L31.2495 23.8262Z" fill="#F8AB08"/>
<path d="M33.1799 23.9809L33.5895 26.8034C33.4401 26.7945 33.2908 26.7855 33.1441 26.7729L32.7461 24.0306L33.1799 23.9809Z" fill="#F8AB08"/>
<path d="M34.9443 24.14L35.3381 26.8506C35.1895 26.848 35.0408 26.8455 34.8949 26.8393L34.5099 24.1897L34.9443 24.14Z" fill="#F8AB08"/>
<path d="M36.9895 24.1376L37.3803 26.8258C37.2321 26.8265 37.0843 26.8303 36.936 26.831L36.5518 24.1877L36.9895 24.1376Z" fill="#F8AB08"/>
<path d="M38.7396 23.9243L39.1488 26.7437C39.0017 26.7507 38.8515 26.7582 38.7075 26.7649L38.3025 23.9743L38.7396 23.9243Z" fill="#F8AB08"/>
<path d="M41.1436 23.6316L41.5677 26.5566C41.4217 26.5701 41.2753 26.5803 41.1293 26.5938L40.7065 23.6784L41.1431 23.6284L41.1436 23.6316Z" fill="#F8AB08"/>
<path d="M43.8792 23.0507L44.3412 26.2446C44.1961 26.2613 44.0546 26.2808 43.9063 26.2978L43.4438 23.1008L43.8792 23.0507Z" fill="#F8AB08"/>
<path d="M46.3967 22.3696L46.8994 25.8546C46.7561 25.8809 46.6154 25.9037 46.4685 25.9271L45.9625 22.4196L46.3967 22.3696Z" fill="#F8AB08"/>
<path d="M48.4731 22.1166L48.9582 25.4768C48.8147 25.5031 48.6749 25.5322 48.5314 25.5585L48.0417 22.1662L48.4731 22.1166Z" fill="#F8AB08"/>
<path d="M51.16 21.3986L51.659 24.858C51.5202 24.8935 51.3783 24.9294 51.2332 24.9657L50.7254 21.4454L51.1595 21.3954L51.16 21.3986Z" fill="#F8AB08"/>
<path d="M54.0417 20.6765L54.5234 24.0142C54.3863 24.0625 54.2493 24.1109 54.106 24.16L53.6104 20.7262L54.0417 20.6765Z" fill="#F8AB08"/>
<path d="M56.2589 19.4956L56.7782 23.102C56.6469 23.1661 56.5099 23.234 56.3666 23.3027L55.8256 19.5456L56.2589 19.4956Z" fill="#F8AB08"/>
<path d="M57.8257 18.6828L58.322 22.129C58.2093 22.2333 58.0751 22.3433 57.9279 22.4515L57.3923 18.7328L57.8257 18.6828Z" fill="#F8AB08"/>
<path d="M58.0354 20.5233C57.9153 20.6327 57.7723 20.7481 57.6154 20.8617C57.3107 21.0811 56.9382 21.3013 56.5073 21.518C56.3674 21.5852 56.2214 21.6566 56.0687 21.7287C55.5399 21.9736 54.9355 22.2135 54.2647 22.4404C54.1191 22.4912 53.9735 22.542 53.8217 22.597C53.0849 22.8383 52.2822 23.0701 51.4134 23.2923C51.2659 23.3296 51.1149 23.3674 50.9607 23.4055C50.2509 23.5754 49.5039 23.7461 48.7238 23.9001C48.5715 23.9277 48.4229 23.9584 48.2705 23.986C47.7513 24.0863 47.2172 24.178 46.6725 24.2676C46.5201 24.2952 46.3706 24.3191 46.2144 24.3438C45.5326 24.449 44.8327 24.546 44.1184 24.6378C43.9645 24.6553 43.8145 24.6759 43.6573 24.6938L43.3295 24.7313C42.6606 24.8076 42.0035 24.8724 41.3522 24.9297C41.1978 24.9439 41.043 24.9547 40.8887 24.9689C40.2263 25.0206 39.5726 25.0611 38.9345 25.0929C38.7792 25.1004 38.6205 25.1082 38.4685 25.1153C38.026 25.1351 37.5958 25.1466 37.1723 25.1574C37.016 25.1581 36.8602 25.1623 36.7039 25.163C36.1643 25.17 35.637 25.1686 35.1317 25.1546C34.9749 25.1519 34.8181 25.1493 34.6642 25.143C34.2206 25.1321 33.7956 25.1089 33.3834 25.0808C33.2256 25.0714 33.0679 25.0621 32.913 25.049C32.4009 25.0118 31.9141 24.9614 31.4531 24.9013C31.2905 24.8822 31.1308 24.8595 30.9739 24.833C30.4871 24.7587 30.0399 24.6764 29.6342 24.5758C29.462 24.5374 29.3021 24.4907 29.1462 24.447C28.738 24.3295 28.3858 24.1989 28.0899 24.0584C27.8922 23.9613 27.7178 23.8616 27.5764 23.7547C27.2602 23.5208 27.0724 23.2586 27.0313 22.9762C27.1252 23.6217 27.2202 24.2738 27.2828 24.7041C27.3239 24.9865 27.5117 25.2487 27.828 25.4826C27.9727 25.5891 28.1437 25.6892 28.3414 25.7863C28.6378 25.9301 28.9901 26.0608 29.3977 26.1749C29.5537 26.2186 29.7168 26.2649 29.8857 26.3037C30.2914 26.4044 30.7386 26.4866 31.2255 26.5609C31.3818 26.584 31.5382 26.6072 31.7046 26.6292C32.1656 26.6893 32.6524 26.7397 33.1645 26.7769C33.3194 26.79 33.4738 26.7997 33.635 26.8087C34.0471 26.8368 34.4755 26.8597 34.9157 26.8709C35.0697 26.8773 35.2231 26.8802 35.3833 26.8825C35.8914 26.8928 36.4192 26.8975 36.9555 26.8909C37.1118 26.8902 37.2642 26.8864 37.4239 26.8853C37.8474 26.8745 38.2775 26.863 38.7201 26.8433C38.8754 26.8358 39.0307 26.8283 39.1861 26.8208C39.8241 26.789 40.4745 26.7489 41.1402 26.6968C41.2945 26.6826 41.446 26.6722 41.6037 26.6576C42.2517 26.6007 42.9121 26.5355 43.581 26.4592L43.9088 26.4217C44.0627 26.4042 44.2161 26.3833 44.3699 26.3657C45.0842 26.2739 45.7842 26.1769 46.4659 26.0717C46.6188 26.0474 46.7717 26.0231 46.9241 25.9955C47.4687 25.906 48.0028 25.8142 48.522 25.7139C48.6744 25.6863 48.823 25.6556 48.9754 25.628C49.7554 25.474 50.4991 25.3037 51.2122 25.1334C51.3631 25.0956 51.5174 25.0575 51.665 25.0202C52.5304 24.7983 53.3331 24.5666 54.0732 24.3249C54.2222 24.2737 54.3711 24.2225 54.5167 24.1717C55.1871 23.9414 55.7914 23.7015 56.3207 23.4599C56.4739 23.3912 56.6199 23.3198 56.7593 23.2492C57.1897 23.0292 57.5623 22.809 57.8675 22.593C58.0243 22.4794 58.1674 22.364 58.2874 22.2546C58.7096 21.8612 58.9086 21.4762 58.8543 21.1031L58.6028 19.3752C58.6566 19.7449 58.4576 20.1299 58.0354 20.5233Z" fill="#DC9600"/>
<path d="M56.3078 12.9393L56.8768 16.8152C56.9311 17.1848 56.729 17.5665 56.3106 17.9558C56.1906 18.0641 56.0478 18.1785 55.891 18.291C55.5867 18.5083 55.2145 18.7264 54.784 18.941C54.6443 19.0076 54.499 19.0816 54.3459 19.1497C53.8177 19.3923 53.214 19.6299 52.5438 19.8547C52.3984 19.9051 52.2529 19.9554 52.1008 20.0065C51.3648 20.2455 50.5629 20.4751 49.6951 20.6952C49.5477 20.7322 49.3969 20.7696 49.2428 20.8073C48.5338 20.9756 47.7876 21.1447 47.0083 21.2972C46.8561 21.3246 46.7077 21.355 46.5555 21.3823C46.0368 21.4817 45.5032 21.5726 44.9592 21.6612C44.807 21.6886 44.6576 21.7123 44.5015 21.7367C43.8205 21.8409 43.1213 21.937 42.4077 22.0279C42.254 22.0453 42.1042 22.0657 41.9471 22.0834L41.6197 22.1205C40.9514 22.1962 40.2951 22.2603 39.6445 22.317C39.4903 22.3311 39.3356 22.3419 39.1814 22.3559C38.5198 22.4071 37.8667 22.4472 37.2293 22.4787C37.0742 22.4862 36.9157 22.4939 36.7639 22.501C36.3218 22.5206 35.8921 22.532 35.469 22.5426C35.3129 22.5434 35.1572 22.5474 35.0011 22.5482C34.462 22.5551 33.9348 22.5504 33.4306 22.5398C33.2739 22.5372 33.1173 22.5346 32.9635 22.5284C32.5204 22.5176 32.0958 22.4946 31.6841 22.4667C31.5265 22.4575 31.3689 22.4482 31.2141 22.4353C30.7021 22.3951 30.2163 22.3485 29.7558 22.2889C29.5934 22.2701 29.4339 22.2475 29.2771 22.2213C28.7908 22.1477 28.3441 22.0662 27.9388 21.9665C27.7668 21.9285 27.6076 21.8856 27.4513 21.8389C27.0436 21.7226 26.6917 21.5932 26.3962 21.454C26.1986 21.3579 26.0245 21.2591 25.8833 21.1532C25.574 20.9208 25.3869 20.6644 25.3453 20.3814C25.1762 19.2293 24.7763 16.5055 24.7763 16.5055L56.3073 12.9359L56.3078 12.9393Z" fill="#FDC400"/>
<path d="M56.3748 13.075C56.6287 14.811 49.7735 17.0183 41.0615 18.0085C32.3495 18.9987 25.0835 18.3963 24.8296 16.6603C24.5758 14.9243 31.4309 12.7169 40.1429 11.7267C48.8516 10.7369 56.1214 11.3423 56.3748 13.075Z" fill="#FFDE00"/>
<path d="M53.4984 12.9891C53.6732 14.1892 48.0148 15.8228 40.8605 16.6395C33.7061 17.4563 27.7649 17.147 27.5902 15.9469C27.4155 14.7468 33.0738 13.1132 40.2282 12.2964C47.3826 11.4796 53.3242 11.7924 53.4984 12.9891Z" fill="#FFD000"/>
<path d="M28.0668 16.5138C29.3492 15.3954 34.3368 14.1014 40.4 13.4003C46.4599 12.6996 51.6503 12.8166 53.2103 13.6064C53.4432 13.4027 53.5545 13.2062 53.5275 13.0188C53.3527 11.8021 47.4056 11.4884 40.2443 12.3165C33.0829 13.1446 27.419 14.8009 27.5939 16.0176C27.6175 16.2054 27.784 16.3698 28.0668 16.5138Z" fill="#F8AB08"/>
<path d="M25.8689 18.3555L26.33 21.5429C26.1434 21.4503 25.9789 21.3551 25.8454 21.253L25.4335 18.4055L25.8689 18.3555Z" fill="#F8AB08"/>
<path d="M27.4464 19.1134L27.8674 22.016C27.7044 21.9792 27.5536 21.9378 27.4055 21.8928L27.0092 19.1602L27.4459 19.1102L27.4464 19.1134Z" fill="#F8AB08"/>
<path d="M29.272 19.4733L29.6826 22.3023C29.5287 22.284 29.3774 22.2622 29.2288 22.2369L28.835 19.5233L29.272 19.4733Z" fill="#F8AB08"/>
<path d="M31.2021 19.6252L31.6117 22.4478C31.4623 22.4388 31.3129 22.4298 31.1662 22.4173L30.7682 19.6749L31.2021 19.6252Z" fill="#F8AB08"/>
<path d="M32.9664 19.7844L33.3603 22.4949C33.2116 22.4924 33.063 22.4898 32.9171 22.4837L32.5321 19.834L32.9664 19.7844Z" fill="#F8AB08"/>
<path d="M35.0117 19.782L35.4025 22.4702C35.2542 22.4708 35.1064 22.4747 34.9582 22.4753L34.574 19.832L35.0117 19.782Z" fill="#F8AB08"/>
<path d="M36.7583 19.569L37.1676 22.3884C37.0205 22.3955 36.8702 22.4029 36.7263 22.4096L36.3212 19.619L36.7583 19.569Z" fill="#F8AB08"/>
<path d="M39.1656 19.2755L39.5898 22.2005C39.4438 22.214 39.2973 22.2243 39.1513 22.2378L38.729 19.3256L39.1656 19.2755Z" fill="#F8AB08"/>
<path d="M41.8981 18.6955L42.36 21.8893C42.2149 21.906 42.0734 21.9255 41.9251 21.9426L41.4626 18.7455L41.8981 18.6955Z" fill="#F8AB08"/>
<path d="M44.4188 18.0139L44.9216 21.499C44.7782 21.5253 44.6376 21.548 44.4906 21.5714L43.9846 18.0639L44.4188 18.0139Z" fill="#F8AB08"/>
<path d="M46.4952 17.7609L46.9803 21.1211C46.8369 21.1474 46.697 21.1765 46.5536 21.2028L46.0638 17.8106L46.4952 17.7609Z" fill="#F8AB08"/>
<path d="M49.1792 17.0465L49.6782 20.5059C49.5394 20.5415 49.3975 20.5774 49.2524 20.6137L48.7451 17.0965L49.1792 17.0465Z" fill="#F8AB08"/>
<path d="M52.0605 16.3212L52.5417 19.6557C52.4047 19.7041 52.2677 19.7525 52.1244 19.8016L51.6292 16.3709L52.0605 16.3212Z" fill="#F8AB08"/>
<path d="M54.2811 15.1399L54.8003 18.7464C54.6691 18.8104 54.5325 18.8816 54.3887 18.947L53.8478 15.1899L54.2811 15.1399Z" fill="#F8AB08"/>
<path d="M55.8445 14.3275L56.3408 17.7737C56.2281 17.878 56.0939 17.988 55.9467 18.0963L55.4111 14.3775L55.8445 14.3275Z" fill="#F8AB08"/>
<path d="M56.0541 16.168C55.934 16.2774 55.791 16.3928 55.6341 16.5064C55.3294 16.7257 54.9568 16.946 54.5259 17.1626C54.3861 17.2299 54.2406 17.3046 54.0873 17.3733C53.5585 17.6183 52.9542 17.8581 52.2834 18.0851C52.1378 18.1359 51.9921 18.1867 51.8398 18.2383C51.1031 18.4796 50.3003 18.7114 49.4316 18.9336C49.284 18.9709 49.1331 19.0087 48.9788 19.0468C48.2691 19.2167 47.5221 19.3874 46.742 19.5414C46.5896 19.569 46.4411 19.5997 46.2887 19.6273C45.7694 19.7276 45.2353 19.8193 44.6907 19.9089C44.5383 19.9365 44.3888 19.9604 44.2326 19.9851C43.5508 20.0903 42.8509 20.1873 42.1365 20.2791C41.9827 20.2966 41.8327 20.3172 41.6755 20.3351L41.3477 20.3726C40.6787 20.4489 40.0217 20.5137 39.3704 20.571C39.216 20.5852 39.0612 20.596 38.9068 20.6102C38.2445 20.6619 37.5907 20.7024 36.9522 20.7309C36.7969 20.7383 36.6382 20.7462 36.4862 20.7533C36.0437 20.7731 35.6135 20.7846 35.19 20.7953C35.0337 20.7961 34.8779 20.8002 34.7216 20.801C34.182 20.8079 33.6542 20.8032 33.1494 20.7925C32.9926 20.7899 32.8358 20.7873 32.6819 20.7809C32.2383 20.7701 31.8132 20.7468 31.4011 20.7187C31.2433 20.7094 31.0856 20.7 30.9306 20.687C30.4186 20.6497 29.9318 20.5994 29.4708 20.5392C29.3082 20.5202 29.1485 20.4974 28.9916 20.4709C28.5047 20.3966 28.0575 20.3144 27.6518 20.2138C27.4796 20.1753 27.3203 20.132 27.1638 20.0849C26.7557 19.9675 26.4035 19.8368 26.1076 19.6963C25.9098 19.5993 25.7355 19.4995 25.5941 19.3926C25.2889 19.1643 25.1011 18.9021 25.06 18.6198C25.1539 19.2652 25.2489 19.9174 25.3115 20.3477C25.3526 20.63 25.5404 20.8923 25.8567 21.1261C26.0009 21.2293 26.1724 21.3327 26.3701 21.4298C26.6665 21.5737 27.0187 21.7043 27.4264 21.8184C27.5824 21.8621 27.7455 21.9084 27.9144 21.9472C28.3201 22.0479 28.7673 22.1301 29.2542 22.2044C29.4105 22.2275 29.5669 22.2507 29.7333 22.2727C30.1948 22.3362 30.6811 22.3832 31.1932 22.4205C31.3481 22.4335 31.5025 22.4432 31.6637 22.4522C32.0758 22.4803 32.5042 22.5032 32.9444 22.5144C33.0984 22.5208 33.2518 22.5238 33.412 22.526C33.9201 22.5363 34.4478 22.541 34.9841 22.5345C35.1405 22.5337 35.2929 22.53 35.4526 22.5288C35.876 22.5181 36.3062 22.5065 36.7488 22.4868C36.9041 22.4793 37.0594 22.4718 37.2148 22.4643C37.8528 22.4325 38.5032 22.3924 39.1689 22.3403C39.3232 22.3261 39.4747 22.3157 39.6324 22.3011C40.2804 22.2442 40.9408 22.1791 41.6097 22.1027L41.9375 22.0653C42.0914 22.0477 42.2447 22.0268 42.3986 22.0092C43.1129 21.9174 43.8129 21.8204 44.4946 21.7152C44.6475 21.6909 44.8004 21.6666 44.9528 21.639C45.4974 21.5495 46.0315 21.4577 46.5507 21.3574C46.7031 21.3298 46.8517 21.2992 47.0041 21.2715C47.7841 21.1175 48.5278 20.9472 49.2409 20.7769C49.3918 20.7392 49.5461 20.7011 49.6937 20.6637C50.5591 20.4419 51.3618 20.2101 52.1019 19.9684C52.2508 19.9172 52.3998 19.866 52.5454 19.8152C53.2158 19.5849 53.8201 19.345 54.3494 19.1035C54.5026 19.0347 54.6486 18.9634 54.788 18.8928C55.2184 18.6728 55.591 18.4525 55.8962 18.2365C56.0526 18.1196 56.1961 18.0075 56.3161 17.8981C56.7383 17.5047 56.9373 17.1197 56.883 16.7466L56.6314 15.0187C56.6786 15.3892 56.4768 15.7779 56.0541 16.168Z" fill="#DC9600"/>
<path d="M57.0217 8.02414L57.5903 11.8968C57.6445 12.2664 57.4457 12.6477 57.024 13.0374C56.904 13.1458 56.7612 13.2601 56.6045 13.3726C56.3001 13.5899 55.9279 13.8081 55.4975 14.0227C55.3578 14.0893 55.2124 14.1633 55.0593 14.2314C54.5311 14.474 53.9274 14.7116 53.2573 14.9364C53.1118 14.9867 52.9663 15.037 52.8142 15.0881C52.0782 15.3272 51.2763 15.5567 50.4085 15.7768C50.2611 15.8138 50.1103 15.8512 49.9562 15.889C49.2472 16.0573 48.501 16.2264 47.7217 16.3789C47.5695 16.4063 47.4211 16.4366 47.2689 16.464C46.7502 16.5634 46.2166 16.6542 45.6726 16.7429C45.5204 16.7703 45.371 16.794 45.2149 16.8184C44.5339 16.9226 43.8347 17.0187 43.1211 17.1096C42.9674 17.127 42.8176 17.1474 42.6605 17.1651L42.3331 17.2022C41.6649 17.2779 41.0085 17.342 40.3579 17.3987C40.2037 17.4128 40.049 17.4236 39.8948 17.4376C39.2332 17.4888 38.5801 17.5289 37.9427 17.5604C37.7876 17.5679 37.6291 17.5756 37.4773 17.5827C37.0352 17.6023 36.6054 17.6137 36.1824 17.6243C36.0263 17.6251 35.8706 17.6291 35.7145 17.6299C35.1754 17.6368 34.6482 17.6321 34.144 17.6215C33.9873 17.6189 33.8307 17.6163 33.6769 17.6101C33.2338 17.5993 32.8092 17.5763 32.3975 17.5484C32.2399 17.5392 32.0823 17.5299 31.9275 17.517C31.4155 17.4768 30.9297 17.4302 30.4692 17.3706C30.3068 17.3518 30.1472 17.3292 29.9905 17.303C29.5042 17.2294 29.0574 17.1479 28.6522 17.0482C28.4801 17.0102 28.3205 16.9639 28.1647 16.9206C27.757 16.8043 27.4051 16.6749 27.1095 16.5357C26.912 16.4396 26.7378 16.3408 26.5966 16.2349C26.2807 16.0032 26.0931 15.7435 26.052 15.4638C25.8829 14.3117 25.4835 11.5911 25.4835 11.5911L57.0212 8.0208L57.0217 8.02414Z" fill="#FDC400"/>
<path d="M57.0891 8.16275C57.3429 9.89876 50.4878 12.1061 41.7758 13.0963C33.0638 14.0865 25.7978 13.4841 25.5439 11.7481C25.2901 10.012 32.1452 7.8047 40.8572 6.81452C49.5692 5.82434 56.8352 6.42673 57.0891 8.16275Z" fill="#FFDE00"/>
<path d="M54.2161 8.07646C54.3908 9.27654 48.7325 10.9102 41.5781 11.7269C34.4237 12.5437 28.4825 12.2343 28.3078 11.0343C28.1331 9.8342 33.7915 8.20058 40.9458 7.3838C48.1002 6.56703 54.0414 6.87639 54.2161 8.07646Z" fill="#FFD000"/>
<path d="M28.7811 11.6016C30.0635 10.4832 35.0511 9.18923 41.1143 8.48811C47.1742 7.78738 52.3646 7.90441 53.9246 8.69416C54.1574 8.49053 54.2687 8.29403 54.2418 8.10658C54.0669 6.88986 48.1199 6.57621 40.9585 7.40431C33.7971 8.23242 28.1333 9.88869 28.3081 11.1054C28.3351 11.2928 28.4983 11.4576 28.7811 11.6016Z" fill="#F8AB08"/>
<path d="M26.583 13.4433L27.0441 16.6307C26.8575 16.5381 26.693 16.4429 26.5595 16.3409L26.1476 13.4933L26.583 13.4433Z" fill="#F8AB08"/>
<path d="M28.1633 14.1972L28.5843 17.0998C28.4214 17.063 28.2701 17.0184 28.1225 16.9767L27.7262 14.244L28.1629 14.194L28.1633 14.1972Z" fill="#F8AB08"/>
<path d="M29.9858 14.5583L30.3964 17.3873C30.2424 17.3691 30.0911 17.3473 29.9426 17.3219L29.5487 14.6084L29.9858 14.5583Z" fill="#F8AB08"/>
<path d="M31.9162 14.713L32.3258 17.5356C32.1764 17.5266 32.027 17.5176 31.8803 17.5051L31.4823 14.7627L31.9162 14.713Z" fill="#F8AB08"/>
<path d="M33.6805 14.8722L34.0744 17.5827C33.9257 17.5802 33.7771 17.5776 33.6312 17.5715L33.2462 14.9219L33.6805 14.8722Z" fill="#F8AB08"/>
<path d="M35.7258 14.8698L36.1166 17.558C35.9683 17.5586 35.8205 17.5625 35.6723 17.5631L35.2881 14.9198L35.7258 14.8698Z" fill="#F8AB08"/>
<path d="M37.4758 14.6564L37.8851 17.4758C37.738 17.4829 37.5877 17.4903 37.4438 17.497L37.0387 14.7064L37.4758 14.6564Z" fill="#F8AB08"/>
<path d="M39.8797 14.3633L40.3044 17.2916C40.1584 17.305 40.0119 17.3153 39.8659 17.3288L39.4436 14.4166L39.8802 14.3665L39.8797 14.3633Z" fill="#F8AB08"/>
<path d="M42.6155 13.7829L43.0775 16.9767C42.9323 16.9934 42.7908 17.0129 42.6425 17.0299L42.1801 13.8329L42.6155 13.7829Z" fill="#F8AB08"/>
<path d="M45.1329 13.1017L45.6357 16.5868C45.4923 16.6131 45.3517 16.6358 45.2047 16.6592L44.6987 13.1517L45.1329 13.1017Z" fill="#F8AB08"/>
<path d="M47.2093 12.8487L47.6944 16.2089C47.551 16.2352 47.4111 16.2643 47.2677 16.2906L46.7779 12.8984L47.2093 12.8487Z" fill="#F8AB08"/>
<path d="M49.8963 12.1307L50.3953 15.5901C50.2565 15.6257 50.1145 15.6616 49.9694 15.6979L49.4616 12.1776L49.8958 12.1275L49.8963 12.1307Z" fill="#F8AB08"/>
<path d="M52.7775 11.4058L53.2592 14.7435C53.1222 14.7919 52.9852 14.8402 52.8419 14.8893L52.3463 11.4555L52.7775 11.4058Z" fill="#F8AB08"/>
<path d="M54.9952 10.2277L55.5144 13.8342C55.3832 13.8982 55.2466 13.9694 55.1028 14.0349L54.5619 10.2777L54.9952 10.2277Z" fill="#F8AB08"/>
<path d="M56.562 9.4149L57.0583 12.8611C56.9456 12.9654 56.8114 13.0754 56.6641 13.1836L56.1286 9.46492L56.562 9.4149Z" fill="#F8AB08"/>
<path d="M56.7717 11.2552C56.6516 11.3646 56.5086 11.4801 56.3517 11.5937C56.047 11.813 55.6744 12.0333 55.2435 12.2499C55.1037 12.3172 54.9582 12.3919 54.805 12.4606C54.2762 12.7055 53.6718 12.9454 53.001 13.1724C52.8554 13.2232 52.7097 13.274 52.5574 13.3255C51.8207 13.5669 51.0179 13.7986 50.1492 14.0209C50.0016 14.0582 49.8507 14.0959 49.6964 14.1341C48.9867 14.3039 48.2397 14.4747 47.4596 14.6287C47.3072 14.6563 47.1587 14.6869 47.0063 14.7146C46.487 14.8149 45.9529 14.9066 45.4083 14.9961C45.2559 15.0238 45.1064 15.0477 44.9502 15.0724C44.2684 15.1776 43.5685 15.2746 42.8542 15.3664C42.7003 15.3839 42.5503 15.4045 42.3931 15.4224L42.0653 15.4598C41.3963 15.5362 40.7393 15.601 40.088 15.6582C39.9336 15.6724 39.7788 15.6833 39.6244 15.6975C38.9621 15.7492 38.3083 15.7897 37.6703 15.8215C37.515 15.829 37.3563 15.8368 37.2043 15.8439C36.7618 15.8637 36.3316 15.8752 35.9081 15.886C35.7518 15.8867 35.596 15.8909 35.4397 15.8916C34.9001 15.8985 34.3723 15.8939 33.8675 15.8831C33.7107 15.8805 33.5539 15.8779 33.4 15.8716C32.9564 15.8607 32.5313 15.8375 32.1192 15.8093C31.9614 15.8 31.8037 15.7907 31.6487 15.7776C31.1367 15.7404 30.6499 15.69 30.1889 15.6299C30.0263 15.6108 29.8666 15.5881 29.7097 15.5615C29.2228 15.4873 28.7756 15.405 28.3699 15.3044C28.1977 15.266 28.0379 15.2193 27.8819 15.1756C27.4738 15.0581 27.1216 14.9274 26.8257 14.7869C26.6279 14.6899 26.4536 14.5902 26.3122 14.4833C25.996 14.2494 25.8082 13.9872 25.7671 13.7048C25.861 14.3503 25.956 15.0024 26.0186 15.4327C26.0597 15.7151 26.2475 15.9773 26.5638 16.2112C26.7085 16.3177 26.8795 16.4178 27.0772 16.5148C27.3736 16.6587 27.7258 16.7894 28.1335 16.9035C28.2895 16.9472 28.4526 16.9935 28.6215 17.0323C29.0272 17.1329 29.4744 17.2152 29.9612 17.2894C30.1176 17.3126 30.274 17.3358 30.4404 17.3578C30.9019 17.4213 31.3882 17.4683 31.9003 17.5055C32.0552 17.5186 32.2096 17.5283 32.3707 17.5372C32.7829 17.5654 33.2112 17.5882 33.6515 17.5995C33.8055 17.6058 33.9589 17.6088 34.119 17.611C34.6272 17.6214 35.1549 17.6261 35.6912 17.6195C35.8475 17.6188 36 17.615 36.1597 17.6139C36.5831 17.6031 37.0133 17.5916 37.4559 17.5718C37.6112 17.5644 37.7665 17.5569 37.9218 17.5494C38.5599 17.5176 39.2103 17.4775 39.876 17.4254C40.0303 17.4112 40.1818 17.4007 40.3395 17.3862C40.9875 17.3293 41.6479 17.2641 42.3168 17.1877L42.6446 17.1503C42.7985 17.1328 42.9518 17.1118 43.1057 17.0943C43.82 17.0025 44.5199 16.9055 45.2017 16.8003C45.3546 16.776 45.5075 16.7517 45.6598 16.7241C46.2045 16.6345 46.7386 16.5428 47.2578 16.4425C47.4102 16.4149 47.5588 16.3842 47.7112 16.3566C48.4912 16.2026 49.2349 16.0322 49.948 15.862C50.0989 15.8242 50.2532 15.7861 50.4007 15.7488C51.2661 15.5269 52.0689 15.2952 52.809 15.0535C52.9579 15.0023 53.1069 14.9511 53.2525 14.9003C53.9229 14.67 54.5277 14.4335 55.0565 14.1885C55.2097 14.1198 55.3557 14.0484 55.4951 13.9778C55.9255 13.7578 56.2981 13.5376 56.6032 13.3216C56.7596 13.2046 56.9031 13.0926 57.0232 12.9831C57.4454 12.5898 57.6444 12.2048 57.5901 11.8316L57.3385 10.1037C57.3929 10.4769 57.1939 10.8619 56.7717 11.2552Z" fill="#DC9600"/>
<path d="M58.1092 3.29804L58.6783 7.17394C58.7325 7.54355 58.5337 7.92488 58.112 8.31452C57.992 8.42288 57.8492 8.53722 57.6925 8.64975C57.3881 8.867 57.0159 9.08517 56.5855 9.29977C56.4458 9.36636 56.3004 9.44036 56.1474 9.50847C55.6191 9.75106 55.0154 9.98866 54.3453 10.2135C54.1998 10.2638 54.0544 10.3141 53.9022 10.3652C53.1662 10.6042 52.3643 10.8338 51.4965 11.0539C51.3491 11.0909 51.1983 11.1283 51.0442 11.166C50.3352 11.3343 49.589 11.5034 48.8098 11.6559C48.6575 11.6833 48.5092 11.7137 48.3569 11.7411C47.8382 11.8404 47.3047 11.9313 46.7606 12.0199C46.6084 12.0473 46.459 12.071 46.303 12.0954C45.6219 12.1996 44.9227 12.2957 44.2092 12.3866C44.0555 12.404 43.9056 12.4244 43.7486 12.4422L43.4211 12.4792C42.7529 12.5549 42.0966 12.619 41.4459 12.6758C41.2917 12.6898 41.1371 12.7006 40.9829 12.7146C40.3212 12.7658 39.6682 12.8059 39.0308 12.8375C38.8756 12.8449 38.7171 12.8527 38.5653 12.8597C38.1232 12.8793 37.6935 12.8907 37.27 12.898C37.1138 12.8987 36.9582 12.9028 36.8021 12.9036C36.263 12.9104 35.7363 12.9091 35.2315 12.8952C35.0749 12.8926 34.9183 12.89 34.7645 12.8837C34.3213 12.873 33.8968 12.85 33.4851 12.8221C33.3275 12.8129 33.1699 12.8036 33.0151 12.7907C32.5002 12.7542 32.0173 12.7039 31.5568 12.6443C31.3944 12.6255 31.2348 12.6029 31.0781 12.5766C30.5918 12.5031 30.145 12.4216 29.7398 12.3219C29.5677 12.2839 29.4086 12.2409 29.2523 12.1943C28.8446 12.078 28.4927 11.9486 28.1971 11.8094C27.9996 11.7133 27.8255 11.6145 27.6842 11.5086C27.3683 11.277 27.1807 11.0172 27.1396 10.7375C26.9705 9.58542 26.5706 6.86163 26.5706 6.86163L58.1083 3.29139L58.1092 3.29804Z" fill="#FDC400"/>
<path d="M42.8629 8.36687C51.5739 7.37681 58.4299 5.16799 58.1762 3.43333C57.9226 1.69867 50.6553 1.09505 41.9443 2.0851C33.2334 3.07516 26.3774 5.28398 26.631 7.01865C26.8847 8.75331 34.1519 9.35693 42.8629 8.36687Z" fill="#FFDE00"/>
<path d="M55.3032 3.34705C55.4779 4.54712 49.8196 6.18074 42.6652 6.99752C35.5108 7.81429 29.5697 7.50493 29.395 6.30486C29.2202 5.10479 34.8786 3.47117 42.0329 2.6544C49.1873 1.83762 55.1285 2.14698 55.3032 3.34705Z" fill="#FFD000"/>
<path d="M29.8682 6.8722C31.1506 5.75376 36.1382 4.45981 42.2014 3.75869C48.2647 3.05757 53.4517 3.17499 55.0117 3.96474C55.2446 3.76111 55.3559 3.5646 55.3289 3.37716C55.154 2.16044 49.207 1.8468 42.0457 2.6749C34.8843 3.503 29.2204 5.15926 29.3953 6.37598C29.4222 6.56343 29.5854 6.72819 29.8682 6.8722Z" fill="#F8AB08"/>
<path d="M27.6702 8.71386L28.1313 11.9013C27.9446 11.8087 27.7801 11.7135 27.6466 11.6114L27.2347 8.76389L27.6702 8.71386Z" fill="#F8AB08"/>
<path d="M29.2509 9.47097L29.6719 12.3736C29.5089 12.3368 29.3581 12.2954 29.2101 12.2504L28.8142 9.52101L29.2509 9.47097Z" fill="#F8AB08"/>
<path d="M31.0728 9.82847L31.4834 12.6575C31.3295 12.6392 31.1782 12.6174 31.0296 12.5921L30.6353 9.87531L31.0723 9.82526L31.0728 9.82847Z" fill="#F8AB08"/>
<path d="M33.0033 9.98359L33.4129 12.8062C33.2635 12.7972 33.1141 12.7882 32.9675 12.7757L32.5695 10.0333L33.0033 9.98359Z" fill="#F8AB08"/>
<path d="M34.7677 10.1428L35.1615 12.8533C35.0129 12.8508 34.8642 12.8482 34.7183 12.8421L34.3333 10.1924L34.7677 10.1428Z" fill="#F8AB08"/>
<path d="M36.8129 10.1403L37.2037 12.8286C37.0554 12.8292 36.9077 12.833 36.7594 12.8337L36.3752 10.1904L36.8129 10.1403Z" fill="#F8AB08"/>
<path d="M38.5629 9.92698L38.9722 12.7464C38.8251 12.7534 38.6749 12.7609 38.5309 12.7676L38.1258 9.97702L38.5629 9.92698Z" fill="#F8AB08"/>
<path d="M40.9669 9.63391L41.391 12.5589C41.245 12.5724 41.0986 12.5827 40.9526 12.5962L40.5303 9.68395L40.9669 9.63391Z" fill="#F8AB08"/>
<path d="M43.7026 9.05345L44.1646 12.2473C44.0195 12.264 43.8779 12.2835 43.7296 12.3005L43.2672 9.10348L43.7026 9.05345Z" fill="#F8AB08"/>
<path d="M46.22 8.37231L46.7228 11.8574C46.5795 11.8837 46.4388 11.9064 46.2919 11.9298L45.7859 8.42233L46.22 8.37231Z" fill="#F8AB08"/>
<path d="M48.2965 8.1193L48.7816 11.4795C48.6381 11.5058 48.4983 11.5349 48.3548 11.5612L47.8651 8.16896L48.2965 8.1193Z" fill="#F8AB08"/>
<path d="M50.9834 7.40132L51.4824 10.8607C51.3436 10.8963 51.2016 10.9322 51.0566 10.9684L50.5488 7.44814L50.9829 7.39811L50.9834 7.40132Z" fill="#F8AB08"/>
<path d="M53.8651 6.67924L54.3467 10.0169C54.2097 10.0653 54.0727 10.1136 53.9294 10.1627L53.4338 6.7289L53.8651 6.67924Z" fill="#F8AB08"/>
<path d="M56.0823 5.4983L56.6016 9.10476C56.4703 9.16879 56.3337 9.23996 56.19 9.30544L55.649 5.54832L56.0823 5.4983Z" fill="#F8AB08"/>
<path d="M57.6491 4.68549L58.1454 8.13172C58.0327 8.23598 57.8985 8.34598 57.7512 8.45423L57.2157 4.7355L57.6491 4.68549Z" fill="#F8AB08"/>
<path d="M57.8589 6.52611C57.7388 6.63551 57.5958 6.75095 57.4389 6.86455C57.1342 7.08388 56.7616 7.30413 56.3307 7.52078C56.1909 7.58801 56.0453 7.66272 55.8921 7.73147C55.3633 7.97639 54.759 8.21626 54.0882 8.44322C53.9425 8.49402 53.7969 8.54482 53.6446 8.59638C52.9079 8.8377 52.1051 9.06946 51.2364 9.29167C51.0888 9.32903 50.9379 9.36677 50.7836 9.40488C50.0739 9.57477 49.3269 9.74549 48.5468 9.89948C48.3944 9.92713 48.2459 9.95776 48.0935 9.98541C47.5742 10.0857 47.0401 10.1774 46.4955 10.267C46.3431 10.2946 46.1936 10.3185 46.0374 10.3432C45.3556 10.4484 44.6557 10.5454 43.9414 10.6372C43.7875 10.6547 43.6375 10.6753 43.4803 10.6932L43.1525 10.7306C42.4835 10.807 41.8265 10.8718 41.1752 10.929C41.0208 10.9432 40.866 10.9541 40.7116 10.9683C40.0493 11.02 39.3955 11.0605 38.7575 11.0923C38.6022 11.0998 38.4435 11.1076 38.2915 11.1147C37.849 11.1345 37.4188 11.146 36.9948 11.1534C36.8385 11.1542 36.6827 11.1583 36.5264 11.159C35.9868 11.166 35.4595 11.1646 34.9542 11.1506C34.7974 11.148 34.6406 11.1454 34.4867 11.139C34.0431 11.1281 33.6181 11.1049 33.2059 11.0768C33.0482 11.0674 32.8904 11.0581 32.7355 11.045C32.2196 11.0048 31.7366 10.9574 31.2751 10.8939C31.1125 10.8749 30.9528 10.8521 30.7959 10.8256C30.3091 10.7513 29.8619 10.6691 29.4562 10.5685C29.284 10.53 29.1242 10.4833 28.9682 10.4396C28.5601 10.3222 28.2078 10.1915 27.9119 10.051C27.7142 9.95398 27.5398 9.85427 27.3985 9.74738C27.0822 9.51351 26.8944 9.2513 26.8533 8.96892C26.9473 9.61435 27.0422 10.2665 27.1048 10.6968C27.1459 10.9792 27.3337 11.2414 27.65 11.4753C27.7942 11.5784 27.9657 11.6819 28.1635 11.7789C28.4598 11.9228 28.8121 12.0534 29.2197 12.1675C29.3757 12.2112 29.5389 12.2575 29.7077 12.2963C30.1134 12.397 30.5606 12.4792 31.0475 12.5535C31.2039 12.5766 31.3602 12.5998 31.5267 12.6218C31.9882 12.6853 32.4744 12.7323 32.9865 12.7696C33.1414 12.7826 33.2959 12.7923 33.457 12.8013C33.8691 12.8294 34.2975 12.8523 34.7378 12.8635C34.8917 12.8699 35.0451 12.8729 35.2053 12.8751C35.7134 12.8854 36.2412 12.8901 36.7775 12.8836C36.9338 12.8828 37.0862 12.8791 37.2459 12.8779C37.6694 12.8672 38.0995 12.8556 38.5426 12.8392C38.6979 12.8318 38.8532 12.8243 39.0086 12.8168C39.6466 12.785 40.297 12.7449 40.9627 12.6928C41.117 12.6786 41.2685 12.6681 41.4262 12.6536C42.0742 12.5967 42.7346 12.5315 43.4035 12.4552L43.7313 12.4177C43.8852 12.4002 44.0385 12.3792 44.1924 12.3617C44.9067 12.2699 45.6066 12.1729 46.2884 12.0677C46.4413 12.0434 46.5942 12.0191 46.7466 11.9915C47.2912 11.902 47.8253 11.8102 48.3445 11.7099C48.4969 11.6823 48.6455 11.6516 48.7979 11.624C49.5779 11.47 50.3216 11.2997 51.0347 11.1294C51.1856 11.0917 51.3399 11.0535 51.4874 11.0162C52.3533 10.7977 53.1556 10.5626 53.8957 10.3209C54.0446 10.2697 54.1936 10.2185 54.3392 10.1677C55.0095 9.93742 55.6139 9.69754 56.1432 9.45599C56.2964 9.38723 56.4424 9.31589 56.5817 9.2453C57.0122 9.02528 57.3847 8.80504 57.6899 8.58907C57.8468 8.47547 57.9898 8.36003 58.1099 8.25063C58.5321 7.85726 58.7311 7.47229 58.6768 7.09915L58.4252 5.37127C58.48 5.74777 58.281 6.13274 57.8589 6.52611Z" fill="#DC9600"/>
</g>
</svg>
