<svg width="156" height="128" viewBox="0 0 156 128" fill="none" xmlns="http://www.w3.org/2000/svg">
<path d="M99.8077 116.906H57.6338C57.2168 116.906 56.8831 117.245 56.8831 117.655V127.245C56.8831 127.661 57.2227 127.994 57.6338 127.994H99.8077C100.225 127.994 100.558 127.655 100.558 127.245V117.655C100.558 117.245 100.225 116.906 99.8077 116.906Z" fill="#FBD800"/>
<path opacity="0.2" d="M60.5591 117.548H58.8314V127.458H60.5591V117.548Z" fill="black"/>
<path opacity="0.2" d="M64.491 117.501H63.234V127.411H64.491V117.501Z" fill="black"/>
<path opacity="0.2" d="M68.1015 117.548H67.4759V127.458H68.1015V117.548Z" fill="black"/>
<path opacity="0.2" d="M72.9748 117.501H72.659V127.411H72.9748V117.501Z" fill="black"/>
<path opacity="0.2" d="M96.8823 127.407H98.61V117.496H96.8823V127.407Z" fill="black"/>
<path opacity="0.2" d="M92.9515 127.457H94.2086V117.546H92.9515V127.457Z" fill="black"/>
<path opacity="0.2" d="M89.343 127.407H89.9686V117.496H89.343V127.407Z" fill="black"/>
<path opacity="0.2" d="M84.4644 127.457H84.7801V117.546H84.4644V127.457Z" fill="black"/>
<path opacity="0.2" d="M78.6448 127.458H78.7997V117.547H78.6448V127.458Z" fill="black"/>
<path opacity="0.2" d="M99.3965 118.594H58.1401C57.8482 118.594 57.6158 118.362 57.6158 118.071C57.6158 117.779 57.8482 117.548 58.1401 117.548H99.3965C99.6884 117.548 99.9208 117.779 99.9208 118.071C99.9208 118.362 99.6825 118.594 99.3965 118.594Z" fill="white"/>
<path d="M98.0206 105.843H55.8467C55.4297 105.843 55.096 106.181 55.096 106.592V116.181C55.096 116.597 55.4356 116.93 55.8467 116.93H98.0206C98.4376 116.93 98.7713 116.591 98.7713 116.181V106.592C98.7713 106.175 98.4376 105.843 98.0206 105.843Z" fill="#FBD800"/>
<path opacity="0.2" d="M58.772 106.485H57.0443V116.396H58.772V106.485Z" fill="black"/>
<path opacity="0.2" d="M62.6981 106.431H61.441V116.342H62.6981V106.431Z" fill="black"/>
<path opacity="0.2" d="M66.3143 106.485H65.6888V116.396H66.3143V106.485Z" fill="black"/>
<path opacity="0.2" d="M71.1876 106.431H70.8719V116.342H71.1876V106.431Z" fill="black"/>
<path opacity="0.2" d="M95.0929 116.344H96.8206V106.434H95.0929V116.344Z" fill="black"/>
<path opacity="0.2" d="M91.1622 116.388H92.4193V106.478H91.1622V116.388Z" fill="black"/>
<path opacity="0.2" d="M87.5537 116.344H88.1793V106.434H87.5537V116.344Z" fill="black"/>
<path opacity="0.2" d="M82.6751 116.388H82.9908V106.478H82.6751V116.388Z" fill="black"/>
<path opacity="0.2" d="M76.8553 116.388H77.0102V106.478H76.8553V116.388Z" fill="black"/>
<path opacity="0.2" d="M97.6036 107.53H56.3471C56.0552 107.53 55.8228 107.299 55.8228 107.007C55.8228 106.716 56.0552 106.484 56.3471 106.484H97.6036C97.8955 106.484 98.1278 106.716 98.1278 107.007C98.1278 107.293 97.8955 107.53 97.6036 107.53Z" fill="white"/>
<path d="M99.8078 94.7723H57.6339C57.2169 94.7723 56.8833 95.1112 56.8833 95.5214V105.111C56.8833 105.527 57.2228 105.86 57.6339 105.86H99.8078C100.225 105.86 100.558 105.521 100.558 105.111V95.5214C100.558 95.1112 100.225 94.7723 99.8078 94.7723Z" fill="#FBD800"/>
<path opacity="0.2" d="M60.5592 95.4139H58.8315V105.325H60.5592V95.4139Z" fill="black"/>
<path opacity="0.2" d="M64.4911 95.367H63.2341V105.278H64.4911V95.367Z" fill="black"/>
<path opacity="0.2" d="M68.1016 95.4139H67.476V105.325H68.1016V95.4139Z" fill="black"/>
<path opacity="0.2" d="M72.9749 95.367H72.6591V105.278H72.9749V95.367Z" fill="black"/>
<path opacity="0.2" d="M96.8824 105.274H98.6101V95.3636H96.8824V105.274Z" fill="black"/>
<path opacity="0.2" d="M92.9516 105.324H94.2087V95.4134H92.9516V105.324Z" fill="black"/>
<path opacity="0.2" d="M89.3432 105.274H89.9687V95.3636H89.3432V105.274Z" fill="black"/>
<path opacity="0.2" d="M84.4645 105.324H84.7802V95.4134H84.4645V105.324Z" fill="black"/>
<path opacity="0.2" d="M78.6449 105.325H78.7998V95.4144H78.6449V105.325Z" fill="black"/>
<path opacity="0.2" d="M99.3966 96.4603H58.1402C57.8483 96.4603 57.6159 96.2284 57.6159 95.9371C57.6159 95.6458 57.8483 95.4139 58.1402 95.4139H99.3966C99.6886 95.4139 99.9209 95.6458 99.9209 95.9371C99.9209 96.2284 99.6826 96.4603 99.3966 96.4603Z" fill="white"/>
<path d="M98.6163 83.7088H56.4424C56.0254 83.7088 55.6917 84.0476 55.6917 84.4578V94.0474C55.6917 94.4636 56.0313 94.7965 56.4424 94.7965H98.6163C99.0333 94.7965 99.367 94.4577 99.367 94.0474V84.4578C99.367 84.0476 99.0333 83.7088 98.6163 83.7088Z" fill="#FBD800"/>
<path opacity="0.2" d="M59.3677 84.3511H57.64V94.2618H59.3677V84.3511Z" fill="black"/>
<path opacity="0.2" d="M63.2997 84.2976H62.0427V94.2083H63.2997V84.2976Z" fill="black"/>
<path opacity="0.2" d="M66.91 84.3511H66.2845V94.2618H66.91V84.3511Z" fill="black"/>
<path opacity="0.2" d="M71.7833 84.2976H71.4676V94.2083H71.7833V84.2976Z" fill="black"/>
<path opacity="0.2" d="M95.6894 94.2127H97.4171V84.302H95.6894V94.2127Z" fill="black"/>
<path opacity="0.2" d="M91.7587 94.2556H93.0157V84.345H91.7587V94.2556Z" fill="black"/>
<path opacity="0.2" d="M88.1502 94.2127H88.7757V84.302H88.1502V94.2127Z" fill="black"/>
<path opacity="0.2" d="M83.2715 94.2556H83.5872V84.345H83.2715V94.2556Z" fill="black"/>
<path opacity="0.2" d="M77.4517 94.2558H77.6066V84.3451H77.4517V94.2558Z" fill="black"/>
<path opacity="0.2" d="M98.1993 85.3967H56.9428C56.6509 85.3967 56.4185 85.1648 56.4185 84.8735C56.4185 84.5822 56.6509 84.3504 56.9428 84.3504H98.1993C98.4912 84.3504 98.7235 84.5822 98.7235 84.8735C98.7235 85.1589 98.4912 85.3967 98.1993 85.3967Z" fill="white"/>
<path d="M98.6163 72.6443H56.4424C56.0254 72.6443 55.6917 72.9832 55.6917 73.3934V82.983C55.6917 83.3992 56.0313 83.7321 56.4424 83.7321H98.6163C99.0333 83.7321 99.367 83.3932 99.367 82.983V73.3934C99.367 72.9772 99.0333 72.6443 98.6163 72.6443Z" fill="#FBD800"/>
<path opacity="0.2" d="M59.3677 73.28H57.64V83.1907H59.3677V73.28Z" fill="black"/>
<path opacity="0.2" d="M63.2996 73.2332H62.0426V83.1438H63.2996V73.2332Z" fill="black"/>
<path opacity="0.2" d="M66.9101 73.28H66.2845V83.1907H66.9101V73.28Z" fill="black"/>
<path opacity="0.2" d="M71.7834 73.2332H71.4676V83.1438H71.7834V73.2332Z" fill="black"/>
<path opacity="0.2" d="M95.6894 83.1414H97.4171V73.2307H95.6894V83.1414Z" fill="black"/>
<path opacity="0.2" d="M91.7587 83.1912H93.0157V73.2805H91.7587V83.1912Z" fill="black"/>
<path opacity="0.2" d="M88.1502 83.1414H88.7757V73.2307H88.1502V83.1414Z" fill="black"/>
<path opacity="0.2" d="M83.2715 83.1912H83.5872V73.2805H83.2715V83.1912Z" fill="black"/>
<path opacity="0.2" d="M77.4516 83.1922H77.6065V73.2815H77.4516V83.1922Z" fill="black"/>
<path opacity="0.2" d="M98.1993 74.3264H56.9428C56.6509 74.3264 56.4185 74.0945 56.4185 73.8032C56.4185 73.5119 56.6509 73.28 56.9428 73.28H98.1993C98.4912 73.28 98.7235 73.5119 98.7235 73.8032C98.7235 74.0945 98.4912 74.3264 98.1993 74.3264Z" fill="white"/>
<path d="M46.1537 116.906H3.97975C3.56272 116.906 3.2291 117.245 3.2291 117.655V127.245C3.2291 127.661 3.56868 127.994 3.97975 127.994H46.1537C46.5707 127.994 46.9043 127.655 46.9043 127.245V117.655C46.9103 117.245 46.5707 116.906 46.1537 116.906Z" fill="#FBD800"/>
<path opacity="0.2" d="M6.9109 117.548H5.1832V127.458H6.9109V117.548Z" fill="black"/>
<path opacity="0.2" d="M10.837 117.501H9.57993V127.411H10.837V117.501Z" fill="black"/>
<path opacity="0.2" d="M14.4472 117.548H13.8216V127.458H14.4472V117.548Z" fill="black"/>
<path opacity="0.2" d="M19.3205 117.501H19.0047V127.411H19.3205V117.501Z" fill="black"/>
<path opacity="0.2" d="M43.2262 127.407H44.9539V117.496H43.2262V127.407Z" fill="black"/>
<path opacity="0.2" d="M39.3014 127.457H40.5584V117.546H39.3014V127.457Z" fill="black"/>
<path opacity="0.2" d="M35.687 127.407H36.3126V117.496H35.687V127.407Z" fill="black"/>
<path opacity="0.2" d="M30.814 127.457H31.1297V117.546H30.814V127.457Z" fill="black"/>
<path opacity="0.2" d="M24.9885 127.458H25.1434V117.547H24.9885V127.458Z" fill="black"/>
<path opacity="0.2" d="M45.7425 118.594H4.48603C4.19411 118.594 3.96176 118.362 3.96176 118.071C3.96176 117.779 4.19411 117.548 4.48603 117.548H45.7425C46.0344 117.548 46.2667 117.779 46.2667 118.071C46.2667 118.362 46.0284 118.594 45.7425 118.594Z" fill="white"/>
<path d="M46.7494 105.843H4.57546C4.15842 105.843 3.8248 106.181 3.8248 106.592V116.181C3.8248 116.597 4.16438 116.93 4.57546 116.93H46.7494C47.1664 116.93 47.5 116.591 47.5 116.181V106.592C47.506 106.175 47.1664 105.843 46.7494 105.843Z" fill="#FBD800"/>
<path opacity="0.2" d="M7.50661 106.485H5.7789V116.396H7.50661V106.485Z" fill="black"/>
<path opacity="0.2" d="M11.4327 106.431H10.1756V116.342H11.4327V106.431Z" fill="black"/>
<path opacity="0.2" d="M15.043 106.485H14.4174V116.396H15.043V106.485Z" fill="black"/>
<path opacity="0.2" d="M19.9163 106.431H19.6006V116.342H19.9163V106.431Z" fill="black"/>
<path opacity="0.2" d="M43.8227 116.344H45.5504V106.434H43.8227V116.344Z" fill="black"/>
<path opacity="0.2" d="M39.8978 116.388H41.1549V106.478H39.8978V116.388Z" fill="black"/>
<path opacity="0.2" d="M36.2832 116.344H36.9088V106.434H36.2832V116.344Z" fill="black"/>
<path opacity="0.2" d="M31.4107 116.388H31.7264V106.478H31.4107V116.388Z" fill="black"/>
<path opacity="0.2" d="M25.585 116.388H25.7399V106.478H25.585V116.388Z" fill="black"/>
<path opacity="0.2" d="M46.3382 107.53H5.08173C4.78981 107.53 4.55746 107.299 4.55746 107.007C4.55746 106.716 4.78981 106.484 5.08173 106.484H46.3382C46.6301 106.484 46.8624 106.716 46.8624 107.007C46.8624 107.293 46.6301 107.53 46.3382 107.53Z" fill="white"/>
<path d="M44.3663 94.7723H2.1924C1.77537 94.7723 1.44174 95.1112 1.44174 95.5214V105.111C1.44174 105.527 1.78133 105.86 2.1924 105.86H44.3663C44.7834 105.86 45.117 105.521 45.117 105.111V95.5214C45.117 95.1112 44.7834 94.7723 44.3663 94.7723Z" fill="#FBD800"/>
<path opacity="0.2" d="M5.11769 95.4139H3.38998V105.325H5.11769V95.4139Z" fill="black"/>
<path opacity="0.2" d="M9.04963 95.367H7.79257V105.278H9.04963V95.367Z" fill="black"/>
<path opacity="0.2" d="M12.6601 95.4139H12.0345V105.325H12.6601V95.4139Z" fill="black"/>
<path opacity="0.2" d="M17.5334 95.367H17.2176V105.278H17.5334V95.367Z" fill="black"/>
<path opacity="0.2" d="M41.4367 105.274H43.1644V95.3636H41.4367V105.274Z" fill="black"/>
<path opacity="0.2" d="M37.5118 105.324H38.7689V95.4134H37.5118V105.324Z" fill="black"/>
<path opacity="0.2" d="M33.8975 105.274H34.523V95.3636H33.8975V105.274Z" fill="black"/>
<path opacity="0.2" d="M29.0247 105.324H29.3404V95.4134H29.0247V105.324Z" fill="black"/>
<path opacity="0.2" d="M23.2051 105.325H23.36V95.4144H23.2051V105.325Z" fill="black"/>
<path opacity="0.2" d="M43.9551 96.4603H2.69868C2.40675 96.4603 2.17441 96.2284 2.17441 95.9371C2.17441 95.6458 2.40675 95.4139 2.69868 95.4139H43.9551C44.247 95.4139 44.4794 95.6458 44.4794 95.9371C44.4794 96.2284 44.2411 96.4603 43.9551 96.4603Z" fill="white"/>
<path d="M20.6134 87.4414L19.4159 90.3843L18.5104 92.6078L16.2346 91.7993L17.0508 89.8017L18.3376 86.627L20.6134 87.4414Z" fill="#E4897B"/>
<path d="M69.2513 71.6874L67.3151 73.1202L66.6062 71.5507L64.9619 67.9241L66.8981 66.4854L68.453 69.9217L69.2513 71.6874Z" fill="#E4897B"/>
<path opacity="0.2" d="M18.3376 86.627L20.6134 87.4414L19.4159 90.3843L17.0507 89.8017L18.3376 86.627Z" fill="black"/>
<path opacity="0.2" d="M68.453 69.9217L66.6062 71.5507L64.9619 67.9241L66.8981 66.4854L68.453 69.9217Z" fill="black"/>
<path d="M37.6938 5.96278C37.7593 6.14708 37.9083 6.26004 38.0274 6.21843C38.1466 6.17681 38.1943 5.99251 38.1287 5.80821C38.0632 5.62391 37.9142 5.51095 37.7951 5.55256C37.6759 5.59418 37.6283 5.77848 37.6938 5.96278Z" fill="#263238"/>
<path d="M37.8903 6.2666C37.8903 6.2666 38.6827 7.17622 39.3202 7.52104C39.0997 7.9372 38.504 7.99665 38.504 7.99665L37.8903 6.2666Z" fill="#DE5753"/>
<path d="M36.6631 5.18421C36.6333 5.19015 36.6095 5.18421 36.5797 5.16637C36.5261 5.1307 36.5142 5.05936 36.5499 5.00585C36.9133 4.48862 37.4376 4.49457 37.4614 4.50051C37.527 4.50051 37.5746 4.55402 37.5746 4.61942C37.5746 4.68481 37.521 4.73237 37.4555 4.73237C37.4376 4.73237 37.0265 4.72643 36.7406 5.14259C36.7227 5.16043 36.6929 5.17826 36.6631 5.18421Z" fill="#263238"/>
<path d="M33.2852 8.95898C33.315 10.7544 33.0886 13.9886 31.6647 14.9339C31.6647 14.9339 31.8256 16.7769 35.0546 17.3536C38.6054 17.9838 37.0683 15.897 37.0683 15.897C35.2155 15.0885 35.5193 13.6676 36.0972 12.3775L33.2852 8.95898Z" fill="#FFBE9D"/>
<path d="M31.4383 7.72875C32.3736 9.92847 32.8086 11.2661 34.3516 12.0152C36.675 13.1508 39.0938 11.1413 38.8377 8.70376C38.6053 6.50998 37.1219 3.28174 34.5958 3.16284C32.1115 3.04988 30.503 5.52903 31.4383 7.72875Z" fill="#FFBE9D"/>
<path d="M33.0111 11.3075C34.0656 11.7296 37.3542 9.37532 36.2282 6.65837C36.2282 6.65837 37.3542 4.84509 36.9491 3.07936C36.544 1.3077 35.2155 0.79641 33.9584 1.36715C32.8503 1.86654 32.9694 2.49079 32.9694 2.49079C32.9694 2.49079 27.6076 3.89385 29.0791 5.94495C27.1965 8.67379 31.6945 10.7843 33.0111 11.3075Z" fill="#263238"/>
<path d="M35.3465 7.28286C35.5848 7.85955 36.0554 8.32327 36.5082 8.57297C37.1933 8.94752 37.5925 8.43029 37.4555 7.7347C37.3244 7.11045 36.818 6.15922 36.1031 6.0641C35.4001 5.96898 35.0724 6.62295 35.3465 7.28286Z" fill="#E4897B"/>
<path d="M30.8068 14.9581C30.5566 14.4587 30.2825 13.8939 30.8902 13.7334C31.5575 13.561 35.8112 13.3291 37.0444 13.7334C36.6393 14.3993 37.2648 15.2554 37.2648 15.2554L30.8068 14.9581Z" fill="#407BFF"/>
<path opacity="0.5" d="M30.8068 14.9581C30.5566 14.4587 30.2825 13.8939 30.8902 13.7334C31.5575 13.561 35.8112 13.3291 37.0444 13.7334C36.6393 14.3993 37.2648 15.2554 37.2648 15.2554L30.8068 14.9581Z" fill="#FAFAFA"/>
<path d="M18.6652 91.6154H16.0319C15.9306 91.6154 15.8472 91.6868 15.8294 91.7819L15.3528 93.9221C15.3051 94.1421 15.4719 94.3561 15.6983 94.3502C16.6515 94.3324 18.0218 94.2789 19.2192 94.2789C20.6133 94.2789 21.8227 94.3562 23.4611 94.3562C24.45 94.3562 24.7241 93.3574 24.313 93.2682C22.4244 92.858 20.8874 92.8104 19.255 91.8057C19.0703 91.6986 18.8737 91.6154 18.6652 91.6154Z" fill="#263238"/>
<path d="M35.7039 36.2062C35.7039 36.2062 34.9533 41.2537 34.0239 47.0503C33.6247 49.5353 33.1958 52.1572 32.7728 54.5828C32.3022 57.2998 31.8434 59.7611 31.4621 61.4971C29.8178 69.0475 20.9946 89.8556 20.9946 89.8556L16.6753 88.9222C16.6753 88.9222 22.8474 72.7335 24.2236 62.1808C25.29 54.0775 27.3812 36.2062 27.3812 36.2062H35.7039Z" fill="#263238"/>
<path d="M22.0253 88.4169C22.0432 88.4228 21.221 89.9745 21.221 89.9745L16.3596 88.9222L16.7707 87.4657L22.0253 88.4169Z" fill="#407BFF"/>
<path opacity="0.3" d="M22.0253 88.4169C22.0432 88.4228 21.221 89.9745 21.221 89.9745L16.3596 88.9222L16.7707 87.4657L22.0253 88.4169Z" fill="black"/>
<path opacity="0.2" d="M34.0239 47.0498C33.6248 49.5349 33.1958 52.1567 32.7728 54.5824C31.6111 49.7846 31.9686 46.9131 31.9686 46.9131L34.0239 47.0498Z" fill="black"/>
<path d="M28.6442 19.3575C27.4884 20.4515 26.285 21.6108 25.153 22.7701C24.033 23.9413 22.913 25.1422 21.9717 26.355C21.6082 26.8485 21.1912 27.5797 20.8278 28.2813C20.4584 29.0006 20.0831 29.7319 19.7197 30.481L17.5332 34.9875L15.8234 34.3989C16.1928 32.7223 16.6634 31.0993 17.1758 29.4584C17.4439 28.6439 17.7239 27.8294 18.0456 27.015C18.3852 26.1945 18.695 25.3979 19.261 24.4882C20.2618 22.9544 21.3461 21.6048 22.5138 20.3147C23.6815 19.0187 24.873 17.8059 26.2075 16.6406L28.6442 19.3575Z" fill="#FFBE9D"/>
<path d="M15.6745 38.7686L16.5502 37.2169L13.8812 36.4143C13.8812 36.4143 13.345 37.6628 13.9289 38.6735L15.6745 38.7686Z" fill="#E4897B"/>
<path d="M17.5274 34.9455L15.8175 34.3926L13.8813 36.4139L16.5503 37.2225L17.5274 34.9455Z" fill="#E4897B"/>
<path d="M69.2214 71.3598L67.0409 72.971C66.9635 73.0304 66.9337 73.1374 66.9754 73.2266L67.869 75.2301C67.9643 75.4382 68.2265 75.5036 68.4112 75.3669C69.1618 74.7902 69.4954 74.4751 70.4546 73.7676C71.0444 73.3336 72.4087 72.3764 73.219 71.776C74.0173 71.1874 73.5407 70.2956 73.1534 70.468C71.4198 71.2468 70.4189 71.3301 69.6206 71.2528C69.4835 71.235 69.3405 71.2766 69.2214 71.3598Z" fill="#263238"/>
<path d="M27.6075 15.1778C25.29 15.0351 21.8703 20.035 21.8703 20.035L25.2483 24.6307C25.2483 24.6307 27.2917 23.5962 28.8228 21.0457C30.4195 18.3644 29.9727 15.3264 27.6075 15.1778Z" fill="#54BA5E"/>
<path opacity="0.6" d="M27.6075 15.1778C25.29 15.0351 21.8703 20.035 21.8703 20.035L25.2483 24.6307C25.2483 24.6307 27.2917 23.5962 28.8228 21.0457C30.4195 18.3644 29.9727 15.3264 27.6075 15.1778Z" fill="#54BA5E"/>
<path opacity="0.2" d="M28.2629 19.792C26.7437 20.6065 25.7309 22.616 25.0935 24.4292L25.2424 24.6314C25.2424 24.6314 27.2859 23.5969 28.817 21.0464C28.9123 20.8859 29.0016 20.7254 29.0851 20.5649L28.2629 19.792Z" fill="black"/>
<path d="M41.322 14.8095C41.322 14.8095 42.7041 18.2934 40.2794 36.2062C36.3891 36.2062 29.2697 36.2062 27.3752 36.2062C27.2858 34.2324 28.531 24.5893 26.6186 15.2732C26.6186 15.2732 28.8289 14.8273 30.9379 14.7262C32.5881 14.649 38.093 13.5372 39.5407 13.668C41.459 13.8464 41.322 14.8095 41.322 14.8095Z" fill="#54BA5E"/>
<path opacity="0.6" d="M41.6258 22.7106C41.4709 25.8794 41.0836 30.2432 40.2793 36.2062H27.3811C27.2918 34.2264 28.5369 24.5833 26.6245 15.2732C26.6245 15.2732 28.8348 14.8273 30.9438 14.7262C32.594 14.6489 38.0989 13.5372 39.5466 13.6739C41.4589 13.8463 41.3219 14.8094 41.3219 14.8094C41.3219 14.8094 41.6138 15.5407 41.6913 18.0555C41.733 19.2029 41.727 20.719 41.6258 22.7106Z" fill="#54BA5E"/>
<path d="M39.7552 35.1602L42.2991 41.1291C42.2991 41.1291 54.6492 42.6749 58.1523 46.9138C61.6554 51.1527 68.2564 68.3581 68.2564 68.3581L64.9559 71.1524C64.9559 71.1524 55.4833 53.7686 52.8322 51.6759C50.187 49.5832 35.0904 49.5832 31.7184 48.3288C28.3464 47.0743 27.3693 36.2125 27.3693 36.2125L39.7552 35.1602Z" fill="#263238"/>
<path d="M64.2827 70.8076L68.2623 67.7637L68.7747 68.7446L64.9618 71.741L64.2827 70.8076Z" fill="#407BFF"/>
<path opacity="0.3" d="M64.2827 70.8076L68.2623 67.7637L68.7747 68.7446L64.9618 71.741L64.2827 70.8076Z" fill="black"/>
<path d="M37.0326 3.94728C37.0326 3.94728 36.8777 0.421777 35.0129 0.302873C33.1423 0.183969 31.6648 1.8724 31.6648 1.8724C31.6648 1.8724 31.2179 1.2006 30.1575 1.14709C29.097 1.08764 27.2442 2.89498 27.2442 2.89498C27.2442 2.89498 29.5498 1.48002 30.5209 2.12805C30.5209 2.12805 27.9055 2.85336 27.2442 4.50018C26.5829 6.147 25.874 6.73557 25.874 6.73557H27.2442L26.3446 8.26349C26.3446 8.26349 28.2391 10.0946 29.669 9.78545L29.2102 10.6535C29.2102 10.6535 32.0163 11.676 33.1601 11.3609C34.304 11.0458 33.2197 5.36223 33.2197 5.36223L37.0326 3.94728Z" fill="#263238"/>
<path opacity="0.2" d="M41.6258 22.7106C39.2845 21.1233 39.3202 17.467 39.3202 17.467L41.6914 18.0556C41.7331 19.203 41.7271 20.719 41.6258 22.7106Z" fill="black"/>
<path d="M56.5198 3.57306L57.4373 2.04514L59.4629 3.9595C59.4629 3.9595 58.6407 5.04747 57.4731 5.03558L56.5198 3.57306Z" fill="#E4897B"/>
<path d="M58.8493 0L60.291 2.01542L59.4629 3.9595L57.4373 2.04515L58.8493 0Z" fill="#FFBE9D"/>
<path d="M40.6667 13.9775C42.2633 13.6445 43.9612 13.2224 45.546 12.7171C47.1247 12.188 48.7035 11.6113 49.9665 10.7908C50.1393 10.6838 50.1929 10.6244 50.3299 10.5292L50.741 10.1547C51.027 9.88122 51.3129 9.57801 51.6049 9.26886C52.1768 8.63867 52.7547 7.99065 53.3207 7.32479C54.4645 6.00495 55.5905 4.63161 56.7403 3.29395L58.2476 4.29274C57.4195 5.90389 56.502 7.4318 55.5309 8.96566C55.0305 9.7207 54.53 10.4817 53.97 11.2189C53.69 11.5875 53.3981 11.962 53.0764 12.3366C52.9215 12.5268 52.7249 12.7171 52.5462 12.9014C52.3436 13.0857 52.0696 13.3354 51.873 13.4721C50.2167 14.679 48.4771 15.4935 46.7077 16.1237C44.9264 16.7598 43.1808 17.2354 41.2803 17.5624L40.6667 13.9775Z" fill="#FFBE9D"/>
<path d="M39.8922 19.1728C42.4063 21.3428 47.9171 17.6211 47.9171 17.6211L45.7187 12.2051C45.7187 12.2051 42.591 12.5321 39.7671 13.4833C36.2759 14.6664 37.9798 17.5201 39.8922 19.1728Z" fill="#54BA5E"/>
<path opacity="0.6" d="M39.8922 19.1728C42.4063 21.3428 47.9171 17.6211 47.9171 17.6211L45.7187 12.2051C45.7187 12.2051 42.591 12.5321 39.7671 13.4833C36.2759 14.6664 37.9798 17.5201 39.8922 19.1728Z" fill="#54BA5E"/>
</svg>
