<svg width="109" height="117" viewBox="0 0 109 117" fill="none" xmlns="http://www.w3.org/2000/svg">
<g clip-path="url(#clip0_1_629)">
<path d="M69.7543 38.5353C69.7543 38.5353 69.9535 38.1325 69.9418 37.2028C69.9272 36.0532 69.6967 34.317 69.6508 34.1635C69.5678 33.8859 73.2838 32.7196 73.2838 32.7196C73.2838 32.7196 79.2461 32.4146 80.1339 31.7479C81.0216 31.0821 81.7678 30.8074 81.3546 31.4976C80.6056 32.747 78.8584 34.579 78.4707 34.8292C78.082 35.0795 73.4508 36.2448 73.3678 36.2448C73.2848 36.2448 73.3121 39.16 73.3121 39.16L69.7543 38.5353Z" fill="#F9C38A"/>
<path d="M73.6227 37.2928C73.6227 37.2928 69.7621 36.6358 69.6918 37.022C68.1321 45.572 67.8675 48.3982 67.6946 48.4872C67.1067 48.7893 58.7038 41.4075 57.315 40.9245C56.6509 40.6938 55.9282 40.732 55.2348 40.7525C53.5834 40.8014 54.14 40.7613 53.2689 40.8043L53.2699 40.8063C53.223 40.8092 53.1956 40.8111 53.1956 40.8111L53.2044 42.3665C55.0659 44.0431 59.3259 69.4311 59.6853 69.4135C60.0857 69.3949 68.5071 71.5163 68.3587 70.8056C68.3343 70.6902 62.6494 66.033 61.037 59.313C60.4959 57.0568 60.2283 54.6274 59.9353 52.5012C61.8065 53.4406 69.1136 57.0401 70.2719 56.565C73.8766 55.0859 73.6227 37.2928 73.6227 37.2928Z" fill="#54BA5E"/>
<path d="M88.1245 82.3701C88.1245 82.3701 95.959 88.5133 96.2207 89.6023C96.5977 91.1713 103.772 89.1086 102.041 88.7899C101.643 88.7166 100.369 88.393 100.265 88.3373C99.7043 88.0372 92.7332 79.6279 92.7332 79.6279L88.1245 82.3701Z" fill="#F9C38A"/>
<path d="M105.406 88.7903L100.404 88.3827C100.404 88.3827 98.9739 89.5675 96.2257 89.6233C96.2257 89.6233 95.7862 90.8795 95.9952 92.3488C96.0313 92.602 96.0733 93.3684 96.3292 93.3508C97.2531 93.2882 99.7161 92.6743 102.521 92.1132C102.521 92.1132 106.292 91.3135 108.47 90.0094C110.647 88.7043 105.406 88.7903 105.406 88.7903Z" fill="#353535"/>
<path d="M53.02 66.9611C53.02 66.9611 58.7577 67.926 65.1028 66.4401C72.4451 64.7205 80.5638 63.1309 82.9428 64.5152C84.858 65.6297 96.8148 83.7151 96.8148 83.7151L92.1973 87.0878L79.0314 72.331C79.0314 72.331 62.2345 78.5348 58.4618 77.8476C49.8695 76.2815 49.7474 69.4129 53.02 66.9611Z" fill="black"/>
<path d="M59.2917 63.3114L65.0323 70.1399L54.3832 73.3884L53.0198 66.9607L59.2917 63.3114Z" fill="black"/>
<path d="M70.9587 94.5039C70.9587 94.5039 70.61 103.989 70.3932 105.596C70.1774 107.195 74.415 112.012 73.8729 110.336C73.7479 109.951 73.4276 108.675 73.4266 108.556C73.4237 107.92 74.998 97.0994 74.998 97.0994L70.9587 94.5039Z" fill="#F9C38A"/>
<path d="M75.4713 113.3L73.4536 108.701C73.4536 108.701 71.7327 108.004 70.3782 105.61C70.3782 105.61 69.0646 105.821 67.8731 106.702C67.6671 106.855 66.2656 107.88 66.3633 108.117C66.7227 108.988 68.631 110.854 70.7171 112.891C70.7171 112.891 73.6743 115.28 75.856 116.578C78.0368 117.875 75.4713 113.3 75.4713 113.3Z" fill="#353535"/>
<path d="M80.2579 75.8027C78.2509 73.1251 62.0595 70.5814 62.0595 70.5814L57.5446 61.8945L47.5615 68.0582C47.5615 68.0582 48.5596 76.01 49.3087 78.1353C50.3068 80.9664 57.0162 81.111 61.1141 81.069C64.8849 81.0299 71.772 81.7993 71.772 81.7993L69.4428 102.37C69.4428 102.37 74.0212 103.413 75.3084 103.245C75.4529 103.225 82.7542 79.1344 80.2579 75.8027Z" fill="#2E2E2E"/>
<path d="M53.2533 40.8262L47.6201 41.1351C47.6201 41.1351 47.4912 41.1801 47.4521 41.1879C46.9931 41.2729 47.4101 57.7043 47.8193 63.8406C48.2285 69.9779 49.0587 72.5558 49.0587 72.5558C49.0587 72.5558 56.6978 71.198 59.0427 70.2869C60.0154 69.9085 62.371 66.9621 62.371 66.9621C62.371 66.9621 59.9656 63.7243 58.7536 58.4658C57.819 54.4098 56.6666 47.2196 56.0064 45.719C54.4906 42.272 53.2533 40.8262 53.2533 40.8262Z" fill="#54BA5E"/>
<path d="M47.7813 36.1611L47.6211 41.139C47.6211 41.139 51.2668 47.4279 53.139 46.552C54.7094 45.8168 53.3158 41.0325 53.3158 41.0325C53.3158 41.0325 53.0443 39.9356 52.6663 38.6755C52.4026 37.7947 52.1839 36.8415 52.1995 36.1416C52.2395 34.4406 47.7813 36.1611 47.7813 36.1611Z" fill="#F9C38A"/>
<path d="M52.1374 24.8078C52.1374 24.8078 53.9959 27.6115 54.1345 29.9714C54.2732 32.3313 53.7742 33.9414 53.7742 33.9414L47.8119 26.8069L52.1374 24.8078Z" fill="#353535"/>
<path d="M54.7518 29.4885C54.8358 30.3146 54.5154 31.0243 54.0349 31.0732C53.5544 31.122 53.0984 30.4925 53.0144 29.6654C52.9304 28.8394 53.2507 28.1296 53.7312 28.0808C54.2107 28.0319 54.6678 28.6614 54.7518 29.4885Z" fill="#E5AC7A"/>
<path d="M45.8819 27.9494C45.7452 27.9201 45.7589 34.7887 47.7473 36.4046C49.7357 38.0206 53.1978 38.1633 54.2086 36.5346C55.3269 34.7339 54.2633 27.4968 51.3051 25.959C48.3469 24.4223 45.8819 27.9494 45.8819 27.9494Z" fill="#F9C38A"/>
<path d="M45.3772 23.6904C43.8585 25.0228 43.1241 25.9965 42.0967 28.3652C40.8339 31.2785 43.3399 34.2963 45.4406 35.4958C47.5423 36.6953 47.7201 38.1675 47.7201 38.1675L47.8031 37.2515C47.8929 36.5398 47.6781 36.1341 47.4769 35.704C47.2982 35.3208 46.7239 34.0098 46.4993 33.6638C45.9084 32.7507 45.7913 32.5532 46.0833 31.6861C46.3079 31.0184 46.0481 29.5462 46.3948 28.4454L49.2231 27.8344C49.2231 27.8344 50.9937 27.4082 51.8873 26.3758C54.4559 23.4108 49.3813 20.1065 45.3772 23.6904Z" fill="#353535"/>
<path d="M46.7571 32.4369C47.1058 33.1906 47.0335 33.9659 46.596 34.1692C46.1585 34.3716 45.5207 33.9258 45.1731 33.172C44.8244 32.4183 44.8967 31.6431 45.3342 31.4398C45.7717 31.2364 46.4095 31.6832 46.7571 32.4369Z" fill="#F9C38A"/>
<path d="M27.4823 13.4904C27.8036 14.8121 28.3837 16.9022 28.3837 16.9022C28.3378 17.477 28.1679 19.8673 27.9667 22.7971L32.2687 21.0736C32.2687 21.0736 32.217 16.299 32.4094 16.0067C32.5715 15.7594 32.844 16.0683 34.1634 14.1787C34.5443 13.6332 34.6156 12.6595 34.6156 12.6595C34.6156 12.6595 34.6937 11.46 34.4251 11.3485C34.1566 11.2371 33.8479 11.416 33.7503 11.6232C33.6526 11.8305 33.678 12.3134 33.5803 12.5207C33.4827 12.7279 32.8606 12.9772 32.5988 12.9645C32.3371 12.9518 32.6311 9.41778 32.6311 9.41778C32.6311 9.41778 32.7776 8.41575 32.8518 8.08728C32.9153 7.80769 33.1692 6.98749 33.1692 6.98749C33.1692 6.98749 33.468 5.79776 33.0989 5.70685C32.8811 5.65308 32.3273 6.61992 31.9474 7.64541C31.5382 8.75009 31.3068 9.92124 31.1896 9.9056C30.9151 9.86845 31.0607 7.93087 31.0607 7.93087C31.0607 7.93087 31.3341 7.04321 31.3273 6.6248C31.5861 6.11157 31.757 5.1594 31.3019 5.08021C31.2179 5.06555 30.6183 6.27483 30.6183 6.27483C30.6183 6.27483 30.3829 7.12631 30.2452 7.52419C30.003 8.2261 29.9659 9.33469 29.8399 9.82348C29.7344 10.2302 29.6397 10.063 29.5967 10.0796C29.5635 10.0923 29.6221 9.53216 29.6885 8.76084C29.7227 8.37274 29.6778 7.925 29.7862 7.48215C29.8868 7.07254 29.9444 6.48696 29.9707 6.13308C30.044 5.13105 29.4141 5.23369 29.1963 6.1497C29.1133 6.4987 29.0264 6.87996 28.9385 7.2661C28.5996 8.76866 28.6093 10.2165 28.4472 10.2282C28.2372 10.2438 28.3759 7.60826 28.3759 7.60826C28.3759 7.60826 28.0536 6.1497 27.7333 7.50366C27.3622 9.07465 27.4003 10.3553 27.4052 10.412C27.4374 10.7972 27.161 12.1677 27.4823 13.4904Z" fill="#F9C38A"/>
<path d="M47.6136 41.1423C47.6136 41.1423 42.037 40.8794 40.5965 40.2273C39.7234 39.8314 32.5472 34.0441 32.5472 34.0441L32.6273 18.5473L27.5811 18.1631C27.5811 18.1631 24.9647 35.2915 25.871 37.1665C26.8066 39.1031 37.3102 47.0734 39.4109 50.5321C40.6209 52.5244 51.0872 68.6304 47.6136 75C50.3315 76.4156 51.6973 73.3593 51.5 72.5C46.0368 48.766 47.6136 41.1423 47.6136 41.1423Z" fill="#54BA5E"/>
<path d="M72.5483 34.4084C81.8175 34.4084 89.3316 26.8868 89.3316 17.6085C89.3316 8.33017 81.8175 0.808594 72.5483 0.808594C63.2792 0.808594 55.7651 8.33017 55.7651 17.6085C55.7651 26.8868 63.2792 34.4084 72.5483 34.4084Z" fill="#FFFBF3"/>
<path d="M82.5061 27.5776C88.0061 22.0721 88.0064 13.1462 82.5067 7.64108C77.0071 2.13596 68.09 2.13627 62.59 7.64177C57.09 13.1473 57.0896 22.0731 62.5893 27.5782C68.089 33.0834 77.006 33.0831 82.5061 27.5776Z" fill="#FFD800"/>
<path d="M72.1187 34.4955C72.1187 34.4955 73.6715 33.8287 74.0875 33.6899C74.5036 33.5511 75.8347 33.3008 75.8347 33.3008C75.8347 33.3008 77.9012 31.1775 78.4276 31.1218C78.954 31.0661 77.2215 33.4397 77.2215 33.4397L76.5008 34.1337C76.5008 34.1337 77.6659 33.1346 77.8876 32.9958C78.1093 32.857 79.8564 30.3309 80.3008 30.4971C80.7442 30.6633 79.5517 32.4406 78.9697 33.3839C78.3876 34.3273 75.7253 34.9109 75.7253 34.9109L72.1187 34.4955Z" fill="#F9C38A"/>
<path d="M53.5 41C51.9 43.4 48.8333 42.3333 47.5 41.5L50 46.5L52 47.5L55 46.5L53.5 41Z" fill="#54BA5E"/>
</g>
<defs>
<clipPath id="clip0_1_629">
<rect width="109" height="116" fill="white" transform="translate(0 0.808594)"/>
</clipPath>
</defs>
</svg>
