<svg width="258" height="90" viewBox="0 0 258 70" fill="none" xmlns="http://www.w3.org/2000/svg">
<path d="M34.0732 33.7465C33.3692 33.5065 32.7292 33.2665 32.1532 33.0265C31.5772 32.7705 31.0812 32.4665 30.6652 32.1145C30.2492 31.7625 29.9212 31.3465 29.6812 30.8665C29.4572 30.3705 29.3452 29.7705 29.3452 29.0665C29.3452 27.7065 29.8652 26.6185 30.9052 25.8025C31.9612 24.9865 33.4332 24.5785 35.3212 24.5785C36.0092 24.5785 36.6492 24.6265 37.2412 24.7225C37.8332 24.8185 38.3372 24.9705 38.7532 25.1785C39.1852 25.3705 39.5212 25.6265 39.7612 25.9465C40.0012 26.2505 40.1212 26.6105 40.1212 27.0265C40.1212 27.4425 40.0252 27.8025 39.8332 28.1065C39.6412 28.3945 39.4092 28.6425 39.1372 28.8505C38.7852 28.6265 38.3132 28.4345 37.7212 28.2745C37.1292 28.0985 36.4812 28.0105 35.7772 28.0105C35.0572 28.0105 34.5292 28.1145 34.1932 28.3225C33.8572 28.5145 33.6892 28.7625 33.6892 29.0665C33.6892 29.3065 33.7932 29.5065 34.0012 29.6665C34.2092 29.8105 34.5212 29.9465 34.9372 30.0745L36.2092 30.4825C37.7132 30.9625 38.8652 31.5785 39.6652 32.3305C40.4812 33.0665 40.8892 34.0745 40.8892 35.3545C40.8892 36.7145 40.3532 37.8185 39.2812 38.6665C38.2092 39.4985 36.6332 39.9145 34.5532 39.9145C33.8172 39.9145 33.1292 39.8505 32.4892 39.7225C31.8652 39.6105 31.3132 39.4425 30.8332 39.2185C30.3692 38.9785 30.0012 38.6905 29.7292 38.3545C29.4732 38.0025 29.3452 37.6025 29.3452 37.1545C29.3452 36.6905 29.4812 36.2985 29.7532 35.9785C30.0252 35.6425 30.3212 35.3865 30.6412 35.2105C31.0892 35.5625 31.6332 35.8665 32.2732 36.1225C32.9292 36.3785 33.6412 36.5065 34.4092 36.5065C35.1932 36.5065 35.7452 36.3865 36.0652 36.1465C36.3852 35.9065 36.5452 35.6265 36.5452 35.3065C36.5452 34.9865 36.4172 34.7465 36.1612 34.5865C35.9052 34.4105 35.5452 34.2425 35.0812 34.0825L34.0732 33.7465ZM46.6319 35.5225C46.6319 35.9385 46.7599 36.2345 47.0159 36.4105C47.2879 36.5865 47.6639 36.6745 48.1439 36.6745C48.3839 36.6745 48.6319 36.6585 48.8879 36.6265C49.1439 36.5785 49.3679 36.5225 49.5599 36.4585C49.7039 36.6345 49.8239 36.8345 49.9199 37.0585C50.0319 37.2665 50.0879 37.5225 50.0879 37.8265C50.0879 38.4345 49.8559 38.9305 49.3919 39.3145C48.9439 39.6985 48.1439 39.8905 46.9919 39.8905C45.5839 39.8905 44.4959 39.5705 43.7279 38.9305C42.9759 38.2905 42.5999 37.2505 42.5999 35.8105V25.5385C42.7759 25.4905 43.0239 25.4425 43.3439 25.3945C43.6799 25.3305 44.0319 25.2985 44.3999 25.2985C45.1039 25.2985 45.6479 25.4265 46.0319 25.6825C46.4319 25.9225 46.6319 26.4425 46.6319 27.2425V28.7785H49.7759C49.8719 28.9545 49.9599 29.1785 50.0399 29.4505C50.1359 29.7065 50.1839 29.9945 50.1839 30.3145C50.1839 30.8745 50.0559 31.2825 49.7999 31.5385C49.5599 31.7785 49.2319 31.8985 48.8159 31.8985H46.6319V35.5225ZM56.8533 36.9385C57.1253 36.9385 57.4213 36.9145 57.7413 36.8665C58.0773 36.8025 58.3253 36.7225 58.4853 36.6265V34.7065L56.7573 34.8505C56.3093 34.8825 55.9413 34.9785 55.6533 35.1385C55.3653 35.2985 55.2213 35.5385 55.2213 35.8585C55.2213 36.1785 55.3413 36.4425 55.5813 36.6505C55.8373 36.8425 56.2613 36.9385 56.8533 36.9385ZM56.6613 27.5065C57.5253 27.5065 58.3093 27.5945 59.0133 27.7705C59.7333 27.9465 60.3413 28.2185 60.8373 28.5865C61.3493 28.9385 61.7413 29.3945 62.0133 29.9545C62.2853 30.4985 62.4213 31.1465 62.4213 31.8985V37.2745C62.4213 37.6905 62.3013 38.0345 62.0613 38.3065C61.8373 38.5625 61.5653 38.7865 61.2453 38.9785C60.2053 39.6025 58.7413 39.9145 56.8533 39.9145C56.0053 39.9145 55.2373 39.8345 54.5493 39.6745C53.8773 39.5145 53.2933 39.2745 52.7973 38.9545C52.3173 38.6345 51.9413 38.2265 51.6693 37.7305C51.4133 37.2345 51.2853 36.6585 51.2853 36.0025C51.2853 34.8985 51.6133 34.0505 52.2693 33.4585C52.9253 32.8665 53.9413 32.4985 55.3173 32.3545L58.4613 32.0185V31.8505C58.4613 31.3865 58.2533 31.0585 57.8373 30.8665C57.4373 30.6585 56.8533 30.5545 56.0853 30.5545C55.4773 30.5545 54.8853 30.6185 54.3093 30.7465C53.7333 30.8745 53.2133 31.0345 52.7493 31.2265C52.5413 31.0825 52.3653 30.8665 52.2213 30.5785C52.0773 30.2745 52.0053 29.9625 52.0053 29.6425C52.0053 29.2265 52.1013 28.8985 52.2933 28.6585C52.5013 28.4025 52.8133 28.1865 53.2293 28.0105C53.6933 27.8345 54.2373 27.7065 54.8613 27.6265C55.5013 27.5465 56.1013 27.5065 56.6613 27.5065ZM68.696 39.5065C68.536 39.5545 68.28 39.6025 67.928 39.6505C67.592 39.6985 67.24 39.7225 66.872 39.7225C66.52 39.7225 66.2 39.6985 65.912 39.6505C65.64 39.6025 65.408 39.5065 65.216 39.3625C65.024 39.2185 64.872 39.0265 64.76 38.7865C64.664 38.5305 64.616 38.2025 64.616 37.8025V30.6025C64.616 30.2345 64.68 29.9225 64.808 29.6665C64.952 29.3945 65.152 29.1545 65.408 28.9465C65.664 28.7385 65.976 28.5545 66.344 28.3945C66.728 28.2185 67.136 28.0665 67.568 27.9385C68 27.8105 68.448 27.7145 68.912 27.6505C69.376 27.5705 69.84 27.5305 70.304 27.5305C71.072 27.5305 71.68 27.6825 72.128 27.9865C72.576 28.2745 72.8 28.7545 72.8 29.4265C72.8 29.6505 72.768 29.8745 72.704 30.0985C72.64 30.3065 72.56 30.4985 72.464 30.6745C72.128 30.6745 71.784 30.6905 71.432 30.7225C71.08 30.7545 70.736 30.8025 70.4 30.8665C70.064 30.9305 69.744 31.0025 69.44 31.0825C69.152 31.1465 68.904 31.2265 68.696 31.3225V39.5065ZM78.2632 35.5225C78.2632 35.9385 78.3912 36.2345 78.6472 36.4105C78.9192 36.5865 79.2952 36.6745 79.7752 36.6745C80.0152 36.6745 80.2632 36.6585 80.5192 36.6265C80.7752 36.5785 80.9992 36.5225 81.1912 36.4585C81.3352 36.6345 81.4552 36.8345 81.5512 37.0585C81.6632 37.2665 81.7192 37.5225 81.7192 37.8265C81.7192 38.4345 81.4872 38.9305 81.0232 39.3145C80.5752 39.6985 79.7752 39.8905 78.6232 39.8905C77.2152 39.8905 76.1272 39.5705 75.3592 38.9305C74.6072 38.2905 74.2312 37.2505 74.2312 35.8105V25.5385C74.4072 25.4905 74.6552 25.4425 74.9752 25.3945C75.3112 25.3305 75.6632 25.2985 76.0312 25.2985C76.7352 25.2985 77.2792 25.4265 77.6632 25.6825C78.0632 25.9225 78.2632 26.4425 78.2632 27.2425V28.7785H81.4072C81.5032 28.9545 81.5912 29.1785 81.6712 29.4505C81.7672 29.7065 81.8152 29.9945 81.8152 30.3145C81.8152 30.8745 81.6872 31.2825 81.4312 31.5385C81.1912 31.7785 80.8632 31.8985 80.4472 31.8985H78.2632V35.5225ZM89.8212 36.5545C89.6452 36.1545 89.4532 35.7065 89.2452 35.2105C89.0532 34.7145 88.8452 34.1465 88.6212 33.5065C88.4132 32.8665 88.1892 32.1385 87.9492 31.3225C87.7252 30.4905 87.4852 29.5385 87.2292 28.4665C87.4532 28.2425 87.7492 28.0505 88.1172 27.8905C88.5012 27.7145 88.9172 27.6265 89.3652 27.6265C89.9252 27.6265 90.3892 27.7465 90.7572 27.9865C91.1252 28.2105 91.3972 28.6425 91.5732 29.2825L93.4692 35.8825H93.5652C93.7572 35.3385 93.9412 34.7465 94.1172 34.1065C94.3092 33.4665 94.4932 32.8105 94.6692 32.1385C94.8452 31.4505 95.0052 30.7705 95.1492 30.0985C95.3092 29.4105 95.4452 28.7385 95.5572 28.0825C96.1332 27.7785 96.7652 27.6265 97.4532 27.6265C98.0132 27.6265 98.4772 27.7465 98.8452 27.9865C99.2132 28.2265 99.3972 28.6425 99.3972 29.2345C99.3972 29.6665 99.3412 30.1705 99.2292 30.7465C99.1172 31.3065 98.9652 31.9065 98.7732 32.5465C98.5972 33.1865 98.3812 33.8505 98.1252 34.5385C97.8852 35.2105 97.6292 35.8745 97.3572 36.5305C97.0852 37.1865 96.8052 37.8105 96.5172 38.4025C96.2292 38.9785 95.9492 39.4985 95.6772 39.9625C95.2292 40.7465 94.8132 41.3865 94.4292 41.8825C94.0452 42.3785 93.6772 42.7625 93.3252 43.0345C92.9732 43.3225 92.6212 43.5145 92.2692 43.6105C91.9172 43.7225 91.5492 43.7785 91.1652 43.7785C90.4932 43.7785 89.9492 43.5785 89.5332 43.1785C89.1172 42.7785 88.8692 42.2585 88.7892 41.6185C89.3012 41.2185 89.8132 40.7705 90.3252 40.2745C90.8372 39.7945 91.3012 39.2985 91.7172 38.7865C91.4452 38.7065 91.1492 38.5225 90.8292 38.2345C90.5252 37.9305 90.1892 37.3705 89.8212 36.5545ZM112.871 33.6985C112.871 34.6905 112.719 35.5785 112.415 36.3625C112.111 37.1305 111.679 37.7785 111.119 38.3065C110.575 38.8345 109.919 39.2345 109.151 39.5065C108.383 39.7785 107.527 39.9145 106.583 39.9145C105.639 39.9145 104.783 39.7705 104.015 39.4825C103.247 39.1945 102.583 38.7865 102.023 38.2585C101.479 37.7145 101.055 37.0585 100.751 36.2905C100.447 35.5225 100.295 34.6585 100.295 33.6985C100.295 32.7545 100.447 31.8985 100.751 31.1305C101.055 30.3625 101.479 29.7145 102.023 29.1865C102.583 28.6425 103.247 28.2265 104.015 27.9385C104.783 27.6505 105.639 27.5065 106.583 27.5065C107.527 27.5065 108.383 27.6585 109.151 27.9625C109.919 28.2505 110.575 28.6665 111.119 29.2105C111.679 29.7385 112.111 30.3865 112.415 31.1545C112.719 31.9225 112.871 32.7705 112.871 33.6985ZM104.471 33.6985C104.471 34.6745 104.655 35.4265 105.023 35.9545C105.407 36.4665 105.935 36.7225 106.607 36.7225C107.279 36.7225 107.791 36.4585 108.143 35.9305C108.511 35.4025 108.695 34.6585 108.695 33.6985C108.695 32.7385 108.511 32.0025 108.143 31.4905C107.775 30.9625 107.255 30.6985 106.583 30.6985C105.911 30.6985 105.391 30.9625 105.023 31.4905C104.655 32.0025 104.471 32.7385 104.471 33.6985ZM114.561 28.0345C114.721 27.9865 114.969 27.9385 115.305 27.8905C115.657 27.8425 116.017 27.8185 116.385 27.8185C116.737 27.8185 117.049 27.8425 117.321 27.8905C117.609 27.9385 117.849 28.0345 118.041 28.1785C118.233 28.3225 118.377 28.5225 118.473 28.7785C118.585 29.0185 118.641 29.3385 118.641 29.7385V34.8985C118.641 35.5545 118.801 36.0265 119.121 36.3145C119.441 36.5865 119.905 36.7225 120.513 36.7225C120.881 36.7225 121.177 36.6905 121.401 36.6265C121.641 36.5625 121.825 36.4985 121.953 36.4345V28.0345C122.113 27.9865 122.361 27.9385 122.697 27.8905C123.049 27.8425 123.409 27.8185 123.777 27.8185C124.129 27.8185 124.441 27.8425 124.713 27.8905C125.001 27.9385 125.241 28.0345 125.433 28.1785C125.625 28.3225 125.769 28.5225 125.865 28.7785C125.977 29.0185 126.033 29.3385 126.033 29.7385V37.0345C126.033 37.8345 125.697 38.4345 125.025 38.8345C124.465 39.1865 123.793 39.4505 123.009 39.6265C122.241 39.8185 121.401 39.9145 120.489 39.9145C119.625 39.9145 118.825 39.8185 118.089 39.6265C117.369 39.4345 116.745 39.1385 116.217 38.7385C115.689 38.3385 115.281 37.8265 114.993 37.2025C114.705 36.5625 114.561 35.7945 114.561 34.8985V28.0345ZM132.31 39.5065C132.15 39.5545 131.894 39.6025 131.542 39.6505C131.206 39.6985 130.854 39.7225 130.486 39.7225C130.134 39.7225 129.814 39.6985 129.526 39.6505C129.254 39.6025 129.022 39.5065 128.83 39.3625C128.638 39.2185 128.486 39.0265 128.374 38.7865C128.278 38.5305 128.23 38.2025 128.23 37.8025V30.6025C128.23 30.2345 128.294 29.9225 128.422 29.6665C128.566 29.3945 128.766 29.1545 129.022 28.9465C129.278 28.7385 129.59 28.5545 129.958 28.3945C130.342 28.2185 130.75 28.0665 131.182 27.9385C131.614 27.8105 132.062 27.7145 132.526 27.6505C132.99 27.5705 133.454 27.5305 133.918 27.5305C134.686 27.5305 135.294 27.6825 135.742 27.9865C136.19 28.2745 136.414 28.7545 136.414 29.4265C136.414 29.6505 136.382 29.8745 136.318 30.0985C136.254 30.3065 136.174 30.4985 136.078 30.6745C135.742 30.6745 135.398 30.6905 135.046 30.7225C134.694 30.7545 134.35 30.8025 134.014 30.8665C133.678 30.9305 133.358 31.0025 133.054 31.0825C132.766 31.1465 132.518 31.2265 132.31 31.3225V39.5065ZM146.454 39.5065C146.278 39.5385 146.014 39.5785 145.662 39.6265C145.326 39.6905 144.982 39.7225 144.63 39.7225C144.278 39.7225 143.958 39.6985 143.67 39.6505C143.398 39.6025 143.166 39.5065 142.974 39.3625C142.782 39.2185 142.63 39.0265 142.518 38.7865C142.422 38.5305 142.374 38.2025 142.374 37.8025V23.8825C142.55 23.8505 142.806 23.8105 143.142 23.7625C143.494 23.6985 143.846 23.6665 144.198 23.6665C144.55 23.6665 144.862 23.6905 145.134 23.7385C145.422 23.7865 145.662 23.8825 145.854 24.0265C146.046 24.1705 146.19 24.3705 146.286 24.6265C146.398 24.8665 146.454 25.1865 146.454 25.5865V39.5065ZM154.896 39.9145C153.952 39.9145 153.072 39.7865 152.256 39.5305C151.456 39.2585 150.752 38.8585 150.144 38.3305C149.552 37.8025 149.08 37.1385 148.728 36.3385C148.392 35.5385 148.224 34.6025 148.224 33.5305C148.224 32.4745 148.392 31.5705 148.728 30.8185C149.08 30.0505 149.536 29.4265 150.096 28.9465C150.656 28.4505 151.296 28.0905 152.016 27.8665C152.736 27.6265 153.472 27.5065 154.224 27.5065C155.072 27.5065 155.84 27.6345 156.528 27.8905C157.232 28.1465 157.832 28.4985 158.328 28.9465C158.84 29.3945 159.232 29.9305 159.504 30.5545C159.792 31.1785 159.936 31.8585 159.936 32.5945C159.936 33.1385 159.784 33.5545 159.48 33.8425C159.176 34.1305 158.752 34.3145 158.208 34.3945L152.28 35.2825C152.456 35.8105 152.816 36.2105 153.36 36.4825C153.904 36.7385 154.528 36.8665 155.232 36.8665C155.888 36.8665 156.504 36.7865 157.08 36.6265C157.672 36.4505 158.152 36.2505 158.52 36.0265C158.776 36.1865 158.992 36.4105 159.168 36.6985C159.344 36.9865 159.432 37.2905 159.432 37.6105C159.432 38.3305 159.096 38.8665 158.424 39.2185C157.912 39.4905 157.336 39.6745 156.696 39.7705C156.056 39.8665 155.456 39.9145 154.896 39.9145ZM154.224 30.4825C153.84 30.4825 153.504 30.5465 153.216 30.6745C152.944 30.8025 152.72 30.9705 152.544 31.1785C152.368 31.3705 152.232 31.5945 152.136 31.8505C152.056 32.0905 152.008 32.3385 151.992 32.5945L156.096 31.9225C156.048 31.6025 155.872 31.2825 155.568 30.9625C155.264 30.6425 154.816 30.4825 154.224 30.4825ZM166.592 36.9385C166.864 36.9385 167.16 36.9145 167.48 36.8665C167.816 36.8025 168.064 36.7225 168.224 36.6265V34.7065L166.496 34.8505C166.048 34.8825 165.68 34.9785 165.392 35.1385C165.104 35.2985 164.96 35.5385 164.96 35.8585C164.96 36.1785 165.08 36.4425 165.32 36.6505C165.576 36.8425 166 36.9385 166.592 36.9385ZM166.4 27.5065C167.264 27.5065 168.048 27.5945 168.752 27.7705C169.472 27.9465 170.08 28.2185 170.576 28.5865C171.088 28.9385 171.48 29.3945 171.752 29.9545C172.024 30.4985 172.16 31.1465 172.16 31.8985V37.2745C172.16 37.6905 172.04 38.0345 171.8 38.3065C171.576 38.5625 171.304 38.7865 170.984 38.9785C169.944 39.6025 168.48 39.9145 166.592 39.9145C165.744 39.9145 164.976 39.8345 164.288 39.6745C163.616 39.5145 163.032 39.2745 162.536 38.9545C162.056 38.6345 161.68 38.2265 161.408 37.7305C161.152 37.2345 161.024 36.6585 161.024 36.0025C161.024 34.8985 161.352 34.0505 162.008 33.4585C162.664 32.8665 163.68 32.4985 165.056 32.3545L168.2 32.0185V31.8505C168.2 31.3865 167.992 31.0585 167.576 30.8665C167.176 30.6585 166.592 30.5545 165.824 30.5545C165.216 30.5545 164.624 30.6185 164.048 30.7465C163.472 30.8745 162.952 31.0345 162.488 31.2265C162.28 31.0825 162.104 30.8665 161.96 30.5785C161.816 30.2745 161.744 29.9625 161.744 29.6425C161.744 29.2265 161.84 28.8985 162.032 28.6585C162.24 28.4025 162.552 28.1865 162.968 28.0105C163.432 27.8345 163.976 27.7065 164.6 27.6265C165.24 27.5465 165.84 27.5065 166.4 27.5065ZM178.435 39.5065C178.275 39.5545 178.019 39.6025 177.667 39.6505C177.331 39.6985 176.979 39.7225 176.611 39.7225C176.259 39.7225 175.939 39.6985 175.651 39.6505C175.379 39.6025 175.147 39.5065 174.955 39.3625C174.763 39.2185 174.611 39.0265 174.499 38.7865C174.403 38.5305 174.355 38.2025 174.355 37.8025V30.6025C174.355 30.2345 174.419 29.9225 174.547 29.6665C174.691 29.3945 174.891 29.1545 175.147 28.9465C175.403 28.7385 175.715 28.5545 176.083 28.3945C176.467 28.2185 176.875 28.0665 177.307 27.9385C177.739 27.8105 178.187 27.7145 178.651 27.6505C179.115 27.5705 179.579 27.5305 180.043 27.5305C180.811 27.5305 181.419 27.6825 181.867 27.9865C182.315 28.2745 182.539 28.7545 182.539 29.4265C182.539 29.6505 182.507 29.8745 182.443 30.0985C182.379 30.3065 182.299 30.4985 182.203 30.6745C181.867 30.6745 181.523 30.6905 181.171 30.7225C180.819 30.7545 180.475 30.8025 180.139 30.8665C179.803 30.9305 179.483 31.0025 179.179 31.0825C178.891 31.1465 178.643 31.2265 178.435 31.3225V39.5065ZM191.08 32.1385C191.08 31.6425 190.936 31.2825 190.648 31.0585C190.376 30.8185 190 30.6985 189.52 30.6985C189.2 30.6985 188.88 30.7385 188.56 30.8185C188.256 30.8985 187.992 31.0185 187.768 31.1785V39.5065C187.608 39.5545 187.352 39.6025 187 39.6505C186.664 39.6985 186.312 39.7225 185.944 39.7225C185.592 39.7225 185.272 39.6985 184.984 39.6505C184.712 39.6025 184.48 39.5065 184.288 39.3625C184.096 39.2185 183.944 39.0265 183.832 38.7865C183.736 38.5305 183.688 38.2025 183.688 37.8025V30.6025C183.688 30.1705 183.776 29.8185 183.952 29.5465C184.144 29.2745 184.4 29.0265 184.72 28.8025C185.264 28.4185 185.944 28.1065 186.76 27.8665C187.592 27.6265 188.512 27.5065 189.52 27.5065C191.328 27.5065 192.72 27.9065 193.696 28.7065C194.672 29.4905 195.16 30.5865 195.16 31.9945V39.5065C195 39.5545 194.744 39.6025 194.392 39.6505C194.056 39.6985 193.704 39.7225 193.336 39.7225C192.984 39.7225 192.664 39.6985 192.376 39.6505C192.104 39.6025 191.872 39.5065 191.68 39.3625C191.488 39.2185 191.336 39.0265 191.224 38.7865C191.128 38.5305 191.08 38.2025 191.08 37.8025V32.1385ZM197.284 24.6265C197.284 24.0185 197.484 23.5065 197.884 23.0905C198.3 22.6745 198.844 22.4665 199.516 22.4665C200.188 22.4665 200.724 22.6745 201.124 23.0905C201.54 23.5065 201.748 24.0185 201.748 24.6265C201.748 25.2345 201.54 25.7465 201.124 26.1625C200.724 26.5785 200.188 26.7865 199.516 26.7865C198.844 26.7865 198.3 26.5785 197.884 26.1625C197.484 25.7465 197.284 25.2345 197.284 24.6265ZM201.556 39.5065C201.38 39.5385 201.116 39.5785 200.764 39.6265C200.428 39.6905 200.084 39.7225 199.732 39.7225C199.38 39.7225 199.06 39.6985 198.772 39.6505C198.5 39.6025 198.268 39.5065 198.076 39.3625C197.884 39.2185 197.732 39.0265 197.62 38.7865C197.524 38.5305 197.476 38.2025 197.476 37.8025V28.0345C197.652 28.0025 197.908 27.9625 198.244 27.9145C198.596 27.8505 198.948 27.8185 199.3 27.8185C199.652 27.8185 199.964 27.8425 200.236 27.8905C200.524 27.9385 200.764 28.0345 200.956 28.1785C201.148 28.3225 201.292 28.5225 201.388 28.7785C201.5 29.0185 201.556 29.3385 201.556 29.7385V39.5065ZM211.245 32.1385C211.245 31.6425 211.101 31.2825 210.813 31.0585C210.541 30.8185 210.165 30.6985 209.685 30.6985C209.365 30.6985 209.045 30.7385 208.725 30.8185C208.421 30.8985 208.157 31.0185 207.933 31.1785V39.5065C207.773 39.5545 207.517 39.6025 207.165 39.6505C206.829 39.6985 206.477 39.7225 206.109 39.7225C205.757 39.7225 205.437 39.6985 205.149 39.6505C204.877 39.6025 204.645 39.5065 204.453 39.3625C204.261 39.2185 204.109 39.0265 203.997 38.7865C203.901 38.5305 203.853 38.2025 203.853 37.8025V30.6025C203.853 30.1705 203.941 29.8185 204.117 29.5465C204.309 29.2745 204.565 29.0265 204.885 28.8025C205.429 28.4185 206.109 28.1065 206.925 27.8665C207.757 27.6265 208.677 27.5065 209.685 27.5065C211.493 27.5065 212.885 27.9065 213.861 28.7065C214.837 29.4905 215.325 30.5865 215.325 31.9945V39.5065C215.165 39.5545 214.909 39.6025 214.557 39.6505C214.221 39.6985 213.869 39.7225 213.501 39.7225C213.149 39.7225 212.829 39.6985 212.541 39.6505C212.269 39.6025 212.037 39.5065 211.845 39.3625C211.653 39.2185 211.501 39.0265 211.389 38.7865C211.293 38.5305 211.245 38.2025 211.245 37.8025V32.1385ZM223.234 27.5065C224.146 27.5065 224.97 27.6265 225.706 27.8665C226.458 28.0905 227.09 28.3865 227.602 28.7545C227.922 28.9785 228.17 29.2265 228.346 29.4985C228.538 29.7705 228.634 30.1225 228.634 30.5545V38.9545C228.634 39.8025 228.474 40.5305 228.154 41.1385C227.834 41.7625 227.394 42.2745 226.834 42.6745C226.29 43.0905 225.642 43.3945 224.89 43.5865C224.154 43.7785 223.362 43.8745 222.514 43.8745C221.058 43.8745 219.914 43.6745 219.082 43.2745C218.25 42.8905 217.834 42.2585 217.834 41.3785C217.834 41.0105 217.906 40.6825 218.05 40.3945C218.21 40.1225 218.386 39.9145 218.578 39.7705C219.042 40.0265 219.562 40.2425 220.138 40.4185C220.73 40.5945 221.338 40.6825 221.962 40.6825C222.826 40.6825 223.514 40.5385 224.026 40.2505C224.538 39.9625 224.794 39.4985 224.794 38.8585V38.4745C224.138 38.7625 223.338 38.9065 222.394 38.9065C221.674 38.9065 220.986 38.8025 220.33 38.5945C219.69 38.3705 219.122 38.0345 218.626 37.5865C218.146 37.1225 217.754 36.5305 217.45 35.8105C217.162 35.0905 217.018 34.2345 217.018 33.2425C217.018 32.2665 217.17 31.4185 217.474 30.6985C217.794 29.9785 218.226 29.3865 218.77 28.9225C219.33 28.4425 219.986 28.0905 220.738 27.8665C221.506 27.6265 222.338 27.5065 223.234 27.5065ZM224.722 30.9865C224.61 30.9225 224.442 30.8585 224.218 30.7945C224.01 30.7305 223.746 30.6985 223.426 30.6985C222.642 30.6985 222.05 30.9225 221.65 31.3705C221.266 31.8025 221.074 32.4265 221.074 33.2425C221.074 34.1705 221.266 34.8425 221.65 35.2585C222.05 35.6585 222.554 35.8585 223.162 35.8585C223.818 35.8585 224.338 35.7065 224.722 35.4025V30.9865ZM85.3259 50.6265C85.3259 50.0185 85.5259 49.5065 85.9259 49.0905C86.3419 48.6745 86.8859 48.4665 87.5579 48.4665C88.2299 48.4665 88.7659 48.6745 89.1659 49.0905C89.5819 49.5065 89.7899 50.0185 89.7899 50.6265C89.7899 51.2345 89.5819 51.7465 89.1659 52.1625C88.7659 52.5785 88.2299 52.7865 87.5579 52.7865C86.8859 52.7865 86.3419 52.5785 85.9259 52.1625C85.5259 51.7465 85.3259 51.2345 85.3259 50.6265ZM84.5099 67.1625C84.8619 66.9385 85.1179 66.6265 85.2779 66.2265C85.4379 65.8425 85.5179 65.4105 85.5179 64.9305V54.0345C85.6939 54.0025 85.9499 53.9625 86.2859 53.9145C86.6379 53.8505 86.9899 53.8185 87.3419 53.8185C87.6939 53.8185 88.0059 53.8425 88.2779 53.8905C88.5659 53.9385 88.8059 54.0345 88.9979 54.1785C89.1899 54.3225 89.3339 54.5225 89.4299 54.7785C89.5419 55.0185 89.5979 55.3385 89.5979 55.7385V65.3145C89.5979 65.9865 89.5179 66.5945 89.3579 67.1385C89.1979 67.6825 88.9659 68.1465 88.6619 68.5305C88.3739 68.9305 88.0139 69.2345 87.5819 69.4425C87.1659 69.6665 86.6939 69.7785 86.1659 69.7785C85.4619 69.7785 84.9099 69.5625 84.5099 69.1305C84.1099 68.7145 83.9019 68.1865 83.8859 67.5465L84.5099 67.1625ZM103.965 59.6985C103.965 60.6905 103.813 61.5785 103.509 62.3625C103.205 63.1305 102.773 63.7785 102.213 64.3065C101.669 64.8345 101.013 65.2345 100.245 65.5065C99.4765 65.7785 98.6205 65.9145 97.6765 65.9145C96.7325 65.9145 95.8765 65.7705 95.1085 65.4825C94.3405 65.1945 93.6765 64.7865 93.1165 64.2585C92.5725 63.7145 92.1485 63.0585 91.8445 62.2905C91.5405 61.5225 91.3885 60.6585 91.3885 59.6985C91.3885 58.7545 91.5405 57.8985 91.8445 57.1305C92.1485 56.3625 92.5725 55.7145 93.1165 55.1865C93.6765 54.6425 94.3405 54.2265 95.1085 53.9385C95.8765 53.6505 96.7325 53.5065 97.6765 53.5065C98.6205 53.5065 99.4765 53.6585 100.245 53.9625C101.013 54.2505 101.669 54.6665 102.213 55.2105C102.773 55.7385 103.205 56.3865 103.509 57.1545C103.813 57.9225 103.965 58.7705 103.965 59.6985ZM95.5645 59.6985C95.5645 60.6745 95.7485 61.4265 96.1165 61.9545C96.5005 62.4665 97.0285 62.7225 97.7005 62.7225C98.3725 62.7225 98.8845 62.4585 99.2365 61.9305C99.6045 61.4025 99.7885 60.6585 99.7885 59.6985C99.7885 58.7385 99.6045 58.0025 99.2365 57.4905C98.8685 56.9625 98.3485 56.6985 97.6765 56.6985C97.0045 56.6985 96.4845 56.9625 96.1165 57.4905C95.7485 58.0025 95.5645 58.7385 95.5645 59.6985ZM105.655 54.0345C105.815 53.9865 106.063 53.9385 106.399 53.8905C106.751 53.8425 107.111 53.8185 107.479 53.8185C107.831 53.8185 108.143 53.8425 108.415 53.8905C108.703 53.9385 108.943 54.0345 109.135 54.1785C109.327 54.3225 109.471 54.5225 109.567 54.7785C109.679 55.0185 109.735 55.3385 109.735 55.7385V60.8985C109.735 61.5545 109.895 62.0265 110.215 62.3145C110.535 62.5865 110.999 62.7225 111.607 62.7225C111.975 62.7225 112.271 62.6905 112.495 62.6265C112.735 62.5625 112.919 62.4985 113.047 62.4345V54.0345C113.207 53.9865 113.455 53.9385 113.791 53.8905C114.143 53.8425 114.503 53.8185 114.871 53.8185C115.223 53.8185 115.535 53.8425 115.807 53.8905C116.095 53.9385 116.335 54.0345 116.527 54.1785C116.719 54.3225 116.863 54.5225 116.959 54.7785C117.071 55.0185 117.127 55.3385 117.127 55.7385V63.0345C117.127 63.8345 116.791 64.4345 116.119 64.8345C115.559 65.1865 114.887 65.4505 114.103 65.6265C113.335 65.8185 112.495 65.9145 111.583 65.9145C110.719 65.9145 109.919 65.8185 109.183 65.6265C108.463 65.4345 107.839 65.1385 107.311 64.7385C106.783 64.3385 106.375 63.8265 106.087 63.2025C105.799 62.5625 105.655 61.7945 105.655 60.8985V54.0345ZM123.404 65.5065C123.244 65.5545 122.988 65.6025 122.636 65.6505C122.3 65.6985 121.948 65.7225 121.58 65.7225C121.228 65.7225 120.908 65.6985 120.62 65.6505C120.348 65.6025 120.116 65.5065 119.924 65.3625C119.732 65.2185 119.58 65.0265 119.468 64.7865C119.372 64.5305 119.324 64.2025 119.324 63.8025V56.6025C119.324 56.2345 119.388 55.9225 119.516 55.6665C119.66 55.3945 119.86 55.1545 120.116 54.9465C120.372 54.7385 120.684 54.5545 121.052 54.3945C121.436 54.2185 121.844 54.0665 122.276 53.9385C122.708 53.8105 123.156 53.7145 123.62 53.6505C124.084 53.5705 124.548 53.5305 125.012 53.5305C125.78 53.5305 126.388 53.6825 126.836 53.9865C127.284 54.2745 127.508 54.7545 127.508 55.4265C127.508 55.6505 127.476 55.8745 127.412 56.0985C127.348 56.3065 127.268 56.4985 127.172 56.6745C126.836 56.6745 126.492 56.6905 126.14 56.7225C125.788 56.7545 125.444 56.8025 125.108 56.8665C124.772 56.9305 124.452 57.0025 124.148 57.0825C123.86 57.1465 123.612 57.2265 123.404 57.3225V65.5065ZM136.049 58.1385C136.049 57.6425 135.905 57.2825 135.617 57.0585C135.345 56.8185 134.969 56.6985 134.489 56.6985C134.169 56.6985 133.849 56.7385 133.529 56.8185C133.225 56.8985 132.961 57.0185 132.737 57.1785V65.5065C132.577 65.5545 132.321 65.6025 131.969 65.6505C131.633 65.6985 131.281 65.7225 130.913 65.7225C130.561 65.7225 130.241 65.6985 129.953 65.6505C129.681 65.6025 129.449 65.5065 129.257 65.3625C129.065 65.2185 128.913 65.0265 128.801 64.7865C128.705 64.5305 128.657 64.2025 128.657 63.8025V56.6025C128.657 56.1705 128.745 55.8185 128.921 55.5465C129.113 55.2745 129.369 55.0265 129.689 54.8025C130.233 54.4185 130.913 54.1065 131.729 53.8665C132.561 53.6265 133.481 53.5065 134.489 53.5065C136.297 53.5065 137.689 53.9065 138.665 54.7065C139.641 55.4905 140.129 56.5865 140.129 57.9945V65.5065C139.969 65.5545 139.713 65.6025 139.361 65.6505C139.025 65.6985 138.673 65.7225 138.305 65.7225C137.953 65.7225 137.633 65.6985 137.345 65.6505C137.073 65.6025 136.841 65.5065 136.649 65.3625C136.457 65.2185 136.305 65.0265 136.193 64.7865C136.097 64.5305 136.049 64.2025 136.049 63.8025V58.1385ZM148.517 65.9145C147.573 65.9145 146.693 65.7865 145.877 65.5305C145.077 65.2585 144.373 64.8585 143.765 64.3305C143.173 63.8025 142.701 63.1385 142.349 62.3385C142.013 61.5385 141.845 60.6025 141.845 59.5305C141.845 58.4745 142.013 57.5705 142.349 56.8185C142.701 56.0505 143.157 55.4265 143.717 54.9465C144.277 54.4505 144.917 54.0905 145.637 53.8665C146.357 53.6265 147.093 53.5065 147.845 53.5065C148.693 53.5065 149.461 53.6345 150.149 53.8905C150.853 54.1465 151.453 54.4985 151.949 54.9465C152.461 55.3945 152.853 55.9305 153.125 56.5545C153.413 57.1785 153.557 57.8585 153.557 58.5945C153.557 59.1385 153.405 59.5545 153.101 59.8425C152.797 60.1305 152.373 60.3145 151.829 60.3945L145.901 61.2825C146.077 61.8105 146.437 62.2105 146.981 62.4825C147.525 62.7385 148.149 62.8665 148.853 62.8665C149.509 62.8665 150.125 62.7865 150.701 62.6265C151.293 62.4505 151.773 62.2505 152.141 62.0265C152.397 62.1865 152.613 62.4105 152.789 62.6985C152.965 62.9865 153.053 63.2905 153.053 63.6105C153.053 64.3305 152.717 64.8665 152.045 65.2185C151.533 65.4905 150.957 65.6745 150.317 65.7705C149.677 65.8665 149.077 65.9145 148.517 65.9145ZM147.845 56.4825C147.461 56.4825 147.125 56.5465 146.837 56.6745C146.565 56.8025 146.341 56.9705 146.165 57.1785C145.989 57.3705 145.853 57.5945 145.757 57.8505C145.677 58.0905 145.629 58.3385 145.613 58.5945L149.717 57.9225C149.669 57.6025 149.493 57.2825 149.189 56.9625C148.885 56.6425 148.437 56.4825 147.845 56.4825ZM156.951 62.5545C156.775 62.1545 156.583 61.7065 156.375 61.2105C156.183 60.7145 155.975 60.1465 155.751 59.5065C155.543 58.8665 155.319 58.1385 155.079 57.3225C154.855 56.4905 154.615 55.5385 154.359 54.4665C154.583 54.2425 154.879 54.0505 155.247 53.8905C155.631 53.7145 156.047 53.6265 156.495 53.6265C157.055 53.6265 157.519 53.7465 157.887 53.9865C158.255 54.2105 158.527 54.6425 158.703 55.2825L160.599 61.8825H160.695C160.887 61.3385 161.071 60.7465 161.247 60.1065C161.439 59.4665 161.623 58.8105 161.799 58.1385C161.975 57.4505 162.135 56.7705 162.279 56.0985C162.439 55.4105 162.575 54.7385 162.687 54.0825C163.263 53.7785 163.895 53.6265 164.583 53.6265C165.143 53.6265 165.607 53.7465 165.975 53.9865C166.343 54.2265 166.527 54.6425 166.527 55.2345C166.527 55.6665 166.471 56.1705 166.359 56.7465C166.247 57.3065 166.095 57.9065 165.903 58.5465C165.727 59.1865 165.511 59.8505 165.255 60.5385C165.015 61.2105 164.759 61.8745 164.487 62.5305C164.215 63.1865 163.935 63.8105 163.647 64.4025C163.359 64.9785 163.079 65.4985 162.807 65.9625C162.359 66.7465 161.943 67.3865 161.559 67.8825C161.175 68.3785 160.807 68.7625 160.455 69.0345C160.103 69.3225 159.751 69.5145 159.399 69.6105C159.047 69.7225 158.679 69.7785 158.295 69.7785C157.623 69.7785 157.079 69.5785 156.663 69.1785C156.247 68.7785 155.999 68.2585 155.919 67.6185C156.431 67.2185 156.943 66.7705 157.455 66.2745C157.967 65.7945 158.431 65.2985 158.847 64.7865C158.575 64.7065 158.279 64.5225 157.959 64.2345C157.655 63.9305 157.319 63.3705 156.951 62.5545ZM172.486 51.6105C172.486 51.9785 172.478 52.5145 172.462 53.2185C172.446 53.9065 172.414 54.6585 172.366 55.4745C172.318 56.2745 172.254 57.0825 172.174 57.8985C172.094 58.6985 171.998 59.3945 171.886 59.9865C171.822 60.0345 171.726 60.0825 171.598 60.1305C171.47 60.1785 171.334 60.2185 171.19 60.2505C171.046 60.2825 170.902 60.3065 170.758 60.3225C170.614 60.3385 170.486 60.3465 170.374 60.3465C169.91 60.3465 169.518 60.2745 169.198 60.1305C168.894 59.9865 168.702 59.7065 168.622 59.2905C168.542 58.9225 168.47 58.3625 168.406 57.6105C168.358 56.8585 168.31 56.0425 168.262 55.1625C168.214 54.2825 168.174 53.4105 168.142 52.5465C168.126 51.6825 168.118 50.9465 168.118 50.3385C168.438 50.1625 168.798 50.0265 169.198 49.9305C169.614 49.8185 170.022 49.7625 170.422 49.7625C171.078 49.7625 171.582 49.9145 171.934 50.2185C172.302 50.5225 172.486 50.9865 172.486 51.6105ZM168.07 63.7065C168.07 63.0505 168.27 62.5145 168.67 62.0985C169.086 61.6665 169.654 61.4505 170.374 61.4505C171.094 61.4505 171.654 61.6665 172.054 62.0985C172.47 62.5145 172.678 63.0505 172.678 63.7065C172.678 64.3625 172.47 64.9065 172.054 65.3385C171.654 65.7545 171.094 65.9625 170.374 65.9625C169.654 65.9625 169.086 65.7545 168.67 65.3385C168.27 64.9065 168.07 64.3625 168.07 63.7065Z" fill="black"/>
<g filter="url(#filter0_d_32_56)">
<rect x="88" width="76" height="21" rx="10" fill="#54BA5E"/>
</g>
<path d="M108.93 15.14C107.897 15.14 107.09 14.8567 106.51 14.29C105.93 13.7233 105.64 12.92 105.64 11.88V8H107.62V11.82C107.62 12.42 107.737 12.85 107.97 13.11C108.21 13.37 108.537 13.5 108.95 13.5C109.363 13.5 109.687 13.37 109.92 13.11C110.153 12.85 110.27 12.42 110.27 11.82V8H112.22V11.88C112.22 12.92 111.93 13.7233 111.35 14.29C110.77 14.8567 109.963 15.14 108.93 15.14ZM117.001 9.49C117.421 9.49 117.801 9.57667 118.141 9.75C118.481 9.91667 118.748 10.1767 118.941 10.53C119.141 10.8833 119.241 11.34 119.241 11.9V15H117.341V12.21C117.341 11.8233 117.261 11.5433 117.101 11.37C116.948 11.19 116.731 11.1 116.451 11.1C116.251 11.1 116.068 11.1467 115.901 11.24C115.735 11.3267 115.605 11.4633 115.511 11.65C115.418 11.8367 115.371 12.08 115.371 12.38V15H113.471V9.58H115.281V11.12L114.931 10.67C115.138 10.2767 115.421 9.98333 115.781 9.79C116.141 9.59 116.548 9.49 117.001 9.49ZM120.434 15V7.58H122.334V15H120.434ZM126.289 15.09C125.696 15.09 125.169 14.97 124.709 14.73C124.249 14.49 123.886 14.16 123.619 13.74C123.359 13.3133 123.229 12.8267 123.229 12.28C123.229 11.7333 123.359 11.25 123.619 10.83C123.886 10.41 124.249 10.0833 124.709 9.85C125.169 9.61 125.696 9.49 126.289 9.49C126.882 9.49 127.409 9.61 127.869 9.85C128.336 10.0833 128.699 10.41 128.959 10.83C129.219 11.25 129.349 11.7333 129.349 12.28C129.349 12.8267 129.219 13.3133 128.959 13.74C128.699 14.16 128.336 14.49 127.869 14.73C127.409 14.97 126.882 15.09 126.289 15.09ZM126.289 13.58C126.509 13.58 126.702 13.53 126.869 13.43C127.042 13.33 127.179 13.1833 127.279 12.99C127.379 12.79 127.429 12.5533 127.429 12.28C127.429 12.0067 127.379 11.7767 127.279 11.59C127.179 11.3967 127.042 11.25 126.869 11.15C126.702 11.05 126.509 11 126.289 11C126.076 11 125.882 11.05 125.709 11.15C125.542 11.25 125.406 11.3967 125.299 11.59C125.199 11.7767 125.149 12.0067 125.149 12.28C125.149 12.5533 125.199 12.79 125.299 12.99C125.406 13.1833 125.542 13.33 125.709 13.43C125.882 13.53 126.076 13.58 126.289 13.58ZM132.999 15.09C132.399 15.09 131.862 14.97 131.389 14.73C130.922 14.49 130.556 14.16 130.289 13.74C130.022 13.3133 129.889 12.8267 129.889 12.28C129.889 11.7333 130.022 11.25 130.289 10.83C130.556 10.41 130.922 10.0833 131.389 9.85C131.862 9.61 132.399 9.49 132.999 9.49C133.612 9.49 134.142 9.62 134.589 9.88C135.036 10.14 135.352 10.5067 135.539 10.98L134.069 11.73C133.942 11.4767 133.786 11.2933 133.599 11.18C133.412 11.06 133.209 11 132.989 11C132.769 11 132.569 11.05 132.389 11.15C132.209 11.25 132.066 11.3967 131.959 11.59C131.859 11.7767 131.809 12.0067 131.809 12.28C131.809 12.56 131.859 12.7967 131.959 12.99C132.066 13.1833 132.209 13.33 132.389 13.43C132.569 13.53 132.769 13.58 132.989 13.58C133.209 13.58 133.412 13.5233 133.599 13.41C133.786 13.29 133.942 13.1033 134.069 12.85L135.539 13.6C135.352 14.0733 135.036 14.44 134.589 14.7C134.142 14.96 133.612 15.09 132.999 15.09ZM137.815 14L137.865 11.73L140.075 9.58H142.325L139.875 12.11L138.905 12.89L137.815 14ZM136.235 15V7.58H138.135V15H136.235ZM140.215 15L138.555 12.92L139.735 11.46L142.515 15H140.215ZM143.23 12.45L142.86 8H145.12L144.74 12.45H143.23ZM143.99 15.09C143.657 15.09 143.384 14.9867 143.17 14.78C142.957 14.5733 142.85 14.3267 142.85 14.04C142.85 13.7467 142.957 13.5033 143.17 13.31C143.384 13.11 143.657 13.01 143.99 13.01C144.324 13.01 144.594 13.11 144.8 13.31C145.014 13.5033 145.12 13.7467 145.12 14.04C145.12 14.3267 145.014 14.5733 144.8 14.78C144.594 14.9867 144.324 15.09 143.99 15.09Z" fill="white"/>
<defs>
<filter id="filter0_d_32_56" x="84" y="0" width="84" height="29" filterUnits="userSpaceOnUse" color-interpolation-filters="sRGB">
<feFlood flood-opacity="0" result="BackgroundImageFix"/>
<feColorMatrix in="SourceAlpha" type="matrix" values="0 0 0 0 0 0 0 0 0 0 0 0 0 0 0 0 0 0 127 0" result="hardAlpha"/>
<feOffset dy="4"/>
<feGaussianBlur stdDeviation="2"/>
<feComposite in2="hardAlpha" operator="out"/>
<feColorMatrix type="matrix" values="0 0 0 0 0 0 0 0 0 0 0 0 0 0 0 0 0 0 0.25 0"/>
<feBlend mode="normal" in2="BackgroundImageFix" result="effect1_dropShadow_32_56"/>
<feBlend mode="normal" in="SourceGraphic" in2="effect1_dropShadow_32_56" result="shape"/>
</filter>
</defs>
</svg>
