<svg width="100" height="111" viewBox="0 0 100 111" fill="none" xmlns="http://www.w3.org/2000/svg">
<g clip-path="url(#clip0_1_2301)">
<path d="M86.3389 98.4414L88.857 96.7997L89.6384 91.8171L86.3389 92.9404V98.4414Z" fill="#542708"/>
<path d="M83.184 96.8003L86.3389 98.442V92.9409L82.7788 93.949L83.184 96.8003Z" fill="#703208"/>
<path d="M64.9785 110.998L67.4966 109.356L68.2781 104.374L64.9785 105.497V110.998Z" fill="#542708"/>
<path d="M61.8237 109.357L64.9785 110.999V105.498L61.4185 106.506L61.8237 109.357Z" fill="#703208"/>
<path d="M0.0289459 41.7605L60.8104 76.6964V68.488L14.1534 41.7605H0.0289459Z" fill="#93561B"/>
<path d="M16.5847 43.1717L14.1534 41.7605H0.0289459L6.54125 45.5046C9.66715 43.719 13.0825 43.0853 16.5847 43.1717Z" fill="url(#paint0_linear_1_2301)"/>
<path d="M37.453 60.4237C38.1187 59.1564 39.1606 57.8316 40.4342 56.8235L25.9624 48.5576C22.1997 49.3928 18.3502 49.6808 14.5297 50.1416L36.6136 62.8142C36.8162 62.0077 37.0767 61.2013 37.453 60.4237Z" fill="url(#paint1_linear_1_2301)"/>
<path d="M56.7874 66.1843C57.0479 68.7188 56.7584 71.2821 55.948 73.903L60.8105 76.6967V68.4884L56.7874 66.1843Z" fill="#FFFDE1"/>
<path d="M0.0289459 41.7605L14.1534 42.5381L60.8104 69.5537V68.488L14.1534 41.7605H0.0289459Z" fill="#FFF8BB"/>
<path d="M60.8104 76.6964V68.488L59.3343 74.1907L0.0289459 41.7605L60.8104 76.6964Z" fill="url(#paint2_linear_1_2301)"/>
<path d="M99.8263 54.145L86.7728 53.7994L60.8104 68.488V76.6964L99.8263 54.145Z" fill="#722F09"/>
<path d="M98.1766 54.0874L86.8017 53.7994L83.4153 55.7003C88.2779 54.9226 93.2562 54.4906 98.1766 54.0874Z" fill="#FFFDE1"/>
<path d="M86.7727 54.0583L60.8103 68.7182V76.9265L99.8262 54.3751L62.8653 73.8736V68.7182L86.7727 54.0583Z" fill="#441D02"/>
<path d="M92.2434 90.5501L98.9294 60.3376L60.8107 76.6967L60.7239 108.781L92.2434 90.5501Z" fill="#A06335"/>
<g opacity="0.28">
<path d="M73.7485 99.5058C70.1016 102.012 65.3548 106.044 60.7239 106.044V108.751L92.2434 90.5199L98.9294 60.3073L95.7456 61.661C96.2376 72.4039 92.3302 81.6491 85.8469 88.7054C82.3158 92.6223 78.0611 96.5681 73.7485 99.5058Z" fill="#592A0A"/>
</g>
<g opacity="0.41">
<path d="M63.9943 106.881C63.9943 106.794 63.9943 106.679 64.0232 106.593C64.9784 101.61 65.2678 96.4259 67.3228 91.7313C69.2331 87.3823 72.5037 83.955 76.2085 81.046C82.4024 76.1786 89.3488 72.1752 96.8742 69.7271L98.9581 60.3667L60.8394 76.697L60.7526 108.782L63.9943 106.881Z" fill="#592A0A"/>
</g>
<path d="M99.7974 63.563L99.8263 54.145L60.8104 76.6964L60.7815 86.4024L99.7974 63.563Z" fill="url(#paint3_linear_1_2301)"/>
<g opacity="0.24">
<path d="M66.5702 73.3552L60.8104 76.6961L60.7815 86.4021L68.0753 82.1395C67.4385 79.2306 66.7439 76.3217 66.5702 73.3552Z" fill="#824216"/>
<path d="M88.9436 60.4234C88.4226 64.3116 87.2359 68.0269 85.9045 71.7135L99.8264 63.5627L99.8553 54.1159L88.9436 60.4234Z" fill="#824216"/>
</g>
<g opacity="0.28">
<path d="M82.8944 66.8464C88.4515 64.3407 94.0087 61.8926 99.8263 60.3661L99.8553 54.145L70.4197 71.1378C70.4776 71.2242 70.5065 71.3106 70.5355 71.397C74.6454 69.6977 78.7554 68.2 82.8944 66.8464Z" fill="#592A0A"/>
<path d="M63.8205 74.94L60.8104 76.6968L60.7815 86.4029L61.6787 85.8844C62.1708 82.1979 62.8365 78.5401 63.8205 74.94Z" fill="#592A0A"/>
</g>
<path d="M99.7974 63.563L99.8263 54.145L98.9291 63.1022L60.7815 86.4024L99.7974 63.563Z" fill="url(#paint4_linear_1_2301)"/>
<path d="M8.27767 78.6544L60.7234 108.78L60.8102 76.6959L0.954948 47.8658L8.27767 78.6544Z" fill="#DB854B"/>
<path d="M0.954948 47.8658L8.27767 78.6544L60.7234 108.78L60.7523 99.6505C56.1214 99.5641 51.201 98.412 48.1329 97.548C41.8522 95.8199 24.9492 86.4019 24.3413 86.1427C18.9578 83.6658 12.1561 80.2096 9.14598 74.795C5.64381 68.4875 3.21255 57.3991 8.07506 51.2932L0.954948 47.8658Z" fill="#C9753D"/>
<path d="M3.1836 57.2262C12.8797 60.3656 28.1908 70.9644 31.5772 73.643C40.1445 80.3824 45.557 86.3155 50.2458 93.6886C52.4455 97.1448 53.4875 100.227 56.0345 106.102L60.7234 108.809L60.8102 76.7247L0.954948 47.8658L3.1836 57.2262Z" fill="#C9753D"/>
<path d="M0 51.5241L60.7815 86.4024L60.8104 76.6964L0.0289436 41.7605L0 51.5241Z" fill="url(#paint5_linear_1_2301)"/>
<g opacity="0.65">
<path d="M55.4269 82.226C54.2692 78.6258 52.8799 75.0832 51.7511 71.4831L48.191 69.4382C47.3227 72.4335 45.8466 74.824 43.8784 76.6961L55.8321 83.5508C55.6874 83.1188 55.5716 82.658 55.4269 82.226Z" fill="url(#paint6_linear_1_2301)"/>
</g>
<g opacity="0.67">
<path d="M6.36758 55.1819L17.2214 61.4029C14.2113 57.2555 11.8958 52.6761 11.3459 48.2696L7.32272 45.9655C7.00434 49.0472 6.59913 52.1289 6.36758 55.1819Z" fill="url(#paint7_linear_1_2301)"/>
</g>
<path opacity="0.51" d="M24.8334 64.2545C18.0606 60.4527 3.84936 53.742 0.0288086 48.4138V51.5531L60.7813 86.4026L60.8103 81.2472C55.7741 79.7783 36.0056 70.5043 24.8334 64.2545Z" fill="url(#paint8_linear_1_2301)"/>
<path d="M0 51.5241L60.7815 86.4024L60.6657 85.596L0 51.1209V51.5241Z" fill="url(#paint9_linear_1_2301)"/>
<path d="M59.2475 76.9556L60.7815 86.4024L60.8104 76.6964L0.0289436 41.7605L0 51.5241L0.723589 42.7397L59.2475 76.9556Z" fill="url(#paint10_linear_1_2301)"/>
<path d="M3.12573 56.9685L3.35728 57.9765L27.5541 72.8668L60.7813 91.7604L60.7234 90.7523L25.5859 70.2746L3.12573 56.9685Z" fill="#93561B"/>
<path d="M5.87546 68.4888L47.8147 93.1138L60.7814 99.2197L60.7235 98.4421L5.67285 67.6823L5.87546 68.4888Z" fill="#93561B"/>
<path d="M96.6426 70.7349L96.8163 69.8708L60.7236 90.7517L60.7815 91.7598L96.6426 70.7349Z" fill="#602609"/>
<path d="M69.4359 94.295L94.7904 79.0303L94.9352 78.3103L60.7239 98.4423L60.7818 99.22L69.4359 94.295Z" fill="#602609"/>
<path d="M14.3849 85.1344L17.1635 83.7231L15.5716 82.8015L14.2981 83.3775L14.3849 85.1344Z" fill="url(#paint11_linear_1_2301)"/>
<path d="M10.275 82.803L14.3849 85.1359L14.2981 83.379L10.1592 80.9597L10.275 82.803Z" fill="url(#paint12_linear_1_2301)"/>
<path d="M10.2749 81.0163L14.2981 83.378L13.0825 70.475L8.53833 67.9693L10.2749 81.0163Z" fill="url(#paint13_linear_1_2301)"/>
<path d="M9.31982 73.8445L10.275 81.016L14.2981 83.3777L13.8929 79.2591C12.1274 77.6174 10.5355 75.8317 9.31982 73.8445Z" fill="url(#paint14_linear_1_2301)"/>
<path d="M14.2981 83.3776L15.5717 82.8016L14.6455 69.9275L13.0825 70.4747L14.2981 83.3776Z" fill="url(#paint15_linear_1_2301)"/>
<path d="M13.0825 70.475L14.6454 69.9278L10.0723 67.4509L8.53833 67.9693L13.0825 70.475Z" fill="url(#paint16_linear_1_2301)"/>
<path d="M10.246 69.899C9.34875 70.187 8.97248 71.5407 9.40664 72.8655C9.84079 74.2192 10.9406 75.0544 11.8668 74.7664C12.7641 74.4784 13.1404 73.1247 12.7062 71.7999C12.2431 70.475 11.1433 69.611 10.246 69.899Z" fill="#93561B"/>
<path d="M10.1302 70.1867C9.37765 70.4459 9.08822 71.6267 9.49343 72.8652C9.89864 74.1036 10.8248 74.8813 11.6063 74.6508C12.3588 74.3916 12.6483 73.2108 12.2431 71.9723C11.8089 70.7339 10.8827 69.9562 10.1302 70.1867Z" fill="url(#paint17_radial_1_2301)"/>
<path d="M2.66312 46.1678C1.76586 46.4558 1.3896 47.8095 1.82375 49.1631C2.25791 50.5168 3.35776 51.352 4.28395 51.064C5.18121 50.776 5.55747 49.4223 5.12332 48.0687C4.66022 46.715 3.58931 45.8798 2.66312 46.1678Z" fill="#93561B"/>
<path d="M2.5473 46.4561C1.79477 46.7154 1.50533 47.8962 1.91054 49.1347C2.31575 50.3443 3.24194 51.1507 4.02342 50.8915C4.77595 50.6611 5.06539 49.4515 4.66018 48.213C4.25497 47.0034 3.29983 46.2257 2.5473 46.4561Z" fill="url(#paint18_radial_1_2301)"/>
<path d="M16.5848 54.1733C15.6875 54.4613 15.3113 55.815 15.7454 57.1687C16.1796 58.5223 17.2794 59.3576 18.2056 59.0695C19.1029 58.7815 19.4791 57.4279 19.045 56.0742C18.5819 54.7493 17.482 53.8853 16.5848 54.1733Z" fill="#93561B"/>
<path d="M16.4692 54.4899C15.7167 54.7203 15.4272 55.9299 15.8324 57.1684C16.2376 58.3781 17.1928 59.1845 17.9453 58.9541C18.6978 58.7237 18.9873 57.514 18.5821 56.2756C18.1769 55.0083 17.2217 54.2307 16.4692 54.4899Z" fill="url(#paint19_radial_1_2301)"/>
<path d="M42.6919 69.2361C41.7947 69.5242 41.4184 70.8778 41.8526 72.2027C42.2867 73.5563 43.3866 74.3916 44.3128 74.1036C45.21 73.8155 45.5863 72.4619 45.1521 71.137C44.689 69.7834 43.5892 68.9193 42.6919 69.2361Z" fill="#93561B"/>
<path d="M42.5764 69.5236C41.8239 69.7828 41.5344 70.9637 41.9397 72.2021C42.3449 73.4406 43.2711 74.2182 44.0525 73.9878C44.8051 73.7286 45.0945 72.5477 44.6893 71.3093C44.2841 70.0708 43.3289 69.2644 42.5764 69.5236Z" fill="url(#paint20_radial_1_2301)"/>
<path d="M56.6136 77.244C55.7163 77.5321 55.34 78.8857 55.7742 80.2106C56.2083 81.5642 57.3082 82.3995 58.2344 82.1115C59.1316 81.8234 59.5079 80.4698 59.0738 79.1161C58.6107 77.7913 57.5108 76.9272 56.6136 77.244Z" fill="#93561B"/>
<path d="M56.498 77.5314C55.7455 77.7906 55.4561 78.9715 55.8613 80.2099C56.2665 81.4484 57.1927 82.226 57.9452 81.9956C58.6978 81.7364 58.9872 80.5555 58.582 79.3171C58.2057 78.0786 57.2506 77.2722 56.498 77.5314Z" fill="url(#paint21_radial_1_2301)"/>
<path d="M63.0681 79.1444C62.605 80.4981 62.9812 81.8229 63.9074 82.1397C64.8047 82.4277 65.9045 81.5925 66.3676 80.2389C66.8018 78.8852 66.4255 77.5603 65.5283 77.2723C64.6021 76.9267 63.5022 77.7907 63.0681 79.1444Z" fill="#93561B"/>
<path d="M63.5312 79.2888C63.126 80.5273 63.4155 81.7081 64.168 81.9673C64.9205 82.2266 65.8467 81.4201 66.2809 80.1817C66.6861 78.9432 66.3967 77.7624 65.6441 77.5032C64.8626 77.2727 63.9364 78.0792 63.5312 79.2888Z" fill="url(#paint22_radial_1_2301)"/>
<path d="M82.8652 70.015C83.2993 68.6614 82.952 67.3365 82.0258 67.0485C81.1286 66.7605 80.0287 67.5957 79.5656 68.9494C79.1315 70.3031 79.4788 71.6279 80.405 71.9447C81.3312 72.2039 82.4021 71.3399 82.8652 70.015Z" fill="#93561B"/>
<path d="M82.7784 69.9862C83.1836 68.7478 82.8941 67.5669 82.1416 67.3077C81.3891 67.0773 80.4339 67.8549 80.0287 69.0934C79.6235 70.3318 79.9129 71.5127 80.6655 71.7719C81.418 72.0023 82.3731 71.1959 82.7784 69.9862Z" fill="url(#paint23_radial_1_2301)"/>
<path d="M97.8874 61.3161C98.3216 59.9624 97.9453 58.6376 97.0481 58.3495C96.1508 58.0615 95.051 58.8968 94.5879 60.2504C94.1537 61.6041 94.501 62.9289 95.4272 63.217C96.3534 63.5338 97.4533 62.6697 97.8874 61.3161Z" fill="#93561B"/>
<path d="M97.8006 61.2873C98.2058 60.0488 97.9164 58.868 97.1638 58.6088C96.4113 58.3496 95.4562 59.156 95.0799 60.3944C94.6747 61.6041 94.9641 62.8137 95.7167 63.073C96.4402 63.3034 97.3954 62.5257 97.8006 61.2873Z" fill="url(#paint24_radial_1_2301)"/>
<path d="M29.783 69.2652C35.5138 72.2893 37.2794 69.6972 37.2794 69.6972V64.4842L24.631 57.2263L24.5153 62.7849C24.5153 62.7849 24.3995 66.4139 29.783 69.2652Z" fill="#845203"/>
<path d="M29.1173 68.9486C34.8481 71.9727 36.0059 70.5038 36.0059 70.5038V65.2908L23.3575 58.0329L23.2418 63.6203C23.2128 63.5915 23.7049 66.0972 29.1173 68.9486Z" fill="url(#paint25_linear_1_2301)"/>
<path opacity="0.32" d="M32.6772 63.3913C34.0375 65.6378 35.0795 68.1723 35.5426 70.7644C35.8899 70.6492 36.0057 70.5052 36.0057 70.5052V65.2922L32.6772 63.3913Z" fill="#FFF7AB"/>
<path opacity="0.22" d="M28.6831 64.5132C27.9017 62.4395 26.7729 60.625 25.3836 59.2137L23.3286 58.0329L23.2128 63.6203C23.2128 63.6203 23.7049 66.1261 29.0884 68.9774C29.1752 69.0062 29.2331 69.035 29.3199 69.0926C29.3199 67.4221 29.1752 65.8092 28.6831 64.5132Z" fill="#FFF7AB"/>
<path opacity="0.32" d="M29.0594 64.2545C28.278 62.1809 27.4675 60.6256 25.4125 59.2143L23.9943 58.4079C25.3836 60.136 26.6282 61.9216 27.236 64.1393C27.4965 65.061 27.5254 66.5298 27.3518 67.9411C27.8727 68.2579 28.4516 68.6035 29.0884 68.9492C29.1752 68.978 29.2331 69.0068 29.3199 69.0644C29.6962 67.5379 29.5515 65.5218 29.0594 64.2545Z" fill="#FFF7AB"/>
<path d="M30.0434 62.411C31.809 63.4478 34.385 64.2254 35.4848 65.6367C35.6006 65.7807 35.919 66.6159 36.0058 66.8175V65.2623L23.3575 58.0044L23.2417 63.5918C23.2417 63.5918 23.3285 64.0238 23.8495 64.7727C23.5022 63.3038 23.4443 60.4525 24.0521 59.3868C24.5441 58.5228 28.3357 61.4029 30.0434 62.411Z" fill="#FFF8D4"/>
<path d="M36.0058 65.2911L37.2793 64.4846L24.631 57.1979L23.3285 58.0044L36.0058 65.2911Z" fill="url(#paint26_linear_1_2301)"/>
<path d="M25.4993 63.4473C26.0203 63.1017 27.0622 62.9577 26.8017 62.2089C26.657 61.8056 25.9045 61.0856 24.5152 61.2584C22.9522 61.604 21.8234 62.4681 21.534 63.7641C21.1867 65.2906 23.0101 66.7307 23.9942 67.3643C26.686 69.0636 29.4935 69.6972 32.0116 69.1212C33.2562 68.8331 34.848 68.0555 34.7033 67.0187C34.5586 65.9818 32.4168 65.4346 31.3459 65.953C30.1302 66.529 28.5673 66.7019 27.2648 66.2122C26.2229 65.7514 23.9363 64.4842 25.4993 63.4473Z" fill="url(#paint27_linear_1_2301)"/>
<path d="M26.4256 67.6813C24.5443 66.9612 22.4314 65.694 22.0551 64.1675C21.6499 62.6123 23.7917 61.6618 25.3547 61.2586C25.1231 61.2298 24.8626 61.2298 24.5442 61.2586C22.9813 61.6042 21.8525 62.4682 21.5631 63.7643C21.2157 65.2908 23.0392 66.7308 24.0233 67.3645C26.715 69.0637 29.5225 69.6974 32.0406 69.1213C33.1405 68.8621 34.5008 68.2285 34.7034 67.3645C34.4429 66.6732 33.9799 66.9036 33.8062 67.0765C32.1854 68.4877 27.6702 68.1421 26.4256 67.6813Z" fill="#F49C1C"/>
<path d="M29.0593 68.5456C24.8046 68.344 22.1129 65.6943 21.563 64.5135C21.8234 65.7519 23.2127 66.8176 24.0232 67.336C26.7149 69.0353 29.5224 69.6689 32.0405 69.0929C33.2851 68.8048 34.877 68.0272 34.7323 66.9904C34.6454 66.2991 33.6324 65.8095 32.6773 65.7231C32.7931 65.8095 32.822 65.9823 32.9957 66.0687C34.6454 66.76 33.8061 68.776 29.0593 68.5456Z" fill="#F49C1C"/>
<path d="M24.8914 63.1594C22.9233 64.5707 26.628 66.6156 27.7279 66.846C28.8856 67.0764 29.8697 67.134 30.9696 66.6732C31.751 66.3564 32.793 66.0395 33.7771 66.0107C33.0246 65.6651 31.9826 65.6075 31.3458 65.8955C30.1302 66.4716 28.5672 66.6444 27.2648 66.1548C26.1939 65.7515 23.9073 64.4843 25.4703 63.4474C25.9913 63.1018 27.0332 62.9578 26.7727 62.209C26.6859 62.0074 26.4544 61.7194 26.0492 61.489C26.0492 61.5178 26.0202 61.5754 26.0492 61.6042C26.5701 62.1802 25.615 62.641 24.8914 63.1594Z" fill="#F49C1C"/>
<path d="M24.1389 62.7566C24.3705 62.555 25.8177 61.5181 24.8046 61.5469V61.6045C23.3864 61.7773 21.6498 63.5342 22.547 64.9167C22.9522 65.5503 23.7916 66.1263 24.3994 66.5007C25.0362 66.9039 25.9913 67.48 26.7728 67.336C26.4255 66.8463 25.6151 66.4431 25.0941 66.0399C24.602 65.6079 24.0232 65.1759 23.6758 64.5998C23.1838 63.7934 23.5022 63.275 24.1389 62.7566Z" fill="#FFF8D4"/>
<path d="M27.3227 68.3728C23.4732 67.5664 21.7656 65.1183 21.534 64.5135C21.7945 65.7519 23.1838 66.8176 23.9942 67.336C26.686 69.0353 29.4935 69.6689 32.0116 69.0929C33.2562 68.8048 34.848 68.0272 34.7033 66.9904C34.6165 66.2991 33.6035 65.8095 32.6483 65.7231C32.6773 65.7519 34.6744 66.1839 34.0087 67.336C33.2272 68.7184 30.275 68.9777 27.3227 68.3728Z" fill="#845203"/>
<path d="M52.4166 105.266L56.4398 107.599L55.8609 94.9556L51.8667 92.8531L52.4166 105.266Z" fill="url(#paint28_linear_1_2301)"/>
<path d="M52.1562 99.5642L52.4167 105.238L56.4109 107.6L56.2952 104.777C54.8769 103.107 53.4008 101.379 52.1562 99.5642Z" fill="url(#paint29_linear_1_2301)"/>
<path d="M56.4398 107.599L57.7133 107.052L57.2502 94.4948L55.8609 94.9556L56.4398 107.599Z" fill="url(#paint30_linear_1_2301)"/>
<path d="M51.8667 92.8531L55.803 95.0132L57.2502 94.4948L53.3717 92.3347L51.8667 92.8531Z" fill="url(#paint31_linear_1_2301)"/>
<path d="M53.169 94.6383C52.2718 94.9264 51.8955 96.28 52.3297 97.6049C52.7638 98.9585 53.8637 99.7938 54.7899 99.5057C55.6871 99.2177 56.0634 97.8641 55.6292 96.5392C55.1661 95.1856 54.0663 94.3215 53.169 94.6383Z" fill="#93561B"/>
<path d="M53.0535 94.927C52.301 95.1574 52.0116 96.3671 52.4168 97.6055C52.822 98.8152 53.7771 99.6216 54.5297 99.3912C55.2822 99.132 55.5716 97.9512 55.1664 96.7127C54.7323 95.4454 53.8061 94.6678 53.0535 94.927Z" fill="url(#paint32_radial_1_2301)"/>
<path d="M56.5266 109.356L59.3052 107.945L57.6844 107.023L56.4109 107.599L56.5266 109.356Z" fill="url(#paint33_linear_1_2301)"/>
<path d="M52.3877 107.024L56.5267 109.357L56.4109 107.6L52.2719 105.18L52.3877 107.024Z" fill="url(#paint34_linear_1_2301)"/>
<path opacity="0.46" d="M60.8971 60.4821L60.4919 60.2517L60.3472 65.2055L55.3399 63.0454L60.9839 66.2712L60.8971 60.4821Z" fill="#F7FFC7"/>
<path d="M61.4472 65.2632L60.9841 60.4246L60.8973 60.4822L60.9841 66.2712L62.3734 65.4648L61.4472 65.2632Z" fill="#079A9E"/>
<path d="M0.17366 41.7613L60.8973 76.4668L60.9841 66.2711L0.17366 31.364V41.7613Z" fill="url(#paint35_linear_1_2301)"/>
<path d="M19.5369 42.4813L0.17366 31.364V41.7613L12.2721 48.6736C13.3719 45.6206 16.2663 43.835 19.5369 42.4813Z" fill="url(#paint36_linear_1_2301)"/>
<g opacity="0.69">
<path d="M14.8773 39.8025C14.9062 39.8313 14.9352 39.8889 14.9641 39.9465C18.1479 44.1515 22.721 47.982 26.5705 51.179C32.6197 56.2192 39.2478 60.9138 45.9627 65.0036C50.8252 67.9701 55.8035 70.5046 60.9265 72.8087L60.9844 66.2708L14.8773 39.8025Z" fill="#FFF797"/>
</g>
<path d="M60.9552 68.517L60.9841 66.2705L19.4791 42.4519C31.9538 53.166 46.4834 60.7983 60.9552 68.517Z" fill="#FFFDD7"/>
<path d="M0.17366 41.7613L0.520983 41.9629C0.520983 41.7037 1.15774 34.9066 1.76556 34.561C3.01013 33.8697 51.1143 60.9141 56.5557 63.7942L0.17366 31.364V41.7613Z" fill="#F9B438"/>
<path d="M26.136 56.5936L60.8973 76.4665L60.9841 66.2708L58.8133 65.0324C60.8683 67.0773 59.508 73.0679 59.3054 73.1255C57.3661 73.788 29.4645 57.6017 26.136 56.5936Z" fill="#FFF797"/>
<path d="M100 43.7195L60.9841 66.2709L60.8973 76.4665L99.8263 53.9151L100 43.7195Z" fill="url(#paint37_linear_1_2301)"/>
<g opacity="0.51">
<path opacity="0.42" d="M62.518 66.2705C64.3704 64.6865 67.1779 63.16 69.0593 61.5759L60.9551 66.2705L60.8682 76.4662L99.8263 53.9148C99.0159 54.1164 66.0781 71.7428 62.3733 73.6436C62.1128 73.7877 61.4761 71.5988 61.505 71.2531C61.7076 69.4099 61.0419 67.5666 62.518 66.2705Z" fill="#592A0A"/>
</g>
<path d="M0.17366 31.364L60.9841 66.2711L60.8973 60.4821L10.3618 31.3064L0.17366 31.364Z" fill="url(#paint38_linear_1_2301)"/>
<path d="M89.6672 43.4031L60.8973 60.4822L60.9841 66.2713L100 43.7199L89.6672 43.4031Z" fill="#722F09"/>
<path d="M12.0984 9.04276C-0.607812 23.8754 6.3097 33.783 6.3097 33.783L56.6425 62.4979L83.3285 31.3061L32.1563 1.90005C31.8379 1.72724 20.4342 -0.720862 12.0984 9.04276Z" fill="#DB854B"/>
<path d="M92.5036 34.3019L80.8683 28.5129C80.8683 28.5129 73.9508 27.332 65.5861 34.3019C53.5456 44.3824 51.3748 60.1079 51.3748 60.1079L60.9841 65.8969L92.5036 34.3019Z" fill="url(#paint39_linear_1_2301)"/>
<path d="M82.634 37.4418C85.6441 35.6561 88.8279 34.4464 92.1275 34.1008L80.8685 28.4846C80.8685 28.4846 78.6398 28.1102 75.1666 29.0606C77.9162 31.6527 80.4922 34.3888 82.634 37.4418Z" fill="url(#paint40_linear_1_2301)"/>
<path d="M72.5905 46.3695C69.4646 42.7982 67.207 38.0748 66.5703 33.5242C66.2519 33.7834 65.9335 34.0138 65.5862 34.3018C58.6397 40.1197 54.9928 47.8096 53.1405 53.253C57.7714 52.5042 62.7787 52.7346 67.728 53.5698C69.1173 51.0641 70.7381 48.616 72.5905 46.3695Z" fill="#FFF797"/>
<path d="M60.3763 42.7114C62.1708 39.7161 64.1679 36.8072 66.1071 33.8983C65.9334 34.0423 65.7598 34.1575 65.5861 34.3015C59.5658 39.3417 56.0347 45.7644 53.9797 50.9486C55.8032 47.9821 57.974 45.2459 60.3763 42.7114Z" fill="#FFFDD7"/>
<path d="M51.5192 59.1848C51.4034 59.7608 51.3455 60.1064 51.3455 60.1064L60.9548 65.8955L92.4743 34.3005L88.567 32.3708C83.1545 33.0621 77.8289 34.8766 73.4584 38.1599C68.4222 41.9041 65.1516 47.0307 62.8651 52.7909C61.9968 54.951 61.1574 59.6168 58.5814 60.9129C58.5814 60.9417 58.5814 60.9705 58.5814 60.9993C58.5525 61.2585 58.3209 61.4889 58.0315 61.4025C57.7999 61.3449 57.5684 61.2873 57.3369 61.2297C55.6871 61.3449 54.0373 60.5961 52.4743 59.6744C52.156 59.5016 51.8376 59.3288 51.5192 59.1848Z" fill="#FFF797"/>
<path d="M80.4631 37.2104C81.7945 36.3176 83.1838 35.5687 84.6599 35.0503C84.6889 35.0503 84.6889 35.0503 84.7178 35.0215C84.8625 34.9639 85.0072 34.9063 85.152 34.9063C85.3835 34.8199 85.6151 34.7911 85.8177 34.7047C79.8842 35.3383 74.6744 37.1528 70.3328 40.8682C67.0333 44.2091 64.6599 48.2989 62.8654 52.7343C62.2576 54.2608 61.6208 57.0833 60.4052 59.0706C60.2316 59.5602 60.0579 60.0786 59.8842 60.5682C59.5948 61.4899 58.6686 62.0371 57.7135 61.8067C55.5138 61.2307 53.5456 60.2226 51.5195 59.2146C51.4038 59.7618 51.3748 60.0786 51.3748 60.0786L60.9841 65.8677L62.547 64.3124C63.2996 52.9647 70.6802 42.9707 80.4631 37.2104Z" fill="#FFFDD7"/>
<path d="M79.4501 35.8279C66.7149 42.5098 60.6657 56.824 60.9551 65.8964L99.4501 43.6331C97.0478 36.2887 91.5195 29.4917 79.4501 35.8279Z" fill="url(#paint41_linear_1_2301)"/>
<path d="M80.4342 43.4027C74.2113 47.9533 70.3618 54.8656 69.1462 58.7249L92.5904 44.6123C92.5036 40.1481 86.7728 38.7657 80.4342 43.4027Z" fill="url(#paint42_linear_1_2301)"/>
<path d="M91.1432 45.4478L92.5614 44.5838C92.4746 40.1196 86.7727 38.7371 80.4341 43.3741C78.2633 44.9582 76.4109 46.8303 74.848 48.7311C80.0868 44.5262 87.67 40.2348 91.1432 45.4478Z" fill="#7A4315"/>
<path d="M13.864 15.4655C6.74385 23.357 9.11722 36.3464 9.11722 36.3464L10.5065 36.1736C10.5065 33.4662 11.1433 24.5955 18.0897 15.8399C27.4674 3.97377 38.9001 5.78825 38.9001 5.78825L40.2894 6.59468C40.0868 5.18342 36.5268 3.74336 36.5268 3.74336C27.9016 1.90008 20.9841 7.60272 13.864 15.4655Z" fill="#93561B"/>
<path d="M27.1201 6.76748C31.1722 4.83779 35.8321 4.08896 38.0029 4.43458L29.3777 0.0567876C29.3777 0.0567876 22.6049 -1.12406 14.4139 5.73063C2.60492 15.6095 0.492043 31.1909 0.492043 31.1909L9.11722 36.3176L9.17511 36.26C8.88568 27.2164 13.864 13.1038 27.1201 6.76748Z" fill="url(#paint43_linear_1_2301)"/>
<path opacity="0.62" d="M20.3473 1.92847C18.5238 2.7637 16.5267 4.00216 14.4138 5.75903C10.0723 9.38799 7.06218 13.7658 4.9493 17.8844C7.12006 19.4396 9.4066 20.8509 11.4905 22.5214C11.6353 22.6366 11.78 22.7806 11.9247 22.8958C14.2691 17.4811 18.2054 12.2105 24.0231 8.52395C22.6917 6.36386 21.4182 4.20377 20.3473 1.92847Z" fill="#FFFDD7"/>
<path opacity="0.69" d="M11.4037 18.7492C8.33573 22.7814 5.55714 26.6695 0.955117 28.8008C0.607794 30.2985 0.49202 31.1913 0.49202 31.1913L9.1172 36.318L9.17509 36.2604C8.88565 27.2168 13.8639 13.1042 27.1201 6.76788C31.1722 4.8382 35.8321 4.08936 38.0029 4.43498L35.4558 3.16772C25.4414 4.57899 17.3951 10.8577 11.4037 18.7492Z" fill="#FFF797"/>
<path opacity="0.42" d="M7.67002 35.4242C-0.752554 25.8334 8.48044 11.8072 16.6425 4.98132C20.0289 2.1588 24.7178 0.401922 29.6382 0.200313L29.3777 0.0851079C29.3777 0.0851079 22.6049 -1.09574 14.4139 5.75895C2.6049 15.6378 0.49202 31.2193 0.49202 31.2193L7.72791 35.5394C7.72791 35.4818 7.69897 35.453 7.67002 35.4242Z" fill="url(#paint44_linear_1_2301)"/>
<path d="M33.922 50.4883L35.3113 50.3155C35.3113 47.6081 35.948 38.7374 42.8945 29.9818C52.2722 18.1445 63.4444 19.9013 63.4444 19.9013L64.9205 20.7366C64.7179 19.3253 61.3026 17.8564 61.3026 17.8564C52.7353 16.0132 45.8178 21.7446 38.6977 29.6074C31.5486 37.4989 33.922 50.4883 33.922 50.4883Z" fill="#93561B"/>
<path d="M51.9538 20.9369C56.0059 19.0072 60.6658 18.2584 62.8366 18.604L54.2114 14.2262C54.2114 14.2262 47.4386 13.0454 39.2476 19.9289C27.4386 29.8077 25.3257 45.3892 25.3257 45.3892L33.9509 50.5158L34.0088 50.4582C33.6904 41.357 38.6977 27.2732 51.9538 20.9369Z" fill="url(#paint45_linear_1_2301)"/>
<path d="M51.0564 20.7361C42.8365 25.1138 35.6295 31.9397 32.793 46.3692C32.5326 47.694 32.0116 48.8461 30.6223 48.5293H30.5933L33.9218 50.5165L33.9797 50.4589C33.6903 41.3577 38.6975 27.2739 51.9537 20.9377C56.0058 19.008 60.6657 18.2591 62.8365 18.6048L61.1288 17.7407C57.6266 18.2015 54.2113 19.0368 51.0564 20.7361Z" fill="#FFFDD7"/>
<path d="M30.3909 45.735C28.9147 44.4677 27.3518 43.0276 26.1941 41.3572C25.5284 43.7765 25.3257 45.3317 25.3257 45.3317L33.9509 50.4584L34.0088 50.4008C33.9799 49.7959 34.0088 49.1335 34.0378 48.4711C32.7353 47.6647 31.5197 46.743 30.3909 45.735Z" fill="#FFF797"/>
<path d="M54.2114 14.2269C54.2114 14.2269 52.1275 13.8813 48.8858 14.7165C50.854 16.3582 52.7064 18.0574 54.5009 19.8719C57.8004 18.7199 61.1 18.3167 62.8366 18.5759L54.2114 14.2269Z" fill="url(#paint46_linear_1_2301)"/>
<path opacity="0.69" d="M39.8553 19.4109C39.6527 19.5837 39.4501 19.7277 39.2186 19.9005C34.4429 23.9039 31.2301 28.8577 29.1173 33.3219C31.838 34.2147 34.0956 35.9716 36.7005 37.1237C38.6686 32.5443 41.7656 28.0801 46.165 24.5663C44.2547 22.5502 42.2576 20.6781 39.8553 19.4109Z" fill="#FFF797"/>
<path opacity="0.62" d="M37.1635 29.8661C39.2764 27.0147 40.3473 23.5874 39.8842 19.44C39.8842 19.44 39.8842 19.44 39.8553 19.44C39.6527 19.6128 39.4501 19.7568 39.2185 19.9296C34.4428 23.933 31.2301 28.8868 29.1172 33.351C29.1751 33.3798 29.2041 33.3798 29.233 33.4086C32.0984 32.631 34.9638 31.5077 37.1635 29.8661Z" fill="#FFFDD7"/>
<path d="M23.9655 7.48682C18.5531 10.3957 14.501 15.1479 11.954 20.073C9.40693 24.998 8.88594 29.9806 7.95975 35.6544L9.11749 36.3457L9.17538 36.2881C8.88594 27.2157 13.8642 13.1031 27.1204 6.76679C28.6254 6.04675 30.2173 5.49953 31.7224 5.09631C29.1464 5.47073 26.5705 6.10436 23.9655 7.48682Z" fill="#FFFDD7"/>
<path d="M34.1535 21.0522C36.9032 18.5753 40.8974 17.4809 43.5602 15.0616C40.9842 14.1687 38.4951 14.8312 36.0349 15.2344C36.2085 14.8024 37.1347 13.2183 36.99 12.6711C36.6137 11.2598 35.6297 12.6423 34.9929 11.8358C34.1825 10.799 34.5298 8.37968 32.8511 8.23567V7.97646C24.3996 7.60204 16.7874 17.0201 14.5587 24.0764C16.7295 21.8875 19.537 19.5546 22.5761 18.6905C21.7946 20.7354 19.5949 22.5787 20.058 25.142C21.2737 25.1996 22.3446 24.5372 23.3865 24.6524C22.7208 26.1788 22.113 27.5325 22.4025 29.3182C24.5732 28.7134 26.3098 26.2365 28.6543 25.5452C29.0884 26.6397 28.278 27.6477 28.1622 28.7998C30.6803 27.9069 32.0407 22.9819 34.1535 21.0522Z" fill="#E89054"/>
<path d="M58.4946 26.0075C57.3369 25.633 56.3817 25.1434 55.6292 24.6538C54.8477 24.1066 55.2529 22.4361 53.2848 23.3577H53.8057C50.1878 24.1066 46.7146 26.3819 44.1965 29.1468C42.2862 31.2493 38.784 36.0015 39.1892 38.968C41.852 38.968 44.0807 36.2319 46.7146 36.1743C46.9172 40.2065 46.8303 40.6097 50.9114 40.8689C49.6379 43.4034 51.2877 45.7075 54.0373 43.893C55.5424 42.885 57.3658 40.6673 58.6393 39.5728C60.4628 37.9888 61.9099 35.8575 63.7334 34.2446C65.47 32.7181 67.6118 31.6813 69.0011 29.9244C66.8014 29.1756 63.5308 30.1836 61.1863 30.3564C63.415 28.0235 60.4628 26.6699 58.4946 26.0075Z" fill="#E89054"/>
<path d="M38.2635 18.1161C36.8742 18.0009 35.5428 18.3177 34.1824 18.3465C34.7613 17.7129 35.2244 16.9352 35.4559 16.1C34.0956 16.0424 32.9957 16.6472 31.6064 16.532C31.838 15.524 32.4169 14.6023 32.3011 13.4791C31.2591 13.5655 30.275 13.9687 29.2331 13.9111C29.8988 13.2775 30.0145 12.471 30.2171 11.6646C29.2041 11.607 28.1621 11.6358 27.1491 11.5782C27.3228 11.175 27.1781 10.2534 27.3228 9.82133C26.2808 9.67733 25.3836 9.73493 24.7179 10.311H24.9784C22.9813 11.9814 20.1448 13.9111 19.4791 16.4744C20.6658 15.6104 22.1129 14.6311 23.647 14.7751C23.3865 15.1208 23.2417 16.1 22.9234 16.5032C24.8626 16.2728 26.2519 16.82 25.0362 18.8361C25.9914 18.7497 26.8597 18.4905 27.8438 18.4329C27.6701 19.6714 28.4805 20.305 29.6672 20.2474C29.6383 20.9962 30.1303 21.1978 29.7251 21.9755C30.5355 21.8315 30.9986 21.9755 31.7511 21.5434C31.5775 21.9179 31.5196 22.6091 31.2881 23.0411C32.9957 22.8107 36.7873 19.3545 38.2635 18.1161Z" fill="#F49D62"/>
<path d="M58.6108 28.3103C57.5399 28.3967 56.4979 28.8287 55.3691 28.7711C56.0638 28.1087 56.2085 27.2447 56.4111 26.3806C55.3691 26.323 54.2403 26.3518 53.1983 26.2942C53.372 25.8622 53.2273 24.883 53.401 24.451C52.33 24.2781 51.4039 24.3358 50.6803 24.9694H50.9697C48.8568 26.7551 45.8756 28.7999 45.181 31.5361C46.4256 30.6432 47.9596 29.5776 49.5515 29.7504C49.291 30.1248 49.1173 31.1616 48.7989 31.5937C50.825 31.3633 52.3011 31.9393 50.9986 34.0994C52.0117 33.9842 52.9379 33.6674 53.9509 33.6386C53.7772 34.9634 54.6166 35.6258 55.8612 35.597C55.8322 36.3747 56.3243 36.6051 55.948 37.4403C56.7874 37.2675 57.3083 37.4403 58.0609 36.9795C57.8872 37.3827 57.8293 38.1027 57.5978 38.5636C59.3923 38.3044 63.3575 34.6178 64.8916 33.3217C63.4154 33.2065 62.0261 33.5521 60.6079 33.5521C61.2157 32.8897 61.6788 32.0545 61.9393 31.1616C60.5211 31.0752 59.3344 31.7377 57.8872 31.6225C58.1188 30.4704 58.7266 29.4912 58.6108 28.3103Z" fill="#F49D62"/>
<path d="M29.8407 58.8116C35.5715 61.8358 37.3371 59.2436 37.3371 59.2436V54.0306L24.6887 46.7439L24.573 52.3313C24.573 52.3313 24.4283 55.9603 29.8407 58.8116Z" fill="#845203"/>
<path d="M29.1751 58.4945C34.9059 61.5187 36.0637 60.0498 36.0637 60.0498V54.8368L23.4153 47.5789L23.2995 53.1663C23.2706 53.1663 23.7626 55.6432 29.1751 58.4945Z" fill="url(#paint47_linear_1_2301)"/>
<path opacity="0.32" d="M32.7349 52.9373C34.0953 55.1838 35.1373 57.7183 35.6004 60.3104C35.9477 60.1952 36.0634 60.0512 36.0634 60.0512V54.8381L32.7349 52.9373Z" fill="#FFF7AB"/>
<path opacity="0.22" d="M28.7409 54.0879C27.9594 52.0142 26.8306 50.1998 25.4414 48.7597L23.3864 47.5789L23.2706 53.1663C23.2706 53.1663 23.7626 55.672 29.1461 58.5233C29.233 58.5521 29.2908 58.5809 29.3487 58.6385C29.3777 56.9681 29.233 55.3552 28.7409 54.0879Z" fill="#FFF7AB"/>
<path opacity="0.32" d="M29.1172 53.8005C28.3357 51.7268 27.5253 50.1716 25.4703 48.7603L24.0521 47.9539C25.4414 49.6819 26.6859 51.4676 27.2648 53.6853C27.5253 54.6069 27.5832 56.0758 27.3806 57.4871C27.9016 57.8039 28.4804 58.1495 29.1461 58.4951C29.233 58.5239 29.2909 58.5527 29.3488 58.6103C29.754 57.0839 29.6092 55.0966 29.1172 53.8005Z" fill="#FFF7AB"/>
<path d="M30.0723 51.9854C31.8379 53.0223 34.4139 53.7999 35.5137 55.2112C35.6295 55.384 35.9479 56.1904 36.0347 56.392V54.8368L23.3864 47.5789L23.2706 53.1663C23.2706 53.1663 23.3574 53.5983 23.8784 54.3472C23.5311 52.8783 23.4732 50.027 24.081 48.9613C24.602 48.0685 28.3936 50.9774 30.0723 51.9854Z" fill="#FFF8D4"/>
<path d="M36.0346 54.8366L37.3371 54.0301L24.6888 46.7722L23.3863 47.5787L36.0346 54.8366Z" fill="url(#paint48_linear_1_2301)"/>
<path d="M25.557 52.9933C26.078 52.6477 27.12 52.5037 26.8595 51.7548C26.7148 51.3516 25.9623 50.6316 24.573 50.8044C23.01 51.1212 21.8812 52.014 21.5918 53.3101C21.2445 54.8366 23.0679 56.2766 24.052 56.8814C26.7437 58.5807 29.5513 59.2143 32.0693 58.6383C33.3139 58.3503 34.9058 57.5727 34.7611 56.5358C34.6164 55.499 32.4746 54.9518 31.4036 55.4702C30.188 56.0462 28.6251 56.219 27.3226 55.7294C26.2517 55.3262 23.9941 54.0301 25.557 52.9933Z" fill="url(#paint49_linear_1_2301)"/>
<path d="M26.4543 57.2272C24.573 56.5072 22.4601 55.24 22.0838 53.7135C21.6786 52.1582 23.8204 51.2078 25.3834 50.8046C25.1518 50.7758 24.8913 50.7758 24.573 50.8046C23.01 51.1214 21.8812 52.0142 21.5918 53.3103C21.2445 54.8367 23.0679 56.2768 24.052 56.8816C26.7437 58.5809 29.5513 59.2145 32.0693 58.6385C33.1692 58.3793 34.5296 57.7457 34.7322 56.8816C34.4717 56.1904 34.0086 56.4208 33.8349 56.5936C32.243 58.0337 27.7278 57.7169 26.4543 57.2272Z" fill="#F49C1C"/>
<path d="M29.1171 58.0916C24.8624 57.89 22.1707 55.2403 21.6207 54.0594C21.8812 55.2979 23.2705 56.3635 24.0809 56.8819C26.7727 58.5812 29.5802 59.2148 32.0983 58.6388C33.3429 58.3508 34.9348 57.5732 34.79 56.5363C34.7032 55.8451 33.6902 55.3555 32.7351 55.2691C32.8508 55.3555 32.8798 55.5283 33.0534 55.6147C34.7032 56.3059 33.8639 58.322 29.1171 58.0916Z" fill="#F49C1C"/>
<path d="M24.9492 52.7054C22.981 54.1166 26.6858 56.1615 27.7857 56.3919C28.9434 56.6224 29.9275 56.68 31.0273 56.2191C31.8088 55.9023 32.8508 55.5855 33.8349 55.5567C33.0823 55.2111 32.0404 55.1535 31.4036 55.4415C30.188 56.0175 28.625 56.1903 27.3226 55.7007C26.2516 55.2975 23.9651 54.0302 25.5281 52.9934C26.049 52.6478 27.091 52.5038 26.8305 51.7549C26.7437 51.5533 26.5121 51.2653 26.1069 51.0349C26.1069 51.0637 26.078 51.1213 26.1069 51.1501C26.6279 51.7549 25.6728 52.187 24.9492 52.7054Z" fill="#F49C1C"/>
<path d="M24.1967 52.3025C24.4282 52.1009 25.8754 51.0641 24.8624 51.0929V51.1505C23.4442 51.3233 21.7076 53.0802 22.6048 54.4626C23.01 55.0962 23.8494 55.6723 24.4572 56.0467C25.094 56.4211 26.0491 57.0259 26.8306 56.8819C26.4832 56.3923 25.6728 55.9891 25.1518 55.5859C24.6598 55.1538 24.0809 54.7218 23.7336 54.1746C23.2416 53.3682 23.5599 52.8209 24.1967 52.3025Z" fill="#FFF8D4"/>
<path d="M27.3806 57.948C23.5311 57.1416 21.8234 54.6934 21.5919 54.0886C21.8524 55.3271 23.2417 56.3927 24.0521 56.9111C26.7438 58.6104 29.5514 59.244 32.0694 58.668C33.314 58.38 34.9059 57.6024 34.7612 56.5655C34.6744 55.8743 33.6613 55.3847 32.7062 55.2983C32.7351 55.3271 34.7323 55.7591 34.0665 56.9111C33.2851 58.2648 30.3328 58.5528 27.3806 57.948Z" fill="#845203"/>
<path d="M23.6177 70.3327V79.8659C23.6177 79.8659 23.7913 87.2678 30.13 90.5224C36.8738 93.9785 40.6075 87.7287 40.6075 87.7287L40.4628 76.4098L23.6177 70.3327Z" fill="#245872"/>
<path d="M22.1416 70.3327V80.8164C22.1416 80.8164 22.952 86.8358 29.2907 90.0904C36.0345 93.5465 37.1633 88.7079 37.1633 88.7079L37.0475 78.6563L22.1416 70.3327Z" fill="#5C9ABF"/>
<path d="M22.1416 70.3327V80.8164C22.1416 80.8164 22.2574 73.184 22.981 71.9456C23.5598 70.9087 28.075 74.1633 30.0721 75.3441C32.1561 76.5538 35.1662 77.4754 36.4687 79.1171C36.6134 79.2899 36.9896 80.2691 37.0765 80.4995L37.0475 78.6851L22.1416 70.3327Z" fill="#DCF2FF"/>
<path d="M22.1416 70.3323L37.0475 78.6558L40.4918 76.4093L25.7017 68.3162L22.1416 70.3323Z" fill="#82B8E0"/>
<path d="M31.7798 79.6929C30.3905 75.2576 24.9781 77.1872 28.0172 81.0754C27.8435 82.1123 26.049 83.4371 26.1648 84.7044C26.8884 85.9716 29.8117 87.8437 31.6641 87.6709C31.5193 86.1444 30.3616 83.5811 30.3037 81.9682C30.3037 81.4786 32.2429 81.2194 31.7798 79.6929Z" fill="#DCF2FF"/>
<path d="M31.8091 80.1538C30.5356 75.8625 25.5573 77.7633 28.3648 81.4787C28.2201 82.4867 26.5414 83.754 26.6861 84.9636C27.3518 86.1733 30.0435 87.9878 31.7223 87.8438C31.6065 86.3749 30.5066 83.898 30.4777 82.3139C30.4487 81.8531 32.2432 81.6227 31.8091 80.1538Z" fill="#0E3D4F"/>
<path d="M28.6832 86.2312C27.4676 85.0503 28.1622 83.5527 28.9437 82.3718C29.0595 82.199 29.1752 81.9974 29.291 81.7958C29.3199 81.7094 29.3489 81.6518 29.3778 81.5942C29.2331 81.3926 29.0016 81.2198 28.8279 81.0182C28.3938 80.4421 28.2201 79.7221 28.5964 79.0597C29.0884 78.1956 30.0146 78.138 30.854 78.4548C29.0016 76.6116 26.0493 78.426 28.3648 81.479C28.2201 82.487 26.5414 83.7543 26.6861 84.9639C27.3518 86.1736 30.0435 87.9881 31.7223 87.844C31.7223 87.8152 31.7223 87.7576 31.6933 87.7288C30.5645 87.556 29.4647 87.0088 28.6832 86.2312Z" fill="#245872"/>
<path d="M32.2428 52.6469C29.6668 52.0133 27.0329 52.9061 26.0199 55.0374C26.6277 55.4407 27.7565 56.1607 29.4353 55.9591C30.3325 55.0374 31.5192 55.6135 32.3875 56.3335C33.4005 57.1975 33.8057 58.4936 33.9504 59.732C34.2109 62.0073 33.8636 74.1615 33.8636 74.1615C33.8057 75.5727 35.4845 76.5808 37.0185 75.6591C37.0474 75.6303 37.0764 75.6303 37.1342 75.6015C37.279 72.5198 37.0185 59.2712 37.0185 59.2712C36.8737 56.2183 35.3108 53.3958 32.2428 52.6469Z" fill="#82B8E0"/>
<path d="M26.02 65.5208C26.02 65.5208 27.1778 66.5864 29.4354 66.4712V58.8389C29.4354 58.8389 28.0171 58.8677 26.02 57.946V65.5208Z" fill="#82B8E0"/>
<path d="M26.0198 70.7628C26.6565 71.9149 28.4221 72.4333 29.4351 71.5117V69.294C29.4351 69.294 28.0169 69.3228 26.0198 68.4011V70.7628Z" fill="#82B8E0"/>
<path d="M28.7117 70.186C28.3643 70.7621 27.8723 70.9925 27.2066 70.9061C26.7435 70.8773 26.3093 70.6757 25.991 70.4165V70.7621C26.6277 71.9141 28.3933 72.4325 29.4063 71.5109V69.2932C29.4063 69.2932 29.2326 69.2932 28.9432 69.2644C28.9722 69.5812 28.8853 69.8692 28.7117 70.186Z" fill="#4B79A3"/>
<g opacity="0.42">
<path d="M31.9244 54.8363C29.2905 54.3466 28.1617 55.7291 29.4063 55.9883C29.4063 55.9883 29.4063 55.9883 29.4353 55.9883C30.3325 55.0667 31.5192 55.6427 32.3875 56.3627C33.4005 57.2268 33.8057 58.5228 33.9504 59.7613C34.2109 62.0366 33.8636 74.1907 33.8636 74.1907C33.8347 74.8531 34.2109 75.4291 34.7609 75.746C34.0662 73.3555 34.8188 64.6287 34.8766 62.8142C34.9635 59.5021 34.2978 55.2683 31.9244 54.8363Z" fill="#4B79A3"/>
<path d="M26.0198 65.5223C26.0198 65.5223 26.1645 65.6375 26.396 65.7815C26.396 64.7735 26.3961 63.7942 26.425 62.7862C26.3671 61.3461 26.3671 59.906 26.946 58.6964C26.9749 58.6388 26.9749 58.5524 27.0039 58.4948C27.0328 58.4372 27.0618 58.3796 27.0907 58.322C26.7723 58.2068 26.425 58.0916 26.0487 57.9188V65.5223H26.0198Z" fill="#4B79A3"/>
<path d="M26.5409 68.6325C26.3672 68.5461 26.1936 68.4885 25.991 68.4021V70.7638C26.1357 71.023 26.3383 71.2534 26.5698 71.4262C26.483 70.4758 26.4541 69.5541 26.5409 68.6325Z" fill="#4B79A3"/>
</g>
<path d="M26.483 54.2595C26.3093 54.4899 26.1357 54.7491 25.991 55.0372C26.5988 55.4404 27.7276 56.1604 29.4063 55.9588C30.3036 55.0372 31.4613 55.5844 32.3586 56.3332C32.2138 55.9876 32.0112 55.6708 31.6928 55.4404C30.2746 54.3171 27.7276 55.5268 26.483 54.2595Z" fill="#4B79A3"/>
<path d="M26.0198 58.6094C27.0039 59.0991 28.0169 59.6751 28.48 60.7407C29.001 61.9504 28.7984 63.2464 28.5958 64.4849C28.5379 64.9745 27.9879 65.2337 27.5827 65.2625C26.946 65.2913 26.396 65.0609 26.0198 64.6577V65.5217C26.0198 65.5217 27.1775 66.5874 29.4351 66.4722V58.8399C29.4351 58.8399 28.0169 58.8687 26.0198 57.947V58.6094Z" fill="#4B79A3"/>
<path d="M26.02 68.9191C26.6278 68.9767 27.2935 69.1495 27.8145 69.4087C28.5671 69.8407 29.0591 70.9063 28.6539 71.7128C28.6249 71.7992 28.5671 71.8568 28.5092 71.9144C28.8565 71.8568 29.1749 71.7128 29.4643 71.4824V69.2647C29.4643 69.2647 27.9592 69.0631 26.049 68.3718V68.9191H26.02Z" fill="#4B79A3"/>
<path d="M34.5584 53.7986C36.1792 55.9299 36.4397 58.6948 36.3239 61.4309C36.2371 63.735 36.3529 66.0679 36.295 68.372C36.3239 70.0137 36.2371 71.6266 36.0345 73.0954C35.9477 73.6714 35.7161 74.4491 35.3109 74.5355C34.5873 74.7947 34.2689 74.2475 33.9216 73.9883C33.9216 74.1035 33.9216 74.1899 33.9216 74.1899C33.8637 75.6011 35.5425 76.6092 37.0765 75.6875C37.1054 75.6587 37.1344 75.6587 37.1922 75.6299C37.337 72.5482 37.0765 59.2996 37.0765 59.2996C36.9318 57.1395 36.1213 55.0946 34.5584 53.7986Z" fill="#4B79A3"/>
<path d="M32.1852 53.0215C31.23 52.8199 30.0144 52.7623 29.0593 52.9927C28.7988 53.0503 27.5253 53.5399 27.67 53.828C27.4963 54.3176 28.162 54.548 28.5094 54.4328C28.712 54.3752 28.9435 54.1736 29.1461 54.0872C29.4645 53.9432 29.7829 53.7991 30.1012 53.7415C31.5195 53.4535 32.8219 53.8856 33.9218 54.7784C34.0665 54.8936 34.1823 55.0088 34.327 55.124C34.7322 54.7496 34.0086 54.0584 33.7481 53.7992C33.3719 53.3671 32.7351 53.1367 32.1852 53.0215Z" fill="#DCF2FF"/>
<path d="M35.5138 61.0294C35.3691 62.9302 35.4849 65.436 35.2823 67.0776C35.1954 67.9129 34.8771 71.657 35.3402 71.945C36.0059 71.5706 35.7743 68.3449 35.8901 67.1352C36.0638 65.4936 36.0059 63.9959 35.948 62.3542C35.919 61.5478 35.948 60.799 35.5138 61.0294Z" fill="#DCF2FF"/>
<path d="M27.1198 59.7032C27.004 59.6744 26.9751 59.7032 26.9172 59.7608L26.8593 59.8184C26.5988 61.0281 26.5698 63.0154 26.9751 64.4554C27.4092 64.0234 27.2934 62.8138 27.2934 62.1513C27.2934 61.3737 27.3224 60.4233 27.1198 59.7032Z" fill="#DCF2FF"/>
<path opacity="0.0769" d="M58.0318 72.4361C57.1924 75.0282 54.4138 76.4971 51.78 75.6618C49.1751 74.8266 47.6989 72.0617 48.5383 69.4408C49.3777 66.8487 52.1563 65.3798 54.7612 66.215C57.395 67.0503 58.8422 69.844 58.0318 72.4361Z" fill="white"/>
<path opacity="0.1538" d="M57.7713 72.3494C56.9898 74.8264 54.327 76.18 51.8668 75.4024C49.3777 74.6247 48.0173 72.0038 48.7988 69.5269C49.5803 67.05 52.2141 65.6964 54.7033 66.474C57.1635 67.2516 58.5528 69.9013 57.7713 72.3494Z" fill="white"/>
<path opacity="0.2308" d="M57.5108 72.2921C56.7583 74.625 54.2691 75.9211 51.9247 75.1722C49.5803 74.4522 48.2778 71.9465 49.0303 69.6136C49.7829 67.2807 52.272 65.9846 54.6165 66.7335C56.9609 67.4535 58.2633 69.9592 57.5108 72.2921Z" fill="white"/>
<path opacity="0.3077" d="M57.2792 72.2061C56.5845 74.395 54.2401 75.6046 52.0404 74.9134C49.8407 74.2222 48.625 71.8893 49.3197 69.7004C50.0143 67.5115 52.3588 66.3018 54.5585 66.993C56.7292 67.6843 57.9738 70.0172 57.2792 72.2061Z" fill="white"/>
<path opacity="0.3846" d="M57.0188 72.1193C56.3531 74.1642 54.1534 75.3162 52.0984 74.6538C50.0434 74.0202 48.8856 71.8313 49.5513 69.7576C50.217 67.7127 52.3878 66.5607 54.4717 67.2231C56.5267 67.8855 57.6555 70.0744 57.0188 72.1193Z" fill="white"/>
<path opacity="0.4615" d="M56.7582 72.0324C56.1504 73.9333 54.0954 74.9989 52.1851 74.3941C50.2749 73.7893 49.2039 71.7444 49.8118 69.8435C50.4196 67.9426 52.4746 66.877 54.3849 67.4818C56.2951 68.0866 57.366 70.1315 56.7582 72.0324Z" fill="white"/>
<path opacity="0.5385" d="M56.4978 71.9748C55.9189 73.7605 54.0376 74.7397 52.2431 74.1637C50.4486 73.6165 49.4645 71.7156 50.0434 69.9299C50.5933 68.1443 52.5036 67.165 54.2981 67.741C56.0926 68.2883 57.0767 70.1891 56.4978 71.9748Z" fill="white"/>
<path opacity="0.6154" d="M56.2662 71.8889C55.7453 73.5305 53.9797 74.4234 52.3589 73.905C50.7091 73.3865 49.8118 71.6297 50.3328 70.0168C50.8538 68.3751 52.6193 67.4823 54.2402 68.0007C55.861 68.4903 56.7872 70.2472 56.2662 71.8889Z" fill="white"/>
<path opacity="0.6923" d="M56.0056 71.8021C55.5425 73.2998 53.9217 74.135 52.4166 73.6454C50.9116 73.1558 50.0722 71.5717 50.5642 70.0741C51.0273 68.5764 52.6482 67.7412 54.1532 68.2308C55.6583 68.7204 56.4687 70.3045 56.0056 71.8021Z" fill="white"/>
<path opacity="0.7692" d="M55.7452 71.7158C55.3111 73.0695 53.8639 73.8183 52.5036 73.3863C51.1432 72.9543 50.3907 71.5142 50.8248 70.1605C51.259 68.8069 52.7062 68.0581 54.0665 68.4613C55.4269 68.9221 56.1794 70.3622 55.7452 71.7158Z" fill="white"/>
<path opacity="0.8462" d="M55.5137 71.6585C55.1374 72.8681 53.806 73.5594 52.5904 73.1561C51.3748 72.7817 50.6801 71.4857 51.0853 70.2472C51.4616 69.0376 52.793 68.3463 54.0086 68.7207C55.1953 69.124 55.89 70.42 55.5137 71.6585Z" fill="white"/>
<path opacity="0.9231" d="M55.2529 71.572C54.9056 72.6664 53.7478 73.2424 52.648 72.8968C51.5481 72.5512 50.9693 71.3991 51.2876 70.3335C51.635 69.2391 52.7927 68.663 53.8926 68.9798C54.9924 69.3255 55.6002 70.4775 55.2529 71.572Z" fill="white"/>
<path d="M54.9931 71.4853C54.7037 72.4358 53.6906 72.9542 52.7355 72.6374C51.7804 72.3494 51.2594 71.3413 51.5488 70.3909C51.8382 69.4404 52.8513 68.922 53.8064 69.21C54.7615 69.5269 55.3115 70.5349 54.9931 71.4853Z" fill="white"/>
<path d="M53.314 69.4111C53.1114 70.2752 49.6092 70.5056 49.6092 70.5056C49.6092 70.5056 52.5036 70.736 53.314 71.1104C54.0376 71.456 54.2402 77.6771 54.2402 77.6771C54.2402 77.6771 54.4428 72.2624 54.5296 71.1104C54.5586 70.6496 60.2315 70.1311 60.2315 70.1311C60.2315 70.1311 56.3241 69.6703 54.4428 69.4687C54.2402 69.4399 53.8929 64.5437 53.8929 64.5437C53.8929 64.5437 53.5166 68.5759 53.314 69.4111Z" fill="white"/>
<path opacity="0.0769" d="M74.2982 43.0291C73.4588 45.65 70.6802 47.0901 68.0753 46.2548C65.4704 45.4196 64.0232 42.6547 64.8336 40.0338C65.673 37.4416 68.4516 35.9728 71.0565 36.808C73.6614 37.6433 75.1086 40.4082 74.2982 43.0291Z" fill="white"/>
<path opacity="0.1538" d="M74.0376 42.9423C73.2562 45.4192 70.6223 46.7729 68.1331 45.9953C65.644 45.2176 64.2837 42.5967 65.0651 40.1198C65.8466 37.6429 68.4805 36.2893 70.9696 37.0669C73.4588 37.8445 74.8191 40.4654 74.0376 42.9423Z" fill="white"/>
<path opacity="0.2308" d="M73.7771 42.8559C73.0246 45.1888 70.5355 46.4849 68.191 45.736C65.8466 45.016 64.5441 42.5103 65.2967 40.1774C66.0492 37.8445 68.5384 36.5484 70.8828 37.2973C73.2272 38.0461 74.5297 40.5518 73.7771 42.8559Z" fill="white"/>
<path opacity="0.3077" d="M73.5456 42.7984C72.8509 44.9872 70.5065 46.1969 68.3068 45.5057C66.1071 44.8144 64.8915 42.4815 65.5861 40.2926C66.2808 38.1037 68.6252 36.8941 70.8249 37.5853C72.9957 38.2478 74.2402 40.6095 73.5456 42.7984Z" fill="white"/>
<path opacity="0.3846" d="M73.2851 42.7117C72.6194 44.7566 70.4197 45.9086 68.3647 45.2462C66.3097 44.6126 65.152 42.4237 65.8177 40.35C66.4834 38.3051 68.6542 37.153 70.7381 37.8155C72.7931 38.4779 73.9219 40.6668 73.2851 42.7117Z" fill="white"/>
<path opacity="0.4615" d="M73.0246 42.6256C72.4168 44.5264 70.3618 45.5921 68.4515 44.9873C66.5412 44.3824 65.4703 42.3375 66.0781 40.4367C66.686 38.5358 68.741 37.4701 70.6512 38.075C72.5615 38.6798 73.6324 40.7247 73.0246 42.6256Z" fill="white"/>
<path opacity="0.5385" d="M72.7641 42.5387C72.2142 44.3243 70.3039 45.3036 68.5094 44.7276C66.7149 44.1803 65.7308 42.2795 66.3097 40.4938C66.8596 38.7081 68.7699 37.7289 70.5644 38.3049C72.3589 38.8809 73.343 40.7818 72.7641 42.5387Z" fill="white"/>
<path opacity="0.6154" d="M72.5325 42.4818C72.0115 44.1235 70.246 45.0163 68.6251 44.4979C66.9754 43.9795 66.0781 42.2226 66.5991 40.6097C67.1201 38.9681 68.8856 38.0752 70.5065 38.5936C72.1273 39.0833 73.0535 40.8401 72.5325 42.4818Z" fill="white"/>
<path opacity="0.6923" d="M72.2721 42.3951C71.809 43.8928 70.1881 44.728 68.6831 44.2384C67.178 43.7776 66.3386 42.1647 66.8307 40.6671C67.2938 39.1694 68.9146 38.3342 70.4197 38.8238C71.9248 39.2846 72.7641 40.8975 72.2721 42.3951Z" fill="white"/>
<path opacity="0.7692" d="M72.0116 42.3087C71.5774 43.6624 70.1303 44.4112 68.7699 43.9792C67.4096 43.5472 66.657 42.1071 67.0912 40.7534C67.5253 39.3998 68.9725 38.651 70.3329 39.0542C71.6932 39.4862 72.4457 40.955 72.0116 42.3087Z" fill="white"/>
<path opacity="0.8462" d="M71.78 42.2223C71.4038 43.432 70.0724 44.1232 68.8567 43.72C67.6411 43.3456 66.9465 42.0207 67.3517 40.8111C67.7279 39.6014 69.0593 38.9102 70.275 39.2846C71.4906 39.7166 72.1563 41.0127 71.78 42.2223Z" fill="white"/>
<path opacity="0.9231" d="M71.5193 42.1652C71.172 43.2596 70.0142 43.8356 68.9144 43.49C67.8145 43.1444 67.2356 41.9924 67.554 40.9267C67.9013 39.8323 69.0591 39.2274 70.1589 39.5731C71.2588 39.9187 71.8666 41.0707 71.5193 42.1652Z" fill="white"/>
<path d="M71.2593 42.0776C70.9699 43.0281 69.9569 43.5465 69.0017 43.2297C68.0466 42.9417 67.5256 41.9336 67.815 40.9832C68.1045 40.0327 69.1175 39.5143 70.0726 39.8023C71.0278 40.1191 71.5777 41.1272 71.2593 42.0776Z" fill="white"/>
<path d="M69.5803 40.0041C69.3777 40.8682 65.8755 41.0986 65.8755 41.0986C65.8755 41.0986 68.7699 41.329 69.5803 41.7034C70.3039 42.049 70.5065 48.2701 70.5065 48.2701C70.5065 48.2701 70.7091 42.8555 70.7959 41.7034C70.8538 41.2426 76.4978 40.7242 76.4978 40.7242C76.4978 40.7242 72.5905 40.2633 70.7091 40.0617C70.5065 40.0329 70.1592 35.1367 70.1592 35.1367C70.1592 35.1367 69.7829 39.1401 69.5803 40.0041Z" fill="white"/>
<path opacity="0.0769" d="M35.1957 38.767C34.3563 41.3879 31.5777 42.828 28.9728 41.9927C26.3679 41.1575 24.9207 38.3926 25.7311 35.7717C26.5705 33.1795 29.3491 31.7395 31.954 32.5459C34.5589 33.3812 36.0061 36.1749 35.1957 38.767Z" fill="white"/>
<path opacity="0.1538" d="M34.935 38.6798C34.1535 41.1567 31.5196 42.5104 29.0305 41.7327C26.5414 40.9551 25.181 38.3342 25.9625 35.8573C26.744 33.4092 29.3778 32.0267 31.867 32.8043C34.3561 33.582 35.7165 36.2317 34.935 38.6798Z" fill="white"/>
<path opacity="0.2308" d="M34.6745 38.6222C33.922 40.9551 31.4328 42.2511 29.0884 41.5023C26.744 40.7534 25.4415 38.2765 26.194 35.9436C26.9466 33.6107 29.4357 32.3147 31.7801 33.0635C34.1246 33.8123 35.427 36.2893 34.6745 38.6222Z" fill="white"/>
<path opacity="0.3077" d="M34.443 38.5361C33.7483 40.725 31.4039 41.9347 29.2042 41.2435C27.0045 40.5522 25.7889 38.2193 26.4835 36.0304C27.1782 33.8415 29.5226 32.6319 31.7223 33.3231C33.922 34.0144 35.1376 36.3473 34.443 38.5361Z" fill="white"/>
<path opacity="0.3846" d="M34.1825 38.4494C33.5168 40.4942 31.346 41.6463 29.262 40.9839C27.2071 40.3502 26.0493 38.1613 26.715 36.0876C27.3807 34.0428 29.5515 32.8907 31.6354 33.5531C33.6904 34.2156 34.8482 36.4045 34.1825 38.4494Z" fill="white"/>
<path opacity="0.4615" d="M33.922 38.3625C33.3142 40.2922 31.2592 41.329 29.349 40.7242C27.4387 40.1194 26.3678 38.0745 26.9756 36.1736C27.5834 34.2727 29.6384 33.2071 31.5487 33.8119C33.4589 34.4167 34.5299 36.4616 33.922 38.3625Z" fill="white"/>
<path opacity="0.5385" d="M33.6904 38.3049C33.1405 40.0906 31.2302 41.0698 29.4357 40.4938C27.6412 39.9466 26.6571 38.0457 27.236 36.26C27.7859 34.4743 29.6962 33.4951 31.4907 34.0711C33.2563 34.6183 34.2403 36.5192 33.6904 38.3049Z" fill="white"/>
<path opacity="0.6154" d="M33.4299 38.219C32.9089 39.8607 31.1434 40.7535 29.5225 40.2351C27.8728 39.7167 26.9755 37.9598 27.4965 36.3469C28.0175 34.7052 29.7541 33.8124 31.4039 34.3308C33.0247 34.8204 33.9509 36.5773 33.4299 38.219Z" fill="white"/>
<path opacity="0.6923" d="M33.1694 38.1322C32.7064 39.6299 31.0855 40.4651 29.5804 39.9755C28.0754 39.5147 27.236 37.9018 27.7281 36.4041C28.1912 34.9065 29.812 34.0712 31.3171 34.5609C32.8221 35.0505 33.6615 36.6346 33.1694 38.1322Z" fill="white"/>
<path opacity="0.7692" d="M32.9379 38.0461C32.5037 39.3998 31.0566 40.1486 29.6962 39.7166C28.3359 39.2846 27.5833 37.8445 28.0175 36.4909C28.4516 35.1372 29.8988 34.3884 31.2592 34.8204C32.5906 35.2524 33.3431 36.6925 32.9379 38.0461Z" fill="white"/>
<path opacity="0.8462" d="M32.6774 37.9886C32.3011 39.1982 30.9697 39.8894 29.7541 39.4862C28.5385 39.1118 27.8438 37.8157 28.249 36.5773C28.6253 35.3676 29.9567 34.6764 31.1723 35.0508C32.388 35.454 33.0537 36.7501 32.6774 37.9886Z" fill="white"/>
<path opacity="0.9231" d="M32.4165 37.903C32.0692 38.9974 30.9114 39.5734 29.8116 39.2278C28.7117 38.8822 28.1329 37.7302 28.4802 36.6645C28.8275 35.5701 29.9852 34.9652 31.0851 35.3109C32.156 35.6565 32.7638 36.8085 32.4165 37.903Z" fill="white"/>
<path d="M32.1568 37.8151C31.8674 38.7655 30.8543 39.2839 29.8992 38.9959C28.9441 38.7079 28.4231 37.6999 28.7125 36.7494C29.002 35.799 30.015 35.2805 30.9701 35.5686C31.9542 35.8566 32.4752 36.8646 32.1568 37.8151Z" fill="white"/>
<path d="M30.4777 35.7412C30.2751 36.6052 26.7729 36.8356 26.7729 36.8356C26.7729 36.8356 29.6673 37.066 30.4777 37.4405C31.2013 37.7861 31.4039 44.0071 31.4039 44.0071C31.4039 44.0071 31.6065 38.5925 31.6933 37.4405C31.7512 36.9796 37.3952 36.4612 37.3952 36.4612C37.3952 36.4612 33.4878 36.0004 31.6065 35.7988C31.4039 35.77 31.0565 30.8738 31.0565 30.8738C31.0565 30.8738 30.6803 34.906 30.4777 35.7412Z" fill="white"/>
<path opacity="0.0769" d="M25.4122 54.2328C24.9492 55.7017 23.3573 56.5081 21.9101 56.0473C20.434 55.5865 19.6235 54.0024 20.0866 52.5336C20.5497 51.0647 22.1127 50.2583 23.5888 50.7191C25.0649 51.2087 25.8753 52.764 25.4122 54.2328Z" fill="white"/>
<path opacity="0.1538" d="M25.2677 54.1754C24.8336 55.5578 23.3285 56.3355 21.9392 55.9034C20.5499 55.4714 19.7684 53.9738 20.2026 52.5913C20.6368 51.2088 22.1418 50.4312 23.5311 50.8632C24.9493 51.324 25.7019 52.7929 25.2677 54.1754Z" fill="white"/>
<path opacity="0.2308" d="M25.123 54.1467C24.7178 55.4716 23.2996 56.1916 21.9681 55.7884C20.6367 55.3852 19.9132 53.9739 20.3473 52.649C20.7525 51.3242 22.1708 50.6042 23.5022 51.0362C24.8046 51.4394 25.5282 52.8219 25.123 54.1467Z" fill="white"/>
<path opacity="0.3077" d="M24.9785 54.0886C24.5733 55.3271 23.2708 56.0183 22.0263 55.6151C20.7817 55.2119 20.087 53.9158 20.4923 52.6774C20.8685 51.4389 22.1999 50.7477 23.4445 51.1509C24.6891 51.5541 25.3837 52.879 24.9785 54.0886Z" fill="white"/>
<path opacity="0.3846" d="M24.8336 54.0602C24.4573 55.2122 23.2127 55.8458 22.055 55.5002C20.8972 55.1258 20.2605 53.9162 20.6078 52.7353C20.9841 51.5833 22.1997 50.9496 23.3864 51.2952C24.5731 51.6697 25.2098 52.9081 24.8336 54.0602Z" fill="white"/>
<path opacity="0.4615" d="M24.6888 54.0022C24.3414 55.0966 23.1837 55.6727 22.1128 55.3271C21.0419 54.9814 20.4341 53.8294 20.7814 52.7637C21.1287 51.6981 22.2864 51.0933 23.3574 51.4389C24.4572 51.7845 25.0361 52.9366 24.6888 54.0022Z" fill="white"/>
<path opacity="0.5385" d="M24.5442 53.9733C24.2548 54.9525 23.1549 55.5286 22.1709 55.2118C21.1578 54.8949 20.6079 53.8293 20.9263 52.8212C21.2447 51.8132 22.3156 51.266 23.3286 51.5828C24.3127 51.8996 24.8626 52.9653 24.5442 53.9733Z" fill="white"/>
<path opacity="0.6154" d="M24.4283 53.9166C24.1389 54.8382 23.1548 55.3567 22.2286 55.0687C21.3024 54.7806 20.7814 53.8014 21.0708 52.8798C21.3603 51.9581 22.3444 51.4397 23.2706 51.7277C24.1968 52.0157 24.7177 52.995 24.4283 53.9166Z" fill="white"/>
<path opacity="0.6923" d="M24.2836 53.8878C24.0231 54.723 23.0969 55.2127 22.2576 54.9246C21.4182 54.6654 20.9262 53.7726 21.2156 52.9086C21.4761 52.0733 22.4023 51.5837 23.2416 51.8717C24.081 52.1309 24.5441 53.0238 24.2836 53.8878Z" fill="white"/>
<path opacity="0.7692" d="M24.1389 53.8297C23.9074 54.6074 23.068 55.0106 22.3155 54.7802C21.534 54.5498 21.1288 53.7145 21.3603 52.9657C21.5919 52.1881 22.4313 51.7849 23.1838 52.0153C23.9363 52.2457 24.3705 53.0521 24.1389 53.8297Z" fill="white"/>
<path opacity="0.8462" d="M23.9943 53.7719C23.7627 54.4631 23.0391 54.8376 22.3445 54.6359C21.6498 54.4055 21.2736 53.6855 21.4762 52.9943C21.7077 52.303 22.4313 51.9286 23.126 52.1302C23.8206 52.3606 24.1969 53.1095 23.9943 53.7719Z" fill="white"/>
<path opacity="0.9231" d="M23.8495 53.7434C23.6469 54.3482 23.0101 54.6938 22.3734 54.4922C21.7656 54.2906 21.4182 53.6569 21.6208 53.0521C21.8234 52.4473 22.4602 52.1017 23.068 52.3033C23.7048 52.4761 24.0521 53.1385 23.8495 53.7434Z" fill="white"/>
<path d="M23.7048 53.6855C23.5311 54.2327 22.9523 54.5207 22.4313 54.3479C21.9103 54.1751 21.5919 53.6279 21.7656 53.0806C21.9393 52.5622 22.5181 52.2454 23.0391 52.4182C23.589 52.591 23.8785 53.1671 23.7048 53.6855Z" fill="white"/>
<path d="M22.7496 52.5327C22.6339 53.0223 20.6657 53.1375 20.6657 53.1375C20.6657 53.1375 22.3155 53.2527 22.7496 53.4831C23.1548 53.6559 23.2706 57.1985 23.2706 57.1985C23.2706 57.1985 23.3864 54.1455 23.4443 53.4831C23.4732 53.2239 26.657 52.9359 26.657 52.9359C26.657 52.9359 24.4573 52.6767 23.3864 52.5615C23.2706 52.5615 23.068 49.7965 23.068 49.7965C23.068 49.7965 22.8654 52.043 22.7496 52.5327Z" fill="white"/>
<path opacity="0.0769" d="M38.2344 80.2394C37.7713 81.7082 36.2083 82.5147 34.7322 82.0538C33.2561 81.593 32.4457 80.0378 32.9088 78.5689C33.3719 77.1 34.9348 76.2936 36.4109 76.7544C37.8871 77.2152 38.6975 78.7705 38.2344 80.2394Z" fill="white"/>
<path opacity="0.1538" d="M38.0894 80.2106C37.6553 81.5931 36.1502 82.3707 34.7609 81.9387C33.3716 81.5067 32.5902 80.009 33.0243 78.6265C33.4585 77.2441 34.9635 76.4665 36.3528 76.8985C37.7421 77.3305 38.5236 78.7994 38.0894 80.2106Z" fill="white"/>
<path opacity="0.2308" d="M37.9449 80.153C37.5397 81.4778 36.1215 82.1978 34.7901 81.7658C33.4587 81.3626 32.7351 79.9513 33.1693 78.6265C33.5745 77.3304 34.9927 76.5816 36.3241 76.9848C37.6266 77.4456 38.3502 78.8569 37.9449 80.153Z" fill="white"/>
<path opacity="0.3077" d="M37.8002 80.1239C37.395 81.3623 36.0925 82.0536 34.8479 81.6503C33.6033 81.2759 32.9087 79.9511 33.3139 78.7126C33.7191 77.4742 35.0216 76.7829 36.2661 77.1861C37.5107 77.5606 38.2054 78.8854 37.8002 80.1239Z" fill="white"/>
<path opacity="0.3846" d="M37.6554 80.0658C37.2791 81.2178 36.0345 81.8515 34.8768 81.5058C33.7191 81.1314 33.0823 79.893 33.4296 78.7409C33.8059 77.5889 35.0215 76.9552 36.2082 77.3009C37.3949 77.6753 38.0317 78.9137 37.6554 80.0658Z" fill="white"/>
<path opacity="0.4615" d="M37.5108 80.0089C37.1635 81.0746 36.0057 81.6794 34.9348 81.3338C33.8639 80.9882 33.2561 79.8361 33.6034 78.7705C33.9507 77.7048 35.1085 77.1 36.1794 77.4456C37.2503 77.7913 37.8581 78.9433 37.5108 80.0089Z" fill="white"/>
<path opacity="0.5385" d="M37.3661 79.9802C37.0477 80.9882 35.9768 81.5354 34.9638 81.2186C33.9507 80.9018 33.4008 79.8362 33.7192 78.8281C34.0376 77.8201 35.1085 77.2728 36.1215 77.5897C37.1345 77.9065 37.6845 78.9721 37.3661 79.9802Z" fill="white"/>
<path opacity="0.6154" d="M37.2214 79.9235C36.932 80.8452 35.9479 81.3636 35.0217 81.0756C34.0955 80.7876 33.5745 79.8083 33.8639 78.8867C34.1534 77.965 35.1375 77.4466 36.0637 77.7346C37.0188 78.0227 37.5398 79.0019 37.2214 79.9235Z" fill="white"/>
<path opacity="0.6923" d="M37.1056 79.8937C36.8451 80.729 35.9189 81.2186 35.0795 80.9306C34.2402 80.6714 33.7481 79.7497 34.0376 78.9145C34.2981 78.0793 35.1953 77.5896 36.0636 77.8777C36.903 78.1369 37.3661 79.0297 37.1056 79.8937Z" fill="white"/>
<path opacity="0.7692" d="M36.9608 79.8358C36.7293 80.6134 35.8899 81.0166 35.1374 80.7862C34.3559 80.5558 33.9507 79.7206 34.1822 78.9717C34.4138 78.1941 35.2532 77.7909 36.0057 78.0213C36.7582 78.2517 37.1924 79.0869 36.9608 79.8358Z" fill="white"/>
<path opacity="0.8462" d="M36.8163 79.8067C36.5847 80.4979 35.8611 80.8723 35.1665 80.6419C34.4718 80.4115 34.0956 79.6915 34.2982 79.0003C34.5297 78.309 35.2533 77.9346 35.9479 78.1362C36.6426 78.3666 37.0189 79.1155 36.8163 79.8067Z" fill="white"/>
<path opacity="0.9231" d="M36.6715 79.7494C36.4689 80.3543 35.8321 80.6999 35.2243 80.4983C34.6165 80.2966 34.2692 79.663 34.4718 79.0582C34.6744 78.4534 35.3111 78.1078 35.9189 78.3094C36.5267 78.4822 36.8741 79.1446 36.6715 79.7494Z" fill="white"/>
<path d="M36.5268 79.7217C36.3531 80.2402 35.7742 80.557 35.2532 80.3842C34.7033 80.2114 34.4139 79.6353 34.5875 79.1169C34.7612 78.5985 35.3111 78.2817 35.8611 78.4545C36.411 78.5985 36.7004 79.1745 36.5268 79.7217Z" fill="white"/>
<path d="M35.5716 78.5406C35.4558 79.0302 33.4876 79.1454 33.4876 79.1454C33.4876 79.1454 35.1085 79.2894 35.5716 79.491C35.9768 79.6926 36.0926 83.2064 36.0926 83.2064C36.0926 83.2064 36.2083 80.1534 36.2662 79.491C36.2952 79.2318 39.479 78.9438 39.479 78.9438C39.479 78.9438 37.2792 78.6846 36.2083 78.5694C36.0926 78.5694 35.89 75.8044 35.89 75.8044C35.89 75.8044 35.6874 78.0509 35.5716 78.5406Z" fill="white"/>
<path opacity="0.0769" d="M37.7421 61.9216C37.279 63.3904 35.6871 64.1968 34.211 63.736C32.7349 63.2752 31.9244 61.6911 32.3875 60.2223C32.8506 58.7534 34.4136 57.947 35.8897 58.4078C37.3658 58.8686 38.2052 60.4527 37.7421 61.9216Z" fill="white"/>
<path opacity="0.1538" d="M37.5977 61.8631C37.1635 63.2456 35.6585 64.0232 34.2692 63.5912C32.8799 63.1592 32.0984 61.6615 32.5326 60.2791C32.9667 58.8966 34.4718 58.119 35.8611 58.551C37.2504 58.983 38.0318 60.4807 37.5977 61.8631Z" fill="white"/>
<path opacity="0.2308" d="M37.4527 61.8352C37.0475 63.1601 35.6293 63.8801 34.2979 63.4481C32.9665 63.0449 32.2429 61.6336 32.677 60.3088C33.0822 59.0127 34.5005 58.2639 35.8319 58.6959C37.1343 59.0991 37.8579 60.5104 37.4527 61.8352Z" fill="white"/>
<path opacity="0.3077" d="M37.3083 61.7775C36.903 63.0159 35.6006 63.7071 34.356 63.3039C33.1114 62.9295 32.4168 61.6047 32.822 60.3662C33.2272 59.1277 34.5297 58.4365 35.7742 58.8397C37.0188 59.243 37.7135 60.539 37.3083 61.7775Z" fill="white"/>
<path opacity="0.3846" d="M37.1637 61.7487C36.7874 62.9007 35.5428 63.5343 34.3851 63.1887C33.2274 62.8143 32.5906 61.6047 32.9379 60.4238C33.3142 59.2718 34.5298 58.6381 35.7165 58.9837C36.9032 59.3582 37.5399 60.5678 37.1637 61.7487Z" fill="white"/>
<path opacity="0.4615" d="M37.019 61.6917C36.6717 62.7574 35.5139 63.3622 34.443 63.0166C33.3721 62.671 32.7643 61.5189 33.1116 60.4533C33.4589 59.3876 34.6167 58.7828 35.6876 59.1284C36.7585 59.474 37.3663 60.6261 37.019 61.6917Z" fill="white"/>
<path opacity="0.5385" d="M36.8741 61.6345C36.5557 62.6425 35.4848 63.1898 34.4718 62.8729C33.4587 62.5561 32.9088 61.4905 33.2272 60.4824C33.5456 59.4744 34.6165 58.9272 35.6295 59.244C36.6425 59.5896 37.1925 60.6552 36.8741 61.6345Z" fill="white"/>
<path opacity="0.6154" d="M36.7297 61.6044C36.4403 62.526 35.4562 63.0444 34.53 62.7564C33.6038 62.4684 33.0828 61.4892 33.3722 60.5675C33.6617 59.6459 34.6458 59.1274 35.572 59.4155C36.5271 59.7035 37.0481 60.6827 36.7297 61.6044Z" fill="white"/>
<path opacity="0.6923" d="M36.6133 61.5472C36.3528 62.3825 35.4266 62.8721 34.5873 62.5841C33.7479 62.3249 33.2559 61.4032 33.5453 60.568C33.8058 59.7327 34.703 59.2431 35.5714 59.5311C36.4107 59.8191 36.8738 60.712 36.6133 61.5472Z" fill="white"/>
<path opacity="0.7692" d="M36.4686 61.5185C36.2371 62.2962 35.3977 62.6994 34.6452 62.469C33.8637 62.2386 33.4585 61.4033 33.6901 60.6545C33.9216 59.8769 34.761 59.4736 35.5135 59.704C36.266 59.9345 36.7002 60.7409 36.4686 61.5185Z" fill="white"/>
<path opacity="0.8462" d="M36.3245 61.4615C36.0929 62.1527 35.3693 62.5271 34.6747 62.2967C33.98 62.0663 33.6038 61.3463 33.8064 60.6551C34.0379 59.9638 34.7615 59.5894 35.4562 59.8198C36.1508 60.0502 36.5271 60.7703 36.3245 61.4615Z" fill="white"/>
<path opacity="0.9231" d="M36.179 61.4322C35.9764 62.037 35.3397 62.3826 34.7319 62.181C34.124 61.9794 33.7767 61.3458 33.9793 60.741C34.1819 60.1361 34.8187 59.7905 35.4265 59.9921C36.0343 60.1649 36.3527 60.8274 36.179 61.4322Z" fill="white"/>
<path d="M36.0347 61.3743C35.8611 61.8927 35.2822 62.2095 34.7612 62.0367C34.2402 61.8639 33.9219 61.3167 34.0955 60.7694C34.2692 60.251 34.8191 59.9342 35.369 60.107C35.89 60.2798 36.2084 60.8558 36.0347 61.3743Z" fill="white"/>
<path d="M35.0796 60.2222C34.9638 60.7118 32.9957 60.827 32.9957 60.827C32.9957 60.827 34.6454 60.9422 35.0796 61.1726C35.4848 61.3455 35.6006 64.888 35.6006 64.888C35.6006 64.888 35.7164 61.8351 35.7742 61.1726C35.8032 60.9134 38.987 60.6254 38.987 60.6254C38.987 60.6254 36.7873 60.3662 35.7164 60.251C35.6006 60.251 35.398 57.4861 35.398 57.4861C35.398 57.4861 35.1954 59.7326 35.0796 60.2222Z" fill="white"/>
</g>
<defs>
<linearGradient id="paint0_linear_1_2301" x1="0.0298142" y1="43.6395" x2="16.5847" y2="43.6395" gradientUnits="userSpaceOnUse">
<stop offset="0.2485" stop-color="#AD6404"/>
<stop offset="0.4461" stop-color="#B56907"/>
<stop offset="0.7565" stop-color="#CC7811"/>
<stop offset="1" stop-color="#E2871A"/>
</linearGradient>
<linearGradient id="paint1_linear_1_2301" x1="14.5624" y1="55.6775" x2="40.4533" y2="55.6775" gradientUnits="userSpaceOnUse">
<stop offset="0.2485" stop-color="#AD6404"/>
<stop offset="0.4461" stop-color="#B56907"/>
<stop offset="0.7565" stop-color="#CC7811"/>
<stop offset="1" stop-color="#E2871A"/>
</linearGradient>
<linearGradient id="paint2_linear_1_2301" x1="0.0298142" y1="59.2313" x2="60.8142" y2="59.2313" gradientUnits="userSpaceOnUse">
<stop offset="0.2485" stop-color="#9F5C03"/>
<stop offset="0.7371" stop-color="#98540A"/>
<stop offset="1" stop-color="#934D0F"/>
</linearGradient>
<linearGradient id="paint3_linear_1_2301" x1="60.7873" y1="70.2723" x2="99.8399" y2="70.2723" gradientUnits="userSpaceOnUse">
<stop stop-color="#CE7B02"/>
<stop offset="0.6545" stop-color="#E69900"/>
</linearGradient>
<linearGradient id="paint4_linear_1_2301" x1="60.7873" y1="70.2723" x2="99.8399" y2="70.2723" gradientUnits="userSpaceOnUse">
<stop stop-color="#FFF654"/>
<stop offset="0.6545" stop-color="#FFD947"/>
</linearGradient>
<linearGradient id="paint5_linear_1_2301" x1="0" y1="64.0915" x2="60.8142" y2="64.0915" gradientUnits="userSpaceOnUse">
<stop stop-color="#FFD612"/>
<stop offset="0.6545" stop-color="#FFAA00"/>
</linearGradient>
<linearGradient id="paint6_linear_1_2301" x1="-0.000875781" y1="76.5006" x2="60.8156" y2="76.5006" gradientUnits="userSpaceOnUse">
<stop stop-color="#FFF654"/>
<stop offset="0.6545" stop-color="#FFD947"/>
</linearGradient>
<linearGradient id="paint7_linear_1_2301" x1="0.00355315" y1="53.6819" x2="60.8101" y2="53.6819" gradientUnits="userSpaceOnUse">
<stop stop-color="#FFF654"/>
<stop offset="0.6545" stop-color="#FFD947"/>
</linearGradient>
<linearGradient id="paint8_linear_1_2301" x1="-0.000134963" y1="67.4079" x2="60.8039" y2="67.4079" gradientUnits="userSpaceOnUse">
<stop stop-color="#FFF654"/>
<stop offset="0.6545" stop-color="#FFD947"/>
</linearGradient>
<linearGradient id="paint9_linear_1_2301" x1="0" y1="68.7648" x2="60.7873" y2="68.7648" gradientUnits="userSpaceOnUse">
<stop stop-color="#FFF654"/>
<stop offset="0.6545" stop-color="#FFD947"/>
</linearGradient>
<linearGradient id="paint10_linear_1_2301" x1="0" y1="64.0915" x2="60.8142" y2="64.0915" gradientUnits="userSpaceOnUse">
<stop stop-color="#F59D0F"/>
<stop offset="0.6545" stop-color="#F57F00"/>
</linearGradient>
<linearGradient id="paint11_linear_1_2301" x1="14.2854" y1="83.972" x2="17.1754" y2="83.972" gradientUnits="userSpaceOnUse">
<stop stop-color="#B5601A"/>
<stop offset="0.6545" stop-color="#E27E00"/>
</linearGradient>
<linearGradient id="paint12_linear_1_2301" x1="12.8136" y1="82.3073" x2="11.7027" y2="83.8442" gradientUnits="userSpaceOnUse">
<stop stop-color="#FFD612"/>
<stop offset="0.6545" stop-color="#FFAA00"/>
</linearGradient>
<linearGradient id="paint13_linear_1_2301" x1="8.54325" y1="75.6751" x2="14.2854" y2="75.6751" gradientUnits="userSpaceOnUse">
<stop stop-color="#F9AA0B"/>
<stop offset="0.6545" stop-color="#FFAA00"/>
</linearGradient>
<linearGradient id="paint14_linear_1_2301" x1="8.54414" y1="78.6041" x2="14.2854" y2="78.6041" gradientUnits="userSpaceOnUse">
<stop stop-color="#FFF654"/>
<stop offset="0.6545" stop-color="#FFD947"/>
</linearGradient>
<linearGradient id="paint15_linear_1_2301" x1="13.0941" y1="76.6436" x2="15.5586" y2="76.6436" gradientUnits="userSpaceOnUse">
<stop stop-color="#B5601A"/>
<stop offset="0.6545" stop-color="#E27E00"/>
</linearGradient>
<linearGradient id="paint16_linear_1_2301" x1="8.54325" y1="68.9558" x2="14.6359" y2="68.9558" gradientUnits="userSpaceOnUse">
<stop stop-color="#FFF654"/>
<stop offset="0.6545" stop-color="#FFD947"/>
</linearGradient>
<radialGradient id="paint17_radial_1_2301" cx="0" cy="0" r="1" gradientUnits="userSpaceOnUse" gradientTransform="translate(10.8625 72.413) scale(1.94732 1.93775)">
<stop stop-color="#FCFCE6"/>
<stop offset="0.2667" stop-color="#FFF654"/>
<stop offset="0.697" stop-color="#FFD947"/>
</radialGradient>
<radialGradient id="paint18_radial_1_2301" cx="0" cy="0" r="1" gradientUnits="userSpaceOnUse" gradientTransform="translate(3.29317 48.6793) scale(1.94645 1.93688)">
<stop stop-color="#FCFCE6"/>
<stop offset="0.2667" stop-color="#FFF654"/>
<stop offset="0.697" stop-color="#FFD947"/>
</radialGradient>
<radialGradient id="paint19_radial_1_2301" cx="0" cy="0" r="1" gradientUnits="userSpaceOnUse" gradientTransform="translate(17.2064 56.6946) scale(1.94703 1.93746)">
<stop stop-color="#FCFCE6"/>
<stop offset="0.2667" stop-color="#FFF654"/>
<stop offset="0.697" stop-color="#FFD947"/>
</radialGradient>
<radialGradient id="paint20_radial_1_2301" cx="0" cy="0" r="1" gradientUnits="userSpaceOnUse" gradientTransform="translate(43.3214 71.7318) scale(1.94761 1.93804)">
<stop stop-color="#FCFCE6"/>
<stop offset="0.2667" stop-color="#FFF654"/>
<stop offset="0.697" stop-color="#FFD947"/>
</radialGradient>
<radialGradient id="paint21_radial_1_2301" cx="0" cy="0" r="1" gradientUnits="userSpaceOnUse" gradientTransform="translate(57.2358 79.7479) scale(1.94819 1.93861)">
<stop stop-color="#FCFCE6"/>
<stop offset="0.2667" stop-color="#FFF654"/>
<stop offset="0.697" stop-color="#FFD947"/>
</radialGradient>
<radialGradient id="paint22_radial_1_2301" cx="0" cy="0" r="1" gradientUnits="userSpaceOnUse" gradientTransform="translate(64.8913 79.7485) scale(1.94877 1.93919)">
<stop stop-color="#FCFCE6"/>
<stop offset="0.2667" stop-color="#FFF654"/>
<stop offset="0.697" stop-color="#FFD947"/>
</radialGradient>
<radialGradient id="paint23_radial_1_2301" cx="0" cy="0" r="1" gradientUnits="userSpaceOnUse" gradientTransform="translate(81.4024 69.5341) scale(1.94703 1.93746)">
<stop stop-color="#FCFCE6"/>
<stop offset="0.2667" stop-color="#FFF654"/>
<stop offset="0.697" stop-color="#FFD947"/>
</radialGradient>
<radialGradient id="paint24_radial_1_2301" cx="0" cy="0" r="1" gradientUnits="userSpaceOnUse" gradientTransform="translate(96.4327 60.8472) scale(1.94791 1.93832)">
<stop stop-color="#FCFCE6"/>
<stop offset="0.2667" stop-color="#FFF654"/>
<stop offset="0.697" stop-color="#FFD947"/>
</radialGradient>
<linearGradient id="paint25_linear_1_2301" x1="23.227" y1="64.4331" x2="35.9917" y2="64.4331" gradientUnits="userSpaceOnUse">
<stop stop-color="#FFDD12"/>
<stop offset="0.6545" stop-color="#FFB000"/>
</linearGradient>
<linearGradient id="paint26_linear_1_2301" x1="23.3386" y1="61.2425" x2="37.2805" y2="61.2425" gradientUnits="userSpaceOnUse">
<stop stop-color="#F59D0F"/>
<stop offset="0.6545" stop-color="#F57F00"/>
</linearGradient>
<linearGradient id="paint27_linear_1_2301" x1="21.4999" y1="65.2549" x2="34.7262" y2="65.2549" gradientUnits="userSpaceOnUse">
<stop stop-color="#FFF654"/>
<stop offset="0.6545" stop-color="#FFD947"/>
</linearGradient>
<linearGradient id="paint28_linear_1_2301" x1="51.8638" y1="100.232" x2="56.4314" y2="100.232" gradientUnits="userSpaceOnUse">
<stop stop-color="#F9AA0B"/>
<stop offset="0.6545" stop-color="#FFAA00"/>
</linearGradient>
<linearGradient id="paint29_linear_1_2301" x1="51.863" y1="103.592" x2="56.4315" y2="103.592" gradientUnits="userSpaceOnUse">
<stop stop-color="#FFF654"/>
<stop offset="0.6545" stop-color="#FFD947"/>
</linearGradient>
<linearGradient id="paint30_linear_1_2301" x1="55.8589" y1="101.054" x2="57.706" y2="101.054" gradientUnits="userSpaceOnUse">
<stop stop-color="#B5601A"/>
<stop offset="0.6545" stop-color="#E27E00"/>
</linearGradient>
<linearGradient id="paint31_linear_1_2301" x1="51.8638" y1="93.6794" x2="57.2383" y2="93.6794" gradientUnits="userSpaceOnUse">
<stop stop-color="#FFF654"/>
<stop offset="0.6545" stop-color="#FFD947"/>
</linearGradient>
<radialGradient id="paint32_radial_1_2301" cx="0" cy="0" r="1" gradientUnits="userSpaceOnUse" gradientTransform="translate(53.7809 97.1323) scale(1.94732 1.93775)">
<stop stop-color="#FCFCE6"/>
<stop offset="0.2667" stop-color="#FFF654"/>
<stop offset="0.697" stop-color="#FFD947"/>
</radialGradient>
<linearGradient id="paint33_linear_1_2301" x1="56.4074" y1="108.194" x2="59.3046" y2="108.194" gradientUnits="userSpaceOnUse">
<stop stop-color="#B5601A"/>
<stop offset="0.6545" stop-color="#E27E00"/>
</linearGradient>
<linearGradient id="paint34_linear_1_2301" x1="54.9374" y1="106.533" x2="53.8282" y2="108.067" gradientUnits="userSpaceOnUse">
<stop stop-color="#FFD612"/>
<stop offset="0.6545" stop-color="#FFAA00"/>
</linearGradient>
<linearGradient id="paint35_linear_1_2301" x1="0.186685" y1="53.9137" x2="60.9751" y2="53.9137" gradientUnits="userSpaceOnUse">
<stop stop-color="#FFF212"/>
<stop offset="0.6545" stop-color="#FFCA00"/>
</linearGradient>
<linearGradient id="paint36_linear_1_2301" x1="0.186685" y1="40.0165" x2="60.98" y2="40.0165" gradientUnits="userSpaceOnUse">
<stop stop-color="#FFD612"/>
<stop offset="0.6545" stop-color="#FFAA00"/>
</linearGradient>
<linearGradient id="paint37_linear_1_2301" x1="73.8177" y1="53.5021" x2="86.9702" y2="66.7196" gradientUnits="userSpaceOnUse">
<stop stop-color="#C67602"/>
<stop offset="0.6545" stop-color="#DD9300"/>
</linearGradient>
<linearGradient id="paint38_linear_1_2301" x1="36.0136" y1="71.5616" x2="26.34" y2="25.826" gradientUnits="userSpaceOnUse">
<stop offset="0.2485" stop-color="#AD6404"/>
<stop offset="0.4461" stop-color="#B56907"/>
<stop offset="0.7565" stop-color="#CC7811"/>
<stop offset="1" stop-color="#E2871A"/>
</linearGradient>
<linearGradient id="paint39_linear_1_2301" x1="56.7641" y1="42.4651" x2="86.3654" y2="52.4524" gradientUnits="userSpaceOnUse">
<stop stop-color="#FFF654"/>
<stop offset="0.6545" stop-color="#FFD947"/>
</linearGradient>
<linearGradient id="paint40_linear_1_2301" x1="74.6757" y1="31.7316" x2="91.9993" y2="34.8014" gradientUnits="userSpaceOnUse">
<stop stop-color="#FFD612"/>
<stop offset="0.6545" stop-color="#FFAA00"/>
</linearGradient>
<linearGradient id="paint41_linear_1_2301" x1="65.8689" y1="46.4236" x2="95.1726" y2="56.3104" gradientUnits="userSpaceOnUse">
<stop stop-color="#C67602"/>
<stop offset="0.6545" stop-color="#DD9300"/>
</linearGradient>
<linearGradient id="paint42_linear_1_2301" x1="69.1424" y1="49.6125" x2="92.5786" y2="49.6125" gradientUnits="userSpaceOnUse">
<stop offset="0.2485" stop-color="#9F5C03"/>
<stop offset="0.7371" stop-color="#98540A"/>
<stop offset="1" stop-color="#934D0F"/>
</linearGradient>
<linearGradient id="paint43_linear_1_2301" x1="5.82345" y1="13.7259" x2="31.9156" y2="22.5291" gradientUnits="userSpaceOnUse">
<stop stop-color="#FFF654"/>
<stop offset="0.6545" stop-color="#FFD947"/>
</linearGradient>
<linearGradient id="paint44_linear_1_2301" x1="5.87813" y1="13.5635" x2="31.9718" y2="22.3673" gradientUnits="userSpaceOnUse">
<stop stop-color="#FFD612"/>
<stop offset="0.6545" stop-color="#FFAA00"/>
</linearGradient>
<linearGradient id="paint45_linear_1_2301" x1="30.6459" y1="27.8734" x2="56.7369" y2="36.6764" gradientUnits="userSpaceOnUse">
<stop stop-color="#FFF654"/>
<stop offset="0.6545" stop-color="#FFD947"/>
</linearGradient>
<linearGradient id="paint46_linear_1_2301" x1="48.8933" y1="17.0241" x2="62.8352" y2="17.0241" gradientUnits="userSpaceOnUse">
<stop stop-color="#FFD612"/>
<stop offset="0.6545" stop-color="#FFAA00"/>
</linearGradient>
<linearGradient id="paint47_linear_1_2301" x1="23.2793" y1="53.992" x2="36.0451" y2="53.992" gradientUnits="userSpaceOnUse">
<stop stop-color="#FFDD12"/>
<stop offset="0.6545" stop-color="#FFB000"/>
</linearGradient>
<linearGradient id="paint48_linear_1_2301" x1="23.3924" y1="50.8024" x2="37.3342" y2="50.8024" gradientUnits="userSpaceOnUse">
<stop stop-color="#F59D0F"/>
<stop offset="0.6545" stop-color="#F57F00"/>
</linearGradient>
<linearGradient id="paint49_linear_1_2301" x1="21.5539" y1="54.8155" x2="34.7831" y2="54.8155" gradientUnits="userSpaceOnUse">
<stop stop-color="#FFF654"/>
<stop offset="0.6545" stop-color="#FFD947"/>
</linearGradient>
<clipPath id="clip0_1_2301">
<rect width="100" height="111" fill="white"/>
</clipPath>
</defs>
</svg>
